G04*
G04 #@! TF.GenerationSoftware,Altium Limited,Altium Designer,20.1.7 (139)*
G04*
G04 Layer_Color=65535*
%FSLAX25Y25*%
%MOIN*%
G70*
G04*
G04 #@! TF.SameCoordinates,F1024F09-50C5-4513-BE08-2A4FEE95A773*
G04*
G04*
G04 #@! TF.FilePolarity,Positive*
G04*
G01*
G75*
%ADD10C,0.00394*%
%ADD11C,0.00787*%
%ADD12C,0.00984*%
%ADD13C,0.01575*%
%ADD14C,0.02362*%
%ADD15C,0.01000*%
%ADD16C,0.00800*%
G36*
X99712Y374670D02*
X99757Y374665D01*
X99810Y374661D01*
X99868Y374653D01*
X99929Y374641D01*
X100061Y374608D01*
X100130Y374587D01*
X100200Y374559D01*
X100270Y374530D01*
X100335Y374493D01*
X100401Y374452D01*
X100458Y374403D01*
X100462Y374399D01*
X100471Y374391D01*
X100487Y374374D01*
X100507Y374354D01*
X100528Y374325D01*
X100557Y374292D01*
X100585Y374255D01*
X100614Y374210D01*
X100643Y374157D01*
X100667Y374104D01*
X100696Y374042D01*
X100717Y373977D01*
X100737Y373903D01*
X100753Y373829D01*
X100762Y373747D01*
X100766Y373661D01*
Y373657D01*
Y373649D01*
Y373636D01*
Y373616D01*
X100762Y373595D01*
Y373567D01*
X100753Y373505D01*
X100745Y373431D01*
X100729Y373349D01*
X100704Y373267D01*
X100676Y373185D01*
Y373181D01*
X100672Y373177D01*
X100667Y373165D01*
X100659Y373148D01*
X100639Y373107D01*
X100610Y373054D01*
X100577Y372993D01*
X100532Y372927D01*
X100479Y372857D01*
X100421Y372788D01*
X100413Y372779D01*
X100405Y372767D01*
X100389Y372755D01*
X100372Y372738D01*
X100348Y372714D01*
X100323Y372689D01*
X100290Y372665D01*
X100257Y372632D01*
X100216Y372599D01*
X100171Y372562D01*
X100122Y372521D01*
X100073Y372480D01*
X100015Y372435D01*
X99950Y372390D01*
X99884Y372341D01*
X99880Y372337D01*
X99868Y372328D01*
X99852Y372316D01*
X99827Y372300D01*
X99798Y372279D01*
X99765Y372255D01*
X99692Y372197D01*
X99610Y372132D01*
X99532Y372066D01*
X99462Y372005D01*
X99429Y371976D01*
X99405Y371947D01*
X99401Y371943D01*
X99384Y371922D01*
X99368Y371898D01*
X99343Y371865D01*
X99323Y371828D01*
X99302Y371787D01*
X99286Y371746D01*
X99282Y371705D01*
X100774D01*
Y371098D01*
X98437D01*
Y371357D01*
Y371361D01*
Y371369D01*
Y371385D01*
Y371402D01*
X98441Y371426D01*
Y371455D01*
X98449Y371521D01*
X98462Y371599D01*
X98478Y371685D01*
X98503Y371771D01*
X98535Y371857D01*
Y371861D01*
X98540Y371869D01*
X98548Y371882D01*
X98556Y371898D01*
X98576Y371939D01*
X98609Y371996D01*
X98650Y372062D01*
X98695Y372136D01*
X98753Y372210D01*
X98814Y372283D01*
X98818Y372287D01*
X98822Y372291D01*
X98835Y372304D01*
X98847Y372320D01*
X98867Y372337D01*
X98888Y372361D01*
X98917Y372386D01*
X98949Y372414D01*
X98986Y372447D01*
X99027Y372480D01*
X99072Y372521D01*
X99122Y372562D01*
X99175Y372603D01*
X99232Y372648D01*
X99298Y372693D01*
X99364Y372743D01*
X99368Y372747D01*
X99380Y372755D01*
X99396Y372767D01*
X99421Y372783D01*
X99446Y372808D01*
X99478Y372833D01*
X99552Y372894D01*
X99630Y372964D01*
X99708Y373042D01*
X99782Y373120D01*
X99810Y373157D01*
X99839Y373194D01*
Y373198D01*
X99843Y373202D01*
X99860Y373226D01*
X99884Y373267D01*
X99909Y373321D01*
X99933Y373382D01*
X99958Y373452D01*
X99975Y373526D01*
X99979Y373608D01*
Y373612D01*
Y373628D01*
X99975Y373653D01*
X99970Y373681D01*
X99962Y373718D01*
X99950Y373759D01*
X99933Y373800D01*
X99913Y373845D01*
X99884Y373890D01*
X99852Y373932D01*
X99810Y373973D01*
X99757Y374009D01*
X99700Y374038D01*
X99630Y374063D01*
X99548Y374079D01*
X99458Y374083D01*
X99437D01*
X99413Y374079D01*
X99380D01*
X99339Y374071D01*
X99294Y374063D01*
X99241Y374055D01*
X99179Y374038D01*
X99118Y374018D01*
X99048Y373997D01*
X98978Y373964D01*
X98904Y373932D01*
X98826Y373890D01*
X98749Y373841D01*
X98671Y373788D01*
X98593Y373722D01*
Y374374D01*
X98597Y374378D01*
X98613Y374387D01*
X98638Y374403D01*
X98675Y374419D01*
X98716Y374444D01*
X98769Y374469D01*
X98826Y374497D01*
X98896Y374526D01*
X98966Y374551D01*
X99048Y374579D01*
X99134Y374604D01*
X99224Y374628D01*
X99318Y374645D01*
X99417Y374661D01*
X99519Y374670D01*
X99626Y374674D01*
X99675D01*
X99712Y374670D01*
D02*
G37*
G36*
X104532Y371028D02*
X104597D01*
X104680Y371020D01*
X104770Y371003D01*
X104876Y370979D01*
X104991Y370954D01*
X105106Y370913D01*
X105229Y370872D01*
X105352Y370815D01*
X105475Y370749D01*
X105598Y370675D01*
X105721Y370585D01*
X105827Y370479D01*
X105934Y370364D01*
X105942Y370356D01*
X105959Y370331D01*
X105983Y370298D01*
X106016Y370241D01*
X106057Y370175D01*
X106106Y370093D01*
X106156Y369995D01*
X106205Y369888D01*
X106254Y369765D01*
X106303Y369626D01*
X106352Y369478D01*
X106393Y369314D01*
X106426Y369142D01*
X106451Y368953D01*
X106467Y368757D01*
X106475Y368543D01*
Y368527D01*
Y368486D01*
Y368420D01*
X106467Y368338D01*
X106459Y368232D01*
X106442Y368101D01*
X106426Y367969D01*
X106402Y367822D01*
X106369Y367658D01*
X106319Y367494D01*
X106270Y367330D01*
X106213Y367158D01*
X106139Y366993D01*
X106057Y366829D01*
X105959Y366674D01*
X105852Y366526D01*
X105844Y366518D01*
X105827Y366493D01*
X105787Y366460D01*
X105737Y366411D01*
X105680Y366354D01*
X105598Y366288D01*
X105516Y366223D01*
X105418Y366157D01*
X105303Y366083D01*
X105180Y366018D01*
X105040Y365952D01*
X104901Y365895D01*
X104745Y365845D01*
X104573Y365813D01*
X104401Y365788D01*
X104212Y365780D01*
X104171D01*
X104122Y365788D01*
X104056D01*
X103982Y365805D01*
X103892Y365821D01*
X103794Y365837D01*
X103687Y365870D01*
X103581Y365911D01*
X103466Y365952D01*
X103343Y366009D01*
X103228Y366083D01*
X103113Y366165D01*
X103007Y366255D01*
X102908Y366370D01*
X102810Y366493D01*
X102794D01*
Y363591D01*
X101326D01*
Y370913D01*
X102794D01*
Y370142D01*
X102810D01*
X102818Y370150D01*
X102834Y370183D01*
X102867Y370224D01*
X102917Y370282D01*
X102974Y370347D01*
X103048Y370429D01*
X103130Y370503D01*
X103228Y370593D01*
X103343Y370675D01*
X103458Y370757D01*
X103597Y370831D01*
X103745Y370897D01*
X103901Y370954D01*
X104065Y370995D01*
X104253Y371028D01*
X104442Y371036D01*
X104483D01*
X104532Y371028D01*
D02*
G37*
G36*
X95807Y371020D02*
X95914Y371003D01*
X96037Y370971D01*
X96176Y370930D01*
X96324Y370864D01*
X96479Y370782D01*
X96635Y370675D01*
X96783Y370544D01*
X96922Y370380D01*
X96980Y370282D01*
X97045Y370183D01*
X97103Y370069D01*
X97152Y369954D01*
X97193Y369823D01*
X97226Y369683D01*
X97259Y369527D01*
X97283Y369372D01*
X97291Y369191D01*
X97299Y369011D01*
Y365895D01*
X95832D01*
Y368757D01*
Y368773D01*
Y368806D01*
X95824Y368863D01*
X95815Y368937D01*
X95807Y369027D01*
X95791Y369126D01*
X95758Y369224D01*
X95725Y369339D01*
X95684Y369445D01*
X95627Y369544D01*
X95561Y369642D01*
X95479Y369732D01*
X95381Y369806D01*
X95274Y369864D01*
X95143Y369896D01*
X94995Y369913D01*
X94979D01*
X94930Y369904D01*
X94856Y369896D01*
X94766Y369872D01*
X94659Y369831D01*
X94552Y369765D01*
X94446Y369675D01*
X94389Y369626D01*
X94339Y369560D01*
X94331Y369544D01*
X94298Y369495D01*
X94257Y369421D01*
X94216Y369322D01*
X94167Y369199D01*
X94126Y369052D01*
X94093Y368888D01*
X94085Y368707D01*
Y365895D01*
X92625D01*
Y368789D01*
Y368806D01*
Y368839D01*
X92617Y368896D01*
X92609Y368962D01*
X92601Y369052D01*
X92585Y369142D01*
X92552Y369249D01*
X92519Y369355D01*
X92478Y369454D01*
X92421Y369560D01*
X92355Y369650D01*
X92273Y369741D01*
X92175Y369806D01*
X92068Y369864D01*
X91937Y369896D01*
X91789Y369913D01*
X91773D01*
X91724Y369904D01*
X91650Y369896D01*
X91551Y369872D01*
X91453Y369831D01*
X91338Y369773D01*
X91232Y369691D01*
X91133Y369577D01*
X91125Y369560D01*
X91092Y369519D01*
X91059Y369445D01*
X91010Y369339D01*
X90969Y369216D01*
X90928Y369060D01*
X90895Y368888D01*
X90887Y368691D01*
Y365895D01*
X89419D01*
Y370913D01*
X90887D01*
Y370126D01*
X90904D01*
Y370134D01*
X90920Y370142D01*
X90928Y370167D01*
X90953Y370200D01*
X91010Y370273D01*
X91092Y370372D01*
X91190Y370479D01*
X91305Y370593D01*
X91445Y370700D01*
X91601Y370798D01*
X91609D01*
X91617Y370807D01*
X91641Y370823D01*
X91674Y370839D01*
X91764Y370872D01*
X91879Y370921D01*
X92019Y370962D01*
X92175Y371003D01*
X92339Y371028D01*
X92519Y371036D01*
X92568D01*
X92617Y371028D01*
X92691Y371020D01*
X92773Y371003D01*
X92871Y370987D01*
X92986Y370954D01*
X93101Y370921D01*
X93216Y370864D01*
X93339Y370807D01*
X93462Y370725D01*
X93577Y370634D01*
X93691Y370528D01*
X93798Y370396D01*
X93888Y370249D01*
X93970Y370085D01*
X93979Y370093D01*
X93995Y370126D01*
X94028Y370175D01*
X94077Y370233D01*
X94143Y370306D01*
X94216Y370388D01*
X94298Y370470D01*
X94397Y370561D01*
X94511Y370651D01*
X94643Y370733D01*
X94774Y370815D01*
X94930Y370888D01*
X95094Y370946D01*
X95266Y370995D01*
X95455Y371028D01*
X95660Y371036D01*
X95733D01*
X95807Y371020D01*
D02*
G37*
G36*
X87320Y371028D02*
X87402D01*
X87492Y371020D01*
X87591Y371003D01*
X87796Y370979D01*
X88009Y370938D01*
X88206Y370880D01*
X88296Y370839D01*
X88378Y370798D01*
Y369544D01*
X88370Y369552D01*
X88353Y369560D01*
X88329Y369577D01*
X88288Y369601D01*
X88247Y369626D01*
X88189Y369658D01*
X88050Y369732D01*
X87894Y369798D01*
X87705Y369855D01*
X87501Y369896D01*
X87394Y369913D01*
X87213D01*
X87173Y369904D01*
X87115D01*
X87050Y369888D01*
X86894Y369864D01*
X86721Y369814D01*
X86549Y369741D01*
X86459Y369691D01*
X86369Y369642D01*
X86287Y369577D01*
X86205Y369503D01*
X86197Y369495D01*
X86189Y369486D01*
X86164Y369462D01*
X86139Y369429D01*
X86106Y369388D01*
X86074Y369339D01*
X86041Y369273D01*
X86000Y369208D01*
X85959Y369134D01*
X85926Y369052D01*
X85861Y368855D01*
X85811Y368634D01*
X85803Y368511D01*
X85795Y368379D01*
Y368371D01*
Y368347D01*
Y368314D01*
X85803Y368265D01*
Y368207D01*
X85820Y368142D01*
X85844Y367986D01*
X85893Y367813D01*
X85959Y367625D01*
X86057Y367453D01*
X86115Y367371D01*
X86180Y367289D01*
X86189Y367281D01*
X86197Y367272D01*
X86221Y367256D01*
X86254Y367231D01*
X86295Y367198D01*
X86336Y367166D01*
X86459Y367092D01*
X86607Y367018D01*
X86787Y366961D01*
X87000Y366912D01*
X87107Y366903D01*
X87230Y366895D01*
X87287D01*
X87328Y366903D01*
X87386D01*
X87443Y366912D01*
X87517Y366928D01*
X87599Y366944D01*
X87771Y366985D01*
X87960Y367051D01*
X88165Y367141D01*
X88271Y367198D01*
X88378Y367264D01*
Y366075D01*
X88370D01*
X88353Y366059D01*
X88320Y366051D01*
X88279Y366026D01*
X88230Y366009D01*
X88165Y365985D01*
X88083Y365952D01*
X87993Y365928D01*
X87894Y365903D01*
X87779Y365870D01*
X87656Y365845D01*
X87525Y365829D01*
X87378Y365805D01*
X87222Y365796D01*
X87058Y365780D01*
X86828D01*
X86771Y365788D01*
X86689D01*
X86590Y365805D01*
X86475Y365813D01*
X86352Y365837D01*
X86213Y365870D01*
X86066Y365903D01*
X85918Y365952D01*
X85762Y366001D01*
X85606Y366067D01*
X85451Y366149D01*
X85303Y366239D01*
X85155Y366346D01*
X85016Y366469D01*
X85008Y366477D01*
X84983Y366501D01*
X84950Y366543D01*
X84909Y366592D01*
X84852Y366666D01*
X84794Y366747D01*
X84729Y366846D01*
X84663Y366961D01*
X84598Y367084D01*
X84532Y367215D01*
X84475Y367371D01*
X84417Y367527D01*
X84376Y367699D01*
X84343Y367879D01*
X84319Y368076D01*
X84311Y368281D01*
Y368297D01*
Y368338D01*
X84319Y368404D01*
Y368494D01*
X84335Y368601D01*
X84352Y368724D01*
X84376Y368863D01*
X84409Y369011D01*
X84450Y369175D01*
X84499Y369339D01*
X84557Y369503D01*
X84631Y369675D01*
X84721Y369839D01*
X84819Y370003D01*
X84942Y370150D01*
X85073Y370298D01*
X85081Y370306D01*
X85106Y370331D01*
X85155Y370364D01*
X85213Y370413D01*
X85286Y370470D01*
X85385Y370536D01*
X85492Y370602D01*
X85615Y370667D01*
X85754Y370733D01*
X85901Y370807D01*
X86074Y370864D01*
X86254Y370921D01*
X86451Y370971D01*
X86656Y371003D01*
X86877Y371028D01*
X87107Y371036D01*
X87246D01*
X87320Y371028D01*
D02*
G37*
G36*
X109878D02*
X109968Y371020D01*
X110075Y371003D01*
X110190Y370979D01*
X110313Y370954D01*
X110444Y370921D01*
X110583Y370880D01*
X110723Y370823D01*
X110862Y370765D01*
X110994Y370692D01*
X111125Y370602D01*
X111256Y370503D01*
X111371Y370388D01*
X111379Y370380D01*
X111395Y370356D01*
X111428Y370323D01*
X111469Y370273D01*
X111510Y370200D01*
X111559Y370126D01*
X111617Y370027D01*
X111674Y369921D01*
X111732Y369806D01*
X111789Y369667D01*
X111838Y369527D01*
X111879Y369363D01*
X111920Y369191D01*
X111953Y369011D01*
X111969Y368814D01*
X111978Y368609D01*
Y367986D01*
X108673D01*
Y367969D01*
X108681Y367936D01*
X108689Y367879D01*
X108706Y367805D01*
X108730Y367715D01*
X108763Y367617D01*
X108812Y367510D01*
X108878Y367404D01*
X108952Y367297D01*
X109050Y367190D01*
X109165Y367092D01*
X109296Y367002D01*
X109452Y366928D01*
X109632Y366870D01*
X109837Y366838D01*
X110075Y366821D01*
X110157D01*
X110214Y366829D01*
X110288Y366838D01*
X110370Y366846D01*
X110469Y366854D01*
X110575Y366870D01*
X110805Y366920D01*
X111051Y366993D01*
X111174Y367043D01*
X111297Y367100D01*
X111420Y367158D01*
X111543Y367231D01*
Y366157D01*
X111535D01*
X111510Y366141D01*
X111469Y366124D01*
X111420Y366100D01*
X111346Y366067D01*
X111264Y366034D01*
X111174Y366001D01*
X111059Y365968D01*
X110936Y365936D01*
X110805Y365903D01*
X110657Y365870D01*
X110493Y365837D01*
X110321Y365813D01*
X110141Y365796D01*
X109952Y365788D01*
X109747Y365780D01*
X109698D01*
X109632Y365788D01*
X109550D01*
X109452Y365805D01*
X109337Y365813D01*
X109206Y365837D01*
X109066Y365862D01*
X108919Y365903D01*
X108763Y365944D01*
X108607Y366001D01*
X108451Y366067D01*
X108304Y366141D01*
X108148Y366231D01*
X108009Y366337D01*
X107878Y366452D01*
X107869Y366460D01*
X107853Y366485D01*
X107820Y366526D01*
X107771Y366575D01*
X107722Y366649D01*
X107664Y366731D01*
X107607Y366829D01*
X107550Y366936D01*
X107484Y367067D01*
X107427Y367207D01*
X107369Y367362D01*
X107320Y367527D01*
X107279Y367707D01*
X107246Y367904D01*
X107221Y368109D01*
X107213Y368330D01*
Y368347D01*
Y368388D01*
X107221Y368445D01*
Y368527D01*
X107238Y368634D01*
X107254Y368748D01*
X107271Y368880D01*
X107304Y369027D01*
X107336Y369175D01*
X107386Y369339D01*
X107443Y369503D01*
X107509Y369658D01*
X107590Y369823D01*
X107689Y369987D01*
X107796Y370134D01*
X107919Y370282D01*
X107927Y370290D01*
X107951Y370315D01*
X107992Y370356D01*
X108050Y370396D01*
X108115Y370454D01*
X108197Y370519D01*
X108296Y370585D01*
X108411Y370659D01*
X108534Y370733D01*
X108665Y370798D01*
X108812Y370864D01*
X108976Y370921D01*
X109140Y370971D01*
X109321Y371003D01*
X109509Y371028D01*
X109706Y371036D01*
X109813D01*
X109878Y371028D01*
D02*
G37*
G36*
X224079Y30258D02*
X223318D01*
Y30506D01*
X224079D01*
Y30258D01*
D02*
G37*
G36*
X233714Y30611D02*
X234266D01*
Y30378D01*
X233714D01*
Y29831D01*
X233483D01*
Y30378D01*
X232936D01*
Y30611D01*
X233483D01*
Y31158D01*
X233714D01*
Y30611D01*
D02*
G37*
G36*
X311428Y235378D02*
X311179D01*
Y236139D01*
X311428D01*
Y235378D01*
D02*
G37*
G36*
X301277Y235843D02*
X301829D01*
Y235610D01*
X301277D01*
Y235063D01*
X301046D01*
Y235610D01*
X300499D01*
Y235843D01*
X301046D01*
Y236391D01*
X301277D01*
Y235843D01*
D02*
G37*
G36*
X311526Y226673D02*
X311278D01*
Y227434D01*
X311526D01*
Y226673D01*
D02*
G37*
G36*
X301376Y227139D02*
X301927D01*
Y226905D01*
X301376D01*
Y226358D01*
X301145D01*
Y226905D01*
X300597D01*
Y227139D01*
X301145D01*
Y227686D01*
X301376D01*
Y227139D01*
D02*
G37*
G36*
X188312Y136053D02*
X187551D01*
Y136301D01*
X188312D01*
Y136053D01*
D02*
G37*
G36*
X188068Y147092D02*
X188615D01*
Y146861D01*
X188068D01*
Y146309D01*
X187835D01*
Y146861D01*
X187287D01*
Y147092D01*
X187835D01*
Y147639D01*
X188068D01*
Y147092D01*
D02*
G37*
G36*
X167319Y30258D02*
X166558D01*
Y30506D01*
X167319D01*
Y30258D01*
D02*
G37*
G36*
X156864Y30611D02*
X157415D01*
Y30378D01*
X156864D01*
Y29831D01*
X156633D01*
Y30378D01*
X156086D01*
Y30611D01*
X156633D01*
Y31158D01*
X156864D01*
Y30611D01*
D02*
G37*
G36*
X107718Y54222D02*
X108265D01*
Y53991D01*
X107718D01*
Y53439D01*
X107484D01*
Y53991D01*
X106937D01*
Y54222D01*
X107484D01*
Y54769D01*
X107718D01*
Y54222D01*
D02*
G37*
G36*
X108013Y43840D02*
X107252D01*
Y44089D01*
X108013D01*
Y43840D01*
D02*
G37*
G36*
X66454Y33433D02*
X66207D01*
Y35005D01*
X66203Y35001D01*
X66192Y34990D01*
X66173Y34974D01*
X66144Y34953D01*
X66111Y34926D01*
X66070Y34898D01*
X66024Y34868D01*
X65972Y34835D01*
X65970D01*
X65965Y34830D01*
X65959Y34826D01*
X65948Y34822D01*
X65935Y34813D01*
X65920Y34806D01*
X65885Y34787D01*
X65846Y34767D01*
X65802Y34745D01*
X65756Y34726D01*
X65713Y34708D01*
Y34946D01*
X65715Y34948D01*
X65721Y34950D01*
X65732Y34957D01*
X65747Y34963D01*
X65765Y34972D01*
X65787Y34985D01*
X65811Y34998D01*
X65835Y35011D01*
X65891Y35046D01*
X65952Y35088D01*
X66016Y35131D01*
X66075Y35181D01*
X66077Y35184D01*
X66081Y35188D01*
X66090Y35195D01*
X66101Y35205D01*
X66111Y35219D01*
X66127Y35232D01*
X66159Y35269D01*
X66197Y35308D01*
X66234Y35354D01*
X66266Y35402D01*
X66295Y35452D01*
X66454D01*
Y33433D01*
D02*
G37*
G36*
X59947Y35501D02*
X59971Y35499D01*
X59999Y35494D01*
X60032Y35490D01*
X60065Y35483D01*
X60101Y35475D01*
X60139Y35464D01*
X60178Y35451D01*
X60215Y35435D01*
X60254Y35416D01*
X60291Y35394D01*
X60326Y35370D01*
X60359Y35342D01*
X60361Y35339D01*
X60365Y35335D01*
X60374Y35324D01*
X60385Y35313D01*
X60398Y35298D01*
X60413Y35278D01*
X60429Y35257D01*
X60444Y35230D01*
X60459Y35204D01*
X60474Y35174D01*
X60490Y35141D01*
X60503Y35106D01*
X60514Y35067D01*
X60522Y35028D01*
X60527Y34986D01*
X60529Y34943D01*
Y34940D01*
Y34938D01*
Y34932D01*
Y34923D01*
X60527Y34899D01*
X60522Y34868D01*
X60516Y34832D01*
X60507Y34792D01*
X60496Y34749D01*
X60479Y34705D01*
Y34703D01*
X60476Y34701D01*
X60474Y34694D01*
X60470Y34685D01*
X60457Y34661D01*
X60439Y34631D01*
X60416Y34594D01*
X60387Y34552D01*
X60354Y34509D01*
X60313Y34461D01*
X60311Y34459D01*
X60309Y34454D01*
X60300Y34448D01*
X60291Y34437D01*
X60278Y34424D01*
X60263Y34409D01*
X60245Y34389D01*
X60224Y34369D01*
X60198Y34345D01*
X60169Y34319D01*
X60139Y34289D01*
X60104Y34258D01*
X60067Y34223D01*
X60025Y34188D01*
X59979Y34149D01*
X59931Y34108D01*
X59929Y34106D01*
X59923Y34099D01*
X59910Y34090D01*
X59897Y34077D01*
X59877Y34062D01*
X59857Y34045D01*
X59812Y34005D01*
X59764Y33964D01*
X59718Y33920D01*
X59696Y33901D01*
X59676Y33883D01*
X59659Y33866D01*
X59646Y33853D01*
X59644Y33850D01*
X59635Y33842D01*
X59624Y33829D01*
X59609Y33811D01*
X59591Y33792D01*
X59574Y33770D01*
X59539Y33722D01*
X60531D01*
Y33484D01*
X59199D01*
Y33489D01*
Y33500D01*
Y33517D01*
X59201Y33539D01*
X59203Y33565D01*
X59210Y33593D01*
X59216Y33624D01*
X59227Y33654D01*
Y33656D01*
X59229Y33661D01*
X59232Y33667D01*
X59236Y33678D01*
X59243Y33689D01*
X59249Y33704D01*
X59267Y33739D01*
X59288Y33781D01*
X59317Y33827D01*
X59350Y33874D01*
X59389Y33922D01*
X59391Y33925D01*
X59393Y33929D01*
X59400Y33935D01*
X59411Y33946D01*
X59421Y33957D01*
X59437Y33973D01*
X59452Y33990D01*
X59471Y34010D01*
X59493Y34031D01*
X59517Y34053D01*
X59544Y34079D01*
X59574Y34106D01*
X59605Y34134D01*
X59639Y34162D01*
X59674Y34193D01*
X59714Y34225D01*
X59718Y34228D01*
X59729Y34238D01*
X59744Y34252D01*
X59766Y34271D01*
X59792Y34293D01*
X59822Y34319D01*
X59857Y34348D01*
X59892Y34380D01*
X59966Y34448D01*
X60038Y34520D01*
X60073Y34555D01*
X60106Y34589D01*
X60134Y34622D01*
X60158Y34653D01*
X60160Y34655D01*
X60163Y34659D01*
X60169Y34668D01*
X60176Y34679D01*
X60187Y34694D01*
X60195Y34709D01*
X60217Y34749D01*
X60239Y34794D01*
X60259Y34845D01*
X60272Y34897D01*
X60274Y34923D01*
X60276Y34949D01*
Y34951D01*
Y34956D01*
Y34964D01*
X60274Y34973D01*
Y34986D01*
X60269Y35002D01*
X60263Y35034D01*
X60250Y35074D01*
X60230Y35115D01*
X60219Y35137D01*
X60204Y35156D01*
X60189Y35176D01*
X60169Y35195D01*
X60167Y35198D01*
X60165Y35200D01*
X60158Y35204D01*
X60150Y35211D01*
X60139Y35219D01*
X60125Y35228D01*
X60095Y35248D01*
X60054Y35265D01*
X60008Y35283D01*
X59953Y35294D01*
X59923Y35298D01*
X59875D01*
X59862Y35296D01*
X59847D01*
X59829Y35291D01*
X59790Y35285D01*
X59744Y35272D01*
X59696Y35252D01*
X59672Y35239D01*
X59648Y35226D01*
X59626Y35209D01*
X59605Y35189D01*
X59602Y35187D01*
X59600Y35185D01*
X59596Y35178D01*
X59587Y35169D01*
X59580Y35159D01*
X59572Y35145D01*
X59561Y35130D01*
X59552Y35113D01*
X59541Y35093D01*
X59533Y35071D01*
X59515Y35019D01*
X59502Y34962D01*
X59500Y34930D01*
X59498Y34895D01*
X59245Y34921D01*
Y34925D01*
X59247Y34934D01*
X59249Y34947D01*
X59251Y34967D01*
X59256Y34991D01*
X59262Y35019D01*
X59269Y35050D01*
X59280Y35082D01*
X59291Y35115D01*
X59304Y35152D01*
X59321Y35187D01*
X59338Y35222D01*
X59360Y35259D01*
X59384Y35291D01*
X59411Y35324D01*
X59441Y35353D01*
X59443Y35355D01*
X59450Y35359D01*
X59459Y35366D01*
X59471Y35377D01*
X59489Y35387D01*
X59511Y35401D01*
X59535Y35414D01*
X59563Y35429D01*
X59594Y35442D01*
X59628Y35455D01*
X59666Y35468D01*
X59707Y35479D01*
X59751Y35490D01*
X59796Y35496D01*
X59847Y35501D01*
X59899Y35503D01*
X59927D01*
X59947Y35501D01*
D02*
G37*
G36*
X49525Y33484D02*
X49278D01*
Y35056D01*
X49274Y35052D01*
X49263Y35041D01*
X49243Y35026D01*
X49215Y35004D01*
X49182Y34978D01*
X49141Y34949D01*
X49095Y34919D01*
X49043Y34886D01*
X49041D01*
X49036Y34882D01*
X49030Y34877D01*
X49019Y34873D01*
X49006Y34864D01*
X48991Y34858D01*
X48956Y34838D01*
X48916Y34818D01*
X48873Y34797D01*
X48827Y34777D01*
X48783Y34760D01*
Y34997D01*
X48786Y34999D01*
X48792Y35002D01*
X48803Y35008D01*
X48818Y35015D01*
X48836Y35023D01*
X48858Y35036D01*
X48882Y35050D01*
X48906Y35063D01*
X48962Y35097D01*
X49023Y35139D01*
X49086Y35182D01*
X49145Y35233D01*
X49147Y35235D01*
X49152Y35239D01*
X49161Y35246D01*
X49172Y35257D01*
X49182Y35270D01*
X49198Y35283D01*
X49230Y35320D01*
X49267Y35359D01*
X49305Y35405D01*
X49337Y35453D01*
X49365Y35503D01*
X49525D01*
Y33484D01*
D02*
G37*
%LPC*%
G36*
X103901Y369913D02*
X103851D01*
X103819Y369904D01*
X103728Y369896D01*
X103613Y369864D01*
X103482Y369823D01*
X103343Y369749D01*
X103212Y369658D01*
X103146Y369593D01*
X103080Y369527D01*
Y369519D01*
X103064Y369511D01*
X103056Y369486D01*
X103031Y369462D01*
X102982Y369380D01*
X102925Y369265D01*
X102867Y369126D01*
X102818Y368953D01*
X102785Y368757D01*
X102769Y368543D01*
Y368109D01*
Y368101D01*
Y368084D01*
Y368059D01*
X102777Y368019D01*
Y367977D01*
X102785Y367920D01*
X102802Y367797D01*
X102843Y367658D01*
X102892Y367510D01*
X102957Y367371D01*
X103056Y367231D01*
X103072Y367215D01*
X103113Y367182D01*
X103171Y367125D01*
X103261Y367067D01*
X103367Y367002D01*
X103499Y366944D01*
X103646Y366912D01*
X103810Y366895D01*
X103859D01*
X103901Y366903D01*
X103950Y366912D01*
X103999Y366920D01*
X104122Y366952D01*
X104261Y367002D01*
X104401Y367075D01*
X104474Y367125D01*
X104540Y367182D01*
X104606Y367248D01*
X104663Y367321D01*
Y367330D01*
X104680Y367338D01*
X104696Y367362D01*
X104712Y367404D01*
X104737Y367444D01*
X104762Y367494D01*
X104786Y367559D01*
X104819Y367633D01*
X104852Y367715D01*
X104876Y367805D01*
X104901Y367904D01*
X104926Y368010D01*
X104950Y368125D01*
X104958Y368248D01*
X104975Y368388D01*
Y368527D01*
Y368543D01*
Y368584D01*
X104966Y368658D01*
X104958Y368740D01*
X104942Y368847D01*
X104917Y368970D01*
X104885Y369093D01*
X104843Y369224D01*
X104786Y369347D01*
X104712Y369478D01*
X104622Y369593D01*
X104524Y369700D01*
X104401Y369781D01*
X104253Y369855D01*
X104089Y369896D01*
X103901Y369913D01*
D02*
G37*
G36*
X109698Y370027D02*
X109681D01*
X109632Y370019D01*
X109567Y370011D01*
X109476Y369987D01*
X109370Y369954D01*
X109255Y369896D01*
X109140Y369823D01*
X109026Y369716D01*
X109017Y369700D01*
X108976Y369658D01*
X108927Y369593D01*
X108870Y369503D01*
X108812Y369388D01*
X108755Y369249D01*
X108706Y369085D01*
X108665Y368904D01*
X110608D01*
Y368920D01*
Y368953D01*
X110600Y369011D01*
X110592Y369076D01*
X110583Y369166D01*
X110559Y369257D01*
X110534Y369363D01*
X110493Y369470D01*
X110444Y369568D01*
X110387Y369675D01*
X110313Y369765D01*
X110223Y369855D01*
X110116Y369921D01*
X110001Y369978D01*
X109862Y370011D01*
X109698Y370027D01*
D02*
G37*
%LPD*%
D10*
X223157Y37300D02*
G03*
X223157Y37300I-197J0D01*
G01*
X109724Y43629D02*
G03*
X109724Y43629I-197J0D01*
G01*
X181437Y136074D02*
G03*
X181437Y136074I-197J0D01*
G01*
X312221Y220157D02*
G03*
X312221Y220157I-197J0D01*
G01*
Y228397D02*
G03*
X312221Y228397I-197J0D01*
G01*
X312434Y237543D02*
G03*
X312434Y237543I-197J0D01*
G01*
X167434Y31889D02*
G03*
X167434Y31889I-197J0D01*
G01*
X46098Y64055D02*
Y80905D01*
X31925Y62441D02*
X44701D01*
X31925D02*
Y80905D01*
X46098D01*
X223280Y198758D02*
X232886D01*
X223280D02*
Y210411D01*
X233083D01*
X233791D01*
Y200152D02*
Y210411D01*
X243996Y59047D02*
X259429D01*
X242146Y60622D02*
Y73181D01*
X259429Y59047D02*
Y73181D01*
X242146D02*
X259429D01*
D11*
X204526Y255114D02*
G03*
X204526Y255114I-85J0D01*
G01*
X186676D02*
G03*
X186676Y255114I-85J0D01*
G01*
X150648D02*
G03*
X150648Y255114I-85J0D01*
G01*
X168806D02*
G03*
X168806Y255114I-85J0D01*
G01*
X99695Y102598D02*
G03*
X99695Y102598I-85J0D01*
G01*
Y120114D02*
G03*
X99695Y120114I-85J0D01*
G01*
X65953Y133852D02*
G03*
X65953Y133852I-85J0D01*
G01*
X48735Y133854D02*
G03*
X48735Y133854I-85J0D01*
G01*
X262502Y138461D02*
G03*
X262502Y138461I-85J0D01*
G01*
X31498Y133854D02*
G03*
X31498Y133854I-85J0D01*
G01*
X299274Y138390D02*
G03*
X299274Y138390I-85J0D01*
G01*
X228421Y36071D02*
X228815D01*
X228421Y33118D02*
X228815D01*
X294531Y173846D02*
Y193846D01*
Y173846D02*
X314531D01*
X294531Y193846D02*
X314531D01*
Y173846D02*
Y193846D01*
X229165Y101058D02*
Y101845D01*
X226409Y101058D02*
Y101845D01*
X210382Y110569D02*
X222193D01*
X210382Y119230D02*
X222193D01*
X210382Y110569D02*
Y119230D01*
X222193Y110569D02*
Y119230D01*
X279429Y193846D02*
X289429D01*
Y173846D02*
Y193846D01*
X279429Y173846D02*
X289429D01*
X279429D02*
Y193846D01*
X229673Y187417D02*
X244240D01*
Y161827D02*
Y187417D01*
X229673Y161827D02*
X244240D01*
X229673D02*
Y187417D01*
X222488Y188402D02*
X228295D01*
X304945Y355327D02*
X308193D01*
X304945D02*
Y359264D01*
X313902Y355327D02*
X317150D01*
Y359264D01*
X303236Y309323D02*
Y313260D01*
X306484D01*
X315441Y309323D02*
Y313260D01*
X312193D02*
X315441D01*
X47593Y84295D02*
X49955D01*
X47593D02*
Y86658D01*
X82238Y84295D02*
X84600D01*
Y86658D01*
Y118941D02*
Y121303D01*
X82238D02*
X84600D01*
X47593D02*
X49955D01*
X47593Y118941D02*
Y121303D01*
X166524Y52850D02*
X185028D01*
X166524Y74504D02*
X185028D01*
Y52850D02*
Y74504D01*
X166524Y52850D02*
Y74504D01*
X192157Y78473D02*
X212157D01*
Y88472D01*
X192157D02*
X212157D01*
X192157Y78473D02*
Y88472D01*
X113709Y49090D02*
Y49484D01*
X110756Y49090D02*
Y49484D01*
X24575Y233547D02*
X44575D01*
X24575Y213547D02*
Y233547D01*
X44575Y213547D02*
Y233547D01*
X24575Y213547D02*
X44575D01*
X24657Y198114D02*
X44657D01*
Y208114D01*
X24657D02*
X44657D01*
X24657Y198114D02*
Y208114D01*
X185421Y141535D02*
Y141929D01*
X182468Y141535D02*
Y141929D01*
X306169Y224339D02*
X306563D01*
X306169Y221386D02*
X306563D01*
X306169Y232579D02*
X306563D01*
X306169Y229626D02*
X306563D01*
X306382Y241724D02*
X306776D01*
X306382Y238772D02*
X306776D01*
X127374Y164177D02*
X202177D01*
X127374Y238980D02*
X202177D01*
Y164177D02*
Y238980D01*
X127374Y164177D02*
Y238980D01*
X285779Y19417D02*
Y25716D01*
X281449D02*
X285779D01*
X256646D02*
X260976D01*
X256646Y19417D02*
Y25716D01*
X44953Y345748D02*
X48890D01*
X44953Y333937D02*
X48890D01*
X44953D02*
Y345748D01*
X48890Y333937D02*
Y345748D01*
X57488Y333358D02*
Y334146D01*
X60244Y333358D02*
Y334146D01*
X198705Y94614D02*
Y114614D01*
X178705D02*
X198705D01*
X178705Y94614D02*
X198705D01*
X178705D02*
Y114614D01*
X32307Y24703D02*
X40555D01*
X81106D02*
X82898D01*
X32307Y19407D02*
Y24703D01*
X82898Y19407D02*
Y24703D01*
X54728Y25687D02*
X66854D01*
X161382Y33118D02*
X161776D01*
X161382Y36071D02*
X161776D01*
X288646Y87189D02*
Y120654D01*
X255181Y87189D02*
Y120654D01*
X288646D01*
X255181Y87189D02*
X288646D01*
X289024Y72610D02*
X289811D01*
X289024Y69854D02*
X289811D01*
X48961Y358803D02*
X50142D01*
X48961Y355654D02*
X50142D01*
X27918Y287236D02*
Y302591D01*
X54296Y287236D02*
Y302591D01*
X27918Y287236D02*
X54296D01*
X27918Y302591D02*
X54296D01*
X25102Y357547D02*
Y377547D01*
Y357547D02*
X35102D01*
Y377547D01*
X25102D02*
X35102D01*
X34517Y322189D02*
X35698D01*
X34517Y325339D02*
X35698D01*
X49196Y265041D02*
X50377D01*
X49196Y268191D02*
X50377D01*
X26843Y340154D02*
Y341335D01*
X29992Y340154D02*
Y341335D01*
D12*
X46807Y62441D02*
G03*
X46807Y62441I-492J0D01*
G01*
X209791Y106238D02*
G03*
X209791Y106238I-492J0D01*
G01*
X318724Y362709D02*
G03*
X318724Y362709I-492J0D01*
G01*
X302646Y305878D02*
G03*
X302646Y305878I-492J0D01*
G01*
X45526Y120713D02*
G03*
X45526Y120713I-492J0D01*
G01*
X162193Y74524D02*
G03*
X162193Y74524I-492J0D01*
G01*
X123535Y238685D02*
G03*
X123535Y238685I-492J0D01*
G01*
X42000Y346929D02*
G03*
X42000Y346929I-492J0D01*
G01*
X234913Y198522D02*
G03*
X234913Y198522I-492J0D01*
G01*
X242756Y58851D02*
G03*
X242756Y58851I-492J0D01*
G01*
X254886Y82071D02*
G03*
X254886Y82071I-492J0D01*
G01*
X54592Y307217D02*
G03*
X54592Y307217I-492J0D01*
G01*
D13*
X214319Y113718D02*
G03*
X214319Y113718I-787J0D01*
G01*
D14*
X171642Y70567D02*
G03*
X171642Y70567I-1181J0D01*
G01*
X132492Y235043D02*
G03*
X132492Y235043I-1181J0D01*
G01*
X260299Y91126D02*
G03*
X260299Y91126I-1181J0D01*
G01*
D15*
X59575Y42012D02*
X61724Y39862D01*
X50653Y42012D02*
X59575D01*
X84748Y364079D02*
X99579D01*
X104347D02*
X111913D01*
X101532Y372716D02*
X111819D01*
X84551Y372716D02*
X97559D01*
X317387Y183570D02*
X316600Y182783D01*
Y181208D01*
X317387Y180421D01*
X320536D01*
X321323Y181208D01*
Y182783D01*
X320536Y183570D01*
X318961D01*
Y181996D01*
X321323Y185144D02*
X316600D01*
X321323Y188293D01*
X316600D01*
Y189867D02*
X321323D01*
Y192228D01*
X320536Y193016D01*
X317387D01*
X316600Y192228D01*
Y189867D01*
X49617Y218341D02*
X48830Y219128D01*
X47256D01*
X46468Y218341D01*
Y215193D01*
X47256Y214405D01*
X48830D01*
X49617Y215193D01*
Y216767D01*
X48043D01*
X51191Y214405D02*
Y219128D01*
X54340Y214405D01*
Y219128D01*
X55914D02*
Y214405D01*
X58276D01*
X59063Y215193D01*
Y218341D01*
X58276Y219128D01*
X55914D01*
X235928Y147381D02*
X235141Y148168D01*
X233567D01*
X232780Y147381D01*
Y144232D01*
X233567Y143445D01*
X235141D01*
X235928Y144232D01*
Y145806D01*
X234354D01*
X237502Y143445D02*
Y148168D01*
X240651Y143445D01*
Y148168D01*
X242225D02*
Y143445D01*
X244587D01*
X245374Y144232D01*
Y147381D01*
X244587Y148168D01*
X242225D01*
X44634Y61205D02*
Y62779D01*
Y61992D01*
X39911D01*
X40698Y61205D01*
X156318Y102597D02*
X153169D01*
Y100235D01*
X154744D01*
X153169D01*
Y97874D01*
X158679Y101023D02*
X160254D01*
X161041Y100235D01*
Y97874D01*
X158679D01*
X157892Y98661D01*
X158679Y99448D01*
X161041D01*
X162615Y97874D02*
X164977D01*
X165764Y98661D01*
X164977Y99448D01*
X163402D01*
X162615Y100235D01*
X163402Y101023D01*
X165764D01*
X168125Y101810D02*
Y101023D01*
X167338D01*
X168912D01*
X168125D01*
Y98661D01*
X168912Y97874D01*
X153736Y106535D02*
X155310D01*
X154523D01*
Y111258D01*
X153736Y110471D01*
X157672Y108897D02*
X160821D01*
X162395Y106535D02*
X164756Y108897D01*
X162395Y111258D01*
X169479Y106535D02*
X166331D01*
X169479Y109684D01*
Y110471D01*
X168692Y111258D01*
X167118D01*
X166331Y110471D01*
X175508Y32378D02*
Y37101D01*
X177869D01*
X178656Y36314D01*
Y34739D01*
X177869Y33952D01*
X175508D01*
X180231Y37101D02*
Y32378D01*
X181805Y33952D01*
X183379Y32378D01*
Y37101D01*
X184954Y32378D02*
Y37101D01*
X187315D01*
X188102Y36314D01*
Y34739D01*
X187315Y33952D01*
X184954D01*
X186528D02*
X188102Y32378D01*
X189676Y31591D02*
X192825D01*
X196761Y37101D02*
X195186D01*
X194399Y36314D01*
Y33165D01*
X195186Y32378D01*
X196761D01*
X197548Y33165D01*
Y36314D01*
X196761Y37101D01*
X199122Y32378D02*
Y37101D01*
X202271Y32378D01*
Y37101D01*
X210067Y21910D02*
Y25845D01*
X212035D01*
X212691Y25189D01*
Y23877D01*
X212035Y23221D01*
X210067D01*
X211379D02*
X212691Y21910D01*
X215970D02*
X214659D01*
X214003Y22565D01*
Y23877D01*
X214659Y24533D01*
X215970D01*
X216627Y23877D01*
Y23221D01*
X214003D01*
X217938Y24533D02*
X219250Y21910D01*
X220562Y24533D01*
X225810Y21910D02*
X227122D01*
X226466D01*
Y25845D01*
X225810Y25189D01*
X229090Y21910D02*
Y22565D01*
X229746D01*
Y21910D01*
X229090D01*
X232369D02*
X233681D01*
X233025D01*
Y25845D01*
X232369Y25189D01*
X120752Y17199D02*
Y13264D01*
X122720D01*
X123376Y13920D01*
Y16544D01*
X122720Y17199D01*
X120752D01*
X126656Y13264D02*
X125344D01*
X124688Y13920D01*
Y15232D01*
X125344Y15888D01*
X126656D01*
X127312Y15232D01*
Y14576D01*
X124688D01*
X128623Y13264D02*
X130591D01*
X131247Y13920D01*
X130591Y14576D01*
X129279D01*
X128623Y15232D01*
X129279Y15888D01*
X131247D01*
X132559Y13264D02*
X133871D01*
X133215D01*
Y15888D01*
X132559D01*
X137151Y11952D02*
X137807D01*
X138463Y12608D01*
Y15888D01*
X136495D01*
X135839Y15232D01*
Y13920D01*
X136495Y13264D01*
X138463D01*
X139775D02*
Y15888D01*
X141743D01*
X142399Y15232D01*
Y13264D01*
X145678D02*
X144366D01*
X143710Y13920D01*
Y15232D01*
X144366Y15888D01*
X145678D01*
X146334Y15232D01*
Y14576D01*
X143710D01*
X150270Y17199D02*
Y13264D01*
X148302D01*
X147646Y13920D01*
Y15232D01*
X148302Y15888D01*
X150270D01*
X155518Y17199D02*
Y13264D01*
X157485D01*
X158142Y13920D01*
Y14576D01*
Y15232D01*
X157485Y15888D01*
X155518D01*
X159453D02*
Y13920D01*
X160109Y13264D01*
X162077D01*
Y12608D01*
X161421Y11952D01*
X160765D01*
X162077Y13264D02*
Y15888D01*
X169949Y16544D02*
X169293Y17199D01*
X167981D01*
X167325Y16544D01*
Y13920D01*
X167981Y13264D01*
X169293D01*
X169949Y13920D01*
X171261Y13264D02*
Y17199D01*
X172573Y15888D01*
X173884Y17199D01*
Y13264D01*
X175196D02*
Y17199D01*
X176508Y15888D01*
X177820Y17199D01*
Y13264D01*
X179132D02*
Y17199D01*
X181100D01*
X181756Y16544D01*
Y15232D01*
X181100Y14576D01*
X179132D01*
X185692Y17199D02*
X183068D01*
Y13264D01*
X185692D01*
X183068Y15232D02*
X184380D01*
X190939Y13264D02*
X192251D01*
X191595D01*
Y15888D01*
X190939D01*
X194219Y13264D02*
Y15888D01*
X196187D01*
X196843Y15232D01*
Y13264D01*
X204714Y16544D02*
X204059Y17199D01*
X202747D01*
X202091Y16544D01*
Y13920D01*
X202747Y13264D01*
X204059D01*
X204714Y13920D01*
X206682Y15888D02*
X207994D01*
X208650Y15232D01*
Y13264D01*
X206682D01*
X206026Y13920D01*
X206682Y14576D01*
X208650D01*
X209962Y13264D02*
Y15888D01*
X210618D01*
X211274Y15232D01*
Y13264D01*
Y15232D01*
X211930Y15888D01*
X212586Y15232D01*
Y13264D01*
X213898Y17199D02*
Y13264D01*
X215866D01*
X216522Y13920D01*
Y14576D01*
Y15232D01*
X215866Y15888D01*
X213898D01*
X217834D02*
Y13264D01*
Y14576D01*
X218490Y15232D01*
X219145Y15888D01*
X219801D01*
X221769Y13264D02*
X223081D01*
X222425D01*
Y15888D01*
X221769D01*
X227673Y17199D02*
Y13264D01*
X225705D01*
X225049Y13920D01*
Y15232D01*
X225705Y15888D01*
X227673D01*
X230297Y11952D02*
X230953D01*
X231609Y12608D01*
Y15888D01*
X229641D01*
X228985Y15232D01*
Y13920D01*
X229641Y13264D01*
X231609D01*
X234888D02*
X233576D01*
X232921Y13920D01*
Y15232D01*
X233576Y15888D01*
X234888D01*
X235544Y15232D01*
Y14576D01*
X232921D01*
X124369Y368904D02*
X123582Y369691D01*
X122008D01*
X121221Y368904D01*
Y365756D01*
X122008Y364968D01*
X123582D01*
X124369Y365756D01*
X125943Y364968D02*
Y369691D01*
X127518Y368117D01*
X129092Y369691D01*
Y364968D01*
X130666D02*
Y369691D01*
X132240Y368117D01*
X133815Y369691D01*
Y364968D01*
X135389D02*
Y369691D01*
X137750D01*
X138538Y368904D01*
Y367330D01*
X137750Y366543D01*
X135389D01*
X143261Y369691D02*
X140112D01*
Y364968D01*
X143261D01*
X140112Y367330D02*
X141686D01*
X149558Y369691D02*
Y364968D01*
X151919D01*
X152706Y365756D01*
Y368904D01*
X151919Y369691D01*
X149558D01*
X154281D02*
Y364968D01*
X156642D01*
X157429Y365756D01*
Y368904D01*
X156642Y369691D01*
X154281D01*
X162152D02*
X159003D01*
Y367330D01*
X160578Y368117D01*
X161365D01*
X162152Y367330D01*
Y365756D01*
X161365Y364968D01*
X159791D01*
X159003Y365756D01*
X163726Y364968D02*
X165301D01*
X164514D01*
Y369691D01*
X163726Y368904D01*
X167662Y364968D02*
X169236D01*
X168449D01*
Y369691D01*
X167662Y368904D01*
X176321Y369691D02*
Y368904D01*
X177895Y367330D01*
X179469Y368904D01*
Y369691D01*
X177895Y367330D02*
Y364968D01*
X181044Y369691D02*
Y364968D01*
X182618Y366543D01*
X184192Y364968D01*
Y369691D01*
X188128Y364968D02*
Y369691D01*
X185766Y367330D01*
X188915D01*
X190489Y369691D02*
X193638D01*
Y368904D01*
X190489Y365756D01*
Y364968D01*
X195212Y365756D02*
X195999Y364968D01*
X197574D01*
X198361Y365756D01*
Y368904D01*
X197574Y369691D01*
X195999D01*
X195212Y368904D01*
Y368117D01*
X195999Y367330D01*
X198361D01*
X204658Y364968D02*
Y368117D01*
X206232Y369691D01*
X207807Y368117D01*
Y364968D01*
Y367330D01*
X204658D01*
X212529Y368904D02*
X211742Y369691D01*
X210168D01*
X209381Y368904D01*
Y365756D01*
X210168Y364968D01*
X211742D01*
X212529Y365756D01*
X214104Y369691D02*
Y364968D01*
Y366543D01*
X217252Y369691D01*
X214891Y367330D01*
X217252Y364968D01*
X221188D02*
Y369691D01*
X218827Y367330D01*
X221975D01*
X223550Y365756D02*
X224337Y364968D01*
X225911D01*
X226698Y365756D01*
Y368904D01*
X225911Y369691D01*
X224337D01*
X223550Y368904D01*
Y368117D01*
X224337Y367330D01*
X226698D01*
X232995Y364968D02*
Y369691D01*
X235357D01*
X236144Y368904D01*
Y367330D01*
X235357Y366543D01*
X232995D01*
X240867Y369691D02*
X239293D01*
X240080D01*
Y365756D01*
X239293Y364968D01*
X238505D01*
X237718Y365756D01*
X245590Y368904D02*
X244802Y369691D01*
X243228D01*
X242441Y368904D01*
Y365756D01*
X243228Y364968D01*
X244802D01*
X245590Y365756D01*
X250312Y364968D02*
X247164D01*
X250312Y368117D01*
Y368904D01*
X249525Y369691D01*
X247951D01*
X247164Y368904D01*
X251887D02*
X252674Y369691D01*
X254248D01*
X255035Y368904D01*
Y365756D01*
X254248Y364968D01*
X252674D01*
X251887Y365756D01*
Y368904D01*
X256610Y365756D02*
X257397Y364968D01*
X258971D01*
X259758Y365756D01*
Y368904D01*
X258971Y369691D01*
X257397D01*
X256610Y368904D01*
Y368117D01*
X257397Y367330D01*
X259758D01*
X239142Y39965D02*
Y44688D01*
X241503D01*
X242290Y43900D01*
Y42326D01*
X241503Y41539D01*
X239142D01*
X240716D02*
X242290Y39965D01*
X246226D02*
Y44688D01*
X243865Y42326D01*
X247013D01*
X248587Y43900D02*
X249375Y44688D01*
X250949D01*
X251736Y43900D01*
Y43113D01*
X250949Y42326D01*
X251736Y41539D01*
Y40752D01*
X250949Y39965D01*
X249375D01*
X248587Y40752D01*
Y41539D01*
X249375Y42326D01*
X248587Y43113D01*
Y43900D01*
X249375Y42326D02*
X250949D01*
X217378Y44688D02*
Y39965D01*
X220527D01*
X225249Y44688D02*
X222101D01*
Y39965D01*
X225249D01*
X222101Y42326D02*
X223675D01*
X226824Y44688D02*
Y39965D01*
X229185D01*
X229972Y40752D01*
Y43900D01*
X229185Y44688D01*
X226824D01*
X231547D02*
X234695D01*
Y43900D01*
X231547Y40752D01*
Y39965D01*
X306016Y166933D02*
Y171656D01*
X308377D01*
X309164Y170869D01*
Y169295D01*
X308377Y168507D01*
X306016D01*
X310739Y171656D02*
X313887D01*
Y170869D01*
X310739Y167720D01*
Y166933D01*
X243862Y272917D02*
X239139D01*
Y275279D01*
X239927Y276066D01*
X241501D01*
X242288Y275279D01*
Y272917D01*
Y274492D02*
X243862Y276066D01*
Y280002D02*
X239139D01*
X241501Y277640D01*
Y280789D01*
X239927Y282363D02*
X239139Y283150D01*
Y284724D01*
X239927Y285512D01*
X243075D01*
X243862Y284724D01*
Y283150D01*
X243075Y282363D01*
X239927D01*
X172502Y115488D02*
Y118637D01*
Y117062D01*
X177224D01*
Y120211D02*
X172502D01*
Y122573D01*
X173289Y123360D01*
X174863D01*
X175650Y122573D01*
Y120211D01*
X176437Y124934D02*
X177224Y125721D01*
Y127295D01*
X176437Y128083D01*
X173289D01*
X172502Y127295D01*
Y125721D01*
X173289Y124934D01*
X174076D01*
X174863Y125721D01*
Y128083D01*
X166041Y115488D02*
Y118637D01*
Y117062D01*
X170764D01*
Y120211D02*
X166041D01*
Y122573D01*
X166828Y123360D01*
X168402D01*
X169190Y122573D01*
Y120211D01*
X166828Y124934D02*
X166041Y125721D01*
Y127295D01*
X166828Y128083D01*
X167615D01*
X168402Y127295D01*
X169190Y128083D01*
X169977D01*
X170764Y127295D01*
Y125721D01*
X169977Y124934D01*
X169190D01*
X168402Y125721D01*
X167615Y124934D01*
X166828D01*
X168402Y125721D02*
Y127295D01*
X236961Y98409D02*
X232238D01*
Y100771D01*
X233025Y101558D01*
X234599D01*
X235386Y100771D01*
Y98409D01*
Y99984D02*
X236961Y101558D01*
X232238Y106281D02*
X233025Y104707D01*
X234599Y103132D01*
X236174D01*
X236961Y103919D01*
Y105494D01*
X236174Y106281D01*
X235386D01*
X234599Y105494D01*
Y103132D01*
X212906Y149276D02*
Y153998D01*
X215267D01*
X216054Y153211D01*
Y151637D01*
X215267Y150850D01*
X212906D01*
X214480D02*
X216054Y149276D01*
X220777D02*
X217628D01*
X220777Y152424D01*
Y153211D01*
X219990Y153998D01*
X218415D01*
X217628Y153211D01*
X224713Y149276D02*
Y153998D01*
X222351Y151637D01*
X225500D01*
X102165Y232573D02*
X105314D01*
X103740D01*
Y227850D01*
X106888D02*
Y232573D01*
X109250D01*
X110037Y231786D01*
Y230212D01*
X109250Y229425D01*
X106888D01*
X111611Y232573D02*
X114760D01*
Y231786D01*
X111611Y228638D01*
Y227850D01*
X223110Y360892D02*
X226259D01*
X224685D01*
Y356169D01*
X227833D02*
Y360892D01*
X230195D01*
X230982Y360105D01*
Y358531D01*
X230195Y357744D01*
X227833D01*
X235705Y360892D02*
X234130Y360105D01*
X232556Y358531D01*
Y356956D01*
X233343Y356169D01*
X234917D01*
X235705Y356956D01*
Y357744D01*
X234917Y358531D01*
X232556D01*
X131815Y272917D02*
X127092D01*
Y275279D01*
X127879Y276066D01*
X129454D01*
X130241Y275279D01*
Y272917D01*
Y274492D02*
X131815Y276066D01*
Y280002D02*
X127092D01*
X129454Y277640D01*
Y280789D01*
X127092Y285512D02*
Y282363D01*
X129454D01*
X128666Y283937D01*
Y284724D01*
X129454Y285512D01*
X131028D01*
X131815Y284724D01*
Y283150D01*
X131028Y282363D01*
X117012Y255350D02*
X112289D01*
Y257712D01*
X113076Y258499D01*
X114650D01*
X115437Y257712D01*
Y255350D01*
Y256925D02*
X117012Y258499D01*
Y262435D02*
X112289D01*
X114650Y260073D01*
Y263222D01*
X117012Y267158D02*
X112289D01*
X114650Y264796D01*
Y267945D01*
X204400Y272866D02*
Y277589D01*
X206761D01*
X207549Y276802D01*
Y275228D01*
X206761Y274440D01*
X204400D01*
X205974D02*
X207549Y272866D01*
X209123D02*
Y277589D01*
X212271Y272866D01*
Y277589D01*
X213846Y272866D02*
X215420D01*
X214633D01*
Y277589D01*
X213846Y276802D01*
X217781Y272866D02*
X219356D01*
X218569D01*
Y277589D01*
X217781Y276802D01*
X150260Y272866D02*
Y277589D01*
X152621D01*
X153408Y276802D01*
Y275228D01*
X152621Y274440D01*
X150260D01*
X151834D02*
X153408Y272866D01*
X154983D02*
Y277589D01*
X158131Y272866D01*
Y277589D01*
X159706Y272866D02*
X161280D01*
X160493D01*
Y277589D01*
X159706Y276802D01*
X163641D02*
X164428Y277589D01*
X166003D01*
X166790Y276802D01*
Y273653D01*
X166003Y272866D01*
X164428D01*
X163641Y273653D01*
Y276802D01*
X169760Y272866D02*
Y277589D01*
X172121D01*
X172908Y276802D01*
Y275228D01*
X172121Y274440D01*
X169760D01*
X171334D02*
X172908Y272866D01*
X174483D02*
Y277589D01*
X177631Y272866D01*
Y277589D01*
X179206Y273653D02*
X179993Y272866D01*
X181567D01*
X182354Y273653D01*
Y276802D01*
X181567Y277589D01*
X179993D01*
X179206Y276802D01*
Y276015D01*
X179993Y275228D01*
X182354D01*
X187594Y272866D02*
Y277589D01*
X189956D01*
X190743Y276802D01*
Y275228D01*
X189956Y274440D01*
X187594D01*
X189169D02*
X190743Y272866D01*
X192317D02*
Y277589D01*
X195466Y272866D01*
Y277589D01*
X200189D02*
X198615Y276802D01*
X197040Y275228D01*
Y273653D01*
X197827Y272866D01*
X199402D01*
X200189Y273653D01*
Y274440D01*
X199402Y275228D01*
X197040D01*
X104591Y255350D02*
X99868D01*
Y257712D01*
X100655Y258499D01*
X102229D01*
X103016Y257712D01*
Y255350D01*
Y256925D02*
X104591Y258499D01*
Y262435D02*
X99868D01*
X102229Y260073D01*
Y263222D01*
X99868Y264796D02*
Y267945D01*
X100655D01*
X103803Y264796D01*
X104591D01*
X110937Y255350D02*
X106214D01*
Y257712D01*
X107001Y258499D01*
X108576D01*
X109363Y257712D01*
Y255350D01*
Y256925D02*
X110937Y258499D01*
Y262435D02*
X106214D01*
X108576Y260073D01*
Y263222D01*
X106214Y267945D02*
X107001Y266370D01*
X108576Y264796D01*
X110150D01*
X110937Y265583D01*
Y267158D01*
X110150Y267945D01*
X109363D01*
X108576Y267158D01*
Y264796D01*
X123087Y255350D02*
X118364D01*
Y257712D01*
X119151Y258499D01*
X120725D01*
X121512Y257712D01*
Y255350D01*
Y256925D02*
X123087Y258499D01*
Y262435D02*
X118364D01*
X120725Y260073D01*
Y263222D01*
X119151Y264796D02*
X118364Y265583D01*
Y267158D01*
X119151Y267945D01*
X119938D01*
X120725Y267158D01*
Y266370D01*
Y267158D01*
X121512Y267945D01*
X122300D01*
X123087Y267158D01*
Y265583D01*
X122300Y264796D01*
X244504Y255350D02*
X239781D01*
Y257712D01*
X240568Y258499D01*
X242143D01*
X242930Y257712D01*
Y255350D01*
Y256925D02*
X244504Y258499D01*
Y262435D02*
X239781D01*
X242143Y260073D01*
Y263222D01*
X244504Y267945D02*
Y264796D01*
X241355Y267945D01*
X240568D01*
X239781Y267158D01*
Y265583D01*
X240568Y264796D01*
X257327Y255421D02*
X252604D01*
Y257783D01*
X253391Y258570D01*
X254965D01*
X255752Y257783D01*
Y255421D01*
Y256996D02*
X257327Y258570D01*
Y262506D02*
X252604D01*
X254965Y260144D01*
Y263293D01*
X257327Y264867D02*
Y266441D01*
Y265654D01*
X252604D01*
X253391Y264867D01*
X250882Y255350D02*
X246159D01*
Y257712D01*
X246946Y258499D01*
X248520D01*
X249308Y257712D01*
Y255350D01*
Y256925D02*
X250882Y258499D01*
X246946Y260073D02*
X246159Y260860D01*
Y262435D01*
X246946Y263222D01*
X247733D01*
X248520Y262435D01*
Y261648D01*
Y262435D01*
X249308Y263222D01*
X250095D01*
X250882Y262435D01*
Y260860D01*
X250095Y260073D01*
X246946Y264796D02*
X246159Y265583D01*
Y267158D01*
X246946Y267945D01*
X247733D01*
X248520Y267158D01*
X249308Y267945D01*
X250095D01*
X250882Y267158D01*
Y265583D01*
X250095Y264796D01*
X249308D01*
X248520Y265583D01*
X247733Y264796D01*
X246946D01*
X248520Y265583D02*
Y267158D01*
X251217Y272917D02*
X246494D01*
Y275279D01*
X247281Y276066D01*
X248855D01*
X249642Y275279D01*
Y272917D01*
Y274492D02*
X251217Y276066D01*
X247281Y277640D02*
X246494Y278427D01*
Y280002D01*
X247281Y280789D01*
X248068D01*
X248855Y280002D01*
Y279215D01*
Y280002D01*
X249642Y280789D01*
X250429D01*
X251217Y280002D01*
Y278427D01*
X250429Y277640D01*
X246494Y282363D02*
Y285512D01*
X247281D01*
X250429Y282363D01*
X251217D01*
X280433Y166933D02*
Y171656D01*
X282794D01*
X283582Y170869D01*
Y169295D01*
X282794Y168507D01*
X280433D01*
X288304Y171656D02*
X285156D01*
Y169295D01*
X286730Y170082D01*
X287517D01*
X288304Y169295D01*
Y167720D01*
X287517Y166933D01*
X285943D01*
X285156Y167720D01*
X241264Y160211D02*
Y156243D01*
X242057Y155449D01*
X243645D01*
X244439Y156243D01*
Y160211D01*
X246026Y155449D02*
X247613D01*
X246820D01*
Y160211D01*
X246026Y159417D01*
X249994D02*
X250788Y160211D01*
X252376D01*
X253169Y159417D01*
Y156243D01*
X252376Y155449D01*
X250788D01*
X249994Y156243D01*
Y159417D01*
X29545Y94756D02*
Y99479D01*
X31907D01*
X32694Y98692D01*
Y97117D01*
X31907Y96330D01*
X29545D01*
X31119D02*
X32694Y94756D01*
X34268Y98692D02*
X35055Y99479D01*
X36630D01*
X37417Y98692D01*
Y97905D01*
X36630Y97117D01*
X35842D01*
X36630D01*
X37417Y96330D01*
Y95543D01*
X36630Y94756D01*
X35055D01*
X34268Y95543D01*
X38991D02*
X39778Y94756D01*
X41352D01*
X42140Y95543D01*
Y98692D01*
X41352Y99479D01*
X39778D01*
X38991Y98692D01*
Y97905D01*
X39778Y97117D01*
X42140D01*
X185728Y50652D02*
Y46716D01*
X186515Y45929D01*
X188090D01*
X188877Y46716D01*
Y50652D01*
X190451Y46716D02*
X191238Y45929D01*
X192813D01*
X193600Y46716D01*
Y49865D01*
X192813Y50652D01*
X191238D01*
X190451Y49865D01*
Y49078D01*
X191238Y48291D01*
X193600D01*
X204150Y90319D02*
Y95042D01*
X206511D01*
X207298Y94255D01*
Y92680D01*
X206511Y91893D01*
X204150D01*
X208873Y94255D02*
X209660Y95042D01*
X211234D01*
X212021Y94255D01*
Y93467D01*
X211234Y92680D01*
X210447D01*
X211234D01*
X212021Y91893D01*
Y91106D01*
X211234Y90319D01*
X209660D01*
X208873Y91106D01*
X117295Y69457D02*
X122018D01*
Y67095D01*
X121231Y66308D01*
X119657D01*
X118870Y67095D01*
Y69457D01*
Y67882D02*
X117295Y66308D01*
X121231Y64734D02*
X122018Y63947D01*
Y62372D01*
X121231Y61585D01*
X120444D01*
X119657Y62372D01*
Y63160D01*
Y62372D01*
X118870Y61585D01*
X118082D01*
X117295Y62372D01*
Y63947D01*
X118082Y64734D01*
X122018Y56862D02*
X121231Y58437D01*
X119657Y60011D01*
X118082D01*
X117295Y59224D01*
Y57649D01*
X118082Y56862D01*
X118870D01*
X119657Y57649D01*
Y60011D01*
X18768Y345949D02*
X14045D01*
Y348310D01*
X14832Y349097D01*
X16406D01*
X17193Y348310D01*
Y345949D01*
Y347523D02*
X18768Y349097D01*
X14832Y350672D02*
X14045Y351459D01*
Y353033D01*
X14832Y353820D01*
X15619D01*
X16406Y353033D01*
Y352246D01*
Y353033D01*
X17193Y353820D01*
X17981D01*
X18768Y353033D01*
Y351459D01*
X17981Y350672D01*
X14045Y358543D02*
Y355395D01*
X16406D01*
X15619Y356969D01*
Y357756D01*
X16406Y358543D01*
X17981D01*
X18768Y357756D01*
Y356182D01*
X17981Y355395D01*
X19134Y320567D02*
X14411D01*
Y322928D01*
X15198Y323715D01*
X16772D01*
X17560Y322928D01*
Y320567D01*
Y322141D02*
X19134Y323715D01*
X15198Y325290D02*
X14411Y326077D01*
Y327651D01*
X15198Y328438D01*
X15985D01*
X16772Y327651D01*
Y326864D01*
Y327651D01*
X17560Y328438D01*
X18347D01*
X19134Y327651D01*
Y326077D01*
X18347Y325290D01*
X19134Y332374D02*
X14411D01*
X16772Y330013D01*
Y333161D01*
X292894Y328110D02*
Y332833D01*
X295255D01*
X296042Y332046D01*
Y330472D01*
X295255Y329684D01*
X292894D01*
X294468D02*
X296042Y328110D01*
X297617Y332046D02*
X298404Y332833D01*
X299978D01*
X300765Y332046D01*
Y331259D01*
X299978Y330472D01*
X299191D01*
X299978D01*
X300765Y329684D01*
Y328897D01*
X299978Y328110D01*
X298404D01*
X297617Y328897D01*
X302340Y332046D02*
X303127Y332833D01*
X304701D01*
X305488Y332046D01*
Y331259D01*
X304701Y330472D01*
X303914D01*
X304701D01*
X305488Y329684D01*
Y328897D01*
X304701Y328110D01*
X303127D01*
X302340Y328897D01*
X292807Y336433D02*
Y341156D01*
X295168D01*
X295956Y340369D01*
Y338794D01*
X295168Y338007D01*
X292807D01*
X294381D02*
X295956Y336433D01*
X297530Y340369D02*
X298317Y341156D01*
X299891D01*
X300679Y340369D01*
Y339582D01*
X299891Y338794D01*
X299104D01*
X299891D01*
X300679Y338007D01*
Y337220D01*
X299891Y336433D01*
X298317D01*
X297530Y337220D01*
X305401Y336433D02*
X302253D01*
X305401Y339582D01*
Y340369D01*
X304614Y341156D01*
X303040D01*
X302253Y340369D01*
X99976Y15122D02*
Y19845D01*
X102338D01*
X103125Y19058D01*
Y17483D01*
X102338Y16696D01*
X99976D01*
X101551D02*
X103125Y15122D01*
X104699Y19058D02*
X105486Y19845D01*
X107061D01*
X107848Y19058D01*
Y18271D01*
X107061Y17483D01*
X106274D01*
X107061D01*
X107848Y16696D01*
Y15909D01*
X107061Y15122D01*
X105486D01*
X104699Y15909D01*
X109422Y15122D02*
X110996D01*
X110209D01*
Y19845D01*
X109422Y19058D01*
X21402Y29083D02*
X16679D01*
Y31444D01*
X17466Y32231D01*
X19040D01*
X19827Y31444D01*
Y29083D01*
Y30657D02*
X21402Y32231D01*
X17466Y33806D02*
X16679Y34593D01*
Y36167D01*
X17466Y36954D01*
X18253D01*
X19040Y36167D01*
Y35380D01*
Y36167D01*
X19827Y36954D01*
X20614D01*
X21402Y36167D01*
Y34593D01*
X20614Y33806D01*
X17466Y38528D02*
X16679Y39316D01*
Y40890D01*
X17466Y41677D01*
X20614D01*
X21402Y40890D01*
Y39316D01*
X20614Y38528D01*
X17466D01*
X25500Y236016D02*
Y240739D01*
X27861D01*
X28649Y239951D01*
Y238377D01*
X27861Y237590D01*
X25500D01*
X33371Y240739D02*
X31797Y239951D01*
X30223Y238377D01*
Y236803D01*
X31010Y236016D01*
X32584D01*
X33371Y236803D01*
Y237590D01*
X32584Y238377D01*
X30223D01*
X122109Y54260D02*
X117386D01*
Y51111D01*
X122109Y46388D02*
Y49537D01*
X117386D01*
Y46388D01*
X119747Y49537D02*
Y47963D01*
X122109Y44814D02*
X117386D01*
Y42453D01*
X118173Y41666D01*
X121322D01*
X122109Y42453D01*
Y44814D01*
Y36943D02*
X121322Y38517D01*
X119747Y40091D01*
X118173D01*
X117386Y39304D01*
Y37730D01*
X118173Y36943D01*
X118960D01*
X119747Y37730D01*
Y40091D01*
X283784Y141268D02*
Y145991D01*
X286145D01*
X286932Y145203D01*
Y143629D01*
X286145Y142842D01*
X283784D01*
X285358D02*
X286932Y141268D01*
X288506D02*
Y145991D01*
X291655Y141268D01*
Y145991D01*
X296378Y141268D02*
X293229D01*
X296378Y144416D01*
Y145203D01*
X295591Y145991D01*
X294016D01*
X293229Y145203D01*
X22110Y111311D02*
X17387D01*
Y113672D01*
X18174Y114460D01*
X19749D01*
X20536Y113672D01*
Y111311D01*
Y112885D02*
X22110Y114460D01*
Y119183D02*
Y116034D01*
X18962Y119183D01*
X18174D01*
X17387Y118395D01*
Y116821D01*
X18174Y116034D01*
X21323Y120757D02*
X22110Y121544D01*
Y123118D01*
X21323Y123905D01*
X18174D01*
X17387Y123118D01*
Y121544D01*
X18174Y120757D01*
X18962D01*
X19749Y121544D01*
Y123905D01*
X22087Y126602D02*
X17364D01*
Y128964D01*
X18151Y129751D01*
X19725D01*
X20512Y128964D01*
Y126602D01*
Y128177D02*
X22087Y129751D01*
Y134474D02*
Y131325D01*
X18938Y134474D01*
X18151D01*
X17364Y133687D01*
Y132112D01*
X18151Y131325D01*
Y136048D02*
X17364Y136835D01*
Y138410D01*
X18151Y139197D01*
X18938D01*
X19725Y138410D01*
X20512Y139197D01*
X21299D01*
X22087Y138410D01*
Y136835D01*
X21299Y136048D01*
X20512D01*
X19725Y136835D01*
X18938Y136048D01*
X18151D01*
X19725Y136835D02*
Y138410D01*
X120487Y86850D02*
Y83702D01*
Y85276D01*
X115764D01*
Y82127D02*
X120487D01*
Y79766D01*
X119700Y78979D01*
X118125D01*
X117338Y79766D01*
Y82127D01*
X120487Y74256D02*
Y77405D01*
X118125D01*
X118912Y75830D01*
Y75043D01*
X118125Y74256D01*
X116551D01*
X115764Y75043D01*
Y76617D01*
X116551Y77405D01*
X29724Y260880D02*
X32873D01*
X31299D01*
Y256157D01*
X34447D02*
Y260880D01*
X36809D01*
X37596Y260093D01*
Y258519D01*
X36809Y257732D01*
X34447D01*
X41532Y256157D02*
Y260880D01*
X39170Y258519D01*
X42319D01*
X289659Y289409D02*
Y292558D01*
Y290984D01*
X294382D01*
Y294132D02*
X289659D01*
Y296494D01*
X290446Y297281D01*
X292020D01*
X292808Y296494D01*
Y294132D01*
X290446Y298855D02*
X289659Y299642D01*
Y301217D01*
X290446Y302004D01*
X291233D01*
X292020Y301217D01*
Y300430D01*
Y301217D01*
X292808Y302004D01*
X293595D01*
X294382Y301217D01*
Y299642D01*
X293595Y298855D01*
X85486Y338543D02*
Y341692D01*
Y340118D01*
X90209D01*
Y343266D02*
X85486D01*
Y345628D01*
X86273Y346415D01*
X87847D01*
X88634Y345628D01*
Y343266D01*
X90209Y351138D02*
Y347989D01*
X87060Y351138D01*
X86273D01*
X85486Y350350D01*
Y348776D01*
X86273Y347989D01*
X282104Y355429D02*
Y358578D01*
Y357003D01*
X286827D01*
Y360152D02*
X282104D01*
Y362513D01*
X282891Y363301D01*
X284465D01*
X285252Y362513D01*
Y360152D01*
X286827Y364875D02*
Y366449D01*
Y365662D01*
X282104D01*
X282891Y364875D01*
X192694Y130988D02*
X197417D01*
Y134137D01*
X192694Y138860D02*
Y135711D01*
X197417D01*
Y138860D01*
X195056Y135711D02*
Y137285D01*
X192694Y140434D02*
X197417D01*
Y142795D01*
X196630Y143582D01*
X193482D01*
X192694Y142795D01*
Y140434D01*
Y148305D02*
Y145157D01*
X195056D01*
X194269Y146731D01*
Y147518D01*
X195056Y148305D01*
X196630D01*
X197417Y147518D01*
Y145944D01*
X196630Y145157D01*
X298483Y281845D02*
X297696Y282632D01*
X296122D01*
X295335Y281845D01*
Y281058D01*
X296122Y280271D01*
X297696D01*
X298483Y279484D01*
Y278697D01*
X297696Y277909D01*
X296122D01*
X295335Y278697D01*
X300058Y277909D02*
X301632D01*
X300845D01*
Y282632D01*
X300058Y281845D01*
X270681Y264622D02*
X265958D01*
Y266984D01*
X266745Y267771D01*
X268320D01*
X269107Y266984D01*
Y264622D01*
Y266196D02*
X270681Y267771D01*
Y272494D02*
Y269345D01*
X267532Y272494D01*
X266745D01*
X265958Y271706D01*
Y270132D01*
X266745Y269345D01*
X265958Y277216D02*
Y274068D01*
X268320D01*
X267532Y275642D01*
Y276429D01*
X268320Y277216D01*
X269894D01*
X270681Y276429D01*
Y274855D01*
X269894Y274068D01*
X266828Y253050D02*
X266041Y252263D01*
Y250689D01*
X266828Y249902D01*
X269977D01*
X270764Y250689D01*
Y252263D01*
X269977Y253050D01*
X266041Y254624D02*
Y257773D01*
X266828D01*
X269977Y254624D01*
X270764D01*
Y261709D02*
X266041D01*
X268402Y259347D01*
Y262496D01*
X261102Y220390D02*
Y225113D01*
X263464D01*
X264251Y224325D01*
Y222751D01*
X263464Y221964D01*
X261102D01*
X262677D02*
X264251Y220390D01*
X268974D02*
X265825D01*
X268974Y223538D01*
Y224325D01*
X268187Y225113D01*
X266612D01*
X265825Y224325D01*
X270548D02*
X271335Y225113D01*
X272910D01*
X273697Y224325D01*
Y223538D01*
X272910Y222751D01*
X272122D01*
X272910D01*
X273697Y221964D01*
Y221177D01*
X272910Y220390D01*
X271335D01*
X270548Y221177D01*
X261102Y229079D02*
Y233802D01*
X263464D01*
X264251Y233014D01*
Y231440D01*
X263464Y230653D01*
X261102D01*
X262677D02*
X264251Y229079D01*
X268974D02*
X265825D01*
X268974Y232227D01*
Y233014D01*
X268187Y233802D01*
X266612D01*
X265825Y233014D01*
X273697Y229079D02*
X270548D01*
X273697Y232227D01*
Y233014D01*
X272910Y233802D01*
X271335D01*
X270548Y233014D01*
X261102Y237980D02*
Y242703D01*
X263464D01*
X264251Y241916D01*
Y240342D01*
X263464Y239555D01*
X261102D01*
X262677D02*
X264251Y237980D01*
X268974D02*
X265825D01*
X268974Y241129D01*
Y241916D01*
X268187Y242703D01*
X266612D01*
X265825Y241916D01*
X270548Y237980D02*
X272122D01*
X271335D01*
Y242703D01*
X270548Y241916D01*
X294346Y210628D02*
Y205906D01*
X297495D01*
X302218Y210628D02*
X299069D01*
Y205906D01*
X302218D01*
X299069Y208267D02*
X300644D01*
X303792Y210628D02*
Y205906D01*
X306154D01*
X306941Y206693D01*
Y209841D01*
X306154Y210628D01*
X303792D01*
X310876Y205906D02*
Y210628D01*
X308515Y208267D01*
X311664D01*
X294346Y217660D02*
Y212937D01*
X297495D01*
X302218Y217660D02*
X299069D01*
Y212937D01*
X302218D01*
X299069Y215299D02*
X300644D01*
X303792Y217660D02*
Y212937D01*
X306154D01*
X306941Y213724D01*
Y216873D01*
X306154Y217660D01*
X303792D01*
X308515Y216873D02*
X309302Y217660D01*
X310876D01*
X311664Y216873D01*
Y216086D01*
X310876Y215299D01*
X310089D01*
X310876D01*
X311664Y214511D01*
Y213724D01*
X310876Y212937D01*
X309302D01*
X308515Y213724D01*
X294346Y249243D02*
Y244520D01*
X297495D01*
X302218Y249243D02*
X299069D01*
Y244520D01*
X302218D01*
X299069Y246881D02*
X300644D01*
X303792Y249243D02*
Y244520D01*
X306154D01*
X306941Y245307D01*
Y248455D01*
X306154Y249243D01*
X303792D01*
X311664Y244520D02*
X308515D01*
X311664Y247668D01*
Y248455D01*
X310876Y249243D01*
X309302D01*
X308515Y248455D01*
X47185Y201055D02*
Y205778D01*
X49547D01*
X50334Y204991D01*
Y203417D01*
X49547Y202629D01*
X47185D01*
X54269Y201055D02*
Y205778D01*
X51908Y203417D01*
X55057D01*
X221122Y65181D02*
Y69904D01*
X223483D01*
X224271Y69117D01*
Y67542D01*
X223483Y66755D01*
X221122D01*
X222696D02*
X224271Y65181D01*
X225845D02*
X227419D01*
X226632D01*
Y69904D01*
X225845Y69117D01*
X229781D02*
X230568Y69904D01*
X232142D01*
X232929Y69117D01*
Y68330D01*
X232142Y67542D01*
X231355D01*
X232142D01*
X232929Y66755D01*
Y65968D01*
X232142Y65181D01*
X230568D01*
X229781Y65968D01*
X313149Y340034D02*
X312361Y340821D01*
X310787D01*
X310000Y340034D01*
Y336886D01*
X310787Y336098D01*
X312361D01*
X313149Y336886D01*
X317084Y336098D02*
Y340821D01*
X314723Y338460D01*
X317871D01*
X293673Y361180D02*
Y357244D01*
X294460Y356457D01*
X296035D01*
X296822Y357244D01*
Y361180D01*
X298396Y356457D02*
X299970D01*
X299183D01*
Y361180D01*
X298396Y360392D01*
X296448Y372160D02*
X295661Y372947D01*
X294086D01*
X293299Y372160D01*
Y369012D01*
X294086Y368224D01*
X295661D01*
X296448Y369012D01*
X298022Y368224D02*
X299596D01*
X298809D01*
Y372947D01*
X298022Y372160D01*
X110043Y243869D02*
Y239933D01*
X110830Y239146D01*
X112405D01*
X113192Y239933D01*
Y243869D01*
X117915D02*
X114766D01*
Y241507D01*
X116340Y242294D01*
X117128D01*
X117915Y241507D01*
Y239933D01*
X117128Y239146D01*
X115553D01*
X114766Y239933D01*
X87697Y133732D02*
Y138455D01*
X90058D01*
X90845Y137668D01*
Y136094D01*
X90058Y135307D01*
X87697D01*
X89271D02*
X90845Y133732D01*
X94781D02*
Y138455D01*
X92420Y136094D01*
X95568D01*
X209244Y48398D02*
X204521D01*
Y50759D01*
X205308Y51546D01*
X206883D01*
X207670Y50759D01*
Y48398D01*
Y49972D02*
X209244Y51546D01*
Y53120D02*
Y54695D01*
Y53908D01*
X204521D01*
X205308Y53120D01*
Y57056D02*
X204521Y57843D01*
Y59418D01*
X205308Y60205D01*
X206096D01*
X206883Y59418D01*
X207670Y60205D01*
X208457D01*
X209244Y59418D01*
Y57843D01*
X208457Y57056D01*
X207670D01*
X206883Y57843D01*
X206096Y57056D01*
X205308D01*
X206883Y57843D02*
Y59418D01*
X44996Y332014D02*
Y328079D01*
X45783Y327291D01*
X47357D01*
X48145Y328079D01*
Y332014D01*
X52868Y327291D02*
X49719D01*
X52868Y330440D01*
Y331227D01*
X52080Y332014D01*
X50506D01*
X49719Y331227D01*
X227106Y216494D02*
X230255Y211772D01*
Y216494D02*
X227106Y211772D01*
X231829D02*
X233403D01*
X232616D01*
Y216494D01*
X231829Y215707D01*
X292421Y38350D02*
Y43073D01*
X294783D01*
X295570Y42286D01*
Y40712D01*
X294783Y39925D01*
X292421D01*
X293996D02*
X295570Y38350D01*
X297144D02*
X298718D01*
X297931D01*
Y43073D01*
X297144Y42286D01*
X304228Y43073D02*
X302654Y42286D01*
X301080Y40712D01*
Y39138D01*
X301867Y38350D01*
X303441D01*
X304228Y39138D01*
Y39925D01*
X303441Y40712D01*
X301080D01*
X67862Y321217D02*
X63139D01*
Y323578D01*
X63927Y324365D01*
X65501D01*
X66288Y323578D01*
Y321217D01*
Y322791D02*
X67862Y324365D01*
Y329088D02*
Y325939D01*
X64714Y329088D01*
X63927D01*
X63139Y328301D01*
Y326727D01*
X63927Y325939D01*
X58130Y352618D02*
Y357341D01*
X60491D01*
X61278Y356554D01*
Y354980D01*
X60491Y354192D01*
X58130D01*
X59704D02*
X61278Y352618D01*
X62853D02*
X64427D01*
X63640D01*
Y357341D01*
X62853Y356554D01*
X295570Y34829D02*
X294783Y35617D01*
X293208D01*
X292421Y34829D01*
Y31681D01*
X293208Y30894D01*
X294783D01*
X295570Y31681D01*
X300293Y30894D02*
X297144D01*
X300293Y34042D01*
Y34829D01*
X299506Y35617D01*
X297931D01*
X297144Y34829D01*
X305016Y35617D02*
X301867D01*
Y33255D01*
X303441Y34042D01*
X304228D01*
X305016Y33255D01*
Y31681D01*
X304228Y30894D01*
X302654D01*
X301867Y31681D01*
X246861Y216058D02*
X246074Y216845D01*
X244500D01*
X243713Y216058D01*
Y212909D01*
X244500Y212122D01*
X246074D01*
X246861Y212909D01*
X248435Y212122D02*
X250010D01*
X249223D01*
Y216845D01*
X248435Y216058D01*
X254733Y212122D02*
Y216845D01*
X252371Y214483D01*
X255520D01*
X279145Y66235D02*
X278358Y67022D01*
X276783D01*
X275996Y66235D01*
Y63086D01*
X276783Y62299D01*
X278358D01*
X279145Y63086D01*
X280719Y62299D02*
X282293D01*
X281506D01*
Y67022D01*
X280719Y66235D01*
X284655Y63086D02*
X285442Y62299D01*
X287016D01*
X287803Y63086D01*
Y66235D01*
X287016Y67022D01*
X285442D01*
X284655Y66235D01*
Y65448D01*
X285442Y64661D01*
X287803D01*
X230980Y63542D02*
X234129Y58819D01*
Y63542D02*
X230980Y58819D01*
X235703Y62755D02*
X236490Y63542D01*
X238065D01*
X238852Y62755D01*
Y61967D01*
X238065Y61180D01*
X237278D01*
X238065D01*
X238852Y60393D01*
Y59606D01*
X238065Y58819D01*
X236490D01*
X235703Y59606D01*
X31063Y46479D02*
Y41756D01*
X33424D01*
X34212Y42543D01*
Y45692D01*
X33424Y46479D01*
X31063D01*
X38934Y41756D02*
X35786D01*
X38934Y44905D01*
Y45692D01*
X38147Y46479D01*
X36573D01*
X35786Y45692D01*
X41764Y46542D02*
Y41819D01*
X44125D01*
X44912Y42606D01*
Y45755D01*
X44125Y46542D01*
X41764D01*
X46487Y41819D02*
X48061D01*
X47274D01*
Y46542D01*
X46487Y45755D01*
X291748Y316455D02*
Y312519D01*
X292535Y311732D01*
X294110D01*
X294897Y312519D01*
Y316455D01*
X296471Y315668D02*
X297258Y316455D01*
X298832D01*
X299620Y315668D01*
Y314881D01*
X298832Y314094D01*
X298045D01*
X298832D01*
X299620Y313307D01*
Y312519D01*
X298832Y311732D01*
X297258D01*
X296471Y312519D01*
X307223Y288538D02*
X306436Y289325D01*
X304862D01*
X304075Y288538D01*
Y285389D01*
X304862Y284602D01*
X306436D01*
X307223Y285389D01*
X308798Y284602D02*
X310372D01*
X309585D01*
Y289325D01*
X308798Y288538D01*
X312733Y284602D02*
X314308D01*
X313521D01*
Y289325D01*
X312733Y288538D01*
X313460Y332046D02*
X312672Y332833D01*
X311098D01*
X310311Y332046D01*
Y328897D01*
X311098Y328110D01*
X312672D01*
X313460Y328897D01*
X315034D02*
X315821Y328110D01*
X317395D01*
X318182Y328897D01*
Y332046D01*
X317395Y332833D01*
X315821D01*
X315034Y332046D01*
Y331259D01*
X315821Y330472D01*
X318182D01*
X177308Y81487D02*
X176521Y80700D01*
Y79126D01*
X177308Y78339D01*
X180457D01*
X181244Y79126D01*
Y80700D01*
X180457Y81487D01*
X181244Y86210D02*
Y83061D01*
X178095Y86210D01*
X177308D01*
X176521Y85423D01*
Y83849D01*
X177308Y83061D01*
X181244Y87784D02*
Y89359D01*
Y88572D01*
X176521D01*
X177308Y87784D01*
X209098Y63551D02*
X204376D01*
Y65913D01*
X205163Y66700D01*
X206737D01*
X207524Y65913D01*
Y63551D01*
Y65126D02*
X209098Y66700D01*
Y68274D02*
Y69848D01*
Y69061D01*
X204376D01*
X205163Y68274D01*
X204376Y75358D02*
Y72210D01*
X206737D01*
X205950Y73784D01*
Y74571D01*
X206737Y75358D01*
X208311D01*
X209098Y74571D01*
Y72997D01*
X208311Y72210D01*
X155815Y64866D02*
X151092D01*
Y67228D01*
X151879Y68015D01*
X153454D01*
X154241Y67228D01*
Y64866D01*
Y66440D02*
X155815Y68015D01*
Y69589D02*
Y71163D01*
Y70376D01*
X151092D01*
X151879Y69589D01*
X151092Y73525D02*
Y76673D01*
X151879D01*
X155028Y73525D01*
X155815D01*
X157980Y85563D02*
Y90286D01*
X160342D01*
X161129Y89499D01*
Y87924D01*
X160342Y87137D01*
X157980D01*
X159555D02*
X161129Y85563D01*
X162703D02*
X164278D01*
X163490D01*
Y90286D01*
X162703Y89499D01*
X169000Y85563D02*
Y90286D01*
X166639Y87924D01*
X169788D01*
X179138Y116744D02*
Y121467D01*
X181499D01*
X182286Y120680D01*
Y119106D01*
X181499Y118318D01*
X179138D01*
X187009Y116744D02*
X183861D01*
X187009Y119893D01*
Y120680D01*
X186222Y121467D01*
X184648D01*
X183861Y120680D01*
X30874Y152209D02*
Y156931D01*
X33236D01*
X34023Y156144D01*
Y154570D01*
X33236Y153783D01*
X30874D01*
X32448D02*
X34023Y152209D01*
X35597D02*
Y156931D01*
X38746Y152209D01*
Y156931D01*
X43468D02*
X40320D01*
Y154570D01*
X41894Y155357D01*
X42681D01*
X43468Y154570D01*
Y152996D01*
X42681Y152209D01*
X41107D01*
X40320Y152996D01*
X72257Y51759D02*
X71470Y50972D01*
Y49397D01*
X72257Y48610D01*
X75406D01*
X76193Y49397D01*
Y50972D01*
X75406Y51759D01*
X76193Y56482D02*
Y53333D01*
X73044Y56482D01*
X72257D01*
X71470Y55695D01*
Y54120D01*
X72257Y53333D01*
X76193Y60417D02*
X71470D01*
X73831Y58056D01*
Y61205D01*
X64017Y51680D02*
X63230Y50893D01*
Y49319D01*
X64017Y48531D01*
X67166D01*
X67953Y49319D01*
Y50893D01*
X67166Y51680D01*
X67953Y56403D02*
Y53254D01*
X64804Y56403D01*
X64017D01*
X63230Y55616D01*
Y54041D01*
X64017Y53254D01*
Y57977D02*
X63230Y58764D01*
Y60339D01*
X64017Y61126D01*
X64804D01*
X65591Y60339D01*
Y59552D01*
Y60339D01*
X66378Y61126D01*
X67166D01*
X67953Y60339D01*
Y58764D01*
X67166Y57977D01*
X27550Y24097D02*
X25976D01*
X26763D01*
Y20161D01*
X25976Y19374D01*
X25189D01*
X24402Y20161D01*
X32273Y19374D02*
X29125D01*
X32273Y22523D01*
Y23310D01*
X31486Y24097D01*
X29912D01*
X29125Y23310D01*
X43165Y131069D02*
Y127134D01*
X43953Y126347D01*
X45527D01*
X46314Y127134D01*
Y131069D01*
X47888Y130282D02*
X48675Y131069D01*
X50250D01*
X51037Y130282D01*
Y129495D01*
X50250Y128708D01*
X51037Y127921D01*
Y127134D01*
X50250Y126347D01*
X48675D01*
X47888Y127134D01*
Y127921D01*
X48675Y128708D01*
X47888Y129495D01*
Y130282D01*
X48675Y128708D02*
X50250D01*
X236846Y109984D02*
X232124D01*
Y112346D01*
X232911Y113133D01*
X234485D01*
X235272Y112346D01*
Y109984D01*
Y111558D02*
X236846Y113133D01*
X232124Y117856D02*
Y114707D01*
X234485D01*
X233698Y116281D01*
Y117069D01*
X234485Y117856D01*
X236059D01*
X236846Y117069D01*
Y115494D01*
X236059Y114707D01*
X239701Y71461D02*
X234978D01*
Y73822D01*
X235765Y74609D01*
X237339D01*
X238126Y73822D01*
Y71461D01*
Y73035D02*
X239701Y74609D01*
X234978Y76183D02*
Y79332D01*
X235765D01*
X238914Y76183D01*
X239701D01*
X222831Y83346D02*
X218108D01*
Y85707D01*
X218895Y86495D01*
X220469D01*
X221256Y85707D01*
Y83346D01*
Y84920D02*
X222831Y86495D01*
X218895Y88069D02*
X218108Y88856D01*
Y90430D01*
X218895Y91218D01*
X219682D01*
X220469Y90430D01*
X221256Y91218D01*
X222043D01*
X222831Y90430D01*
Y88856D01*
X222043Y88069D01*
X221256D01*
X220469Y88856D01*
X219682Y88069D01*
X218895D01*
X220469Y88856D02*
Y90430D01*
X215936Y146835D02*
X215149Y147623D01*
X213575D01*
X212787Y146835D01*
Y143687D01*
X213575Y142900D01*
X215149D01*
X215936Y143687D01*
X217510Y142900D02*
X219085D01*
X218297D01*
Y147623D01*
X217510Y146835D01*
X224595Y147623D02*
X221446D01*
Y145261D01*
X223020Y146048D01*
X223808D01*
X224595Y145261D01*
Y143687D01*
X223808Y142900D01*
X222233D01*
X221446Y143687D01*
X200055Y126239D02*
Y122303D01*
X200842Y121516D01*
X202417D01*
X203204Y122303D01*
Y126239D01*
X204778D02*
X207927D01*
Y125452D01*
X204778Y122303D01*
Y121516D01*
X70560Y338554D02*
X69773Y337767D01*
Y336193D01*
X70560Y335405D01*
X73709D01*
X74496Y336193D01*
Y337767D01*
X73709Y338554D01*
X69773Y340128D02*
Y343277D01*
X70560D01*
X73709Y340128D01*
X74496D01*
X249252Y141268D02*
Y145991D01*
X251613D01*
X252401Y145203D01*
Y143629D01*
X251613Y142842D01*
X249252D01*
X250826D02*
X252401Y141268D01*
X253975D02*
Y145991D01*
X257123Y141268D01*
Y145991D01*
X258698Y141268D02*
X260272D01*
X259485D01*
Y145991D01*
X258698Y145203D01*
X48104Y152030D02*
Y156752D01*
X50466D01*
X51253Y155965D01*
Y154391D01*
X50466Y153604D01*
X48104D01*
X49679D02*
X51253Y152030D01*
X52827D02*
Y156752D01*
X55976Y152030D01*
Y156752D01*
X57550Y155965D02*
X58337Y156752D01*
X59912D01*
X60699Y155965D01*
Y155178D01*
X59912Y154391D01*
X59124D01*
X59912D01*
X60699Y153604D01*
Y152817D01*
X59912Y152030D01*
X58337D01*
X57550Y152817D01*
X65358Y151945D02*
Y156668D01*
X67720D01*
X68507Y155881D01*
Y154306D01*
X67720Y153519D01*
X65358D01*
X66933D02*
X68507Y151945D01*
X70081D02*
Y156668D01*
X73230Y151945D01*
Y156668D01*
X77166Y151945D02*
Y156668D01*
X74804Y154306D01*
X77953D01*
X100100Y124100D02*
Y128823D01*
X102461D01*
X103249Y128036D01*
Y126461D01*
X102461Y125674D01*
X100100D01*
X101674D02*
X103249Y124100D01*
X104823D02*
Y128823D01*
X107972Y124100D01*
Y128823D01*
X109546D02*
X112694D01*
Y128036D01*
X109546Y124887D01*
Y124100D01*
X100716Y81581D02*
Y86304D01*
X103078D01*
X103865Y85516D01*
Y83942D01*
X103078Y83155D01*
X100716D01*
X102291D02*
X103865Y81581D01*
X105439D02*
Y86304D01*
X108588Y81581D01*
Y86304D01*
X110162Y85516D02*
X110949Y86304D01*
X112524D01*
X113311Y85516D01*
Y84729D01*
X112524Y83942D01*
X113311Y83155D01*
Y82368D01*
X112524Y81581D01*
X110949D01*
X110162Y82368D01*
Y83155D01*
X110949Y83942D01*
X110162Y84729D01*
Y85516D01*
X110949Y83942D02*
X112524D01*
X259023Y33786D02*
X257448D01*
X258236D01*
Y29850D01*
X257448Y29063D01*
X256661D01*
X255874Y29850D01*
X260597Y29063D02*
X262171D01*
X261384D01*
Y33786D01*
X260597Y32999D01*
X38643Y52619D02*
X37855Y53406D01*
X36281D01*
X35494Y52619D01*
Y49470D01*
X36281Y48683D01*
X37855D01*
X38643Y49470D01*
X43366Y48683D02*
X40217D01*
X43366Y51832D01*
Y52619D01*
X42578Y53406D01*
X41004D01*
X40217Y52619D01*
X44940D02*
X45727Y53406D01*
X47301D01*
X48088Y52619D01*
Y49470D01*
X47301Y48683D01*
X45727D01*
X44940Y49470D01*
Y52619D01*
X18230Y72377D02*
X17443Y71590D01*
Y70016D01*
X18230Y69228D01*
X21378D01*
X22165Y70016D01*
Y71590D01*
X21378Y72377D01*
X22165Y73951D02*
Y75525D01*
Y74738D01*
X17443D01*
X18230Y73951D01*
Y77887D02*
X17443Y78674D01*
Y80248D01*
X18230Y81036D01*
X19017D01*
X19804Y80248D01*
X20591Y81036D01*
X21378D01*
X22165Y80248D01*
Y78674D01*
X21378Y77887D01*
X20591D01*
X19804Y78674D01*
X19017Y77887D01*
X18230D01*
X19804Y78674D02*
Y80248D01*
X300651Y84171D02*
Y80235D01*
X301438Y79448D01*
X303012D01*
X303800Y80235D01*
Y84171D01*
X308522D02*
X306948Y83384D01*
X305374Y81810D01*
Y80235D01*
X306161Y79448D01*
X307735D01*
X308522Y80235D01*
Y81022D01*
X307735Y81810D01*
X305374D01*
X23467Y62300D02*
X26615Y57577D01*
Y62300D02*
X23467Y57577D01*
X31338D02*
X28189D01*
X31338Y60725D01*
Y61513D01*
X30551Y62300D01*
X28977D01*
X28189Y61513D01*
X57976Y292006D02*
Y288071D01*
X58763Y287283D01*
X60338D01*
X61125Y288071D01*
Y292006D01*
X65061Y287283D02*
Y292006D01*
X62699Y289645D01*
X65848D01*
X267035Y48177D02*
X262313D01*
Y50539D01*
X263100Y51326D01*
X264674D01*
X265461Y50539D01*
Y48177D01*
Y49751D02*
X267035Y51326D01*
Y52900D02*
Y54474D01*
Y53687D01*
X262313D01*
X263100Y52900D01*
X267035Y59984D02*
Y56836D01*
X263887Y59984D01*
X263100D01*
X262313Y59197D01*
Y57623D01*
X263100Y56836D01*
X296654Y69004D02*
Y73727D01*
X299015D01*
X299802Y72940D01*
Y71365D01*
X299015Y70578D01*
X296654D01*
X298228D02*
X299802Y69004D01*
X301376D02*
X302951D01*
X302164D01*
Y73727D01*
X301376Y72940D01*
X305312Y69004D02*
X306887D01*
X306099D01*
Y73727D01*
X305312Y72940D01*
X143102Y39933D02*
Y44656D01*
X145464D01*
X146251Y43869D01*
Y42294D01*
X145464Y41507D01*
X143102D01*
X144677D02*
X146251Y39933D01*
X147825Y43869D02*
X148612Y44656D01*
X150187D01*
X150974Y43869D01*
Y43082D01*
X150187Y42294D01*
X149399D01*
X150187D01*
X150974Y41507D01*
Y40720D01*
X150187Y39933D01*
X148612D01*
X147825Y40720D01*
X56845Y59157D02*
X52122D01*
Y61518D01*
X52909Y62305D01*
X54483D01*
X55270Y61518D01*
Y59157D01*
Y60731D02*
X56845Y62305D01*
Y63880D02*
Y65454D01*
Y64667D01*
X52122D01*
X52909Y63880D01*
Y67816D02*
X52122Y68603D01*
Y70177D01*
X52909Y70964D01*
X56057D01*
X56845Y70177D01*
Y68603D01*
X56057Y67816D01*
X52909D01*
X99689Y70709D02*
Y75432D01*
X102050D01*
X102838Y74644D01*
Y73070D01*
X102050Y72283D01*
X99689D01*
X101263D02*
X102838Y70709D01*
X104412Y71496D02*
X105199Y70709D01*
X106773D01*
X107560Y71496D01*
Y74644D01*
X106773Y75432D01*
X105199D01*
X104412Y74644D01*
Y73857D01*
X105199Y73070D01*
X107560D01*
X95842Y63555D02*
Y68278D01*
X98204D01*
X98991Y67491D01*
Y65917D01*
X98204Y65129D01*
X95842D01*
X97417D02*
X98991Y63555D01*
X100565D02*
X102140D01*
X101353D01*
Y68278D01*
X100565Y67491D01*
X104501Y64342D02*
X105288Y63555D01*
X106863D01*
X107650Y64342D01*
Y67491D01*
X106863Y68278D01*
X105288D01*
X104501Y67491D01*
Y66704D01*
X105288Y65917D01*
X107650D01*
X23323Y363563D02*
X18600D01*
Y365924D01*
X19387Y366712D01*
X20961D01*
X21749Y365924D01*
Y363563D01*
X23323Y368286D02*
Y369860D01*
Y369073D01*
X18600D01*
X19387Y368286D01*
X155472Y44688D02*
Y39965D01*
X158621D01*
X163344Y44688D02*
X160195D01*
Y39965D01*
X163344D01*
X160195Y42326D02*
X161770D01*
X164918Y44688D02*
Y39965D01*
X167280D01*
X168067Y40752D01*
Y43900D01*
X167280Y44688D01*
X164918D01*
X169641Y39965D02*
X171215D01*
X170428D01*
Y44688D01*
X169641Y43900D01*
X233885Y55314D02*
X233098Y56101D01*
X231523D01*
X230736Y55314D01*
Y52165D01*
X231523Y51378D01*
X233098D01*
X233885Y52165D01*
X238608Y51378D02*
X235459D01*
X238608Y54527D01*
Y55314D01*
X237821Y56101D01*
X236246D01*
X235459Y55314D01*
X243331Y51378D02*
X240182D01*
X243331Y54527D01*
Y55314D01*
X242543Y56101D01*
X240969D01*
X240182Y55314D01*
X240490Y131125D02*
X239702Y130338D01*
Y128763D01*
X240490Y127976D01*
X243638D01*
X244425Y128763D01*
Y130338D01*
X243638Y131125D01*
X244425Y132699D02*
Y134274D01*
Y133486D01*
X239702D01*
X240490Y132699D01*
X239702Y139784D02*
X240490Y138209D01*
X242064Y136635D01*
X243638D01*
X244425Y137422D01*
Y138996D01*
X243638Y139784D01*
X242851D01*
X242064Y138996D01*
Y136635D01*
X233470Y131133D02*
X232683Y130346D01*
Y128771D01*
X233470Y127984D01*
X236618D01*
X237405Y128771D01*
Y130346D01*
X236618Y131133D01*
X237405Y132707D02*
Y134281D01*
Y133494D01*
X232683D01*
X233470Y132707D01*
X232683Y136643D02*
Y139792D01*
X233470D01*
X236618Y136643D01*
X237405D01*
X31058Y331841D02*
X30271Y332628D01*
X28697D01*
X27909Y331841D01*
Y328693D01*
X28697Y327906D01*
X30271D01*
X31058Y328693D01*
X35781Y332628D02*
X32632D01*
Y330267D01*
X34207Y331054D01*
X34994D01*
X35781Y330267D01*
Y328693D01*
X34994Y327906D01*
X33419D01*
X32632Y328693D01*
X15017Y338767D02*
X14230Y337980D01*
Y336405D01*
X15017Y335618D01*
X18166D01*
X18953Y336405D01*
Y337980D01*
X18166Y338767D01*
X14230Y343490D02*
X15017Y341915D01*
X16591Y340341D01*
X18166D01*
X18953Y341128D01*
Y342702D01*
X18166Y343490D01*
X17379D01*
X16591Y342702D01*
Y340341D01*
X50889Y372518D02*
X50102Y373306D01*
X48527D01*
X47740Y372518D01*
Y369370D01*
X48527Y368583D01*
X50102D01*
X50889Y369370D01*
X55612Y368583D02*
X52463D01*
X55612Y371731D01*
Y372518D01*
X54825Y373306D01*
X53250D01*
X52463Y372518D01*
X50566Y365546D02*
X49779Y366333D01*
X48204D01*
X47417Y365546D01*
Y362397D01*
X48204Y361610D01*
X49779D01*
X50566Y362397D01*
X52140Y365546D02*
X52927Y366333D01*
X54502D01*
X55289Y365546D01*
Y364759D01*
X54502Y363972D01*
X53715D01*
X54502D01*
X55289Y363184D01*
Y362397D01*
X54502Y361610D01*
X52927D01*
X52140Y362397D01*
X48259Y317727D02*
X47472Y318514D01*
X45897D01*
X45110Y317727D01*
Y314579D01*
X45897Y313791D01*
X47472D01*
X48259Y314579D01*
X49833Y313791D02*
X51407D01*
X50620D01*
Y318514D01*
X49833Y317727D01*
X53769D02*
X54556Y318514D01*
X56130D01*
X56917Y317727D01*
Y314579D01*
X56130Y313791D01*
X54556D01*
X53769Y314579D01*
Y317727D01*
X48259Y324365D02*
X47472Y325152D01*
X45897D01*
X45110Y324365D01*
Y321216D01*
X45897Y320429D01*
X47472D01*
X48259Y321216D01*
X49833Y324365D02*
X50620Y325152D01*
X52195D01*
X52982Y324365D01*
Y323578D01*
X52195Y322791D01*
X52982Y322003D01*
Y321216D01*
X52195Y320429D01*
X50620D01*
X49833Y321216D01*
Y322003D01*
X50620Y322791D01*
X49833Y323578D01*
Y324365D01*
X50620Y322791D02*
X52195D01*
X32873Y268010D02*
X32086Y268798D01*
X30512D01*
X29724Y268010D01*
Y264862D01*
X30512Y264075D01*
X32086D01*
X32873Y264862D01*
X34447Y264075D02*
X36022D01*
X35234D01*
Y268798D01*
X34447Y268010D01*
X38383D02*
X39170Y268798D01*
X40745D01*
X41532Y268010D01*
Y267223D01*
X40745Y266436D01*
X39957D01*
X40745D01*
X41532Y265649D01*
Y264862D01*
X40745Y264075D01*
X39170D01*
X38383Y264862D01*
X32873Y275814D02*
X32086Y276601D01*
X30512D01*
X29724Y275814D01*
Y272665D01*
X30512Y271878D01*
X32086D01*
X32873Y272665D01*
X34447Y271878D02*
X36022D01*
X35234D01*
Y276601D01*
X34447Y275814D01*
X41532Y271878D02*
X38383D01*
X41532Y275026D01*
Y275814D01*
X40745Y276601D01*
X39170D01*
X38383Y275814D01*
X31677Y30168D02*
X30889Y29381D01*
Y27807D01*
X31677Y27020D01*
X34825D01*
X35612Y27807D01*
Y29381D01*
X34825Y30168D01*
X35612Y34891D02*
Y31743D01*
X32464Y34891D01*
X31677D01*
X30889Y34104D01*
Y32530D01*
X31677Y31743D01*
X30889Y39614D02*
X31677Y38040D01*
X33251Y36465D01*
X34825D01*
X35612Y37253D01*
Y38827D01*
X34825Y39614D01*
X34038D01*
X33251Y38827D01*
Y36465D01*
D16*
X174480Y107508D02*
X175792D01*
X175136D01*
Y111444D01*
X174480Y110788D01*
X204620Y107583D02*
X201996D01*
X204620Y110206D01*
Y110863D01*
X203964Y111518D01*
X202652D01*
X201996Y110863D01*
X173315Y99276D02*
X173971Y99932D01*
X175283D01*
X175939Y99276D01*
Y98620D01*
X175283Y97964D01*
X174627D01*
X175283D01*
X175939Y97308D01*
Y96652D01*
X175283Y95996D01*
X173971D01*
X173315Y96652D01*
M02*
