G04*
G04 #@! TF.GenerationSoftware,Altium Limited,Altium Designer,20.1.7 (139)*
G04*
G04 Layer_Color=2752767*
%FSLAX25Y25*%
%MOIN*%
G70*
G04*
G04 #@! TF.SameCoordinates,F1024F09-50C5-4513-BE08-2A4FEE95A773*
G04*
G04*
G04 #@! TF.FilePolarity,Positive*
G04*
G01*
G75*
%ADD167C,0.00200*%
%ADD170C,0.00267*%
D167*
X228342Y144889D02*
Y146489D01*
X229942D01*
Y144889D01*
X228342D01*
X176145Y130621D02*
Y132221D01*
X177745D01*
Y130621D01*
X176145D01*
X168802D02*
Y132221D01*
X170402D01*
Y130621D01*
X168802D01*
X97665Y235192D02*
Y236792D01*
X99265D01*
Y235192D01*
X97665D01*
X282213Y221889D02*
X281413Y223489D01*
X283013D01*
X282213Y221889D01*
Y230519D02*
X281413Y232119D01*
X283013D01*
X282213Y230519D01*
X315902Y221889D02*
X315102Y223489D01*
X316702D01*
X315902Y221889D01*
Y230519D02*
X315102Y232119D01*
X316702D01*
X315902Y230519D01*
X316114Y239696D02*
X315314Y241296D01*
X316914D01*
X316114Y239696D01*
X282425Y239133D02*
X281625Y240733D01*
X283225D01*
X282425Y239133D01*
X313729Y254245D02*
X314129Y254645D01*
X314529D01*
X314129Y255045D01*
X314529Y255445D01*
X314129D01*
X313729Y255845D01*
X313329Y255445D01*
X312929D01*
X313329Y255045D01*
X312929Y254645D01*
X313329D01*
X313729Y254245D01*
X288129D02*
X288529Y254645D01*
X288929D01*
X288529Y255045D01*
X288929Y255445D01*
X288529D01*
X288129Y255845D01*
X287729Y255445D01*
X287329D01*
X287729Y255045D01*
X287329Y254645D01*
X287729D01*
X288129Y254245D01*
X313729Y272045D02*
X314129Y272445D01*
X314529D01*
X314129Y272845D01*
X314529Y273245D01*
X314129D01*
X313729Y273645D01*
X313329Y273245D01*
X312929D01*
X313329Y272845D01*
X312929Y272445D01*
X313329D01*
X313729Y272045D01*
X288129D02*
X288529Y272445D01*
X288929D01*
X288529Y272845D01*
X288929Y273245D01*
X288529D01*
X288129Y273645D01*
X287729Y273245D01*
X287329D01*
X287729Y272845D01*
X287329Y272445D01*
X287729D01*
X288129Y272045D01*
X278582Y23342D02*
X278982Y24142D01*
X278582Y24942D01*
X279382Y24542D01*
X280182Y24942D01*
X279782Y24142D01*
X280182Y23342D01*
X279382Y23742D01*
X278582Y23342D01*
X262243D02*
X262643Y24142D01*
X262243Y24942D01*
X263043Y24542D01*
X263843Y24942D01*
X263443Y24142D01*
X263843Y23342D01*
X263043Y23742D01*
X262243Y23342D01*
X266471Y50786D02*
Y50386D01*
X267271D01*
Y50786D01*
X267671D01*
Y51586D01*
X267271D01*
Y51986D01*
X266471D01*
Y51586D01*
X266071D01*
Y50786D01*
X266471D01*
Y42912D02*
Y42512D01*
X267271D01*
Y42912D01*
X267671D01*
Y43712D01*
X267271D01*
Y44112D01*
X266471D01*
Y43712D01*
X266071D01*
Y42912D01*
X266471D01*
Y35038D02*
Y34638D01*
X267271D01*
Y35038D01*
X267671D01*
Y35838D01*
X267271D01*
Y36238D01*
X266471D01*
Y35838D01*
X266071D01*
Y35038D01*
X266471D01*
X267671Y19762D02*
Y19362D01*
X268471D01*
Y19762D01*
X268871D01*
Y20562D01*
X268471D01*
Y20962D01*
X267671D01*
Y20562D01*
X267271D01*
Y19762D01*
X267671D01*
X272618Y32480D02*
Y32080D01*
X273418D01*
Y32480D01*
X273818D01*
Y33280D01*
X273418D01*
Y33680D01*
X272618D01*
Y33280D01*
X272218D01*
Y32480D01*
X272618D01*
Y40354D02*
Y39954D01*
X273418D01*
Y40354D01*
X273818D01*
Y41154D01*
X273418D01*
Y41554D01*
X272618D01*
Y41154D01*
X272218D01*
Y40354D01*
X272618D01*
Y48228D02*
Y47828D01*
X273418D01*
Y48228D01*
X273818D01*
Y49028D01*
X273418D01*
Y49428D01*
X272618D01*
Y49028D01*
X272218D01*
Y48228D01*
X272618D01*
Y56102D02*
Y55702D01*
X273418D01*
Y56102D01*
X273818D01*
Y56902D01*
X273418D01*
Y57302D01*
X272618D01*
Y56902D01*
X272218D01*
Y56102D01*
X272618D01*
Y63976D02*
Y63576D01*
X273418D01*
Y63976D01*
X273818D01*
Y64776D01*
X273418D01*
Y65176D01*
X272618D01*
Y64776D01*
X272218D01*
Y63976D01*
X272618D01*
Y71850D02*
Y71450D01*
X273418D01*
Y71850D01*
X273818D01*
Y72650D01*
X273418D01*
Y73050D01*
X272618D01*
Y72650D01*
X272218D01*
Y71850D01*
X272618D01*
X74306Y32882D02*
Y32482D01*
X75106D01*
Y32882D01*
X75506D01*
Y33682D01*
X75106D01*
Y34082D01*
X74306D01*
Y33682D01*
X73906D01*
Y32882D01*
X74306D01*
X78903Y19772D02*
Y19372D01*
X79703D01*
Y19772D01*
X80103D01*
Y20572D01*
X79703D01*
Y20972D01*
X78903D01*
Y20572D01*
X78503D01*
Y19772D01*
X78903D01*
X81654Y27150D02*
Y26750D01*
X82454D01*
Y27150D01*
X82854D01*
Y27950D01*
X82454D01*
Y28350D01*
X81654D01*
Y27950D01*
X81254D01*
Y27150D01*
X81654D01*
X80453Y34932D02*
Y34532D01*
X81253D01*
Y34932D01*
X81653D01*
Y35732D01*
X81253D01*
Y36132D01*
X80453D01*
Y35732D01*
X80053D01*
Y34932D01*
X80453D01*
Y42806D02*
Y42406D01*
X81253D01*
Y42806D01*
X81653D01*
Y43606D01*
X81253D01*
Y44006D01*
X80453D01*
Y43606D01*
X80053D01*
Y42806D01*
X80453D01*
Y50680D02*
Y50280D01*
X81253D01*
Y50680D01*
X81653D01*
Y51480D01*
X81253D01*
Y51880D01*
X80453D01*
Y51480D01*
X80053D01*
Y50680D01*
X80453D01*
Y58554D02*
Y58154D01*
X81253D01*
Y58554D01*
X81653D01*
Y59354D01*
X81253D01*
Y59754D01*
X80453D01*
Y59354D01*
X80053D01*
Y58554D01*
X80453D01*
Y66428D02*
Y66028D01*
X81253D01*
Y66428D01*
X81653D01*
Y67228D01*
X81253D01*
Y67628D01*
X80453D01*
Y67228D01*
X80053D01*
Y66428D01*
X80453D01*
Y74302D02*
Y73902D01*
X81253D01*
Y74302D01*
X81653D01*
Y75102D01*
X81253D01*
Y75502D01*
X80453D01*
Y75102D01*
X80053D01*
Y74302D01*
X80453D01*
X66560Y72901D02*
Y72501D01*
X67360D01*
Y72901D01*
X67760D01*
Y73701D01*
X67360D01*
Y74101D01*
X66560D01*
Y73701D01*
X66160D01*
Y72901D01*
X66560D01*
Y65027D02*
Y64627D01*
X67360D01*
Y65027D01*
X67760D01*
Y65827D01*
X67360D01*
Y66227D01*
X66560D01*
Y65827D01*
X66160D01*
Y65027D01*
X66560D01*
Y57153D02*
Y56753D01*
X67360D01*
Y57153D01*
X67760D01*
Y57953D01*
X67360D01*
Y58353D01*
X66560D01*
Y57953D01*
X66160D01*
Y57153D01*
X66560D01*
Y49279D02*
Y48879D01*
X67360D01*
Y49279D01*
X67760D01*
Y50079D01*
X67360D01*
Y50479D01*
X66560D01*
Y50079D01*
X66160D01*
Y49279D01*
X66560D01*
X72707Y50056D02*
Y49656D01*
X73507D01*
Y50056D01*
X73907D01*
Y50856D01*
X73507D01*
Y51256D01*
X72707D01*
Y50856D01*
X72307D01*
Y50056D01*
X72707D01*
Y57930D02*
Y57530D01*
X73507D01*
Y57930D01*
X73907D01*
Y58730D01*
X73507D01*
Y59130D01*
X72707D01*
Y58730D01*
X72307D01*
Y57930D01*
X72707D01*
Y65804D02*
Y65404D01*
X73507D01*
Y65804D01*
X73907D01*
Y66604D01*
X73507D01*
Y67004D01*
X72707D01*
Y66604D01*
X72307D01*
Y65804D01*
X72707D01*
Y73678D02*
Y73278D01*
X73507D01*
Y73678D01*
X73907D01*
Y74478D01*
X73507D01*
Y74878D01*
X72707D01*
Y74478D01*
X72307D01*
Y73678D01*
X72707D01*
X54749Y77484D02*
Y77084D01*
X55549D01*
Y77484D01*
X55949D01*
Y78284D01*
X55549D01*
Y78684D01*
X54749D01*
Y78284D01*
X54349D01*
Y77484D01*
X54749D01*
Y69610D02*
Y69210D01*
X55549D01*
Y69610D01*
X55949D01*
Y70410D01*
X55549D01*
Y70810D01*
X54749D01*
Y70410D01*
X54349D01*
Y69610D01*
X54749D01*
Y61736D02*
Y61336D01*
X55549D01*
Y61736D01*
X55949D01*
Y62536D01*
X55549D01*
Y62936D01*
X54749D01*
Y62536D01*
X54349D01*
Y61736D01*
X54749D01*
Y53862D02*
Y53462D01*
X55549D01*
Y53862D01*
X55949D01*
Y54662D01*
X55549D01*
Y55062D01*
X54749D01*
Y54662D01*
X54349D01*
Y53862D01*
X54749D01*
Y45988D02*
Y45588D01*
X55549D01*
Y45988D01*
X55949D01*
Y46788D01*
X55549D01*
Y47188D01*
X54749D01*
Y46788D01*
X54349D01*
Y45988D01*
X54749D01*
X49011Y29190D02*
Y28790D01*
X49812D01*
Y29190D01*
X50212D01*
Y29990D01*
X49812D01*
Y30390D01*
X49011D01*
Y29990D01*
X48612D01*
Y29190D01*
X49011D01*
X58717Y19033D02*
Y18633D01*
X59517D01*
Y19033D01*
X59917D01*
Y19833D01*
X59517D01*
Y20233D01*
X58717D01*
Y19833D01*
X58317D01*
Y19033D01*
X58717D01*
X60896Y26600D02*
Y26200D01*
X61696D01*
Y26600D01*
X62096D01*
Y27400D01*
X61696D01*
Y27800D01*
X60896D01*
Y27400D01*
X60496D01*
Y26600D01*
X60896D01*
X62459Y34317D02*
Y33917D01*
X63259D01*
Y34317D01*
X63659D01*
Y35117D01*
X63259D01*
Y35517D01*
X62459D01*
Y35117D01*
X62059D01*
Y34317D01*
X62459D01*
X60896Y42034D02*
Y41634D01*
X61696D01*
Y42034D01*
X62096D01*
Y42834D01*
X61696D01*
Y43234D01*
X60896D01*
Y42834D01*
X60496D01*
Y42034D01*
X60896D01*
Y49908D02*
Y49508D01*
X61696D01*
Y49908D01*
X62096D01*
Y50708D01*
X61696D01*
Y51108D01*
X60896D01*
Y50708D01*
X60496D01*
Y49908D01*
X60896D01*
Y57782D02*
Y57382D01*
X61696D01*
Y57782D01*
X62096D01*
Y58582D01*
X61696D01*
Y58982D01*
X60896D01*
Y58582D01*
X60496D01*
Y57782D01*
X60896D01*
X72944Y36428D02*
X73344D01*
X73744Y36828D01*
X74144Y36428D01*
X74544D01*
Y36828D01*
X74144Y37228D01*
X74544Y37628D01*
Y38028D01*
X74144D01*
X73744Y37628D01*
X73344Y38028D01*
X72944D01*
Y37628D01*
X73344Y37228D01*
X72944Y36828D01*
Y36428D01*
X66027Y29684D02*
X66427D01*
X66827Y30084D01*
X67227Y29684D01*
X67627D01*
Y30084D01*
X67227Y30484D01*
X67627Y30884D01*
Y31284D01*
X67227D01*
X66827Y30884D01*
X66427Y31284D01*
X66027D01*
Y30884D01*
X66427Y30484D01*
X66027Y30084D01*
Y29684D01*
X143279Y273511D02*
X143679D01*
X144079Y273911D01*
X144479Y273511D01*
X144879D01*
Y273911D01*
X144479Y274311D01*
X144879Y274711D01*
Y275111D01*
X144479D01*
X144079Y274711D01*
X143679Y275111D01*
X143279D01*
Y274711D01*
X143679Y274311D01*
X143279Y273911D01*
Y273511D01*
X138960Y290842D02*
X139360D01*
X139760Y291242D01*
X140160Y290842D01*
X140560D01*
Y291242D01*
X140160Y291642D01*
X140560Y292042D01*
Y292442D01*
X140160D01*
X139760Y292042D01*
X139360Y292442D01*
X138960D01*
Y292042D01*
X139360Y291642D01*
X138960Y291242D01*
Y290842D01*
X133881Y290905D02*
X134281D01*
X134681Y291305D01*
X135081Y290905D01*
X135481D01*
Y291305D01*
X135081Y291705D01*
X135481Y292105D01*
Y292505D01*
X135081D01*
X134681Y292105D01*
X134281Y292505D01*
X133881D01*
Y292105D01*
X134281Y291705D01*
X133881Y291305D01*
Y290905D01*
X312948Y161519D02*
X313348D01*
X313748Y161919D01*
X314148Y161519D01*
X314548D01*
Y161919D01*
X314148Y162319D01*
X314548Y162719D01*
Y163119D01*
X314148D01*
X313748Y162719D01*
X313348Y163119D01*
X312948D01*
Y162719D01*
X313348Y162319D01*
X312948Y161919D01*
Y161519D01*
X293991Y164999D02*
X294391D01*
X294791Y165399D01*
X295191Y164999D01*
X295591D01*
Y165399D01*
X295191Y165799D01*
X295591Y166199D01*
Y166599D01*
X295191D01*
X294791Y166199D01*
X294391Y166599D01*
X293991D01*
Y166199D01*
X294391Y165799D01*
X293991Y165399D01*
Y164999D01*
X307724Y157570D02*
X308124D01*
X308524Y157970D01*
X308924Y157570D01*
X309324D01*
Y157970D01*
X308924Y158370D01*
X309324Y158770D01*
Y159170D01*
X308924D01*
X308524Y158770D01*
X308124Y159170D01*
X307724D01*
Y158770D01*
X308124Y158370D01*
X307724Y157970D01*
Y157570D01*
X303302Y159826D02*
X303702D01*
X304102Y160226D01*
X304502Y159826D01*
X304902D01*
Y160226D01*
X304502Y160626D01*
X304902Y161026D01*
Y161426D01*
X304502D01*
X304102Y161026D01*
X303702Y161426D01*
X303302D01*
Y161026D01*
X303702Y160626D01*
X303302Y160226D01*
Y159826D01*
X233507Y222397D02*
X233907D01*
X234307Y222797D01*
X234707Y222397D01*
X235107D01*
Y222797D01*
X234707Y223197D01*
X235107Y223597D01*
Y223997D01*
X234707D01*
X234307Y223597D01*
X233907Y223997D01*
X233507D01*
Y223597D01*
X233907Y223197D01*
X233507Y222797D01*
Y222397D01*
X250901Y222283D02*
X251301D01*
X251701Y222683D01*
X252101Y222283D01*
X252501D01*
Y222683D01*
X252101Y223083D01*
X252501Y223483D01*
Y223883D01*
X252101D01*
X251701Y223483D01*
X251301Y223883D01*
X250901D01*
Y223483D01*
X251301Y223083D01*
X250901Y222683D01*
Y222283D01*
X217066Y197456D02*
X217466D01*
X217866Y197856D01*
X218266Y197456D01*
X218666D01*
Y197856D01*
X218266Y198256D01*
X218666Y198656D01*
Y199056D01*
X218266D01*
X217866Y198656D01*
X217466Y199056D01*
X217066D01*
Y198656D01*
X217466Y198256D01*
X217066Y197856D01*
Y197456D01*
X215972Y199854D02*
X216372D01*
X216772Y200254D01*
X217172Y199854D01*
X217572D01*
Y200254D01*
X217172Y200654D01*
X217572Y201054D01*
Y201453D01*
X217172D01*
X216772Y201054D01*
X216372Y201453D01*
X215972D01*
Y201054D01*
X216372Y200654D01*
X215972Y200254D01*
Y199854D01*
X221279Y209594D02*
X221679D01*
X222079Y209994D01*
X222479Y209594D01*
X222879D01*
Y209994D01*
X222479Y210394D01*
X222879Y210794D01*
Y211194D01*
X222479D01*
X222079Y210794D01*
X221679Y211194D01*
X221279D01*
Y210794D01*
X221679Y210394D01*
X221279Y209994D01*
Y209594D01*
X220814Y199700D02*
X221214D01*
X221614Y200100D01*
X222014Y199700D01*
X222414D01*
Y200100D01*
X222014Y200500D01*
X222414Y200900D01*
Y201300D01*
X222014D01*
X221614Y200900D01*
X221214Y201300D01*
X220814D01*
Y200900D01*
X221214Y200500D01*
X220814Y200100D01*
Y199700D01*
X231550Y251952D02*
X231950D01*
X232350Y252352D01*
X232750Y251952D01*
X233150D01*
Y252352D01*
X232750Y252752D01*
X233150Y253152D01*
Y253552D01*
X232750D01*
X232350Y253152D01*
X231950Y253552D01*
X231550D01*
Y253152D01*
X231950Y252752D01*
X231550Y252352D01*
Y251952D01*
X237180Y266558D02*
X237580D01*
X237980Y266958D01*
X238380Y266558D01*
X238780D01*
Y266958D01*
X238380Y267358D01*
X238780Y267758D01*
Y268158D01*
X238380D01*
X237980Y267758D01*
X237580Y268158D01*
X237180D01*
Y267758D01*
X237580Y267358D01*
X237180Y266958D01*
Y266558D01*
X226834Y266460D02*
X227234D01*
X227634Y266860D01*
X228034Y266460D01*
X228434D01*
Y266860D01*
X228034Y267260D01*
X228434Y267660D01*
Y268060D01*
X228034D01*
X227634Y267660D01*
X227234Y268060D01*
X226834D01*
Y267660D01*
X227234Y267260D01*
X226834Y266860D01*
Y266460D01*
X237121Y269897D02*
X237521D01*
X237921Y270297D01*
X238321Y269897D01*
X238721D01*
Y270297D01*
X238321Y270697D01*
X238721Y271097D01*
Y271497D01*
X238321D01*
X237921Y271097D01*
X237521Y271497D01*
X237121D01*
Y271097D01*
X237521Y270697D01*
X237121Y270297D01*
Y269897D01*
X235822Y284574D02*
X236222D01*
X236622Y284974D01*
X237022Y284574D01*
X237422D01*
Y284974D01*
X237022Y285374D01*
X237422Y285774D01*
Y286174D01*
X237022D01*
X236622Y285774D01*
X236222Y286174D01*
X235822D01*
Y285774D01*
X236222Y285374D01*
X235822Y284974D01*
Y284574D01*
X235818Y289704D02*
X236218D01*
X236618Y290104D01*
X237018Y289704D01*
X237418D01*
Y290104D01*
X237018Y290504D01*
X237418Y290904D01*
Y291304D01*
X237018D01*
X236618Y290904D01*
X236218Y291304D01*
X235818D01*
Y290904D01*
X236218Y290504D01*
X235818Y290104D01*
Y289704D01*
X226798Y289822D02*
X227198D01*
X227598Y290222D01*
X227998Y289822D01*
X228398D01*
Y290222D01*
X227998Y290622D01*
X228398Y291022D01*
Y291422D01*
X227998D01*
X227598Y291022D01*
X227198Y291422D01*
X226798D01*
Y291022D01*
X227198Y290622D01*
X226798Y290222D01*
Y289822D01*
X233090Y287610D02*
X233490D01*
X233890Y288010D01*
X234290Y287610D01*
X234690D01*
Y288010D01*
X234290Y288409D01*
X234690Y288809D01*
Y289210D01*
X234290D01*
X233890Y288809D01*
X233490Y289210D01*
X233090D01*
Y288809D01*
X233490Y288409D01*
X233090Y288010D01*
Y287610D01*
X219443Y34194D02*
Y33795D01*
X220243D01*
Y34194D01*
X220642D01*
Y34995D01*
X220243D01*
Y35394D01*
X219443D01*
Y34995D01*
X219042D01*
Y34194D01*
X219443D01*
X228436Y344621D02*
X228836D01*
X229236Y345021D01*
X229636Y344621D01*
X230036D01*
Y345021D01*
X229636Y345421D01*
X230036Y345821D01*
Y346221D01*
X229636D01*
X229236Y345821D01*
X228836Y346221D01*
X228436D01*
Y345821D01*
X228836Y345421D01*
X228436Y345021D01*
Y344621D01*
X225901D02*
X226301D01*
X226701Y345021D01*
X227101Y344621D01*
X227501D01*
Y345021D01*
X227101Y345421D01*
X227501Y345821D01*
Y346221D01*
X227101D01*
X226701Y345821D01*
X226301Y346221D01*
X225901D01*
Y345821D01*
X226301Y345421D01*
X225901Y345021D01*
Y344621D01*
X233295Y270039D02*
X233695D01*
X234095Y270439D01*
X234494Y270039D01*
X234894D01*
Y270439D01*
X234494Y270839D01*
X234894Y271239D01*
Y271639D01*
X234494D01*
X234095Y271239D01*
X233695Y271639D01*
X233295D01*
Y271239D01*
X233695Y270839D01*
X233295Y270439D01*
Y270039D01*
X216168Y181973D02*
X216568D01*
X216968Y182373D01*
X217368Y181973D01*
X217768D01*
Y182373D01*
X217368Y182773D01*
X217768Y183173D01*
Y183573D01*
X217368D01*
X216968Y183173D01*
X216568Y183573D01*
X216168D01*
Y183173D01*
X216568Y182773D01*
X216168Y182373D01*
Y181973D01*
X212629Y329484D02*
X213029D01*
X213429Y329884D01*
X213829Y329484D01*
X214229D01*
Y329884D01*
X213829Y330283D01*
X214229Y330683D01*
Y331083D01*
X213829D01*
X213429Y330683D01*
X213029Y331083D01*
X212629D01*
Y330683D01*
X213029Y330283D01*
X212629Y329884D01*
Y329484D01*
X225070Y287610D02*
X225470D01*
X225870Y288010D01*
X226270Y287610D01*
X226670D01*
Y288010D01*
X226270Y288409D01*
X226670Y288809D01*
Y289210D01*
X226270D01*
X225870Y288809D01*
X225470Y289210D01*
X225070D01*
Y288809D01*
X225470Y288409D01*
X225070Y288010D01*
Y287610D01*
X188905Y332094D02*
X189305D01*
X189705Y332494D01*
X190105Y332094D01*
X190505D01*
Y332494D01*
X190105Y332894D01*
X190505Y333294D01*
Y333694D01*
X190105D01*
X189705Y333294D01*
X189305Y333694D01*
X188905D01*
Y333294D01*
X189305Y332894D01*
X188905Y332494D01*
Y332094D01*
X184212D02*
X184612D01*
X185012Y332494D01*
X185412Y332094D01*
X185812D01*
Y332494D01*
X185412Y332894D01*
X185812Y333294D01*
Y333694D01*
X185412D01*
X185012Y333294D01*
X184612Y333694D01*
X184212D01*
Y333294D01*
X184612Y332894D01*
X184212Y332494D01*
Y332094D01*
X230326Y338909D02*
X230726D01*
X231126Y339309D01*
X231526Y338909D01*
X231926D01*
Y339309D01*
X231526Y339709D01*
X231926Y340109D01*
Y340509D01*
X231526D01*
X231126Y340109D01*
X230726Y340509D01*
X230326D01*
Y340109D01*
X230726Y339709D01*
X230326Y339309D01*
Y338909D01*
X228873Y270039D02*
X229273D01*
X229673Y270439D01*
X230073Y270039D01*
X230473D01*
Y270439D01*
X230073Y270839D01*
X230473Y271239D01*
Y271639D01*
X230073D01*
X229673Y271239D01*
X229273Y271639D01*
X228873D01*
Y271239D01*
X229273Y270839D01*
X228873Y270439D01*
Y270039D01*
X141346D02*
X141746D01*
X142146Y270439D01*
X142546Y270039D01*
X142946D01*
Y270439D01*
X142546Y270839D01*
X142946Y271239D01*
Y271639D01*
X142546D01*
X142146Y271239D01*
X141746Y271639D01*
X141346D01*
Y271239D01*
X141746Y270839D01*
X141346Y270439D01*
Y270039D01*
X136184Y287275D02*
X136584D01*
X136984Y287675D01*
X137384Y287275D01*
X137784D01*
Y287675D01*
X137384Y288075D01*
X137784Y288475D01*
Y288875D01*
X137384D01*
X136984Y288475D01*
X136584Y288875D01*
X136184D01*
Y288475D01*
X136584Y288075D01*
X136184Y287675D01*
Y287275D01*
X228661Y251940D02*
X229061D01*
X229461Y252340D01*
X229861Y251940D01*
X230261D01*
Y252340D01*
X229861Y252740D01*
X230261Y253140D01*
Y253540D01*
X229861D01*
X229461Y253140D01*
X229061Y253540D01*
X228661D01*
Y253140D01*
X229061Y252740D01*
X228661Y252340D01*
Y251940D01*
X224984Y270039D02*
X225383D01*
X225783Y270439D01*
X226184Y270039D01*
X226584D01*
Y270439D01*
X226184Y270839D01*
X226584Y271239D01*
Y271639D01*
X226184D01*
X225783Y271239D01*
X225383Y271639D01*
X224984D01*
Y271239D01*
X225383Y270839D01*
X224984Y270439D01*
Y270039D01*
X222393Y332094D02*
X222793D01*
X223193Y332494D01*
X223593Y332094D01*
X223993D01*
Y332494D01*
X223593Y332894D01*
X223993Y333294D01*
Y333694D01*
X223593D01*
X223193Y333294D01*
X222793Y333694D01*
X222393D01*
Y333294D01*
X222793Y332894D01*
X222393Y332494D01*
Y332094D01*
X220145Y338421D02*
X220545D01*
X220945Y338821D01*
X221345Y338421D01*
X221745D01*
Y338821D01*
X221345Y339220D01*
X221745Y339620D01*
Y340020D01*
X221345D01*
X220945Y339620D01*
X220545Y340020D01*
X220145D01*
Y339620D01*
X220545Y339220D01*
X220145Y338821D01*
Y338421D01*
X217775Y340405D02*
X218175D01*
X218575Y340805D01*
X218975Y340405D01*
X219375D01*
Y340805D01*
X218975Y341205D01*
X219375Y341605D01*
Y342005D01*
X218975D01*
X218575Y341605D01*
X218175Y342005D01*
X217775D01*
Y341605D01*
X218175Y341205D01*
X217775Y340805D01*
Y340405D01*
X215558Y338421D02*
X215958D01*
X216358Y338821D01*
X216758Y338421D01*
X217158D01*
Y338821D01*
X216758Y339220D01*
X217158Y339620D01*
Y340020D01*
X216758D01*
X216358Y339620D01*
X215958Y340020D01*
X215558D01*
Y339620D01*
X215958Y339220D01*
X215558Y338821D01*
Y338421D01*
X32141Y57108D02*
Y56708D01*
X32941D01*
Y57108D01*
X33341D01*
Y57908D01*
X32941D01*
Y58308D01*
X32141D01*
Y57908D01*
X31741D01*
Y57108D01*
X32141D01*
X239885Y179176D02*
X240285D01*
X240685Y179576D01*
X241085Y179176D01*
X241485D01*
Y179576D01*
X241085Y179976D01*
X241485Y180376D01*
Y180776D01*
X241085D01*
X240685Y180376D01*
X240285Y180776D01*
X239885D01*
Y180376D01*
X240285Y179976D01*
X239885Y179576D01*
Y179176D01*
X239964Y168121D02*
X240364D01*
X240764Y168521D01*
X241164Y168121D01*
X241564D01*
Y168521D01*
X241164Y168921D01*
X241564Y169321D01*
Y169721D01*
X241164D01*
X240764Y169321D01*
X240364Y169721D01*
X239964D01*
Y169321D01*
X240364Y168921D01*
X239964Y168521D01*
Y168121D01*
X195283Y344621D02*
X195683D01*
X196083Y345021D01*
X196483Y344621D01*
X196883D01*
Y345021D01*
X196483Y345421D01*
X196883Y345821D01*
Y346221D01*
X196483D01*
X196083Y345821D01*
X195683Y346221D01*
X195283D01*
Y345821D01*
X195683Y345421D01*
X195283Y345021D01*
Y344621D01*
X197956Y338421D02*
X198356D01*
X198756Y338821D01*
X199156Y338421D01*
X199556D01*
Y338821D01*
X199156Y339220D01*
X199556Y339620D01*
Y340020D01*
X199156D01*
X198756Y339620D01*
X198356Y340020D01*
X197956D01*
Y339620D01*
X198356Y339220D01*
X197956Y338821D01*
Y338421D01*
X193987Y332094D02*
X194387D01*
X194787Y332494D01*
X195187Y332094D01*
X195587D01*
Y332494D01*
X195187Y332894D01*
X195587Y333294D01*
Y333694D01*
X195187D01*
X194787Y333294D01*
X194387Y333694D01*
X193987D01*
Y333294D01*
X194387Y332894D01*
X193987Y332494D01*
Y332094D01*
X52985Y260222D02*
Y259822D01*
X53785D01*
Y260222D01*
X54185D01*
Y261022D01*
X53785D01*
Y261422D01*
X52985D01*
Y261022D01*
X52585D01*
Y260222D01*
X52985D01*
X88090Y87464D02*
X88490D01*
X88890Y87864D01*
X89290Y87464D01*
X89690D01*
Y87864D01*
X89290Y88264D01*
X89690Y88664D01*
Y89064D01*
X89290D01*
X88890Y88664D01*
X88490Y89064D01*
X88090D01*
Y88664D01*
X88490Y88264D01*
X88090Y87864D01*
Y87464D01*
X212251Y203542D02*
X212651D01*
X213051Y203942D01*
X213451Y203542D01*
X213851D01*
Y203942D01*
X213451Y204343D01*
X213851Y204743D01*
Y205142D01*
X213451D01*
X213051Y204743D01*
X212651Y205142D01*
X212251D01*
Y204743D01*
X212651Y204343D01*
X212251Y203942D01*
Y203542D01*
X212484Y199728D02*
X212883D01*
X213283Y200128D01*
X213684Y199728D01*
X214084D01*
Y200128D01*
X213684Y200528D01*
X214084Y200928D01*
Y201328D01*
X213684D01*
X213283Y200928D01*
X212883Y201328D01*
X212484D01*
Y200928D01*
X212883Y200528D01*
X212484Y200128D01*
Y199728D01*
X218881Y344621D02*
X219281D01*
X219681Y345021D01*
X220081Y344621D01*
X220481D01*
Y345021D01*
X220081Y345421D01*
X220481Y345821D01*
Y346221D01*
X220081D01*
X219681Y345821D01*
X219281Y346221D01*
X218881D01*
Y345821D01*
X219281Y345421D01*
X218881Y345021D01*
Y344621D01*
X167857Y332094D02*
X168257D01*
X168657Y332494D01*
X169057Y332094D01*
X169457D01*
Y332494D01*
X169057Y332894D01*
X169457Y333294D01*
Y333694D01*
X169057D01*
X168657Y333294D01*
X168257Y333694D01*
X167857D01*
Y333294D01*
X168257Y332894D01*
X167857Y332494D01*
Y332094D01*
X160743D02*
X161143D01*
X161543Y332494D01*
X161943Y332094D01*
X162343D01*
Y332494D01*
X161943Y332894D01*
X162343Y333294D01*
Y333694D01*
X161943D01*
X161543Y333294D01*
X161143Y333694D01*
X160743D01*
Y333294D01*
X161143Y332894D01*
X160743Y332494D01*
Y332094D01*
X208019D02*
X208419D01*
X208819Y332494D01*
X209219Y332094D01*
X209619D01*
Y332494D01*
X209219Y332894D01*
X209619Y333294D01*
Y333694D01*
X209219D01*
X208819Y333294D01*
X208419Y333694D01*
X208019D01*
Y333294D01*
X208419Y332894D01*
X208019Y332494D01*
Y332094D01*
X203186D02*
X203586D01*
X203986Y332494D01*
X204386Y332094D01*
X204786D01*
Y332494D01*
X204386Y332894D01*
X204786Y333294D01*
Y333694D01*
X204386D01*
X203986Y333294D01*
X203586Y333694D01*
X203186D01*
Y333294D01*
X203586Y332894D01*
X203186Y332494D01*
Y332094D01*
X177913D02*
X178313D01*
X178713Y332494D01*
X179113Y332094D01*
X179513D01*
Y332494D01*
X179113Y332894D01*
X179513Y333294D01*
Y333694D01*
X179113D01*
X178713Y333294D01*
X178313Y333694D01*
X177913D01*
Y333294D01*
X178313Y332894D01*
X177913Y332494D01*
Y332094D01*
X198598D02*
X198998D01*
X199398Y332494D01*
X199798Y332094D01*
X200198D01*
Y332494D01*
X199798Y332894D01*
X200198Y333294D01*
Y333694D01*
X199798D01*
X199398Y333294D01*
X198998Y333694D01*
X198598D01*
Y333294D01*
X198998Y332894D01*
X198598Y332494D01*
Y332094D01*
X211413Y338421D02*
X211813D01*
X212213Y338821D01*
X212613Y338421D01*
X213013D01*
Y338821D01*
X212613Y339220D01*
X213013Y339620D01*
Y340020D01*
X212613D01*
X212213Y339620D01*
X211813Y340020D01*
X211413D01*
Y339620D01*
X211813Y339220D01*
X211413Y338821D01*
Y338421D01*
X206968D02*
X207368D01*
X207768Y338821D01*
X208168Y338421D01*
X208568D01*
Y338821D01*
X208168Y339220D01*
X208568Y339620D01*
Y340020D01*
X208168D01*
X207768Y339620D01*
X207368Y340020D01*
X206968D01*
Y339620D01*
X207368Y339220D01*
X206968Y338821D01*
Y338421D01*
X202283D02*
X202683D01*
X203083Y338821D01*
X203483Y338421D01*
X203883D01*
Y338821D01*
X203483Y339220D01*
X203883Y339620D01*
Y340020D01*
X203483D01*
X203083Y339620D01*
X202683Y340020D01*
X202283D01*
Y339620D01*
X202683Y339220D01*
X202283Y338821D01*
Y338421D01*
X192751D02*
X193151D01*
X193551Y338821D01*
X193951Y338421D01*
X194351D01*
Y338821D01*
X193951Y339220D01*
X194351Y339620D01*
Y340020D01*
X193951D01*
X193551Y339620D01*
X193151Y340020D01*
X192751D01*
Y339620D01*
X193151Y339220D01*
X192751Y338821D01*
Y338421D01*
X187822D02*
X188222D01*
X188622Y338821D01*
X189022Y338421D01*
X189422D01*
Y338821D01*
X189022Y339220D01*
X189422Y339620D01*
Y340020D01*
X189022D01*
X188622Y339620D01*
X188222Y340020D01*
X187822D01*
Y339620D01*
X188222Y339220D01*
X187822Y338821D01*
Y338421D01*
X183208D02*
X183608D01*
X184008Y338821D01*
X184408Y338421D01*
X184808D01*
Y338821D01*
X184408Y339220D01*
X184808Y339620D01*
Y340020D01*
X184408D01*
X184008Y339620D01*
X183608Y340020D01*
X183208D01*
Y339620D01*
X183608Y339220D01*
X183208Y338821D01*
Y338421D01*
X179082D02*
X179482D01*
X179882Y338821D01*
X180282Y338421D01*
X180682D01*
Y338821D01*
X180282Y339220D01*
X180682Y339620D01*
Y340020D01*
X180282D01*
X179882Y339620D01*
X179482Y340020D01*
X179082D01*
Y339620D01*
X179482Y339220D01*
X179082Y338821D01*
Y338421D01*
X165704D02*
X166104D01*
X166504Y338821D01*
X166904Y338421D01*
X167304D01*
Y338821D01*
X166904Y339220D01*
X167304Y339620D01*
Y340020D01*
X166904D01*
X166504Y339620D01*
X166104Y340020D01*
X165704D01*
Y339620D01*
X166104Y339220D01*
X165704Y338821D01*
Y338421D01*
X172944Y332094D02*
X173344D01*
X173744Y332494D01*
X174144Y332094D01*
X174544D01*
Y332494D01*
X174144Y332894D01*
X174544Y333294D01*
Y333694D01*
X174144D01*
X173744Y333294D01*
X173344Y333694D01*
X172944D01*
Y333294D01*
X173344Y332894D01*
X172944Y332494D01*
Y332094D01*
X171503Y338421D02*
X171903D01*
X172303Y338821D01*
X172703Y338421D01*
X173103D01*
Y338821D01*
X172703Y339220D01*
X173103Y339620D01*
Y340020D01*
X172703D01*
X172303Y339620D01*
X171903Y340020D01*
X171503D01*
Y339620D01*
X171903Y339220D01*
X171503Y338821D01*
Y338421D01*
X163428Y332094D02*
X163828D01*
X164228Y332494D01*
X164628Y332094D01*
X165028D01*
Y332494D01*
X164628Y332894D01*
X165028Y333294D01*
Y333694D01*
X164628D01*
X164228Y333294D01*
X163828Y333694D01*
X163428D01*
Y333294D01*
X163828Y332894D01*
X163428Y332494D01*
Y332094D01*
X175220Y338421D02*
X175620D01*
X176020Y338821D01*
X176420Y338421D01*
X176820D01*
Y338821D01*
X176420Y339220D01*
X176820Y339620D01*
Y340020D01*
X176420D01*
X176020Y339620D01*
X175620Y340020D01*
X175220D01*
Y339620D01*
X175620Y339220D01*
X175220Y338821D01*
Y338421D01*
X214306Y344621D02*
X214706D01*
X215106Y345021D01*
X215506Y344621D01*
X215906D01*
Y345021D01*
X215506Y345421D01*
X215906Y345821D01*
Y346221D01*
X215506D01*
X215106Y345821D01*
X214706Y346221D01*
X214306D01*
Y345821D01*
X214706Y345421D01*
X214306Y345021D01*
Y344621D01*
X209476D02*
X209876D01*
X210276Y345021D01*
X210676Y344621D01*
X211076D01*
Y345021D01*
X210676Y345421D01*
X211076Y345821D01*
Y346221D01*
X210676D01*
X210276Y345821D01*
X209876Y346221D01*
X209476D01*
Y345821D01*
X209876Y345421D01*
X209476Y345021D01*
Y344621D01*
X204901D02*
X205301D01*
X205701Y345021D01*
X206101Y344621D01*
X206501D01*
Y345021D01*
X206101Y345421D01*
X206501Y345821D01*
Y346221D01*
X206101D01*
X205701Y345821D01*
X205301Y346221D01*
X204901D01*
Y345821D01*
X205301Y345421D01*
X204901Y345021D01*
Y344621D01*
X200007D02*
X200407D01*
X200807Y345021D01*
X201207Y344621D01*
X201607D01*
Y345021D01*
X201207Y345421D01*
X201607Y345821D01*
Y346221D01*
X201207D01*
X200807Y345821D01*
X200407Y346221D01*
X200007D01*
Y345821D01*
X200407Y345421D01*
X200007Y345021D01*
Y344621D01*
X190783D02*
X191183D01*
X191583Y345021D01*
X191983Y344621D01*
X192383D01*
Y345021D01*
X191983Y345421D01*
X192383Y345821D01*
Y346221D01*
X191983D01*
X191583Y345821D01*
X191183Y346221D01*
X190783D01*
Y345821D01*
X191183Y345421D01*
X190783Y345021D01*
Y344621D01*
X185755D02*
X186155D01*
X186555Y345021D01*
X186955Y344621D01*
X187355D01*
Y345021D01*
X186955Y345421D01*
X187355Y345821D01*
Y346221D01*
X186955D01*
X186555Y345821D01*
X186155Y346221D01*
X185755D01*
Y345821D01*
X186155Y345421D01*
X185755Y345021D01*
Y344621D01*
X181113D02*
X181513D01*
X181913Y345021D01*
X182313Y344621D01*
X182713D01*
Y345021D01*
X182313Y345421D01*
X182713Y345821D01*
Y346221D01*
X182313D01*
X181913Y345821D01*
X181513Y346221D01*
X181113D01*
Y345821D01*
X181513Y345421D01*
X181113Y345021D01*
Y344621D01*
X176452D02*
X176852D01*
X177252Y345021D01*
X177652Y344621D01*
X178052D01*
Y345021D01*
X177652Y345421D01*
X178052Y345821D01*
Y346221D01*
X177652D01*
X177252Y345821D01*
X176852Y346221D01*
X176452D01*
Y345821D01*
X176852Y345421D01*
X176452Y345021D01*
Y344621D01*
X171696D02*
X172096D01*
X172496Y345021D01*
X172896Y344621D01*
X173296D01*
Y345021D01*
X172896Y345421D01*
X173296Y345821D01*
Y346221D01*
X172896D01*
X172496Y345821D01*
X172096Y346221D01*
X171696D01*
Y345821D01*
X172096Y345421D01*
X171696Y345021D01*
Y344621D01*
X166877D02*
X167277D01*
X167677Y345021D01*
X168077Y344621D01*
X168477D01*
Y345021D01*
X168077Y345421D01*
X168477Y345821D01*
Y346221D01*
X168077D01*
X167677Y345821D01*
X167277Y346221D01*
X166877D01*
Y345821D01*
X167277Y345421D01*
X166877Y345021D01*
Y344621D01*
X211519Y183991D02*
X211919D01*
X212319Y184391D01*
X212719Y183991D01*
X213119D01*
Y184391D01*
X212719Y184791D01*
X213119Y185191D01*
Y185591D01*
X212719D01*
X212319Y185191D01*
X211919Y185591D01*
X211519D01*
Y185191D01*
X211919Y184791D01*
X211519Y184391D01*
Y183991D01*
X138484Y237629D02*
X138883D01*
X139284Y238029D01*
X139683Y237629D01*
X140084D01*
Y238029D01*
X139683Y238429D01*
X140084Y238829D01*
Y239229D01*
X139683D01*
X139284Y238829D01*
X138883Y239229D01*
X138484D01*
Y238829D01*
X138883Y238429D01*
X138484Y238029D01*
Y237629D01*
X129714Y223479D02*
X130114D01*
X130514Y223879D01*
X130914Y223479D01*
X131314D01*
Y223879D01*
X130914Y224279D01*
X131314Y224679D01*
Y225079D01*
X130914D01*
X130514Y224679D01*
X130114Y225079D01*
X129714D01*
Y224679D01*
X130114Y224279D01*
X129714Y223879D01*
Y223479D01*
X129857Y229056D02*
X130257D01*
X130657Y229456D01*
X131057Y229056D01*
X131457D01*
Y229456D01*
X131057Y229856D01*
X131457Y230256D01*
Y230656D01*
X131057D01*
X130657Y230256D01*
X130257Y230656D01*
X129857D01*
Y230256D01*
X130257Y229856D01*
X129857Y229456D01*
Y229056D01*
X47346Y281713D02*
X48146Y282513D01*
X48946Y281713D01*
X48146Y280913D01*
X47346Y281713D01*
X232594Y168184D02*
X232994D01*
X233394Y168584D01*
X233794Y168184D01*
X234194D01*
Y168584D01*
X233794Y168984D01*
X234194Y169384D01*
Y169784D01*
X233794D01*
X233394Y169384D01*
X232994Y169784D01*
X232594D01*
Y169384D01*
X232994Y168984D01*
X232594Y168584D01*
Y168184D01*
X232625Y179072D02*
X233025D01*
X233425Y179472D01*
X233825Y179072D01*
X234225D01*
Y179472D01*
X233825Y179872D01*
X234225Y180272D01*
Y180672D01*
X233825D01*
X233425Y180272D01*
X233025Y180672D01*
X232625D01*
Y180272D01*
X233025Y179872D01*
X232625Y179472D01*
Y179072D01*
X237858Y213960D02*
X238258D01*
X238657Y214360D01*
X239057Y213960D01*
X239458D01*
Y214360D01*
X239057Y214760D01*
X239458Y215160D01*
Y215560D01*
X239057D01*
X238657Y215160D01*
X238258Y215560D01*
X237858D01*
Y215160D01*
X238258Y214760D01*
X237858Y214360D01*
Y213960D01*
X243006Y200690D02*
X243406D01*
X243806Y201090D01*
X244206Y200690D01*
X244606D01*
Y201090D01*
X244206Y201490D01*
X244606Y201890D01*
Y202290D01*
X244206D01*
X243806Y201890D01*
X243406Y202290D01*
X243006D01*
Y201890D01*
X243406Y201490D01*
X243006Y201090D01*
Y200690D01*
X211830Y351570D02*
X212230D01*
X212630Y351970D01*
X213030Y351570D01*
X213430D01*
Y351970D01*
X213030Y352370D01*
X213430Y352770D01*
Y353170D01*
X213030D01*
X212630Y352770D01*
X212230Y353170D01*
X211830D01*
Y352770D01*
X212230Y352370D01*
X211830Y351970D01*
Y351570D01*
X202413D02*
X202813D01*
X203213Y351970D01*
X203613Y351570D01*
X204013D01*
Y351970D01*
X203613Y352370D01*
X204013Y352770D01*
Y353170D01*
X203613D01*
X203213Y352770D01*
X202813Y353170D01*
X202413D01*
Y352770D01*
X202813Y352370D01*
X202413Y351970D01*
Y351570D01*
X192913D02*
X193313D01*
X193713Y351970D01*
X194113Y351570D01*
X194513D01*
Y351970D01*
X194113Y352370D01*
X194513Y352770D01*
Y353170D01*
X194113D01*
X193713Y352770D01*
X193313Y353170D01*
X192913D01*
Y352770D01*
X193313Y352370D01*
X192913Y351970D01*
Y351570D01*
X183554D02*
X183954D01*
X184354Y351970D01*
X184754Y351570D01*
X185154D01*
Y351970D01*
X184754Y352370D01*
X185154Y352770D01*
Y353170D01*
X184754D01*
X184354Y352770D01*
X183954Y353170D01*
X183554D01*
Y352770D01*
X183954Y352370D01*
X183554Y351970D01*
Y351570D01*
X159928D02*
X160328D01*
X160728Y351970D01*
X161128Y351570D01*
X161528D01*
Y351970D01*
X161128Y352370D01*
X161528Y352770D01*
Y353170D01*
X161128D01*
X160728Y352770D01*
X160328Y353170D01*
X159928D01*
Y352770D01*
X160328Y352370D01*
X159928Y351970D01*
Y351570D01*
X174082D02*
X174482D01*
X174882Y351970D01*
X175282Y351570D01*
X175682D01*
Y351970D01*
X175282Y352370D01*
X175682Y352770D01*
Y353170D01*
X175282D01*
X174882Y352770D01*
X174482Y353170D01*
X174082D01*
Y352770D01*
X174482Y352370D01*
X174082Y351970D01*
Y351570D01*
X231912Y332094D02*
X232312D01*
X232713Y332494D01*
X233113Y332094D01*
X233512D01*
Y332494D01*
X233113Y332894D01*
X233512Y333294D01*
Y333694D01*
X233113D01*
X232713Y333294D01*
X232312Y333694D01*
X231912D01*
Y333294D01*
X232312Y332894D01*
X231912Y332494D01*
Y332094D01*
X155999Y351570D02*
X156399D01*
X156799Y351970D01*
X157199Y351570D01*
X157599D01*
Y351970D01*
X157199Y352370D01*
X157599Y352770D01*
Y353170D01*
X157199D01*
X156799Y352770D01*
X156399Y353170D01*
X155999D01*
Y352770D01*
X156399Y352370D01*
X155999Y351970D01*
Y351570D01*
X169287D02*
X169687D01*
X170087Y351970D01*
X170487Y351570D01*
X170887D01*
Y351970D01*
X170487Y352370D01*
X170887Y352770D01*
Y353170D01*
X170487D01*
X170087Y352770D01*
X169687Y353170D01*
X169287D01*
Y352770D01*
X169687Y352370D01*
X169287Y351970D01*
Y351570D01*
X178767D02*
X179167D01*
X179567Y351970D01*
X179967Y351570D01*
X180367D01*
Y351970D01*
X179967Y352370D01*
X180367Y352770D01*
Y353170D01*
X179967D01*
X179567Y352770D01*
X179167Y353170D01*
X178767D01*
Y352770D01*
X179167Y352370D01*
X178767Y351970D01*
Y351570D01*
X188184D02*
X188584D01*
X188984Y351970D01*
X189384Y351570D01*
X189784D01*
Y351970D01*
X189384Y352370D01*
X189784Y352770D01*
Y353170D01*
X189384D01*
X188984Y352770D01*
X188584Y353170D01*
X188184D01*
Y352770D01*
X188584Y352370D01*
X188184Y351970D01*
Y351570D01*
X197665D02*
X198065D01*
X198465Y351970D01*
X198865Y351570D01*
X199265D01*
Y351970D01*
X198865Y352370D01*
X199265Y352770D01*
Y353170D01*
X198865D01*
X198465Y352770D01*
X198065Y353170D01*
X197665D01*
Y352770D01*
X198065Y352370D01*
X197665Y351970D01*
Y351570D01*
X207113D02*
X207513D01*
X207913Y351970D01*
X208313Y351570D01*
X208713D01*
Y351970D01*
X208313Y352370D01*
X208713Y352770D01*
Y353170D01*
X208313D01*
X207913Y352770D01*
X207513Y353170D01*
X207113D01*
Y352770D01*
X207513Y352370D01*
X207113Y351970D01*
Y351570D01*
X216527D02*
X216927D01*
X217327Y351970D01*
X217727Y351570D01*
X218127D01*
Y351970D01*
X217727Y352370D01*
X218127Y352770D01*
Y353170D01*
X217727D01*
X217327Y352770D01*
X216927Y353170D01*
X216527D01*
Y352770D01*
X216927Y352370D01*
X216527Y351970D01*
Y351570D01*
X221251D02*
X221651D01*
X222051Y351970D01*
X222451Y351570D01*
X222851D01*
Y351970D01*
X222451Y352370D01*
X222851Y352770D01*
Y353170D01*
X222451D01*
X222051Y352770D01*
X221651Y353170D01*
X221251D01*
Y352770D01*
X221651Y352370D01*
X221251Y351970D01*
Y351570D01*
X223590D02*
X223990D01*
X224390Y351970D01*
X224790Y351570D01*
X225190D01*
Y351970D01*
X224790Y352370D01*
X225190Y352770D01*
Y353170D01*
X224790D01*
X224390Y352770D01*
X223990Y353170D01*
X223590D01*
Y352770D01*
X223990Y352370D01*
X223590Y351970D01*
Y351570D01*
X241680D02*
X242080D01*
X242480Y351970D01*
X242880Y351570D01*
X243280D01*
Y351970D01*
X242880Y352370D01*
X243280Y352770D01*
Y353170D01*
X242880D01*
X242480Y352770D01*
X242080Y353170D01*
X241680D01*
Y352770D01*
X242080Y352370D01*
X241680Y351970D01*
Y351570D01*
X230684D02*
X231084D01*
X231484Y351970D01*
X231884Y351570D01*
X232284D01*
Y351970D01*
X231884Y352370D01*
X232284Y352770D01*
Y353170D01*
X231884D01*
X231484Y352770D01*
X231084Y353170D01*
X230684D01*
Y352770D01*
X231084Y352370D01*
X230684Y351970D01*
Y351570D01*
X237830D02*
X238230D01*
X238630Y351970D01*
X239030Y351570D01*
X239430D01*
Y351970D01*
X239030Y352370D01*
X239430Y352770D01*
Y353170D01*
X239030D01*
X238630Y352770D01*
X238230Y353170D01*
X237830D01*
Y352770D01*
X238230Y352370D01*
X237830Y351970D01*
Y351570D01*
X235574D02*
X235974D01*
X236374Y351970D01*
X236774Y351570D01*
X237174D01*
Y351970D01*
X236774Y352370D01*
X237174Y352770D01*
Y353170D01*
X236774D01*
X236374Y352770D01*
X235974Y353170D01*
X235574D01*
Y352770D01*
X235974Y352370D01*
X235574Y351970D01*
Y351570D01*
X233204D02*
X233604D01*
X234004Y351970D01*
X234404Y351570D01*
X234804D01*
Y351970D01*
X234404Y352370D01*
X234804Y352770D01*
Y353170D01*
X234404D01*
X234004Y352770D01*
X233604Y353170D01*
X233204D01*
Y352770D01*
X233604Y352370D01*
X233204Y351970D01*
Y351570D01*
X227035Y119726D02*
X227435D01*
X227835Y120126D01*
X228235Y119726D01*
X228635D01*
Y120126D01*
X228235Y120526D01*
X228635Y120926D01*
Y121326D01*
X228235D01*
X227835Y120926D01*
X227435Y121326D01*
X227035D01*
Y120926D01*
X227435Y120526D01*
X227035Y120126D01*
Y119726D01*
X246290Y46905D02*
X246691D01*
X247091Y47305D01*
X247491Y46905D01*
X247890D01*
Y47305D01*
X247491Y47705D01*
X247890Y48105D01*
Y48505D01*
X247491D01*
X247091Y48105D01*
X246691Y48505D01*
X246290D01*
Y48105D01*
X246691Y47705D01*
X246290Y47305D01*
Y46905D01*
X253578Y46791D02*
X253978D01*
X254378Y47191D01*
X254778Y46791D01*
X255178D01*
Y47191D01*
X254778Y47591D01*
X255178Y47991D01*
Y48391D01*
X254778D01*
X254378Y47991D01*
X253978Y48391D01*
X253578D01*
Y47991D01*
X253978Y47591D01*
X253578Y47191D01*
Y46791D01*
X59932Y79377D02*
X60332D01*
X60732Y79777D01*
X61132Y79377D01*
X61532D01*
Y79777D01*
X61132Y80177D01*
X61532Y80577D01*
Y80977D01*
X61132D01*
X60732Y80577D01*
X60332Y80977D01*
X59932D01*
Y80577D01*
X60332Y80177D01*
X59932Y79777D01*
Y79377D01*
X51692Y115574D02*
X52092D01*
X52492Y115974D01*
X52892Y115574D01*
X53292D01*
Y115974D01*
X52892Y116374D01*
X53292Y116774D01*
Y117174D01*
X52892D01*
X52492Y116774D01*
X52092Y117174D01*
X51692D01*
Y116774D01*
X52092Y116374D01*
X51692Y115974D01*
Y115574D01*
X70850Y88783D02*
X71250D01*
X71650Y89183D01*
X72050Y88783D01*
X72450D01*
Y89183D01*
X72050Y89583D01*
X72450Y89983D01*
Y90383D01*
X72050D01*
X71650Y89983D01*
X71250Y90383D01*
X70850D01*
Y89983D01*
X71250Y89583D01*
X70850Y89183D01*
Y88783D01*
X74361Y92409D02*
X74761D01*
X75161Y92809D01*
X75561Y92409D01*
X75961D01*
Y92809D01*
X75561Y93209D01*
X75961Y93609D01*
Y94009D01*
X75561D01*
X75161Y93609D01*
X74761Y94009D01*
X74361D01*
Y93609D01*
X74761Y93209D01*
X74361Y92809D01*
Y92409D01*
X56909Y88783D02*
X57309D01*
X57709Y89183D01*
X58109Y88783D01*
X58509D01*
Y89183D01*
X58109Y89583D01*
X58509Y89983D01*
Y90383D01*
X58109D01*
X57709Y89983D01*
X57309Y90383D01*
X56909D01*
Y89983D01*
X57309Y89583D01*
X56909Y89183D01*
Y88783D01*
X53275Y93649D02*
X53675D01*
X54075Y94049D01*
X54475Y93649D01*
X54875D01*
Y94049D01*
X54475Y94449D01*
X54875Y94849D01*
Y95249D01*
X54475D01*
X54075Y94849D01*
X53675Y95249D01*
X53275D01*
Y94849D01*
X53675Y94449D01*
X53275Y94049D01*
Y93649D01*
X53401Y90212D02*
X53801D01*
X54201Y90612D01*
X54601Y90212D01*
X55001D01*
Y90612D01*
X54601Y91012D01*
X55001Y91412D01*
Y91812D01*
X54601D01*
X54201Y91412D01*
X53801Y91812D01*
X53401D01*
Y91412D01*
X53801Y91012D01*
X53401Y90612D01*
Y90212D01*
X61995Y97940D02*
X62395D01*
X62795Y98340D01*
X63195Y97940D01*
X63595D01*
Y98340D01*
X63195Y98740D01*
X63595Y99140D01*
Y99540D01*
X63195D01*
X62795Y99140D01*
X62395Y99540D01*
X61995D01*
Y99140D01*
X62395Y98740D01*
X61995Y98340D01*
Y97940D01*
X117655Y231614D02*
Y231214D01*
X118455D01*
Y231614D01*
X118855D01*
Y232414D01*
X118455D01*
Y232814D01*
X117655D01*
Y232414D01*
X117255D01*
Y231614D01*
X117655D01*
X43346Y94239D02*
X43746D01*
X44146Y94639D01*
X44546Y94239D01*
X44946D01*
Y94639D01*
X44546Y95039D01*
X44946Y95439D01*
Y95839D01*
X44546D01*
X44146Y95439D01*
X43746Y95839D01*
X43346D01*
Y95439D01*
X43746Y95039D01*
X43346Y94639D01*
Y94239D01*
X25966Y88856D02*
X26366D01*
X26766Y89256D01*
X27166Y88856D01*
X27566D01*
Y89256D01*
X27166Y89656D01*
X27566Y90056D01*
Y90456D01*
X27166D01*
X26766Y90056D01*
X26366Y90456D01*
X25966D01*
Y90056D01*
X26366Y89656D01*
X25966Y89256D01*
Y88856D01*
X57086Y112169D02*
X57486D01*
X57886Y112568D01*
X58286Y112169D01*
X58686D01*
Y112568D01*
X58286Y112969D01*
X58686Y113368D01*
Y113768D01*
X58286D01*
X57886Y113368D01*
X57486Y113768D01*
X57086D01*
Y113368D01*
X57486Y112969D01*
X57086Y112568D01*
Y112169D01*
X261539Y87881D02*
X261939D01*
X262339Y88281D01*
X262739Y87881D01*
X263139D01*
Y88281D01*
X262739Y88681D01*
X263139Y89081D01*
Y89481D01*
X262739D01*
X262339Y89081D01*
X261939Y89481D01*
X261539D01*
Y89081D01*
X261939Y88681D01*
X261539Y88281D01*
Y87881D01*
X264983Y87901D02*
X265383D01*
X265783Y88301D01*
X266183Y87901D01*
X266583D01*
Y88301D01*
X266183Y88701D01*
X266583Y89101D01*
Y89501D01*
X266183D01*
X265783Y89101D01*
X265383Y89501D01*
X264983D01*
Y89101D01*
X265383Y88701D01*
X264983Y88301D01*
Y87901D01*
X264285Y60852D02*
Y60452D01*
X265085D01*
Y60852D01*
X265485D01*
Y61652D01*
X265085D01*
Y62052D01*
X264285D01*
Y61652D01*
X263885D01*
Y60852D01*
X264285D01*
X263608Y75128D02*
Y74727D01*
X264408D01*
Y75128D01*
X264808D01*
Y75928D01*
X264408D01*
Y76328D01*
X263608D01*
Y75928D01*
X263208D01*
Y75128D01*
X263608D01*
X273391Y74954D02*
Y74554D01*
X274191D01*
Y74954D01*
X274591D01*
Y75754D01*
X274191D01*
Y76154D01*
X273391D01*
Y75754D01*
X272991D01*
Y74954D01*
X273391D01*
X271968Y87962D02*
X272368D01*
X272768Y88362D01*
X273168Y87962D01*
X273568D01*
Y88362D01*
X273168Y88762D01*
X273568Y89162D01*
Y89562D01*
X273168D01*
X272768Y89162D01*
X272368Y89562D01*
X271968D01*
Y89162D01*
X272368Y88762D01*
X271968Y88362D01*
Y87962D01*
X278460Y95354D02*
X278860D01*
X279260Y95754D01*
X279660Y95354D01*
X280060D01*
Y95754D01*
X279660Y96153D01*
X280060Y96553D01*
Y96953D01*
X279660D01*
X279260Y96553D01*
X278860Y96953D01*
X278460D01*
Y96553D01*
X278860Y96153D01*
X278460Y95754D01*
Y95354D01*
X267940Y96948D02*
X268340D01*
X268740Y97348D01*
X269140Y96948D01*
X269540D01*
Y97348D01*
X269140Y97748D01*
X269540Y98148D01*
Y98548D01*
X269140D01*
X268740Y98148D01*
X268340Y98548D01*
X267940D01*
Y98148D01*
X268340Y97748D01*
X267940Y97348D01*
Y96948D01*
X258365Y95271D02*
X258765D01*
X259165Y95671D01*
X259565Y95271D01*
X259965D01*
Y95671D01*
X259565Y96071D01*
X259965Y96471D01*
Y96871D01*
X259565D01*
X259165Y96471D01*
X258765Y96871D01*
X258365D01*
Y96471D01*
X258765Y96071D01*
X258365Y95671D01*
Y95271D01*
X190023Y86629D02*
X190423D01*
X190823Y87029D01*
X191223Y86629D01*
X191623D01*
Y87029D01*
X191223Y87429D01*
X191623Y87829D01*
Y88229D01*
X191223D01*
X190823Y87829D01*
X190423Y88229D01*
X190023D01*
Y87829D01*
X190423Y87429D01*
X190023Y87029D01*
Y86629D01*
X190113Y78208D02*
X190513D01*
X190913Y78608D01*
X191313Y78208D01*
X191713D01*
Y78608D01*
X191313Y79008D01*
X191713Y79408D01*
Y79808D01*
X191313D01*
X190913Y79408D01*
X190513Y79808D01*
X190113D01*
Y79408D01*
X190513Y79008D01*
X190113Y78608D01*
Y78208D01*
X200676Y60377D02*
X201076D01*
X201476Y60777D01*
X201876Y60377D01*
X202276D01*
Y60777D01*
X201876Y61177D01*
X202276Y61577D01*
Y61977D01*
X201876D01*
X201476Y61577D01*
X201076Y61977D01*
X200676D01*
Y61577D01*
X201076Y61177D01*
X200676Y60777D01*
Y60377D01*
X167046Y70543D02*
X167446D01*
X167846Y70942D01*
X168246Y70543D01*
X168646D01*
Y70942D01*
X168246Y71342D01*
X168646Y71742D01*
Y72142D01*
X168246D01*
X167846Y71742D01*
X167446Y72142D01*
X167046D01*
Y71742D01*
X167446Y71342D01*
X167046Y70942D01*
Y70543D01*
X159338Y83275D02*
X159738D01*
X160138Y83675D01*
X160538Y83275D01*
X160938D01*
Y83675D01*
X160538Y84075D01*
X160938Y84475D01*
Y84875D01*
X160538D01*
X160138Y84475D01*
X159738Y84875D01*
X159338D01*
Y84475D01*
X159738Y84075D01*
X159338Y83675D01*
Y83275D01*
X25848Y126159D02*
Y125759D01*
X26648D01*
Y126159D01*
X27048D01*
Y126959D01*
X26648D01*
Y127359D01*
X25848D01*
Y126959D01*
X25448D01*
Y126159D01*
X25848D01*
X48667Y36464D02*
X49067D01*
X49467Y36864D01*
X49867Y36464D01*
X50267D01*
Y36864D01*
X49867Y37264D01*
X50267Y37664D01*
Y38064D01*
X49867D01*
X49467Y37664D01*
X49067Y38064D01*
X48667D01*
Y37664D01*
X49067Y37264D01*
X48667Y36864D01*
Y36464D01*
X275466Y14317D02*
Y13917D01*
X276266D01*
Y14317D01*
X276666D01*
Y15117D01*
X276266D01*
Y15517D01*
X275466D01*
Y15117D01*
X275066D01*
Y14317D01*
X275466D01*
X254994D02*
Y13917D01*
X255794D01*
Y14317D01*
X256194D01*
Y15117D01*
X255794D01*
Y15517D01*
X254994D01*
Y15117D01*
X254594D01*
Y14317D01*
X254994D01*
X266017D02*
Y13917D01*
X266817D01*
Y14317D01*
X267217D01*
Y15117D01*
X266817D01*
Y15517D01*
X266017D01*
Y15117D01*
X265617D01*
Y14317D01*
X266017D01*
X286490D02*
Y13917D01*
X287290D01*
Y14317D01*
X287690D01*
Y15117D01*
X287290D01*
Y15517D01*
X286490D01*
Y15117D01*
X286090D01*
Y14317D01*
X286490D01*
X314911Y342143D02*
Y341743D01*
X315711D01*
Y342143D01*
X316111D01*
Y342943D01*
X315711D01*
Y343343D01*
X314911D01*
Y342943D01*
X314511D01*
Y342143D01*
X314911D01*
X94861Y71877D02*
X95261D01*
X95661Y72277D01*
X96061Y71877D01*
X96461D01*
Y72277D01*
X96061Y72677D01*
X96461Y73077D01*
Y73477D01*
X96061D01*
X95661Y73077D01*
X95261Y73477D01*
X94861D01*
Y73077D01*
X95261Y72677D01*
X94861Y72277D01*
Y71877D01*
X112002Y40560D02*
Y40160D01*
X112802D01*
Y40560D01*
X113202D01*
Y41360D01*
X112802D01*
Y41760D01*
X112002D01*
Y41360D01*
X111602D01*
Y40560D01*
X112002D01*
X25027Y41082D02*
X25427D01*
X25827Y41482D01*
X26227Y41082D01*
X26627D01*
Y41482D01*
X26227Y41882D01*
X26627Y42282D01*
Y42682D01*
X26227D01*
X25827Y42282D01*
X25427Y42682D01*
X25027D01*
Y42282D01*
X25427Y41882D01*
X25027Y41482D01*
Y41082D01*
X36346Y36743D02*
X36746D01*
X37146Y37143D01*
X37546Y36743D01*
X37946D01*
Y37143D01*
X37546Y37543D01*
X37946Y37943D01*
Y38343D01*
X37546D01*
X37146Y37943D01*
X36746Y38343D01*
X36346D01*
Y37943D01*
X36746Y37543D01*
X36346Y37143D01*
Y36743D01*
X36542Y31015D02*
X36942D01*
X37343Y31415D01*
X37742Y31015D01*
X38142D01*
Y31415D01*
X37742Y31815D01*
X38142Y32215D01*
Y32615D01*
X37742D01*
X37343Y32215D01*
X36942Y32615D01*
X36542D01*
Y32215D01*
X36942Y31815D01*
X36542Y31415D01*
Y31015D01*
X294015Y159688D02*
X294415D01*
X294815Y160088D01*
X295215Y159688D01*
X295615D01*
Y160088D01*
X295215Y160488D01*
X295615Y160888D01*
Y161288D01*
X295215D01*
X294815Y160888D01*
X294415Y161288D01*
X294015D01*
Y160888D01*
X294415Y160488D01*
X294015Y160088D01*
Y159688D01*
X303314Y155353D02*
X303714D01*
X304114Y155754D01*
X304514Y155353D01*
X304914D01*
Y155754D01*
X304514Y156154D01*
X304914Y156553D01*
Y156954D01*
X304514D01*
X304114Y156553D01*
X303714Y156954D01*
X303314D01*
Y156553D01*
X303714Y156154D01*
X303314Y155754D01*
Y155353D01*
X309826Y153263D02*
X310226D01*
X310626Y153663D01*
X311026Y153263D01*
X311426D01*
Y153663D01*
X311026Y154063D01*
X311426Y154463D01*
Y154863D01*
X311026D01*
X310626Y154463D01*
X310226Y154863D01*
X309826D01*
Y154463D01*
X310226Y154063D01*
X309826Y153663D01*
Y153263D01*
X312842Y156785D02*
X313242D01*
X313642Y157185D01*
X314042Y156785D01*
X314442D01*
Y157185D01*
X314042Y157585D01*
X314442Y157985D01*
Y158385D01*
X314042D01*
X313642Y157985D01*
X313242Y158385D01*
X312842D01*
Y157985D01*
X313242Y157585D01*
X312842Y157185D01*
Y156785D01*
X307102Y150570D02*
X307502D01*
X307902Y150970D01*
X308302Y150570D01*
X308702D01*
Y150970D01*
X308302Y151370D01*
X308702Y151770D01*
Y152170D01*
X308302D01*
X307902Y151770D01*
X307502Y152170D01*
X307102D01*
Y151770D01*
X307502Y151370D01*
X307102Y150970D01*
Y150570D01*
X219074Y73101D02*
X219474D01*
X219874Y73501D01*
X220274Y73101D01*
X220674D01*
Y73501D01*
X220274Y73901D01*
X220674Y74301D01*
Y74701D01*
X220274D01*
X219874Y74301D01*
X219474Y74701D01*
X219074D01*
Y74301D01*
X219474Y73901D01*
X219074Y73501D01*
Y73101D01*
X126649Y195649D02*
X127049D01*
X127449Y196049D01*
X127849Y195649D01*
X128249D01*
Y196049D01*
X127849Y196449D01*
X128249Y196849D01*
Y197249D01*
X127849D01*
X127449Y196849D01*
X127049Y197249D01*
X126649D01*
Y196849D01*
X127049Y196449D01*
X126649Y196049D01*
Y195649D01*
X28797Y133635D02*
Y133235D01*
X29597D01*
Y133635D01*
X29997D01*
Y134435D01*
X29597D01*
Y134835D01*
X28797D01*
Y134435D01*
X28397D01*
Y133635D01*
X28797D01*
X127297Y233679D02*
Y233279D01*
X128097D01*
Y233679D01*
X128497D01*
Y234479D01*
X128097D01*
Y234879D01*
X127297D01*
Y234479D01*
X126897D01*
Y233679D01*
X127297D01*
X95628Y26789D02*
Y26389D01*
X96428D01*
Y26789D01*
X96828D01*
Y27589D01*
X96428D01*
Y27989D01*
X95628D01*
Y27589D01*
X95228D01*
Y26789D01*
X95628D01*
Y36285D02*
Y35885D01*
X96428D01*
Y36285D01*
X96828D01*
Y37085D01*
X96428D01*
Y37485D01*
X95628D01*
Y37085D01*
X95228D01*
Y36285D01*
X95628D01*
Y47651D02*
Y47251D01*
X96428D01*
Y47651D01*
X96828D01*
Y48451D01*
X96428D01*
Y48851D01*
X95628D01*
Y48451D01*
X95228D01*
Y47651D01*
X95628D01*
Y58281D02*
Y57881D01*
X96428D01*
Y58281D01*
X96828D01*
Y59081D01*
X96428D01*
Y59481D01*
X95628D01*
Y59081D01*
X95228D01*
Y58281D01*
X95628D01*
X23239Y336672D02*
X23639D01*
X24039Y337072D01*
X24439Y336672D01*
X24839D01*
Y337072D01*
X24439Y337472D01*
X24839Y337872D01*
Y338272D01*
X24439D01*
X24039Y337872D01*
X23639Y338272D01*
X23239D01*
Y337872D01*
X23639Y337472D01*
X23239Y337072D01*
Y336672D01*
X162830Y165448D02*
X163230D01*
X163630Y165848D01*
X164030Y165448D01*
X164430D01*
Y165848D01*
X164030Y166248D01*
X164430Y166648D01*
Y167048D01*
X164030D01*
X163630Y166648D01*
X163230Y167048D01*
X162830D01*
Y166648D01*
X163230Y166248D01*
X162830Y165848D01*
Y165448D01*
X181865Y167216D02*
X182265D01*
X182665Y167616D01*
X183065Y167216D01*
X183465D01*
Y167616D01*
X183065Y168016D01*
X183465Y168416D01*
Y168816D01*
X183065D01*
X182665Y168416D01*
X182265Y168816D01*
X181865D01*
Y168416D01*
X182265Y168016D01*
X181865Y167616D01*
Y167216D01*
X186676Y167283D02*
X187076D01*
X187476Y167683D01*
X187876Y167283D01*
X188276D01*
Y167683D01*
X187876Y168083D01*
X188276Y168483D01*
Y168883D01*
X187876D01*
X187476Y168483D01*
X187076Y168883D01*
X186676D01*
Y168483D01*
X187076Y168083D01*
X186676Y167683D01*
Y167283D01*
X198390Y167827D02*
X198790D01*
X199190Y168227D01*
X199590Y167827D01*
X199990D01*
Y168227D01*
X199590Y168627D01*
X199990Y169027D01*
Y169427D01*
X199590D01*
X199190Y169027D01*
X198790Y169427D01*
X198390D01*
Y169027D01*
X198790Y168627D01*
X198390Y168227D01*
Y167827D01*
X299279Y157759D02*
X299679D01*
X300079Y158159D01*
X300479Y157759D01*
X300879D01*
Y158159D01*
X300479Y158559D01*
X300879Y158959D01*
Y159359D01*
X300479D01*
X300079Y158959D01*
X299679Y159359D01*
X299279D01*
Y158959D01*
X299679Y158559D01*
X299279Y158159D01*
Y157759D01*
X183376Y131143D02*
Y130743D01*
X184176D01*
Y131143D01*
X184576D01*
Y131943D01*
X184176D01*
Y132343D01*
X183376D01*
Y131943D01*
X182976D01*
Y131143D01*
X183376D01*
X158984Y153680D02*
X159383D01*
X159783Y154080D01*
X160184Y153680D01*
X160583D01*
Y154080D01*
X160184Y154480D01*
X160583Y154880D01*
Y155280D01*
X160184D01*
X159783Y154880D01*
X159383Y155280D01*
X158984D01*
Y154880D01*
X159383Y154480D01*
X158984Y154080D01*
Y153680D01*
X91572Y372510D02*
Y372110D01*
X92372D01*
Y372510D01*
X92772D01*
Y373309D01*
X92372D01*
Y373710D01*
X91572D01*
Y373309D01*
X91172D01*
Y372510D01*
X91572D01*
X260415Y372179D02*
Y371779D01*
X261215D01*
Y372179D01*
X261615D01*
Y372979D01*
X261215D01*
Y373379D01*
X260415D01*
Y372979D01*
X260015D01*
Y372179D01*
X260415D01*
X223017Y372628D02*
Y372228D01*
X223817D01*
Y372628D01*
X224217D01*
Y373428D01*
X223817D01*
Y373828D01*
X223017D01*
Y373428D01*
X222617D01*
Y372628D01*
X223017D01*
X186399Y372513D02*
Y372113D01*
X187199D01*
Y372513D01*
X187599D01*
Y373313D01*
X187199D01*
Y373713D01*
X186399D01*
Y373313D01*
X185999D01*
Y372513D01*
X186399D01*
X153143D02*
Y372113D01*
X153943D01*
Y372513D01*
X154343D01*
Y373313D01*
X153943D01*
Y373713D01*
X153143D01*
Y373313D01*
X152743D01*
Y372513D01*
X153143D01*
X116194D02*
Y372113D01*
X116995D01*
Y372513D01*
X117394D01*
Y373313D01*
X116995D01*
Y373713D01*
X116194D01*
Y373313D01*
X115795D01*
Y372513D01*
X116194D01*
X73147Y19229D02*
X73547D01*
X73947Y19629D01*
X74347Y19229D01*
X74747D01*
Y19629D01*
X74347Y20030D01*
X74747Y20429D01*
Y20830D01*
X74347D01*
X73947Y20429D01*
X73547Y20830D01*
X73147D01*
Y20429D01*
X73547Y20030D01*
X73147Y19629D01*
Y19229D01*
X296555Y288547D02*
Y288147D01*
X297355D01*
Y288547D01*
X297755D01*
Y289347D01*
X297355D01*
Y289747D01*
X296555D01*
Y289347D01*
X296155D01*
Y288547D01*
X296555D01*
X277529Y290757D02*
Y290357D01*
X278329D01*
Y290757D01*
X278729D01*
Y291558D01*
X278329D01*
Y291957D01*
X277529D01*
Y291558D01*
X277129D01*
Y290757D01*
X277529D01*
X277571Y305094D02*
Y304694D01*
X278370D01*
Y305094D01*
X278770D01*
Y305894D01*
X278370D01*
Y306294D01*
X277571D01*
Y305894D01*
X277170D01*
Y305094D01*
X277571D01*
Y321960D02*
Y321560D01*
X278370D01*
Y321960D01*
X278770D01*
Y322760D01*
X278370D01*
Y323160D01*
X277571D01*
Y322760D01*
X277170D01*
Y321960D01*
X277571D01*
Y340736D02*
Y340336D01*
X278370D01*
Y340736D01*
X278770D01*
Y341536D01*
X278370D01*
Y341936D01*
X277571D01*
Y341536D01*
X277170D01*
Y340736D01*
X277571D01*
X277464Y359086D02*
Y358686D01*
X278264D01*
Y359086D01*
X278664D01*
Y359886D01*
X278264D01*
Y360286D01*
X277464D01*
Y359886D01*
X277064D01*
Y359086D01*
X277464D01*
X26789Y59525D02*
Y59125D01*
X27589D01*
Y59525D01*
X27989D01*
Y60325D01*
X27589D01*
Y60725D01*
X26789D01*
Y60325D01*
X26389D01*
Y59525D01*
X26789D01*
X26084Y259702D02*
Y259302D01*
X26884D01*
Y259702D01*
X27284D01*
Y260502D01*
X26884D01*
Y260902D01*
X26084D01*
Y260502D01*
X25684D01*
Y259702D01*
X26084D01*
X19202D02*
Y259302D01*
X20002D01*
Y259702D01*
X20402D01*
Y260502D01*
X20002D01*
Y260902D01*
X19202D01*
Y260502D01*
X18802D01*
Y259702D01*
X19202D01*
X19352Y267167D02*
Y266767D01*
X20152D01*
Y267167D01*
X20552D01*
Y267967D01*
X20152D01*
Y268367D01*
X19352D01*
Y267967D01*
X18952D01*
Y267167D01*
X19352D01*
X19722Y302092D02*
Y301692D01*
X20522D01*
Y302092D01*
X20922D01*
Y302892D01*
X20522D01*
Y303292D01*
X19722D01*
Y302892D01*
X19322D01*
Y302092D01*
X19722D01*
X19880Y315328D02*
Y314928D01*
X20680D01*
Y315328D01*
X21080D01*
Y316128D01*
X20680D01*
Y316528D01*
X19880D01*
Y316128D01*
X19479D01*
Y315328D01*
X19880D01*
X68978Y365317D02*
Y364916D01*
X69778D01*
Y365317D01*
X70178D01*
Y366116D01*
X69778D01*
Y366516D01*
X68978D01*
Y366116D01*
X68578D01*
Y365317D01*
X68978D01*
X63297Y371045D02*
Y370645D01*
X64097D01*
Y371045D01*
X64497D01*
Y371845D01*
X64097D01*
Y372245D01*
X63297D01*
Y371845D01*
X62897D01*
Y371045D01*
X63297D01*
X69183Y371041D02*
Y370641D01*
X69983D01*
Y371041D01*
X70383D01*
Y371841D01*
X69983D01*
Y372241D01*
X69183D01*
Y371841D01*
X68783D01*
Y371041D01*
X69183D01*
X63202Y260210D02*
Y259810D01*
X64002D01*
Y260210D01*
X64402D01*
Y261010D01*
X64002D01*
Y261410D01*
X63202D01*
Y261010D01*
X62802D01*
Y260210D01*
X63202D01*
X77775Y92409D02*
X78175D01*
X78575Y92809D01*
X78975Y92409D01*
X79375D01*
Y92809D01*
X78975Y93209D01*
X79375Y93609D01*
Y94009D01*
X78975D01*
X78575Y93609D01*
X78175Y94009D01*
X77775D01*
Y93609D01*
X78175Y93209D01*
X77775Y92809D01*
Y92409D01*
X86850Y102436D02*
X87250D01*
X87650Y102836D01*
X88050Y102436D01*
X88450D01*
Y102836D01*
X88050Y103236D01*
X88450Y103636D01*
Y104036D01*
X88050D01*
X87650Y103636D01*
X87250Y104036D01*
X86850D01*
Y103636D01*
X87250Y103236D01*
X86850Y102836D01*
Y102436D01*
X66141Y88783D02*
X66541D01*
X66941Y89183D01*
X67341Y88783D01*
X67741D01*
Y89183D01*
X67341Y89583D01*
X67741Y89983D01*
Y90383D01*
X67341D01*
X66941Y89983D01*
X66541Y90383D01*
X66141D01*
Y89983D01*
X66541Y89583D01*
X66141Y89183D01*
Y88783D01*
X65940Y36515D02*
X66340D01*
X66740Y36915D01*
X67140Y36515D01*
X67540D01*
Y36915D01*
X67140Y37315D01*
X67540Y37715D01*
Y38115D01*
X67140D01*
X66740Y37715D01*
X66340Y38115D01*
X65940D01*
Y37715D01*
X66340Y37315D01*
X65940Y36915D01*
Y36515D01*
X277743Y277594D02*
X278143D01*
X278543Y277994D01*
X278943Y277594D01*
X279343D01*
Y277994D01*
X278943Y278394D01*
X279343Y278794D01*
Y279194D01*
X278943D01*
X278543Y278794D01*
X278143Y279194D01*
X277743D01*
Y278794D01*
X278143Y278394D01*
X277743Y277994D01*
Y277594D01*
X277627Y249330D02*
X278027D01*
X278427Y249730D01*
X278827Y249330D01*
X279227D01*
Y249730D01*
X278827Y250130D01*
X279227Y250530D01*
Y250930D01*
X278827D01*
X278427Y250530D01*
X278027Y250930D01*
X277627D01*
Y250530D01*
X278027Y250130D01*
X277627Y249730D01*
Y249330D01*
X73399Y30283D02*
Y29883D01*
X74199D01*
Y30283D01*
X74599D01*
Y31083D01*
X74199D01*
Y31483D01*
X73399D01*
Y31083D01*
X72999D01*
Y30283D01*
X73399D01*
X305806Y293115D02*
Y292715D01*
X306606D01*
Y293115D01*
X307006D01*
Y293915D01*
X306606D01*
Y294315D01*
X305806D01*
Y293915D01*
X305406D01*
Y293115D01*
X305806D01*
X275452Y87887D02*
X275852D01*
X276252Y88287D01*
X276652Y87887D01*
X277052D01*
Y88287D01*
X276652Y88687D01*
X277052Y89087D01*
Y89487D01*
X276652D01*
X276252Y89087D01*
X275852Y89487D01*
X275452D01*
Y89087D01*
X275852Y88687D01*
X275452Y88287D01*
Y87887D01*
X49813Y299647D02*
Y299247D01*
X50613D01*
Y299647D01*
X51013D01*
Y300447D01*
X50613D01*
Y300847D01*
X49813D01*
Y300447D01*
X49413D01*
Y299647D01*
X49813D01*
X42809Y316376D02*
Y315976D01*
X43609D01*
Y316376D01*
X44009D01*
Y317176D01*
X43609D01*
Y317576D01*
X42809D01*
Y317176D01*
X42409D01*
Y316376D01*
X42809D01*
X42883Y323254D02*
Y322854D01*
X43683D01*
Y323254D01*
X44083D01*
Y324054D01*
X43683D01*
Y324454D01*
X42883D01*
Y324054D01*
X42483D01*
Y323254D01*
X42883D01*
X40860Y350100D02*
Y349700D01*
X41660D01*
Y350100D01*
X42060D01*
Y350900D01*
X41660D01*
Y351300D01*
X40860D01*
Y350900D01*
X40460D01*
Y350100D01*
X40860D01*
X280576Y68462D02*
Y68062D01*
X281376D01*
Y68462D01*
X281776D01*
Y69262D01*
X281376D01*
Y69662D01*
X280576D01*
Y69262D01*
X280176D01*
Y68462D01*
X280576D01*
X239413Y128775D02*
X239813D01*
X240213Y129175D01*
X240613Y128775D01*
X241013D01*
Y129175D01*
X240613Y129575D01*
X241013Y129975D01*
Y130375D01*
X240613D01*
X240213Y129975D01*
X239813Y130375D01*
X239413D01*
Y129975D01*
X239813Y129575D01*
X239413Y129175D01*
Y128775D01*
X289368Y40076D02*
Y39676D01*
X290168D01*
Y40076D01*
X290568D01*
Y40876D01*
X290168D01*
Y41276D01*
X289368D01*
Y40876D01*
X288968D01*
Y40076D01*
X289368D01*
X46803Y76649D02*
Y76249D01*
X47603D01*
Y76649D01*
X48003D01*
Y77449D01*
X47603D01*
Y77849D01*
X46803D01*
Y77449D01*
X46403D01*
Y76649D01*
X46803D01*
X72928Y100027D02*
X73328D01*
X73728Y100427D01*
X74128Y100027D01*
X74528D01*
Y100427D01*
X74128Y100827D01*
X74528Y101227D01*
Y101627D01*
X74128D01*
X73728Y101227D01*
X73328Y101627D01*
X72928D01*
Y101227D01*
X73328Y100827D01*
X72928Y100427D01*
Y100027D01*
X46696Y124224D02*
X47096D01*
X47496Y124624D01*
X47896Y124224D01*
X48296D01*
Y124624D01*
X47896Y125024D01*
X48296Y125424D01*
Y125824D01*
X47896D01*
X47496Y125424D01*
X47096Y125824D01*
X46696D01*
Y125424D01*
X47096Y125024D01*
X46696Y124624D01*
Y124224D01*
X52326Y108484D02*
X52726D01*
X53126Y108884D01*
X53526Y108484D01*
X53926D01*
Y108884D01*
X53526Y109283D01*
X53926Y109684D01*
Y110083D01*
X53526D01*
X53126Y109684D01*
X52726Y110083D01*
X52326D01*
Y109684D01*
X52726Y109283D01*
X52326Y108884D01*
Y108484D01*
X58637Y97857D02*
X59037D01*
X59437Y98257D01*
X59837Y97857D01*
X60237D01*
Y98257D01*
X59837Y98658D01*
X60237Y99058D01*
Y99458D01*
X59837D01*
X59437Y99058D01*
X59037Y99458D01*
X58637D01*
Y99058D01*
X59037Y98658D01*
X58637Y98257D01*
Y97857D01*
X147424Y165027D02*
X147824D01*
X148224Y165427D01*
X148624Y165027D01*
X149024D01*
Y165427D01*
X148624Y165827D01*
X149024Y166227D01*
Y166627D01*
X148624D01*
X148224Y166227D01*
X147824Y166627D01*
X147424D01*
Y166227D01*
X147824Y165827D01*
X147424Y165427D01*
Y165027D01*
X147669Y179520D02*
X148069D01*
X148469Y179920D01*
X148869Y179520D01*
X149269D01*
Y179920D01*
X148869Y180320D01*
X149269Y180720D01*
Y181120D01*
X148869D01*
X148469Y180720D01*
X148069Y181120D01*
X147669D01*
Y180720D01*
X148069Y180320D01*
X147669Y179920D01*
Y179520D01*
X149446Y236347D02*
X149846D01*
X150246Y236747D01*
X150646Y236347D01*
X151046D01*
Y236747D01*
X150646Y237147D01*
X151046Y237547D01*
Y237947D01*
X150646D01*
X150246Y237547D01*
X149846Y237947D01*
X149446D01*
Y237547D01*
X149846Y237147D01*
X149446Y236747D01*
Y236347D01*
X154784Y236295D02*
X155184D01*
X155584Y236695D01*
X155984Y236295D01*
X156384D01*
Y236695D01*
X155984Y237095D01*
X156384Y237495D01*
Y237895D01*
X155984D01*
X155584Y237495D01*
X155184Y237895D01*
X154784D01*
Y237495D01*
X155184Y237095D01*
X154784Y236695D01*
Y236295D01*
X161476Y236291D02*
X161876D01*
X162276Y236691D01*
X162676Y236291D01*
X163076D01*
Y236691D01*
X162676Y237091D01*
X163076Y237491D01*
Y237891D01*
X162676D01*
X162276Y237491D01*
X161876Y237891D01*
X161476D01*
Y237491D01*
X161876Y237091D01*
X161476Y236691D01*
Y236291D01*
X166405Y236393D02*
X166805D01*
X167205Y236793D01*
X167605Y236393D01*
X168005D01*
Y236793D01*
X167605Y237193D01*
X168005Y237593D01*
Y237993D01*
X167605D01*
X167205Y237593D01*
X166805Y237993D01*
X166405D01*
Y237593D01*
X166805Y237193D01*
X166405Y236793D01*
Y236393D01*
X174267Y236169D02*
X174667D01*
X175067Y236569D01*
X175467Y236169D01*
X175867D01*
Y236569D01*
X175467Y236969D01*
X175867Y237369D01*
Y237769D01*
X175467D01*
X175067Y237369D01*
X174667Y237769D01*
X174267D01*
Y237369D01*
X174667Y236969D01*
X174267Y236569D01*
Y236169D01*
X174090Y221921D02*
X174490D01*
X174890Y222321D01*
X175290Y221921D01*
X175690D01*
Y222321D01*
X175290Y222721D01*
X175690Y223121D01*
Y223521D01*
X175290D01*
X174890Y223121D01*
X174490Y223521D01*
X174090D01*
Y223121D01*
X174490Y222721D01*
X174090Y222321D01*
Y221921D01*
X183484Y219212D02*
X183884D01*
X184284Y219612D01*
X184684Y219212D01*
X185084D01*
Y219612D01*
X184684Y220012D01*
X185084Y220412D01*
Y220812D01*
X184684D01*
X184284Y220412D01*
X183884Y220812D01*
X183484D01*
Y220412D01*
X183884Y220012D01*
X183484Y219612D01*
Y219212D01*
X199858Y219251D02*
X200258D01*
X200658Y219651D01*
X201058Y219251D01*
X201458D01*
Y219651D01*
X201058Y220051D01*
X201458Y220451D01*
Y220851D01*
X201058D01*
X200658Y220451D01*
X200258Y220851D01*
X199858D01*
Y220451D01*
X200258Y220051D01*
X199858Y219651D01*
Y219251D01*
X199558Y232767D02*
X199958D01*
X200358Y233167D01*
X200758Y232767D01*
X201158D01*
Y233167D01*
X200758Y233567D01*
X201158Y233967D01*
Y234367D01*
X200758D01*
X200358Y233967D01*
X199958Y234367D01*
X199558D01*
Y233967D01*
X199958Y233567D01*
X199558Y233167D01*
Y232767D01*
X199468Y226523D02*
X199868D01*
X200268Y226923D01*
X200668Y226523D01*
X201068D01*
Y226923D01*
X200668Y227323D01*
X201068Y227723D01*
Y228123D01*
X200668D01*
X200268Y227723D01*
X199868Y228123D01*
X199468D01*
Y227723D01*
X199868Y227323D01*
X199468Y226923D01*
Y226523D01*
X188692Y222672D02*
X189092D01*
X189492Y223072D01*
X189892Y222672D01*
X190292D01*
Y223072D01*
X189892Y223472D01*
X190292Y223872D01*
Y224272D01*
X189892D01*
X189492Y223872D01*
X189092Y224272D01*
X188692D01*
Y223872D01*
X189092Y223472D01*
X188692Y223072D01*
Y222672D01*
X188570Y236487D02*
X188970D01*
X189370Y236887D01*
X189770Y236487D01*
X190170D01*
Y236887D01*
X189770Y237287D01*
X190170Y237687D01*
Y238087D01*
X189770D01*
X189370Y237687D01*
X188970Y238087D01*
X188570D01*
Y237687D01*
X188970Y237287D01*
X188570Y236887D01*
Y236487D01*
X199228Y203895D02*
X199628D01*
X200028Y204295D01*
X200428Y203895D01*
X200828D01*
Y204295D01*
X200428Y204695D01*
X200828Y205095D01*
Y205495D01*
X200428D01*
X200028Y205095D01*
X199628Y205495D01*
X199228D01*
Y205095D01*
X199628Y204695D01*
X199228Y204295D01*
Y203895D01*
X199050Y197539D02*
X199450D01*
X199850Y197939D01*
X200250Y197539D01*
X200650D01*
Y197939D01*
X200250Y198339D01*
X200650Y198739D01*
Y199139D01*
X200250D01*
X199850Y198739D01*
X199450Y199139D01*
X199050D01*
Y198739D01*
X199450Y198339D01*
X199050Y197939D01*
Y197539D01*
Y191806D02*
X199450D01*
X199850Y192206D01*
X200250Y191806D01*
X200650D01*
Y192206D01*
X200250Y192606D01*
X200650Y193006D01*
Y193406D01*
X200250D01*
X199850Y193006D01*
X199450Y193406D01*
X199050D01*
Y193006D01*
X199450Y192606D01*
X199050Y192206D01*
Y191806D01*
X141046Y165200D02*
X141446D01*
X141846Y165600D01*
X142246Y165200D01*
X142646D01*
Y165600D01*
X142246Y166000D01*
X142646Y166400D01*
Y166800D01*
X142246D01*
X141846Y166400D01*
X141446Y166800D01*
X141046D01*
Y166400D01*
X141446Y166000D01*
X141046Y165600D01*
Y165200D01*
X135385Y165271D02*
X135785D01*
X136185Y165671D01*
X136585Y165271D01*
X136985D01*
Y165671D01*
X136585Y166071D01*
X136985Y166471D01*
Y166871D01*
X136585D01*
X136185Y166471D01*
X135785Y166871D01*
X135385D01*
Y166471D01*
X135785Y166071D01*
X135385Y165671D01*
Y165271D01*
X156564Y165422D02*
X156964D01*
X157364Y165822D01*
X157764Y165422D01*
X158164D01*
Y165822D01*
X157764Y166222D01*
X158164Y166622D01*
Y167022D01*
X157764D01*
X157364Y166622D01*
X156964Y167022D01*
X156564D01*
Y166622D01*
X156964Y166222D01*
X156564Y165822D01*
Y165422D01*
X168573Y165497D02*
X168973D01*
X169373Y165897D01*
X169773Y165497D01*
X170173D01*
Y165897D01*
X169773Y166297D01*
X170173Y166697D01*
Y167097D01*
X169773D01*
X169373Y166697D01*
X168973Y167097D01*
X168573D01*
Y166697D01*
X168973Y166297D01*
X168573Y165897D01*
Y165497D01*
X174175Y165623D02*
X174575D01*
X174975Y166023D01*
X175375Y165623D01*
X175775D01*
Y166023D01*
X175375Y166423D01*
X175775Y166823D01*
Y167223D01*
X175375D01*
X174975Y166823D01*
X174575Y167223D01*
X174175D01*
Y166823D01*
X174575Y166423D01*
X174175Y166023D01*
Y165623D01*
X127999Y177964D02*
X128399D01*
X128799Y178364D01*
X129199Y177964D01*
X129599D01*
Y178364D01*
X129199Y178764D01*
X129599Y179164D01*
Y179564D01*
X129199D01*
X128799Y179164D01*
X128399Y179564D01*
X127999D01*
Y179164D01*
X128399Y178764D01*
X127999Y178364D01*
Y177964D01*
Y183972D02*
X128399D01*
X128799Y184372D01*
X129199Y183972D01*
X129599D01*
Y184372D01*
X129199Y184772D01*
X129599Y185172D01*
Y185572D01*
X129199D01*
X128799Y185172D01*
X128399Y185572D01*
X127999D01*
Y185172D01*
X128399Y184772D01*
X127999Y184372D01*
Y183972D01*
X142145Y184169D02*
X142545D01*
X142945Y184569D01*
X143345Y184169D01*
X143745D01*
Y184569D01*
X143345Y184969D01*
X143745Y185369D01*
Y185769D01*
X143345D01*
X142945Y185369D01*
X142545Y185769D01*
X142145D01*
Y185369D01*
X142545Y184969D01*
X142145Y184569D01*
Y184169D01*
X142208Y177732D02*
X142608D01*
X143008Y178132D01*
X143408Y177732D01*
X143808D01*
Y178132D01*
X143408Y178532D01*
X143808Y178932D01*
Y179332D01*
X143408D01*
X143008Y178932D01*
X142608Y179332D01*
X142208D01*
Y178932D01*
X142608Y178532D01*
X142208Y178132D01*
Y177732D01*
X284972Y98276D02*
X285372D01*
X285772Y98676D01*
X286172Y98276D01*
X286572D01*
Y98676D01*
X286172Y99076D01*
X286572Y99476D01*
Y99876D01*
X286172D01*
X285772Y99476D01*
X285372Y99876D01*
X284972D01*
Y99476D01*
X285372Y99076D01*
X284972Y98676D01*
Y98276D01*
X285027Y87724D02*
X285427D01*
X285827Y88124D01*
X286227Y87724D01*
X286627D01*
Y88124D01*
X286227Y88524D01*
X286627Y88924D01*
Y89324D01*
X286227D01*
X285827Y88924D01*
X285427Y89324D01*
X285027D01*
Y88924D01*
X285427Y88524D01*
X285027Y88124D01*
Y87724D01*
X280207Y87801D02*
X280607D01*
X281007Y88201D01*
X281407Y87801D01*
X281807D01*
Y88201D01*
X281407Y88601D01*
X281807Y89001D01*
Y89401D01*
X281407D01*
X281007Y89001D01*
X280607Y89401D01*
X280207D01*
Y89001D01*
X280607Y88601D01*
X280207Y88201D01*
Y87801D01*
X192661Y167877D02*
X193061D01*
X193461Y168277D01*
X193861Y167877D01*
X194261D01*
Y168277D01*
X193861Y168677D01*
X194261Y169077D01*
Y169477D01*
X193861D01*
X193461Y169077D01*
X193061Y169477D01*
X192661D01*
Y169077D01*
X193061Y168677D01*
X192661Y168277D01*
Y167877D01*
X78883Y348191D02*
Y347791D01*
X79683D01*
Y348191D01*
X80083D01*
Y348991D01*
X79683D01*
Y349391D01*
X78883D01*
Y348991D01*
X78483D01*
Y348191D01*
X78883D01*
X64336Y348320D02*
Y347920D01*
X65136D01*
Y348320D01*
X65536D01*
Y349120D01*
X65136D01*
Y349520D01*
X64336D01*
Y349120D01*
X63936D01*
Y348320D01*
X64336D01*
X306348Y374813D02*
Y374413D01*
X307148D01*
Y374813D01*
X307548D01*
Y375613D01*
X307148D01*
Y376013D01*
X306348D01*
Y375613D01*
X305948D01*
Y374813D01*
X306348D01*
X312765Y374742D02*
Y374342D01*
X313565D01*
Y374742D01*
X313965D01*
Y375542D01*
X313565D01*
Y375942D01*
X312765D01*
Y375542D01*
X312365D01*
Y374742D01*
X312765D01*
X87989Y78182D02*
X88389D01*
X88789Y78582D01*
X89189Y78182D01*
X89589D01*
Y78582D01*
X89189Y78982D01*
X89589Y79382D01*
Y79782D01*
X89189D01*
X88789Y79382D01*
X88389Y79782D01*
X87989D01*
Y79382D01*
X88389Y78982D01*
X87989Y78582D01*
Y78182D01*
X64342Y100259D02*
X64742D01*
X65142Y100659D01*
X65542Y100259D01*
X65942D01*
Y100659D01*
X65542Y101059D01*
X65942Y101459D01*
Y101859D01*
X65542D01*
X65142Y101459D01*
X64742Y101859D01*
X64342D01*
Y101459D01*
X64742Y101059D01*
X64342Y100659D01*
Y100259D01*
X83735Y140985D02*
X84135D01*
X84535Y141385D01*
X84935Y140985D01*
X85335D01*
Y141385D01*
X84935Y141785D01*
X85335Y142185D01*
Y142585D01*
X84935D01*
X84535Y142185D01*
X84135Y142585D01*
X83735D01*
Y142185D01*
X84135Y141785D01*
X83735Y141385D01*
Y140985D01*
X128771Y209457D02*
X129171D01*
X129571Y209857D01*
X129971Y209457D01*
X130371D01*
Y209857D01*
X129971Y210257D01*
X130371Y210657D01*
Y211057D01*
X129971D01*
X129571Y210657D01*
X129171Y211057D01*
X128771D01*
Y210657D01*
X129171Y210257D01*
X128771Y209857D01*
Y209457D01*
Y211662D02*
X129171D01*
X129571Y212062D01*
X129971Y211662D01*
X130371D01*
Y212062D01*
X129971Y212462D01*
X130371Y212862D01*
Y213262D01*
X129971D01*
X129571Y212862D01*
X129171Y213262D01*
X128771D01*
Y212862D01*
X129171Y212462D01*
X128771Y212062D01*
Y211662D01*
X58466Y326576D02*
Y326176D01*
X59266D01*
Y326576D01*
X59666D01*
Y327376D01*
X59266D01*
Y327776D01*
X58466D01*
Y327376D01*
X58066D01*
Y326576D01*
X58466D01*
X64738Y333848D02*
Y333448D01*
X65538D01*
Y333848D01*
X65938D01*
Y334648D01*
X65538D01*
Y335048D01*
X64738D01*
Y334648D01*
X64338D01*
Y333848D01*
X64738D01*
X41108Y357128D02*
Y356728D01*
X41908D01*
Y357128D01*
X42308D01*
Y357928D01*
X41908D01*
Y358328D01*
X41108D01*
Y357928D01*
X40708D01*
Y357128D01*
X41108D01*
X312281Y292923D02*
Y292523D01*
X313081D01*
Y292923D01*
X313481D01*
Y293723D01*
X313081D01*
Y294123D01*
X312281D01*
Y293723D01*
X311881D01*
Y292923D01*
X312281D01*
X195464Y164543D02*
X195864D01*
X196264Y164943D01*
X196664Y164543D01*
X197064D01*
Y164943D01*
X196664Y165343D01*
X197064Y165743D01*
Y166143D01*
X196664D01*
X196264Y165743D01*
X195864Y166143D01*
X195464D01*
Y165743D01*
X195864Y165343D01*
X195464Y164943D01*
Y164543D01*
X197306Y153196D02*
X197706D01*
X198106Y153596D01*
X198506Y153196D01*
X198906D01*
Y153596D01*
X198506Y153996D01*
X198906Y154396D01*
Y154796D01*
X198506D01*
X198106Y154396D01*
X197706Y154796D01*
X197306D01*
Y154396D01*
X197706Y153996D01*
X197306Y153596D01*
Y153196D01*
X160676Y51877D02*
X161076D01*
X161476Y52277D01*
X161876Y51877D01*
X162276D01*
Y52277D01*
X161876Y52677D01*
X162276Y53077D01*
Y53477D01*
X161876D01*
X161476Y53077D01*
X161076Y53477D01*
X160676D01*
Y53077D01*
X161076Y52677D01*
X160676Y52277D01*
Y51877D01*
X291633Y74881D02*
X292033D01*
X292433Y75281D01*
X292833Y74881D01*
X293233D01*
Y75281D01*
X292833Y75681D01*
X293233Y76081D01*
Y76481D01*
X292833D01*
X292433Y76081D01*
X292033Y76481D01*
X291633D01*
Y76081D01*
X292033Y75681D01*
X291633Y75281D01*
Y74881D01*
X289376Y33218D02*
Y32818D01*
X290176D01*
Y33218D01*
X290576D01*
Y34018D01*
X290176D01*
Y34418D01*
X289376D01*
Y34018D01*
X288976D01*
Y33218D01*
X289376D01*
X219588Y138615D02*
X219988D01*
X220388Y139015D01*
X220788Y138615D01*
X221188D01*
Y139015D01*
X220788Y139415D01*
X221188Y139815D01*
Y140215D01*
X220788D01*
X220388Y139815D01*
X219988Y140215D01*
X219588D01*
Y139815D01*
X219988Y139415D01*
X219588Y139015D01*
Y138615D01*
X213682D02*
X214082D01*
X214482Y139015D01*
X214882Y138615D01*
X215282D01*
Y139015D01*
X214882Y139415D01*
X215282Y139815D01*
Y140215D01*
X214882D01*
X214482Y139815D01*
X214082Y140215D01*
X213682D01*
Y139815D01*
X214082Y139415D01*
X213682Y139015D01*
Y138615D01*
X28743Y100104D02*
X29143D01*
X29543Y100504D01*
X29943Y100104D01*
X30343D01*
Y100504D01*
X29943Y100904D01*
X30343Y101304D01*
Y101704D01*
X29943D01*
X29543Y101304D01*
X29143Y101704D01*
X28743D01*
Y101304D01*
X29143Y100904D01*
X28743Y100504D01*
Y100104D01*
X312913Y326988D02*
Y326588D01*
X313713D01*
Y326988D01*
X314113D01*
Y327788D01*
X313713D01*
Y328188D01*
X312913D01*
Y327788D01*
X312513D01*
Y326988D01*
X312913D01*
X200598Y53826D02*
X200998D01*
X201398Y54226D01*
X201798Y53826D01*
X202198D01*
Y54226D01*
X201798Y54626D01*
X202198Y55026D01*
Y55426D01*
X201798D01*
X201398Y55026D01*
X200998Y55426D01*
X200598D01*
Y55026D01*
X200998Y54626D01*
X200598Y54226D01*
Y53826D01*
X148255Y53428D02*
X148655D01*
X149055Y53828D01*
X149455Y53428D01*
X149855D01*
Y53828D01*
X149455Y54228D01*
X149855Y54628D01*
Y55028D01*
X149455D01*
X149055Y54628D01*
X148655Y55028D01*
X148255D01*
Y54628D01*
X148655Y54228D01*
X148255Y53828D01*
Y53428D01*
X40139Y88902D02*
X40539D01*
X40939Y89302D01*
X41339Y88902D01*
X41739D01*
Y89302D01*
X41339Y89702D01*
X41739Y90102D01*
Y90502D01*
X41339D01*
X40939Y90102D01*
X40539Y90502D01*
X40139D01*
Y90102D01*
X40539Y89702D01*
X40139Y89302D01*
Y88902D01*
X29145Y94356D02*
Y93956D01*
X29945D01*
Y94356D01*
X30345D01*
Y95156D01*
X29945D01*
Y95556D01*
X29145D01*
Y95156D01*
X28745D01*
Y94356D01*
X29145D01*
X66663Y79377D02*
X67063D01*
X67463Y79777D01*
X67863Y79377D01*
X68263D01*
Y79777D01*
X67863Y80177D01*
X68263Y80577D01*
Y80977D01*
X67863D01*
X67463Y80577D01*
X67063Y80977D01*
X66663D01*
Y80577D01*
X67063Y80177D01*
X66663Y79777D01*
Y79377D01*
X63722Y115145D02*
X64122D01*
X64522Y115545D01*
X64922Y115145D01*
X65322D01*
Y115545D01*
X64922Y115945D01*
X65322Y116345D01*
Y116745D01*
X64922D01*
X64522Y116345D01*
X64122Y116745D01*
X63722D01*
Y116345D01*
X64122Y115945D01*
X63722Y115545D01*
Y115145D01*
X77875D02*
X78275D01*
X78675Y115545D01*
X79075Y115145D01*
X79475D01*
Y115545D01*
X79075Y115945D01*
X79475Y116345D01*
Y116745D01*
X79075D01*
X78675Y116345D01*
X78275Y116745D01*
X77875D01*
Y116345D01*
X78275Y115945D01*
X77875Y115545D01*
Y115145D01*
X78334Y104735D02*
X78734D01*
X79134Y105135D01*
X79534Y104735D01*
X79934D01*
Y105135D01*
X79534Y105535D01*
X79934Y105935D01*
Y106335D01*
X79534D01*
X79134Y105935D01*
X78734Y106335D01*
X78334D01*
Y105935D01*
X78734Y105535D01*
X78334Y105135D01*
Y104735D01*
X62834Y88783D02*
X63234D01*
X63634Y89183D01*
X64034Y88783D01*
X64434D01*
Y89183D01*
X64034Y89583D01*
X64434Y89983D01*
Y90383D01*
X64034D01*
X63634Y89983D01*
X63234Y90383D01*
X62834D01*
Y89983D01*
X63234Y89583D01*
X62834Y89183D01*
Y88783D01*
X56243Y100503D02*
X56643D01*
X57043Y100903D01*
X57443Y100503D01*
X57843D01*
Y100903D01*
X57443Y101303D01*
X57843Y101703D01*
Y102103D01*
X57443D01*
X57043Y101703D01*
X56643Y102103D01*
X56243D01*
Y101703D01*
X56643Y101303D01*
X56243Y100903D01*
Y100503D01*
X56228Y104149D02*
X56628D01*
X57028Y104549D01*
X57428Y104149D01*
X57828D01*
Y104549D01*
X57428Y104949D01*
X57828Y105349D01*
Y105749D01*
X57428D01*
X57028Y105349D01*
X56628Y105749D01*
X56228D01*
Y105349D01*
X56628Y104949D01*
X56228Y104549D01*
Y104149D01*
X63722Y104737D02*
X64122D01*
X64522Y105137D01*
X64922Y104737D01*
X65322D01*
Y105137D01*
X64922Y105537D01*
X65322Y105937D01*
Y106337D01*
X64922D01*
X64522Y105937D01*
X64122Y106337D01*
X63722D01*
Y105937D01*
X64122Y105537D01*
X63722Y105137D01*
Y104737D01*
X68940Y104735D02*
X69340D01*
X69740Y105135D01*
X70140Y104735D01*
X70540D01*
Y105135D01*
X70140Y105535D01*
X70540Y105935D01*
Y106335D01*
X70140D01*
X69740Y105935D01*
X69340Y106335D01*
X68940D01*
Y105935D01*
X69340Y105535D01*
X68940Y105135D01*
Y104735D01*
X68987Y115145D02*
X69387D01*
X69787Y115545D01*
X70187Y115145D01*
X70587D01*
Y115545D01*
X70187Y115945D01*
X70587Y116345D01*
Y116745D01*
X70187D01*
X69787Y116345D01*
X69387Y116745D01*
X68987D01*
Y116345D01*
X69387Y115945D01*
X68987Y115545D01*
Y115145D01*
X90105Y60976D02*
X90505D01*
X90905Y61376D01*
X91306Y60976D01*
X91706D01*
Y61376D01*
X91306Y61776D01*
X91706Y62176D01*
Y62576D01*
X91306D01*
X90905Y62176D01*
X90505Y62576D01*
X90105D01*
Y62176D01*
X90505Y61776D01*
X90105Y61376D01*
Y60976D01*
X26860Y66265D02*
Y65865D01*
X27660D01*
Y66265D01*
X28060D01*
Y67065D01*
X27660D01*
Y67465D01*
X26860D01*
Y67065D01*
X26460D01*
Y66265D01*
X26860D01*
X62230Y64545D02*
Y64145D01*
X63030D01*
Y64545D01*
X63430D01*
Y65345D01*
X63030D01*
Y65745D01*
X62230D01*
Y65345D01*
X61830D01*
Y64545D01*
X62230D01*
X169668Y34194D02*
Y33795D01*
X170468D01*
Y34194D01*
X170868D01*
Y34995D01*
X170468D01*
Y35394D01*
X169668D01*
Y34995D01*
X169268D01*
Y34194D01*
X169668D01*
X183259Y203936D02*
X183659D01*
X184059Y204336D01*
X184459Y203936D01*
X184859D01*
Y204336D01*
X184459Y204736D01*
X184859Y205136D01*
Y205536D01*
X184459D01*
X184059Y205136D01*
X183659Y205536D01*
X183259D01*
Y205136D01*
X183659Y204736D01*
X183259Y204336D01*
Y203936D01*
X52250Y30364D02*
Y29964D01*
X53050D01*
Y30364D01*
X53450D01*
Y31164D01*
X53050D01*
Y31564D01*
X52250D01*
Y31164D01*
X51850D01*
Y30364D01*
X52250D01*
X138732Y34194D02*
Y33795D01*
X139532D01*
Y34194D01*
X139932D01*
Y34995D01*
X139532D01*
Y35394D01*
X138732D01*
Y34995D01*
X138332D01*
Y34194D01*
X138732D01*
X253409Y79527D02*
X253809D01*
X254209Y79927D01*
X254609Y79527D01*
X255009D01*
Y79927D01*
X254609Y80327D01*
X255009Y80727D01*
Y81127D01*
X254609D01*
X254209Y80727D01*
X253809Y81127D01*
X253409D01*
Y80727D01*
X253809Y80327D01*
X253409Y79927D01*
Y79527D01*
X244882Y80141D02*
X245282D01*
X245682Y80541D01*
X246082Y80141D01*
X246482D01*
Y80541D01*
X246082Y80941D01*
X246482Y81341D01*
Y81741D01*
X246082D01*
X245682Y81341D01*
X245282Y81741D01*
X244882D01*
Y81341D01*
X245282Y80941D01*
X244882Y80541D01*
Y80141D01*
X278365Y118405D02*
X278765D01*
X279165Y118805D01*
X279565Y118405D01*
X279965D01*
Y118805D01*
X279565Y119205D01*
X279965Y119605D01*
Y120005D01*
X279565D01*
X279165Y119605D01*
X278765Y120005D01*
X278365D01*
Y119605D01*
X278765Y119205D01*
X278365Y118805D01*
Y118405D01*
X282204Y118424D02*
X282604D01*
X283004Y118824D01*
X283404Y118424D01*
X283804D01*
Y118824D01*
X283404Y119224D01*
X283804Y119624D01*
Y120024D01*
X283404D01*
X283004Y119624D01*
X282604Y120024D01*
X282204D01*
Y119624D01*
X282604Y119224D01*
X282204Y118824D01*
Y118424D01*
X284661Y107442D02*
X285061D01*
X285461Y107842D01*
X285861Y107442D01*
X286261D01*
Y107842D01*
X285861Y108242D01*
X286261Y108642D01*
Y109042D01*
X285861D01*
X285461Y108642D01*
X285061Y109042D01*
X284661D01*
Y108642D01*
X285061Y108242D01*
X284661Y107842D01*
Y107442D01*
X284643Y110994D02*
X285043D01*
X285443Y111394D01*
X285843Y110994D01*
X286243D01*
Y111394D01*
X285843Y111794D01*
X286243Y112194D01*
Y112594D01*
X285843D01*
X285443Y112194D01*
X285043Y112594D01*
X284643D01*
Y112194D01*
X285043Y111794D01*
X284643Y111394D01*
Y110994D01*
X268202Y112345D02*
X268602D01*
X269002Y112745D01*
X269402Y112345D01*
X269802D01*
Y112745D01*
X269402Y113145D01*
X269802Y113545D01*
Y113945D01*
X269402D01*
X269002Y113545D01*
X268602Y113945D01*
X268202D01*
Y113545D01*
X268602Y113145D01*
X268202Y112745D01*
Y112345D01*
X268147Y115886D02*
X268547D01*
X268947Y116286D01*
X269347Y115886D01*
X269747D01*
Y116286D01*
X269347Y116686D01*
X269747Y117086D01*
Y117486D01*
X269347D01*
X268947Y117086D01*
X268547Y117486D01*
X268147D01*
Y117086D01*
X268547Y116686D01*
X268147Y116286D01*
Y115886D01*
X256312Y104002D02*
X256712D01*
X257112Y104402D01*
X257512Y104002D01*
X257912D01*
Y104402D01*
X257512Y104802D01*
X257912Y105202D01*
Y105602D01*
X257512D01*
X257112Y105202D01*
X256712Y105602D01*
X256312D01*
Y105202D01*
X256712Y104802D01*
X256312Y104402D01*
Y104002D01*
X256178Y112789D02*
X256578D01*
X256978Y113189D01*
X257378Y112789D01*
X257778D01*
Y113189D01*
X257378Y113589D01*
X257778Y113989D01*
Y114389D01*
X257378D01*
X256978Y113989D01*
X256578Y114389D01*
X256178D01*
Y113989D01*
X256578Y113589D01*
X256178Y113189D01*
Y112789D01*
X256207Y116327D02*
X256607D01*
X257007Y116727D01*
X257407Y116327D01*
X257807D01*
Y116727D01*
X257407Y117127D01*
X257807Y117527D01*
Y117927D01*
X257407D01*
X257007Y117527D01*
X256607Y117927D01*
X256207D01*
Y117527D01*
X256607Y117127D01*
X256207Y116727D01*
Y116327D01*
X249680Y200873D02*
X250080D01*
X250480Y201273D01*
X250880Y200873D01*
X251280D01*
Y201273D01*
X250880Y201673D01*
X251280Y202073D01*
Y202473D01*
X250880D01*
X250480Y202073D01*
X250080Y202473D01*
X249680D01*
Y202073D01*
X250080Y201673D01*
X249680Y201273D01*
Y200873D01*
X244893Y84176D02*
X245293D01*
X245693Y84576D01*
X246093Y84176D01*
X246493D01*
Y84576D01*
X246093Y84976D01*
X246493Y85376D01*
Y85776D01*
X246093D01*
X245693Y85376D01*
X245293Y85776D01*
X244893D01*
Y85376D01*
X245293Y84976D01*
X244893Y84576D01*
Y84176D01*
X258228Y131450D02*
X258628D01*
X259028Y131850D01*
X259428Y131450D01*
X259828D01*
Y131850D01*
X259428Y132250D01*
X259828Y132650D01*
Y133050D01*
X259428D01*
X259028Y132650D01*
X258628Y133050D01*
X258228D01*
Y132650D01*
X258628Y132250D01*
X258228Y131850D01*
Y131450D01*
X249238Y121196D02*
X249638D01*
X250038Y121596D01*
X250438Y121196D01*
X250838D01*
Y121596D01*
X250438Y121996D01*
X250838Y122396D01*
Y122796D01*
X250438D01*
X250038Y122396D01*
X249638Y122796D01*
X249238D01*
Y122396D01*
X249638Y121996D01*
X249238Y121596D01*
Y121196D01*
X234983Y128680D02*
X235383D01*
X235783Y129080D01*
X236183Y128680D01*
X236583D01*
Y129080D01*
X236183Y129480D01*
X236583Y129880D01*
Y130280D01*
X236183D01*
X235783Y129880D01*
X235383Y130280D01*
X234983D01*
Y129880D01*
X235383Y129480D01*
X234983Y129080D01*
Y128680D01*
X222031Y82546D02*
X222431D01*
X222831Y82946D01*
X223231Y82546D01*
X223631D01*
Y82946D01*
X223231Y83346D01*
X223631Y83746D01*
Y84146D01*
X223231D01*
X222831Y83746D01*
X222431Y84146D01*
X222031D01*
Y83746D01*
X222431Y83346D01*
X222031Y82946D01*
Y82546D01*
X234897Y82644D02*
X235297D01*
X235697Y83044D01*
X236097Y82644D01*
X236497D01*
Y83044D01*
X236097Y83444D01*
X236497Y83844D01*
Y84244D01*
X236097D01*
X235697Y83844D01*
X235297Y84244D01*
X234897D01*
Y83844D01*
X235297Y83444D01*
X234897Y83044D01*
Y82644D01*
X243039Y207066D02*
X243439D01*
X243839Y207466D01*
X244239Y207066D01*
X244639D01*
Y207466D01*
X244239Y207866D01*
X244639Y208266D01*
Y208666D01*
X244239D01*
X243839Y208266D01*
X243439Y208666D01*
X243039D01*
Y208266D01*
X243439Y207866D01*
X243039Y207466D01*
Y207066D01*
X266606Y104082D02*
X267006D01*
X267406Y104482D01*
X267806Y104082D01*
X268206D01*
Y104482D01*
X267806Y104882D01*
X268206Y105282D01*
Y105682D01*
X267806D01*
X267406Y105282D01*
X267006Y105682D01*
X266606D01*
Y105282D01*
X267006Y104882D01*
X266606Y104482D01*
Y104082D01*
D170*
X300331Y188847D02*
G03*
X300331Y188847I-800J0D01*
G01*
X310332D02*
G03*
X310332Y188847I-800J0D01*
G01*
X300331Y178847D02*
G03*
X300331Y178847I-800J0D01*
G01*
X310332D02*
G03*
X310332Y178847I-800J0D01*
G01*
X285229D02*
G03*
X285229Y178847I-800J0D01*
G01*
Y188847D02*
G03*
X285229Y188847I-800J0D01*
G01*
X197957Y83473D02*
G03*
X197957Y83473I-800J0D01*
G01*
X207957D02*
G03*
X207957Y83473I-800J0D01*
G01*
X40375Y228547D02*
G03*
X40375Y228547I-800J0D01*
G01*
Y218547D02*
G03*
X40375Y218547I-800J0D01*
G01*
X30375Y228547D02*
G03*
X30375Y228547I-800J0D01*
G01*
Y218547D02*
G03*
X30375Y218547I-800J0D01*
G01*
X30457Y203114D02*
G03*
X30457Y203114I-800J0D01*
G01*
X40457D02*
G03*
X40457Y203114I-800J0D01*
G01*
X194505Y99614D02*
G03*
X194505Y99614I-800J0D01*
G01*
X184505D02*
G03*
X184505Y99614I-800J0D01*
G01*
X194505Y109614D02*
G03*
X194505Y109614I-800J0D01*
G01*
X184505D02*
G03*
X184505Y109614I-800J0D01*
G01*
X30902Y372547D02*
G03*
X30902Y372547I-800J0D01*
G01*
Y362547D02*
G03*
X30902Y362547I-800J0D01*
G01*
M02*
