G04*
G04 #@! TF.GenerationSoftware,Altium Limited,Altium Designer,20.1.7 (139)*
G04*
G04 Layer_Color=8388736*
%FSLAX25Y25*%
%MOIN*%
G70*
G04*
G04 #@! TF.SameCoordinates,F1024F09-50C5-4513-BE08-2A4FEE95A773*
G04*
G04*
G04 #@! TF.FilePolarity,Positive*
G04*
G01*
G75*
%ADD10C,0.00394*%
%ADD167C,0.00200*%
%ADD168C,0.00300*%
D10*
X215894Y112537D02*
G03*
X215894Y112537I-1969J0D01*
G01*
X53695Y117169D02*
G03*
X53695Y117169I-1969J0D01*
G01*
X170461Y70961D02*
G03*
X170461Y70961I-1969J0D01*
G01*
X240957Y36366D02*
X247650D01*
X240957Y32823D02*
X247650D01*
X240957D02*
Y36366D01*
X247650Y32823D02*
Y36366D01*
X225272Y36366D02*
X231965D01*
X225272Y32823D02*
X231965D01*
X225272D02*
Y36366D01*
X231965Y32823D02*
Y36366D01*
X233276Y274827D02*
X236819D01*
X233276Y281520D02*
X236819D01*
X233276Y274827D02*
Y281520D01*
X236819Y274827D02*
Y281520D01*
X227949Y256953D02*
X231492D01*
X227949Y263646D02*
X231492D01*
X227949Y256953D02*
Y263646D01*
X231492Y256953D02*
Y263646D01*
X224693Y274583D02*
X228236D01*
X224693Y281276D02*
X228236D01*
X224693Y274583D02*
Y281276D01*
X228236Y274583D02*
Y281276D01*
X137646Y256953D02*
X141189D01*
X137646Y263646D02*
X141189D01*
X137646Y256953D02*
Y263646D01*
X141189Y256953D02*
Y263646D01*
X135087Y274551D02*
X138630D01*
X135087Y281244D02*
X138630D01*
X135087Y274551D02*
Y281244D01*
X138630Y274551D02*
Y281244D01*
X226016Y104798D02*
X229559D01*
X226016Y98105D02*
X229559D01*
Y104798D01*
X226016Y98105D02*
Y104798D01*
X210382Y108994D02*
X222193D01*
X210382Y120805D02*
X222193D01*
X210382Y108994D02*
Y120805D01*
X222193Y108994D02*
Y120805D01*
X223976Y154925D02*
X230669D01*
X223976Y158468D02*
X230669D01*
Y154925D02*
Y158468D01*
X223976Y154925D02*
Y158468D01*
X225425Y256953D02*
Y263646D01*
X221882Y256953D02*
Y263646D01*
X225425D01*
X221882Y256953D02*
X225425D01*
X237567D02*
Y263646D01*
X234024Y256953D02*
Y263646D01*
X237567D01*
X234024Y256953D02*
X237567D01*
X147461D02*
Y263646D01*
X143917Y256953D02*
Y263646D01*
X147461D01*
X143917Y256953D02*
X147461D01*
X134827D02*
Y263646D01*
X131283Y256953D02*
Y263646D01*
X134827D01*
X131283Y256953D02*
X134827D01*
X128461D02*
Y263646D01*
X124917Y256953D02*
Y263646D01*
X128461D01*
X124917Y256953D02*
X128461D01*
X239020Y120894D02*
Y125421D01*
X241579Y120894D02*
Y125421D01*
X239020Y120894D02*
X241579D01*
X239020Y125421D02*
X241579D01*
X66673Y41268D02*
X69232D01*
X66673Y45795D02*
X69232D01*
X66673Y41268D02*
Y45795D01*
X69232Y41268D02*
Y45795D01*
X73524Y41268D02*
Y45795D01*
X70965Y41268D02*
Y45795D01*
X73524D01*
X70965Y41268D02*
X73524D01*
X276949Y73268D02*
X281476D01*
X276949Y70709D02*
X281476D01*
X276949D02*
Y73268D01*
X281476Y70709D02*
Y73268D01*
X30677Y88012D02*
Y91555D01*
X37370Y88012D02*
Y91555D01*
X30677D02*
X37370D01*
X30677Y88012D02*
X37370D01*
X305043Y355327D02*
Y360839D01*
X317051Y355327D02*
Y360839D01*
X305043Y355327D02*
X317051D01*
X305043Y360839D02*
X317051D01*
X303335Y307748D02*
X315342D01*
X303335Y313260D02*
X315342D01*
X303335Y307748D02*
Y313260D01*
X315342Y307748D02*
Y313260D01*
X234776Y121031D02*
Y125165D01*
X236941Y121031D02*
Y125165D01*
X234776Y121031D02*
X236941D01*
X234776Y125165D02*
X236941D01*
X37476Y55468D02*
X44366D01*
X37476Y59209D02*
X44366D01*
Y55468D02*
Y59209D01*
X37476Y55468D02*
Y59209D01*
X29281Y71238D02*
Y78128D01*
X25541Y71238D02*
Y78128D01*
X29281D01*
X25541Y71238D02*
X29281D01*
X48183Y84886D02*
X84010D01*
X48183Y120713D02*
X84010D01*
Y84886D02*
Y120713D01*
X48183Y84886D02*
Y120713D01*
X164949Y52850D02*
X186602D01*
X164949Y74504D02*
X186602D01*
Y52850D02*
Y74504D01*
X164949Y52850D02*
Y74504D01*
X294378Y344339D02*
Y347882D01*
X301071Y344339D02*
Y347882D01*
X294378D02*
X301071D01*
X294378Y344339D02*
X301071D01*
X294382Y320590D02*
Y324134D01*
X301075Y320590D02*
Y324134D01*
X294382D02*
X301075D01*
X294382Y320590D02*
X301075D01*
X22610Y329980D02*
X26153D01*
X22610Y323287D02*
X26153D01*
Y329980D01*
X22610Y323287D02*
Y329980D01*
X28902Y348701D02*
Y352244D01*
X22209Y348701D02*
Y352244D01*
Y348701D02*
X28902D01*
X22209Y352244D02*
X28902D01*
X110461Y52634D02*
X114004D01*
X110461Y45941D02*
X114004D01*
Y52634D01*
X110461Y45941D02*
Y52634D01*
X110362Y59756D02*
Y66449D01*
X113906Y59756D02*
Y66449D01*
X110362Y59756D02*
X113906D01*
X110362Y66449D02*
X113906D01*
X94256Y16839D02*
X97799D01*
X94256Y23531D02*
X97799D01*
X94256Y16839D02*
Y23531D01*
X97799Y16839D02*
Y23531D01*
X24130Y31476D02*
X27673D01*
X24130Y38169D02*
X27673D01*
X24130Y31476D02*
Y38169D01*
X27673Y31476D02*
Y38169D01*
X27591Y119480D02*
Y123614D01*
X25425Y119480D02*
Y123614D01*
X27591D01*
X25425Y119480D02*
X27591D01*
X30138Y126862D02*
Y130996D01*
X27972Y126862D02*
Y130996D01*
X30138D01*
X27972Y126862D02*
X30138D01*
X182173Y145079D02*
X185716D01*
X182173Y138386D02*
X185716D01*
Y145079D01*
X182173Y138386D02*
Y145079D01*
X280358Y267347D02*
Y274039D01*
X276815Y267347D02*
Y274039D01*
X280358D01*
X276815Y267347D02*
X280358D01*
X280350Y254551D02*
Y261244D01*
X276807Y254551D02*
Y261244D01*
X280350D01*
X276807Y254551D02*
X280350D01*
X303020Y221091D02*
Y224634D01*
X309713Y221091D02*
Y224634D01*
X303020D02*
X309713D01*
X303020Y221091D02*
X309713D01*
X303020Y229331D02*
Y232874D01*
X309713Y229331D02*
Y232874D01*
X303020D02*
X309713D01*
X303020Y229331D02*
X309713D01*
X303232Y238476D02*
Y242020D01*
X309925Y238476D02*
Y242020D01*
X303232D02*
X309925D01*
X303232Y238476D02*
X309925D01*
X288839Y221150D02*
X295532D01*
X288839Y224693D02*
X295532D01*
Y221150D02*
Y224693D01*
X288839Y221150D02*
Y224693D01*
Y229331D02*
X295532D01*
X288839Y232874D02*
X295532D01*
Y229331D02*
Y232874D01*
X288839Y229331D02*
Y232874D01*
X289051Y238583D02*
X295744D01*
X289051Y242126D02*
X295744D01*
Y238583D02*
Y242126D01*
X289051Y238583D02*
Y242126D01*
X83409Y134642D02*
X85575D01*
X83409Y138776D02*
X85575D01*
X83409Y134642D02*
Y138776D01*
X85575Y134642D02*
Y138776D01*
X256646Y8787D02*
X285779D01*
X231114Y72193D02*
Y75736D01*
X224421Y72193D02*
Y75736D01*
Y72193D02*
X231114D01*
X224421Y75736D02*
X231114D01*
X308842Y344272D02*
Y348012D01*
X315732Y344272D02*
Y348012D01*
X308842D02*
X315732D01*
X308842Y344272D02*
X315732D01*
X306547Y368130D02*
X313437D01*
X306547Y371870D02*
X313437D01*
Y368130D02*
Y371870D01*
X306547Y368130D02*
Y371870D01*
X57031Y342453D02*
X60575D01*
X57031Y349146D02*
X60575D01*
X57031Y342453D02*
Y349146D01*
X60575Y342453D02*
Y349146D01*
X57094Y330405D02*
X60638D01*
X57094Y337098D02*
X60638D01*
X57094Y330405D02*
Y337098D01*
X60638Y330405D02*
Y337098D01*
X195504Y54331D02*
Y61024D01*
X199047Y54331D02*
Y61024D01*
X195504Y54331D02*
X199047D01*
X195504Y61024D02*
X199047D01*
X229606Y110843D02*
Y117535D01*
X226063Y110843D02*
Y117535D01*
X229606D01*
X226063Y110843D02*
X229606D01*
X63232Y336091D02*
X66972D01*
X63232Y342980D02*
X66972D01*
X63232Y336091D02*
Y342980D01*
X66972Y336091D02*
Y342980D01*
X279374Y38413D02*
Y41957D01*
X286067Y38413D02*
Y41957D01*
X279374D02*
X286067D01*
X279374Y38413D02*
X286067D01*
X279374Y32110D02*
X286067D01*
X279374Y35654D02*
X286067D01*
Y32110D02*
Y35654D01*
X279374Y32110D02*
Y35654D01*
X237185Y201096D02*
Y207789D01*
X240728Y201096D02*
Y207789D01*
X237185Y201096D02*
X240728D01*
X237185Y207789D02*
X240728D01*
X214250Y135687D02*
X220943D01*
X214250Y132144D02*
X220943D01*
X214250D02*
Y135687D01*
X220943Y132144D02*
Y135687D01*
X247630Y55590D02*
X254323D01*
X247630Y52047D02*
X254323D01*
X247630D02*
Y55590D01*
X254323Y52047D02*
Y55590D01*
X234000Y94295D02*
X237543D01*
X234000Y87602D02*
X237543D01*
Y94295D01*
X234000Y87602D02*
Y94295D01*
X226065Y90153D02*
X229609D01*
X226065Y83461D02*
X229609D01*
Y90153D01*
X226065Y83461D02*
Y90153D01*
X266583Y64630D02*
Y71323D01*
X263039Y64630D02*
Y71323D01*
X266583D01*
X263039Y64630D02*
X266583D01*
X64063Y36213D02*
Y38417D01*
X59969Y36213D02*
Y38417D01*
Y36213D02*
X64063D01*
X59969Y38417D02*
X64063D01*
X52406Y36146D02*
Y38350D01*
X56500Y36146D02*
Y38350D01*
X52406D02*
X56500D01*
X52406Y36146D02*
X56500D01*
X312807Y296492D02*
Y300232D01*
X305917Y296492D02*
Y300232D01*
Y296492D02*
X312807D01*
X305917Y300232D02*
X312807D01*
X307201Y320282D02*
Y324022D01*
X314091Y320282D02*
Y324022D01*
X307201D02*
X314091D01*
X307201Y320282D02*
X314091D01*
X184831Y86736D02*
X188374D01*
X184831Y80043D02*
X188374D01*
Y86736D01*
X184831Y80043D02*
Y86736D01*
X199335Y66370D02*
Y73063D01*
X195791Y66370D02*
Y73063D01*
X199335D01*
X195791Y66370D02*
X199335D01*
X151504Y54331D02*
Y61024D01*
X155047Y54331D02*
Y61024D01*
X151504Y54331D02*
X155047D01*
X151504Y61024D02*
X155047D01*
X159917Y81134D02*
X166610D01*
X159917Y77591D02*
X166610D01*
X159917D02*
Y81134D01*
X166610Y77591D02*
Y81134D01*
X32307Y8797D02*
X82898D01*
X144732Y32823D02*
Y36366D01*
X151425Y32823D02*
Y36366D01*
X144732D02*
X151425D01*
X144732Y32823D02*
X151425D01*
X158232Y32823D02*
X164925D01*
X158232Y36366D02*
X164925D01*
Y32823D02*
Y36366D01*
X158232Y32823D02*
Y36366D01*
X91173Y70866D02*
Y74410D01*
X84480Y70866D02*
Y74410D01*
Y70866D02*
X91173D01*
X84480Y74410D02*
X91173D01*
X64535Y68610D02*
Y75500D01*
X60795Y68610D02*
Y75500D01*
X64535D01*
X60795Y68610D02*
X64535D01*
X286071Y73004D02*
X292764D01*
X286071Y69461D02*
X292764D01*
X286071D02*
Y73004D01*
X292764Y69461D02*
Y73004D01*
X40496Y31441D02*
Y38134D01*
X44039Y31441D02*
Y38134D01*
X40496Y31441D02*
X44039D01*
X40496Y38134D02*
X44039D01*
X46350Y348957D02*
Y352500D01*
X53043Y348957D02*
Y352500D01*
X46350D02*
X53043D01*
X46350Y348957D02*
X53043D01*
X46008Y355358D02*
Y359098D01*
X53094Y355358D02*
Y359098D01*
X46008D02*
X53094D01*
X46008Y355358D02*
X53094D01*
X31761Y318535D02*
X38454D01*
X31761Y314992D02*
X38454D01*
X31761D02*
Y318535D01*
X38454Y314992D02*
Y318535D01*
X38651Y321894D02*
Y325634D01*
X31564Y321894D02*
Y325634D01*
Y321894D02*
X38651D01*
X31564Y325634D02*
X38651D01*
X53329Y264746D02*
Y268486D01*
X46243Y264746D02*
Y268486D01*
Y264746D02*
X53329D01*
X46243Y268486D02*
X53329D01*
X46396Y275887D02*
X53089D01*
X46396Y272344D02*
X53089D01*
X46396D02*
Y275887D01*
X53089Y272344D02*
Y275887D01*
X36685Y337638D02*
Y344331D01*
X33142Y337638D02*
Y344331D01*
X36685D01*
X33142Y337638D02*
X36685D01*
X26547Y337201D02*
X30287D01*
X26547Y344287D02*
X30287D01*
X26547Y337201D02*
Y344287D01*
X30287Y337201D02*
Y344287D01*
X84492Y64673D02*
Y68216D01*
X91185Y64673D02*
Y68216D01*
X84492D02*
X91185D01*
X84492Y64673D02*
X91185D01*
D167*
X266488Y8478D02*
X268513D01*
X269187Y8703D01*
X269412Y8927D01*
X269637Y9377D01*
Y10052D01*
X269412Y10502D01*
X269187Y10727D01*
X268513Y10952D01*
X266488D01*
Y6228D01*
X274068Y9827D02*
X273843Y10277D01*
X273393Y10727D01*
X272943Y10952D01*
X272044D01*
X271594Y10727D01*
X271144Y10277D01*
X270919Y9827D01*
X270694Y9152D01*
Y8028D01*
X270919Y7353D01*
X271144Y6903D01*
X271594Y6453D01*
X272044Y6228D01*
X272943D01*
X273393Y6453D01*
X273843Y6903D01*
X274068Y7353D01*
X275395Y10952D02*
Y6228D01*
Y10952D02*
X277419D01*
X278094Y10727D01*
X278319Y10502D01*
X278544Y10052D01*
Y9602D01*
X278319Y9152D01*
X278094Y8927D01*
X277419Y8703D01*
X275395D02*
X277419D01*
X278094Y8478D01*
X278319Y8253D01*
X278544Y7803D01*
Y7128D01*
X278319Y6678D01*
X278094Y6453D01*
X277419Y6228D01*
X275395D01*
X286237Y10952D02*
X283313D01*
Y6228D01*
X286237D01*
X283313Y8703D02*
X285112D01*
X289723Y10952D02*
Y6228D01*
Y8703D02*
X289273Y9152D01*
X288823Y9377D01*
X288148D01*
X287699Y9152D01*
X287249Y8703D01*
X287024Y8028D01*
Y7578D01*
X287249Y6903D01*
X287699Y6453D01*
X288148Y6228D01*
X288823D01*
X289273Y6453D01*
X289723Y6903D01*
X293682Y9377D02*
Y5779D01*
X293457Y5104D01*
X293232Y4879D01*
X292782Y4654D01*
X292107D01*
X291657Y4879D01*
X293682Y8703D02*
X293232Y9152D01*
X292782Y9377D01*
X292107D01*
X291657Y9152D01*
X291207Y8703D01*
X290982Y8028D01*
Y7578D01*
X291207Y6903D01*
X291657Y6453D01*
X292107Y6228D01*
X292782D01*
X293232Y6453D01*
X293682Y6903D01*
X294941Y8028D02*
X297640D01*
Y8478D01*
X297415Y8927D01*
X297190Y9152D01*
X296740Y9377D01*
X296066D01*
X295616Y9152D01*
X295166Y8703D01*
X294941Y8028D01*
Y7578D01*
X295166Y6903D01*
X295616Y6453D01*
X296066Y6228D01*
X296740D01*
X297190Y6453D01*
X297640Y6903D01*
D168*
X51382Y7484D02*
X53406D01*
X54081Y7708D01*
X54306Y7933D01*
X54531Y8383D01*
Y9058D01*
X54306Y9508D01*
X54081Y9733D01*
X53406Y9958D01*
X51382D01*
Y5234D01*
X58962Y8833D02*
X58737Y9283D01*
X58287Y9733D01*
X57837Y9958D01*
X56937D01*
X56488Y9733D01*
X56038Y9283D01*
X55813Y8833D01*
X55588Y8158D01*
Y7034D01*
X55813Y6359D01*
X56038Y5909D01*
X56488Y5459D01*
X56937Y5234D01*
X57837D01*
X58287Y5459D01*
X58737Y5909D01*
X58962Y6359D01*
X60289Y9958D02*
Y5234D01*
Y9958D02*
X62313D01*
X62988Y9733D01*
X63213Y9508D01*
X63438Y9058D01*
Y8608D01*
X63213Y8158D01*
X62988Y7933D01*
X62313Y7708D01*
X60289D02*
X62313D01*
X62988Y7484D01*
X63213Y7259D01*
X63438Y6809D01*
Y6134D01*
X63213Y5684D01*
X62988Y5459D01*
X62313Y5234D01*
X60289D01*
X71130Y9958D02*
X68206D01*
Y5234D01*
X71130D01*
X68206Y7708D02*
X70006D01*
X74616Y9958D02*
Y5234D01*
Y7708D02*
X74167Y8158D01*
X73717Y8383D01*
X73042D01*
X72592Y8158D01*
X72142Y7708D01*
X71917Y7034D01*
Y6584D01*
X72142Y5909D01*
X72592Y5459D01*
X73042Y5234D01*
X73717D01*
X74167Y5459D01*
X74616Y5909D01*
X78575Y8383D02*
Y4784D01*
X78350Y4110D01*
X78125Y3885D01*
X77675Y3660D01*
X77001D01*
X76551Y3885D01*
X78575Y7708D02*
X78125Y8158D01*
X77675Y8383D01*
X77001D01*
X76551Y8158D01*
X76101Y7708D01*
X75876Y7034D01*
Y6584D01*
X76101Y5909D01*
X76551Y5459D01*
X77001Y5234D01*
X77675D01*
X78125Y5459D01*
X78575Y5909D01*
X79835Y7034D02*
X82534D01*
Y7484D01*
X82309Y7933D01*
X82084Y8158D01*
X81634Y8383D01*
X80959D01*
X80510Y8158D01*
X80060Y7708D01*
X79835Y7034D01*
Y6584D01*
X80060Y5909D01*
X80510Y5459D01*
X80959Y5234D01*
X81634D01*
X82084Y5459D01*
X82534Y5909D01*
M02*
