G04*
G04 #@! TF.GenerationSoftware,Altium Limited,Altium Designer,20.1.7 (139)*
G04*
G04 Layer_Color=16711935*
%FSLAX25Y25*%
%MOIN*%
G70*
G04*
G04 #@! TF.SameCoordinates,F1024F09-50C5-4513-BE08-2A4FEE95A773*
G04*
G04*
G04 #@! TF.FilePolarity,Negative*
G04*
G01*
G75*
%ADD64R,0.04147X0.04343*%
%ADD78R,0.03477X0.03477*%
%ADD79R,0.03477X0.03477*%
%ADD81R,0.03084X0.03005*%
%ADD90C,0.07874*%
%ADD91R,0.03005X0.03084*%
%ADD92R,0.04540X0.05131*%
%ADD101R,0.05131X0.04540*%
%ADD112C,0.05521*%
%ADD113C,0.06706*%
%ADD114R,0.06706X0.06706*%
%ADD115C,0.07096*%
%ADD116R,0.06706X0.06706*%
%ADD117C,0.08200*%
%ADD118C,0.03556*%
%ADD162R,0.01981X0.03438*%
%ADD163R,0.01981X0.02769*%
%ADD164R,0.02178X0.04737*%
%ADD165R,0.03556X0.03753*%
%ADD166R,0.04934X0.04147*%
D64*
X187118Y176996D02*
D03*
X181016D02*
D03*
X175016Y177004D02*
D03*
X168913D02*
D03*
X34760Y101169D02*
D03*
X40862D02*
D03*
D78*
X240614Y172248D02*
D03*
Y175949D02*
D03*
X233327Y172579D02*
D03*
Y176279D02*
D03*
X64447Y109250D02*
D03*
Y112951D02*
D03*
X63488Y92547D02*
D03*
Y96248D02*
D03*
X58535D02*
D03*
Y92547D02*
D03*
X53396Y100187D02*
D03*
Y103888D02*
D03*
X285827Y91709D02*
D03*
Y95410D02*
D03*
X282449Y111803D02*
D03*
Y108102D02*
D03*
X272480Y113216D02*
D03*
Y116917D02*
D03*
X49976Y90744D02*
D03*
Y94445D02*
D03*
X249272Y81187D02*
D03*
Y84888D02*
D03*
X260366Y113614D02*
D03*
Y117315D02*
D03*
X60020Y112894D02*
D03*
Y109193D02*
D03*
X49559Y122839D02*
D03*
Y119138D02*
D03*
X75984Y100878D02*
D03*
Y97177D02*
D03*
D79*
X76539Y106480D02*
D03*
X72839D02*
D03*
X75945Y89614D02*
D03*
X79646D02*
D03*
X272567Y91921D02*
D03*
X276268D02*
D03*
X260221Y104921D02*
D03*
X263921D02*
D03*
X265905Y91931D02*
D03*
X262205D02*
D03*
X278795Y116004D02*
D03*
X282496D02*
D03*
X71689Y96661D02*
D03*
X67988D02*
D03*
X72205Y113055D02*
D03*
X75906D02*
D03*
D81*
X55811Y109122D02*
D03*
Y112902D02*
D03*
X88945Y85504D02*
D03*
Y81724D02*
D03*
X45429Y122886D02*
D03*
Y119106D02*
D03*
X80138Y100902D02*
D03*
Y97122D02*
D03*
D90*
X20098Y376035D02*
D03*
X317764Y15894D02*
D03*
X19748Y16232D02*
D03*
D91*
X67980Y92496D02*
D03*
X71760D02*
D03*
X67984Y100921D02*
D03*
X71764D02*
D03*
X262157Y96114D02*
D03*
X265937D02*
D03*
X272492Y96096D02*
D03*
X276272D02*
D03*
D92*
X195925Y233067D02*
D03*
Y227555D02*
D03*
X195299Y198043D02*
D03*
Y192532D02*
D03*
X175220Y232780D02*
D03*
Y227268D02*
D03*
X189500Y233004D02*
D03*
Y227492D02*
D03*
X135012Y228858D02*
D03*
Y223346D02*
D03*
X148224Y175882D02*
D03*
Y170370D02*
D03*
D101*
X193189Y172878D02*
D03*
X198701D02*
D03*
X35079Y95000D02*
D03*
X40591D02*
D03*
X194791Y204909D02*
D03*
X189280D02*
D03*
X195240Y219933D02*
D03*
X189728D02*
D03*
X167559Y233185D02*
D03*
X162047D02*
D03*
X155280Y233157D02*
D03*
X149768D02*
D03*
X138603Y185006D02*
D03*
X133091D02*
D03*
X138483Y178663D02*
D03*
X132971D02*
D03*
X141630Y170472D02*
D03*
X136118D02*
D03*
X157315Y170406D02*
D03*
X162827D02*
D03*
X175087D02*
D03*
X169575D02*
D03*
D112*
X229142Y145689D02*
D03*
X176945Y131421D02*
D03*
X169602D02*
D03*
X98465Y235992D02*
D03*
D113*
X299532Y188847D02*
D03*
X309531D02*
D03*
X299532Y178847D02*
D03*
X284429Y188847D02*
D03*
X197157Y83473D02*
D03*
X39575Y228547D02*
D03*
Y218547D02*
D03*
X29575Y228547D02*
D03*
X29658Y203114D02*
D03*
X193705Y99614D02*
D03*
X183705D02*
D03*
X193705Y109614D02*
D03*
X30102Y372547D02*
D03*
D114*
X309531Y178847D02*
D03*
X284429D02*
D03*
X183705Y109614D02*
D03*
X30102Y362547D02*
D03*
D115*
X282213Y222689D02*
D03*
Y231319D02*
D03*
X315902Y222689D02*
D03*
Y231319D02*
D03*
X316114Y240496D02*
D03*
X282425Y239933D02*
D03*
D116*
X207157Y83473D02*
D03*
X29575Y218547D02*
D03*
X39658Y203114D02*
D03*
D117*
X313729Y255045D02*
D03*
X288129D02*
D03*
X313729Y272845D02*
D03*
X288129D02*
D03*
D118*
X279382Y24142D02*
D03*
X263043D02*
D03*
D162*
X160669Y348437D02*
D03*
X163031D02*
D03*
X165394D02*
D03*
X167756D02*
D03*
X170118D02*
D03*
X172480D02*
D03*
X174842D02*
D03*
X177205D02*
D03*
X179567D02*
D03*
X181929D02*
D03*
X184291D02*
D03*
X186653D02*
D03*
X189016D02*
D03*
X191378D02*
D03*
X193740D02*
D03*
X196102D02*
D03*
X198465D02*
D03*
X200827D02*
D03*
X203189D02*
D03*
X205551D02*
D03*
X207913D02*
D03*
X210276D02*
D03*
X212638D02*
D03*
X215000D02*
D03*
X217362D02*
D03*
X219724D02*
D03*
X222087D02*
D03*
X224449D02*
D03*
X226811D02*
D03*
X229173D02*
D03*
X231535D02*
D03*
X233898D02*
D03*
X236260D02*
D03*
X238622D02*
D03*
D163*
X161850Y336370D02*
D03*
X164213D02*
D03*
X166575D02*
D03*
X168937D02*
D03*
X171299D02*
D03*
X173661D02*
D03*
X176023D02*
D03*
X178386D02*
D03*
X180748D02*
D03*
X183110D02*
D03*
X185472D02*
D03*
X187835D02*
D03*
X190197D02*
D03*
X192559D02*
D03*
X194921D02*
D03*
X197283D02*
D03*
X199646D02*
D03*
X202008D02*
D03*
X204370D02*
D03*
X206732D02*
D03*
X209094D02*
D03*
X211457D02*
D03*
X213819D02*
D03*
X216181D02*
D03*
X218543D02*
D03*
X220905D02*
D03*
X223268D02*
D03*
X225630D02*
D03*
X227992D02*
D03*
X230354D02*
D03*
X232716D02*
D03*
X235079D02*
D03*
X237441D02*
D03*
D164*
X156831Y347787D02*
D03*
X242461D02*
D03*
D165*
X50343Y128602D02*
D03*
X44634D02*
D03*
X278543Y82035D02*
D03*
X272835D02*
D03*
X267106Y82016D02*
D03*
X261398D02*
D03*
D166*
X206394Y226965D02*
D03*
Y233657D02*
D03*
M02*
