G04*
G04 #@! TF.GenerationSoftware,Altium Limited,Altium Designer,20.1.7 (139)*
G04*
G04 Layer_Physical_Order=4*
G04 Layer_Color=16711680*
%FSLAX25Y25*%
%MOIN*%
G70*
G04*
G04 #@! TF.SameCoordinates,F1024F09-50C5-4513-BE08-2A4FEE95A773*
G04*
G04*
G04 #@! TF.FilePolarity,Positive*
G04*
G01*
G75*
%ADD13C,0.01575*%
%ADD14C,0.02362*%
%ADD15C,0.01000*%
%ADD17R,0.03347X0.03543*%
%ADD19C,0.01968*%
%ADD23C,0.03937*%
%ADD31R,0.02677X0.02677*%
%ADD32R,0.02677X0.02677*%
%ADD34R,0.02284X0.02205*%
%ADD43R,0.02205X0.02284*%
%ADD44R,0.03740X0.04331*%
%ADD53R,0.04331X0.03740*%
%ADD119C,0.00709*%
%ADD122C,0.02500*%
%ADD124C,0.00965*%
%ADD127C,0.03937*%
%ADD130C,0.04921*%
%ADD131C,0.05906*%
%ADD132R,0.05906X0.05906*%
%ADD133C,0.06496*%
%ADD134R,0.05906X0.05906*%
%ADD135C,0.07400*%
%ADD136C,0.02756*%
%ADD137C,0.01181*%
%ADD138C,0.01575*%
%ADD139C,0.02362*%
%ADD155C,0.01968*%
%ADD156R,0.01181X0.02638*%
%ADD157R,0.01181X0.01968*%
%ADD158R,0.01378X0.03937*%
%ADD159R,0.02756X0.02953*%
%ADD160R,0.04134X0.03347*%
%ADD161C,0.01181*%
G36*
X82575Y343992D02*
X86665Y339902D01*
X86665Y274980D01*
X76721Y265036D01*
X58982Y282774D01*
X58459Y283123D01*
X57842Y283246D01*
X50711D01*
X50263Y283830D01*
X49643Y284306D01*
X48921Y284605D01*
X48646Y284641D01*
Y281713D01*
Y278784D01*
X48921Y278820D01*
X49643Y279120D01*
X50263Y279595D01*
X50590Y280022D01*
X52185D01*
X52392Y279522D01*
X50000Y277130D01*
Y258217D01*
X50083Y258134D01*
X48350Y256402D01*
X40913D01*
X23161Y274153D01*
Y292236D01*
X28035Y297110D01*
X51980D01*
X66185Y311315D01*
X66414Y333667D01*
X66442Y333708D01*
X66549Y334248D01*
X66442Y334788D01*
X66426Y334811D01*
X66466Y338686D01*
X71772Y343992D01*
X82575Y343992D01*
D02*
G37*
%LPC*%
G36*
X47646Y284641D02*
X47371Y284605D01*
X46649Y284306D01*
X46029Y283830D01*
X45553Y283210D01*
X45254Y282488D01*
X45217Y282213D01*
X47646D01*
Y284641D01*
D02*
G37*
G36*
Y281213D02*
X45217D01*
X45254Y280938D01*
X45553Y280216D01*
X46029Y279595D01*
X46649Y279120D01*
X47371Y278820D01*
X47646Y278784D01*
Y281213D01*
D02*
G37*
%LPD*%
D13*
X65368Y348600D02*
X138218D01*
X248752Y340784D02*
Y353740D01*
X243307Y359185D02*
X248752Y353740D01*
X148803Y359185D02*
X243307D01*
X241067Y333098D02*
X248752Y340784D01*
X236669Y333098D02*
X241067D01*
X138218Y348600D02*
X148803Y359185D01*
X259165Y88217D02*
X261398Y85984D01*
X259165Y88217D02*
Y96071D01*
X261398Y82016D02*
Y85984D01*
X269429Y93985D02*
X271657Y96213D01*
X269429Y89272D02*
Y93985D01*
Y89272D02*
X272835Y85866D01*
Y82035D02*
Y85866D01*
X259165Y96071D02*
X262114D01*
D14*
X200612Y179872D02*
X233425D01*
X178488Y201996D02*
X200612Y179872D01*
X195362Y217602D02*
Y219811D01*
X191140Y213381D02*
X195362Y217602D01*
X194732Y197476D02*
X195299Y198043D01*
X183291Y197476D02*
X194732D01*
X178488Y201996D02*
Y213381D01*
X164302Y227567D02*
X168925D01*
X164302D02*
X178488Y213381D01*
X151630Y227567D02*
X164302D01*
X174138Y232780D02*
X175220D01*
X143039Y227567D02*
X151630D01*
X154295Y230232D01*
Y232468D01*
X154984Y233157D01*
X155280D01*
X178488Y213381D02*
X191140D01*
X126504Y244102D02*
X143039Y227567D01*
X95374Y244102D02*
X126504D01*
X57842Y281634D02*
X95374Y244102D01*
X49598Y281634D02*
X57842D01*
X90905Y27315D02*
Y61776D01*
X79051Y15461D02*
X90905Y27315D01*
X45063Y15461D02*
X79051D01*
X37343Y23181D02*
X45063Y15461D01*
X37343Y23181D02*
Y31815D01*
X189370Y233134D02*
X189500Y233004D01*
X189370Y233134D02*
Y237287D01*
X184059Y204736D02*
X189106D01*
X195689Y204695D02*
X200028D01*
X195677Y204707D02*
X195689Y204695D01*
D15*
X188784Y129179D02*
X213482Y153878D01*
X188784Y104689D02*
Y129179D01*
X213482Y153878D02*
X299266Y153878D01*
X310626D01*
X167420Y233324D02*
X167514Y233418D01*
X212620Y349006D02*
Y352370D01*
X203203Y348978D02*
Y352370D01*
X205614Y221921D02*
Y227842D01*
X195638Y220118D02*
X203811D01*
X193703Y349262D02*
Y352370D01*
X184344Y349317D02*
Y352370D01*
X195362Y219811D02*
X195602Y220051D01*
X174872Y349234D02*
Y352370D01*
X160719Y349203D02*
Y352370D01*
X155501Y233763D02*
X155693Y233571D01*
X232705Y332634D02*
Y336244D01*
X71730Y89337D02*
Y92467D01*
X203811Y220118D02*
X205614Y221921D01*
X196394Y233536D02*
X204890D01*
X195925D02*
X196394D01*
X196488Y233630D01*
X195925Y233067D02*
X196394Y233536D01*
X159772Y112382D02*
Y154645D01*
X206898Y91953D02*
X219874Y78976D01*
X180201Y91953D02*
X206898D01*
X159772Y112382D02*
X180201Y91953D01*
X283394Y178839D02*
X284429Y178839D01*
X279294Y182938D02*
X283394Y178839D01*
X217439Y182937D02*
X279294Y182938D01*
X283495Y189247D02*
X284429Y189248D01*
X212319Y184976D02*
X279226Y184978D01*
X212195Y184976D02*
X212319D01*
X279226Y184978D02*
X283495Y189247D01*
X230492Y335910D02*
Y339520D01*
X189118Y158465D02*
X300079D01*
X215252Y151291D02*
X300526Y151291D01*
X193854Y129894D02*
X215252Y151291D01*
X300526Y151291D02*
X307902Y151292D01*
X198240Y153717D02*
X200468Y155945D01*
X304240D01*
X195602Y220051D02*
X200658D01*
X134968Y224279D02*
X135055Y224366D01*
X130514Y224279D02*
X134968D01*
X135033Y229856D02*
X135055Y229878D01*
X130657Y229856D02*
X135033D01*
X155693Y233571D02*
X155693Y233571D01*
X237520Y335016D02*
Y336776D01*
X235106Y334354D02*
X236260Y333201D01*
X236567D01*
X237520Y335016D02*
X238898Y333638D01*
X235106Y334354D02*
Y336276D01*
X164216Y332839D02*
Y336449D01*
X161646Y332854D02*
Y336465D01*
X156811Y348768D02*
Y352378D01*
X170098Y348929D02*
Y352539D01*
X179579Y348961D02*
Y352571D01*
X188996Y348898D02*
Y352508D01*
X198476Y348795D02*
Y352406D01*
X207925Y348795D02*
Y352406D01*
X217339Y348764D02*
Y352374D01*
X224413Y348776D02*
Y352362D01*
X222063Y348764D02*
Y352374D01*
X242492Y348158D02*
Y352413D01*
X238661Y348823D02*
Y352504D01*
X236352Y348813D02*
Y352514D01*
X231545Y348852D02*
Y352455D01*
X233986Y348809D02*
Y352498D01*
X56126Y104047D02*
X57028Y104949D01*
X53713Y104047D02*
X56126D01*
X53396Y103730D02*
X53713Y104047D01*
X260366Y113854D02*
X260614D01*
X260047Y113535D02*
X260366Y113854D01*
X257032Y113535D02*
X260047D01*
X78490Y114683D02*
Y115545D01*
X77323Y113516D02*
X78490Y114683D01*
X75980Y113516D02*
X77323D01*
X74996Y95756D02*
X76004Y96764D01*
X74996Y90720D02*
Y95756D01*
Y90720D02*
X76102Y89614D01*
X78575Y93209D02*
X79166Y92619D01*
X63488Y89823D02*
Y92500D01*
Y89823D02*
X63957Y89354D01*
X57673Y89244D02*
Y91729D01*
X58535Y92595D01*
X56760Y101059D02*
X56965Y100854D01*
X54110Y101059D02*
X56760D01*
X53396Y100345D02*
X54110Y101059D01*
X262350Y91919D02*
X262362Y91931D01*
X265748D02*
X265766Y91913D01*
Y88719D02*
X265783Y88701D01*
X265766Y88719D02*
Y91913D01*
X262339Y88681D02*
X262350Y88693D01*
Y91919D01*
X262411Y91894D02*
Y96378D01*
X272624Y95862D02*
Y96427D01*
X278219Y81711D02*
X278543Y82035D01*
X267150Y96157D02*
X268740Y97748D01*
X272768Y88762D02*
X272801Y88728D01*
Y82069D02*
X272835Y82035D01*
X276207Y92018D02*
Y96494D01*
X279231Y96125D02*
X279260Y96153D01*
X276300Y96125D02*
X279231D01*
X276272Y96096D02*
X276300Y96125D01*
X278898Y103323D02*
Y118937D01*
X277787Y120047D02*
X278898Y118937D01*
X281669Y89191D02*
Y97339D01*
X278671Y100337D02*
X281669Y97339D01*
X275912Y100337D02*
X278671D01*
X281079Y88601D02*
X281669Y89191D01*
X272624Y92006D02*
Y95862D01*
X272492Y96096D02*
Y96136D01*
X275912Y100337D02*
X278898Y103323D01*
X259880Y100337D02*
X275912D01*
X254724Y95181D02*
X259880Y100337D01*
X265864Y92059D02*
Y96535D01*
X265980Y96157D02*
X267150D01*
X265937Y96114D02*
X265980Y96157D01*
X262114Y96071D02*
X262157Y96114D01*
X308305Y162876D02*
X313619Y157562D01*
X167846Y71342D02*
X179937Y83433D01*
X196413D01*
X219874Y73901D02*
Y78976D01*
X204104Y162876D02*
X308305D01*
X195008Y160551D02*
X294287D01*
X47228Y122622D02*
X48551D01*
X45799D02*
X47228D01*
X45772Y122594D02*
X45799Y122622D01*
X182665Y164917D02*
X189118Y158465D01*
X163630Y166248D02*
Y168730D01*
X162862Y169498D02*
X163630Y168730D01*
X182480Y168201D02*
X182665Y168016D01*
X182480Y168201D02*
Y169441D01*
X175016Y176906D02*
X182480Y169441D01*
X175016Y176906D02*
Y177004D01*
X177413Y180697D02*
X181016Y177094D01*
X172508Y180697D02*
X177413D01*
X168913Y177102D02*
X172508Y180697D01*
X181016Y176996D02*
Y177094D01*
X168913Y177004D02*
Y177102D01*
Y177004D02*
X169575Y176342D01*
Y170406D02*
Y176342D01*
X182665Y164917D02*
Y168016D01*
X187476Y176591D02*
Y176614D01*
Y168083D02*
X195008Y160551D01*
X187476Y176591D02*
X187620Y176446D01*
X187476Y176302D02*
Y176591D01*
Y168083D02*
Y176302D01*
X187453Y176614D02*
X187476Y176591D01*
X201157Y165823D02*
X204104Y162876D01*
X187476Y176302D02*
X187620Y176446D01*
X187016Y175842D02*
X187476Y176302D01*
X181350Y176516D02*
Y176614D01*
X196744Y165823D02*
X201157D01*
X199190Y168627D02*
Y172389D01*
X169575Y170406D02*
X169870D01*
X71701Y89307D02*
X71730Y89337D01*
Y92467D02*
X71760Y92496D01*
X88678Y85771D02*
Y88182D01*
Y85771D02*
X88945Y85504D01*
X66748Y89449D02*
Y89711D01*
X193854Y110555D02*
Y129894D01*
X184433Y100339D02*
X188784Y104689D01*
X285898Y95323D02*
Y99076D01*
X268985Y116724D02*
X272480D01*
X68012Y92496D02*
Y100921D01*
X138629Y178517D02*
X138644Y178532D01*
X150246Y233725D02*
X150291Y233680D01*
X162276Y233762D02*
X162450Y233588D01*
X269117Y113260D02*
X272480D01*
X195437Y192393D02*
X195651Y192606D01*
X272744Y91274D02*
X272768Y91250D01*
X272644Y91358D02*
X272736Y91266D01*
X272624Y95862D02*
X272644Y95843D01*
X272543Y95943D02*
X272624Y95862D01*
X276191Y91335D02*
X276226Y91370D01*
X272768Y88762D02*
Y91250D01*
X276226Y95846D02*
X276323Y95943D01*
X272736Y91266D02*
X272744Y91274D01*
X276191Y88748D02*
X276252Y88687D01*
X276191Y88748D02*
Y91335D01*
X195763Y198507D02*
X195931Y198339D01*
X148134Y170280D02*
X148224Y170189D01*
X148177Y175929D02*
X148469Y176221D01*
X138662Y184947D02*
X138683Y184969D01*
X254724Y90213D02*
Y95181D01*
X245682Y80941D02*
X248868D01*
X249272Y81345D01*
X245693Y84976D02*
X245816Y84853D01*
X249149D01*
X249272Y84730D01*
X245693Y87441D02*
X247206Y88954D01*
X245693Y84976D02*
Y87441D01*
X247206Y88954D02*
X253466D01*
X254724Y90213D01*
X285827Y95252D02*
X285898Y95323D01*
X283152Y116486D02*
X283176Y116462D01*
X283152Y116486D02*
Y118588D01*
X283128Y118612D02*
X283152Y118588D01*
X279667Y116585D02*
X279790Y116462D01*
X278898Y118937D02*
X279165Y119205D01*
X283295Y108383D02*
X283366Y108313D01*
X285391D01*
X285461Y108242D01*
X285431Y111782D02*
X285443Y111794D01*
X283295Y111769D02*
X283308Y111782D01*
X285431D01*
X269002Y113145D02*
X269117Y113260D01*
X268947Y116686D02*
X268985Y116724D01*
X263764Y104921D02*
X263803Y104882D01*
X267406D01*
X264646Y104887D02*
X264668Y104909D01*
X257112Y104802D02*
X257124Y104814D01*
X259201D01*
X259213Y104826D01*
X257138Y116996D02*
X260047D01*
X257007Y117127D02*
X257138Y116996D01*
X256978Y113589D02*
X257032Y113535D01*
X45339Y122976D02*
X45429Y122886D01*
X66748Y89711D02*
X67378Y90341D01*
Y91894D01*
X67980Y92496D01*
X64740Y100992D02*
X64776Y100957D01*
X67949D01*
X67984Y100921D01*
X62827Y98929D02*
X63012Y98744D01*
Y96362D02*
Y98744D01*
Y96362D02*
X63488Y95886D01*
X59374Y96929D02*
Y98453D01*
X58656Y96211D02*
X59374Y96929D01*
X58535Y92595D02*
Y92705D01*
X53301Y90904D02*
X53303Y90906D01*
X49978Y90904D02*
X53301D01*
X49976Y90902D02*
X49978Y90904D01*
X53213Y94343D02*
X53268Y94398D01*
X50032Y94343D02*
X53213D01*
X49976Y94287D02*
X50032Y94343D01*
X148224Y165827D02*
Y170189D01*
X148469Y176221D02*
Y180320D01*
X150246Y233725D02*
Y237147D01*
X155584Y233846D02*
Y237095D01*
X155501Y233763D02*
X155584Y233846D01*
X162276Y233762D02*
Y237091D01*
X167205Y233727D02*
Y237193D01*
Y233727D02*
X167514Y233418D01*
X175067Y232933D02*
Y236969D01*
Y232933D02*
X175220Y232780D01*
X174890Y222721D02*
Y226937D01*
X175220Y227268D01*
X189106Y204736D02*
X189280Y204909D01*
X195931Y198339D02*
X199850D01*
X195651Y192606D02*
X199850D01*
X198701Y172878D02*
X199190Y172389D01*
X193461Y168677D02*
Y172606D01*
X193189Y172878D02*
X193461Y172606D01*
X141756Y166382D02*
Y170122D01*
X136118Y170472D02*
X136185Y170406D01*
Y166071D02*
Y170406D01*
X162862Y169498D02*
X162886Y169521D01*
X157364Y169511D02*
X157374Y169521D01*
X157364Y166222D02*
Y169511D01*
X169373Y169425D02*
X169505Y169557D01*
X169373Y166297D02*
Y169425D01*
X174975Y169515D02*
X175017Y169557D01*
X174975Y166423D02*
Y169515D01*
X128799Y178764D02*
X128900Y178663D01*
X132971D01*
X132857Y184772D02*
X133091Y185006D01*
X128799Y184772D02*
X132857D01*
X138683Y184969D02*
X142945D01*
X138603Y185006D02*
X138662Y184947D01*
X138644Y178532D02*
X143008D01*
X138483Y178663D02*
X138629Y178517D01*
X148177Y175929D02*
X148224Y175882D01*
X195299Y198043D02*
X195763Y198507D01*
X195299Y192532D02*
X195437Y192393D01*
X78617Y106399D02*
X79528Y105488D01*
X76464Y106399D02*
X78617D01*
X76382Y106480D02*
X76464Y106399D01*
X69740Y104689D02*
X71450Y106399D01*
X72914D01*
X72996Y106480D01*
X40705Y94886D02*
X44392D01*
X40591Y95000D02*
X40705Y94886D01*
X88789Y78982D02*
X88867Y79060D01*
Y81647D01*
X88945Y81724D01*
X249271Y84729D02*
X249272Y84730D01*
Y81345D02*
X249416Y81200D01*
X285840Y89247D02*
X285853Y89234D01*
X285840Y89247D02*
Y91853D01*
X285827Y91866D02*
X285840Y91853D01*
X196264Y165343D02*
X196744Y165823D01*
X79166Y89937D02*
Y92619D01*
Y89937D02*
X79488Y89614D01*
X195240Y219933D02*
X195362Y219811D01*
X167420Y233324D02*
X167559Y233185D01*
X162047D02*
X162450Y233588D01*
X155280Y233157D02*
X155693Y233571D01*
X149768Y233157D02*
X150291Y233680D01*
X195587Y204617D02*
X195677Y204707D01*
X195295Y204909D02*
X195587Y204617D01*
X194791Y204909D02*
X195295D01*
X148134Y170280D02*
X148224Y170370D01*
X256299Y120047D02*
X277787D01*
X253338Y123009D02*
X256299Y120047D01*
X251051Y123009D02*
X253338D01*
X250038Y121996D02*
X251051Y123009D01*
X78490Y115545D02*
X78675Y115730D01*
X64484Y116500D02*
X64522Y116537D01*
X64484Y112831D02*
Y116500D01*
X64447Y112793D02*
X64484Y112831D01*
D17*
X187118Y176996D02*
D03*
X181016D02*
D03*
X175016Y177004D02*
D03*
X168913D02*
D03*
X34760Y101169D02*
D03*
X40862D02*
D03*
D19*
X266871Y51186D02*
D03*
Y43312D02*
D03*
Y35438D02*
D03*
X268071Y20162D02*
D03*
X273018Y32880D02*
D03*
Y40754D02*
D03*
Y48628D02*
D03*
Y56502D02*
D03*
Y64376D02*
D03*
Y72250D02*
D03*
X74706Y33282D02*
D03*
X79303Y20172D02*
D03*
X82054Y27550D02*
D03*
X80853Y35332D02*
D03*
Y43206D02*
D03*
Y51080D02*
D03*
Y58954D02*
D03*
Y66828D02*
D03*
Y74702D02*
D03*
X66960Y73301D02*
D03*
Y65427D02*
D03*
Y57553D02*
D03*
Y49679D02*
D03*
X73107Y50456D02*
D03*
Y58330D02*
D03*
Y66204D02*
D03*
Y74078D02*
D03*
X55149Y77884D02*
D03*
Y70010D02*
D03*
Y62136D02*
D03*
Y54262D02*
D03*
Y46388D02*
D03*
X49411Y29590D02*
D03*
X59117Y19433D02*
D03*
X61296Y27000D02*
D03*
X62859Y34717D02*
D03*
X61296Y42434D02*
D03*
Y50308D02*
D03*
Y58182D02*
D03*
X73744Y37228D02*
D03*
X66827Y30484D02*
D03*
X144079Y274311D02*
D03*
X139760Y291642D02*
D03*
X134681Y291705D02*
D03*
X313748Y162319D02*
D03*
X294791Y165799D02*
D03*
X308524Y158370D02*
D03*
X304102Y160626D02*
D03*
X234307Y223197D02*
D03*
X251701Y223083D02*
D03*
X217866Y198256D02*
D03*
X216772Y200654D02*
D03*
X222079Y210394D02*
D03*
X221614Y200500D02*
D03*
X232350Y252752D02*
D03*
X237980Y267358D02*
D03*
X227634Y267260D02*
D03*
X237921Y270697D02*
D03*
X236622Y285374D02*
D03*
X236618Y290504D02*
D03*
X227598Y290622D02*
D03*
X233890Y288409D02*
D03*
X219843Y34595D02*
D03*
X229236Y345421D02*
D03*
X226701D02*
D03*
X234095Y270839D02*
D03*
X216968Y182773D02*
D03*
X213429Y330283D02*
D03*
X225870Y288409D02*
D03*
X189705Y332894D02*
D03*
X185012D02*
D03*
X231126Y339709D02*
D03*
X229673Y270839D02*
D03*
X142146D02*
D03*
X136984Y288075D02*
D03*
X229461Y252740D02*
D03*
X225783Y270839D02*
D03*
X223193Y332894D02*
D03*
X220945Y339220D02*
D03*
X218575Y341205D02*
D03*
X216358Y339220D02*
D03*
X32541Y57508D02*
D03*
X240685Y179976D02*
D03*
X240764Y168921D02*
D03*
X196083Y345421D02*
D03*
X198756Y339220D02*
D03*
X194787Y332894D02*
D03*
X53385Y260622D02*
D03*
X88890Y88264D02*
D03*
X213051Y204343D02*
D03*
X213283Y200528D02*
D03*
X219681Y345421D02*
D03*
X168657Y332894D02*
D03*
X161543D02*
D03*
X208819D02*
D03*
X203986D02*
D03*
X178713D02*
D03*
X199398D02*
D03*
X212213Y339220D02*
D03*
X207768D02*
D03*
X203083D02*
D03*
X193551D02*
D03*
X188622D02*
D03*
X184008D02*
D03*
X179882D02*
D03*
X166504D02*
D03*
X173744Y332894D02*
D03*
X172303Y339220D02*
D03*
X164228Y332894D02*
D03*
X176020Y339220D02*
D03*
X215106Y345421D02*
D03*
X210276D02*
D03*
X205701D02*
D03*
X200807D02*
D03*
X191583D02*
D03*
X186555D02*
D03*
X181913D02*
D03*
X177252D02*
D03*
X172496D02*
D03*
X167677D02*
D03*
X212319Y184791D02*
D03*
X139284Y238429D02*
D03*
X130514Y224279D02*
D03*
X130657Y229856D02*
D03*
X233394Y168984D02*
D03*
X233425Y179872D02*
D03*
X238657Y214760D02*
D03*
X243806Y201490D02*
D03*
X212630Y352370D02*
D03*
X203213D02*
D03*
X193713D02*
D03*
X184354D02*
D03*
X160728D02*
D03*
X174882D02*
D03*
X232713Y332894D02*
D03*
X156799Y352370D02*
D03*
X170087D02*
D03*
X179567D02*
D03*
X188984D02*
D03*
X198465D02*
D03*
X207913D02*
D03*
X217327D02*
D03*
X222051D02*
D03*
X224390D02*
D03*
X242480D02*
D03*
X231484D02*
D03*
X238630D02*
D03*
X236374D02*
D03*
X234004D02*
D03*
X227835Y120526D02*
D03*
X247091Y47705D02*
D03*
X254378Y47591D02*
D03*
X60732Y80177D02*
D03*
X71650Y89583D02*
D03*
X75161Y93209D02*
D03*
X57709Y89583D02*
D03*
X54075Y94449D02*
D03*
X54201Y91012D02*
D03*
X62795Y98740D02*
D03*
X118055Y232014D02*
D03*
X44146Y95039D02*
D03*
X26766Y89656D02*
D03*
X57886Y112969D02*
D03*
X262339Y88681D02*
D03*
X265783Y88701D02*
D03*
X264685Y61252D02*
D03*
X264008Y75528D02*
D03*
X273791Y75354D02*
D03*
X272768Y88762D02*
D03*
X279260Y96153D02*
D03*
X268740Y97748D02*
D03*
X259165Y96071D02*
D03*
X190823Y87429D02*
D03*
X190913Y79008D02*
D03*
X201476Y61177D02*
D03*
X167846Y71342D02*
D03*
X160138Y84075D02*
D03*
X26248Y126559D02*
D03*
X49467Y37264D02*
D03*
X275866Y14717D02*
D03*
X255394D02*
D03*
X266417D02*
D03*
X286890D02*
D03*
X315311Y342543D02*
D03*
X95661Y72677D02*
D03*
X112402Y40960D02*
D03*
X25827Y41882D02*
D03*
X37146Y37543D02*
D03*
X37343Y31815D02*
D03*
X294815Y160488D02*
D03*
X304114Y156154D02*
D03*
X310626Y154063D02*
D03*
X313642Y157585D02*
D03*
X307902Y151370D02*
D03*
X219874Y73901D02*
D03*
X127449Y196449D02*
D03*
X29197Y134035D02*
D03*
X127697Y234079D02*
D03*
X96028Y27189D02*
D03*
Y36685D02*
D03*
Y48051D02*
D03*
Y58681D02*
D03*
X24039Y337472D02*
D03*
X163630Y166248D02*
D03*
X182665Y168016D02*
D03*
X187476Y168083D02*
D03*
X199190Y168627D02*
D03*
X300079Y158559D02*
D03*
X183776Y131543D02*
D03*
X159783Y154480D02*
D03*
X91972Y372909D02*
D03*
X260815Y372579D02*
D03*
X223417Y373028D02*
D03*
X186799Y372913D02*
D03*
X153543D02*
D03*
X116595D02*
D03*
X73947Y20030D02*
D03*
X296955Y288947D02*
D03*
X277929Y291158D02*
D03*
X277971Y305494D02*
D03*
Y322360D02*
D03*
Y341136D02*
D03*
X277864Y359486D02*
D03*
X27189Y59925D02*
D03*
X26484Y260102D02*
D03*
X19602D02*
D03*
X19752Y267567D02*
D03*
X20122Y302492D02*
D03*
X20279Y315728D02*
D03*
X69378Y365717D02*
D03*
X63697Y371445D02*
D03*
X69583Y371441D02*
D03*
X63602Y260610D02*
D03*
X78575Y93209D02*
D03*
X87650Y103236D02*
D03*
X66941Y89583D02*
D03*
X66740Y37315D02*
D03*
X278543Y278394D02*
D03*
X278427Y250130D02*
D03*
X73799Y30683D02*
D03*
X306206Y293515D02*
D03*
X276252Y88687D02*
D03*
X50213Y300047D02*
D03*
X43209Y316776D02*
D03*
X43283Y323654D02*
D03*
X41260Y350500D02*
D03*
X280976Y68862D02*
D03*
X240213Y129575D02*
D03*
X289768Y40476D02*
D03*
X47203Y77049D02*
D03*
X73728Y100827D02*
D03*
X53126Y109283D02*
D03*
X59437Y98658D02*
D03*
X148224Y165827D02*
D03*
X148469Y180320D02*
D03*
X150246Y237147D02*
D03*
X155584Y237095D02*
D03*
X162276Y237091D02*
D03*
X167205Y237193D02*
D03*
X175067Y236969D02*
D03*
X174890Y222721D02*
D03*
X184284Y220012D02*
D03*
X200658Y220051D02*
D03*
X200358Y233567D02*
D03*
X200268Y227323D02*
D03*
X189492Y223472D02*
D03*
X189370Y237287D02*
D03*
X200028Y204695D02*
D03*
X199850Y198339D02*
D03*
Y192606D02*
D03*
X141846Y166000D02*
D03*
X136185Y166071D02*
D03*
X157364Y166222D02*
D03*
X169373Y166297D02*
D03*
X174975Y166423D02*
D03*
X128799Y178764D02*
D03*
Y184772D02*
D03*
X142945Y184969D02*
D03*
X143008Y178532D02*
D03*
X285772Y99076D02*
D03*
X285827Y88524D02*
D03*
X281007Y88601D02*
D03*
X193461Y168677D02*
D03*
X306748Y375213D02*
D03*
X313165Y375142D02*
D03*
X88789Y78982D02*
D03*
X65142Y101059D02*
D03*
X84535Y141785D02*
D03*
X129571Y210257D02*
D03*
Y212462D02*
D03*
X58866Y326976D02*
D03*
X65138Y334248D02*
D03*
X41508Y357528D02*
D03*
X312681Y293323D02*
D03*
X196264Y165343D02*
D03*
X198106Y153996D02*
D03*
X161476Y52677D02*
D03*
X292433Y75681D02*
D03*
X289776Y33618D02*
D03*
X220388Y139415D02*
D03*
X214482D02*
D03*
X29543Y100904D02*
D03*
X313313Y327388D02*
D03*
X201398Y54626D02*
D03*
X149055Y54228D02*
D03*
X40939Y89702D02*
D03*
X29545Y94756D02*
D03*
X67463Y80177D02*
D03*
X64522Y115945D02*
D03*
X78675D02*
D03*
X79134Y105535D02*
D03*
X63634Y89583D02*
D03*
X57043Y101303D02*
D03*
X57028Y104949D02*
D03*
X64522Y105537D02*
D03*
X69740Y105535D02*
D03*
X69787Y115945D02*
D03*
X90905Y61776D02*
D03*
X27260Y66665D02*
D03*
X62630Y64945D02*
D03*
X170068Y34595D02*
D03*
X184059Y204736D02*
D03*
X52650Y30764D02*
D03*
X139132Y34595D02*
D03*
X254209Y80327D02*
D03*
X245682Y80941D02*
D03*
X279165Y119205D02*
D03*
X283004Y119224D02*
D03*
X285461Y108242D02*
D03*
X285443Y111794D02*
D03*
X269002Y113145D02*
D03*
X268947Y116686D02*
D03*
X257112Y104802D02*
D03*
X256978Y113589D02*
D03*
X257007Y117127D02*
D03*
X250480Y201673D02*
D03*
X245693Y84976D02*
D03*
X259028Y132250D02*
D03*
X250038Y121996D02*
D03*
X235783Y129480D02*
D03*
X222831Y83346D02*
D03*
X235697Y83444D02*
D03*
X243839Y207866D02*
D03*
X267406Y104882D02*
D03*
D23*
X20098Y376035D02*
D03*
X317764Y15894D02*
D03*
X19748Y16232D02*
D03*
X48146Y281713D02*
D03*
D31*
X240614Y172248D02*
D03*
Y175949D02*
D03*
X233327Y172579D02*
D03*
Y176279D02*
D03*
X64447Y109250D02*
D03*
Y112951D02*
D03*
X63488Y92547D02*
D03*
Y96248D02*
D03*
X58535D02*
D03*
Y92547D02*
D03*
X53396Y100187D02*
D03*
Y103888D02*
D03*
X285827Y91709D02*
D03*
Y95410D02*
D03*
X282449Y111803D02*
D03*
Y108102D02*
D03*
X272480Y113216D02*
D03*
Y116917D02*
D03*
X49976Y90744D02*
D03*
Y94445D02*
D03*
X249272Y81187D02*
D03*
Y84888D02*
D03*
X260366Y113614D02*
D03*
Y117315D02*
D03*
X60020Y112894D02*
D03*
Y109193D02*
D03*
X49559Y122839D02*
D03*
Y119138D02*
D03*
X75984Y100878D02*
D03*
Y97177D02*
D03*
D32*
X76539Y106480D02*
D03*
X72839D02*
D03*
X75945Y89614D02*
D03*
X79646D02*
D03*
X272567Y91921D02*
D03*
X276268D02*
D03*
X260221Y104921D02*
D03*
X263921D02*
D03*
X265905Y91931D02*
D03*
X262205D02*
D03*
X278795Y116004D02*
D03*
X282496D02*
D03*
X71689Y96661D02*
D03*
X67988D02*
D03*
X72205Y113055D02*
D03*
X75906D02*
D03*
D34*
X55811Y109122D02*
D03*
Y112902D02*
D03*
X88945Y85504D02*
D03*
Y81724D02*
D03*
X45429Y122886D02*
D03*
Y119106D02*
D03*
X80138Y100902D02*
D03*
Y97122D02*
D03*
D43*
X67980Y92496D02*
D03*
X71760D02*
D03*
X67984Y100921D02*
D03*
X71764D02*
D03*
X262157Y96114D02*
D03*
X265937D02*
D03*
X272492Y96096D02*
D03*
X276272D02*
D03*
D44*
X195925Y233067D02*
D03*
Y227555D02*
D03*
X195299Y198043D02*
D03*
Y192532D02*
D03*
X175220Y232780D02*
D03*
Y227268D02*
D03*
X189500Y233004D02*
D03*
Y227492D02*
D03*
X135012Y228858D02*
D03*
Y223346D02*
D03*
X148224Y175882D02*
D03*
Y170370D02*
D03*
D53*
X193189Y172878D02*
D03*
X198701D02*
D03*
X35079Y95000D02*
D03*
X40591D02*
D03*
X194791Y204909D02*
D03*
X189280D02*
D03*
X195240Y219933D02*
D03*
X189728D02*
D03*
X167559Y233185D02*
D03*
X162047D02*
D03*
X155280Y233157D02*
D03*
X149768D02*
D03*
X138603Y185006D02*
D03*
X133091D02*
D03*
X138483Y178663D02*
D03*
X132971D02*
D03*
X141630Y170472D02*
D03*
X136118D02*
D03*
X157315Y170406D02*
D03*
X162827D02*
D03*
X175087D02*
D03*
X169575D02*
D03*
D119*
X216772Y200654D02*
X220130Y204012D01*
Y237681D01*
X234148Y251699D02*
Y270939D01*
X233988Y271098D02*
X234148Y270939D01*
X220130Y237681D02*
X234148Y251699D01*
X227862Y336221D02*
Y336425D01*
X228024Y296677D02*
X229673Y295028D01*
Y270839D02*
Y295028D01*
X229142Y345421D02*
Y347657D01*
X228024Y296677D02*
Y335929D01*
X153638Y309008D02*
Y335559D01*
X136984Y292354D02*
X153638Y309008D01*
X136984Y288075D02*
Y292354D01*
X165362Y345008D02*
Y347425D01*
X155051Y334697D02*
X165362Y345008D01*
X155051Y334697D02*
X155051Y308063D01*
X142146Y295158D02*
X155051Y308063D01*
X142146Y270839D02*
Y295158D01*
X226764Y346012D02*
Y347461D01*
X211583Y332130D02*
X213429Y330283D01*
X167724Y344976D02*
Y347213D01*
X225705Y288575D02*
Y335839D01*
Y288575D02*
X225870Y288409D01*
X142146Y270787D02*
Y270839D01*
X208953Y332894D02*
Y336591D01*
X204346Y332894D02*
Y335862D01*
X199579Y332894D02*
Y335878D01*
X197449Y338209D02*
X198756Y339516D01*
X194913Y332894D02*
Y336575D01*
X189929Y332894D02*
Y336417D01*
X185224Y332807D02*
Y335929D01*
X178661Y332909D02*
Y336067D01*
X207193Y338646D02*
X207768Y339220D01*
X225783Y251791D02*
Y270839D01*
X214634Y240642D02*
X225783Y251791D01*
X229461Y251555D02*
Y252740D01*
X217445Y239539D02*
X229461Y251555D01*
X217445Y204689D02*
Y239539D01*
X214634Y205925D02*
Y240642D01*
X223153Y332665D02*
Y336248D01*
X210327Y345102D02*
Y347339D01*
X207193Y336551D02*
Y338646D01*
X205768Y345008D02*
Y347244D01*
X200807Y345008D02*
Y347244D01*
X220807Y336748D02*
Y338984D01*
X218358Y336953D02*
Y340626D01*
X216177Y336646D02*
Y338882D01*
X180480Y337090D02*
Y339327D01*
X197449Y336398D02*
Y338209D01*
X202008Y338626D02*
X203083Y339701D01*
X202008Y336370D02*
Y338626D01*
X153638Y335559D02*
X162976Y344898D01*
X127697Y230077D02*
Y234079D01*
X26303Y128683D02*
X127697Y230077D01*
X26303Y127279D02*
Y128683D01*
X29232Y134035D02*
Y135844D01*
X192677Y336398D02*
Y339071D01*
X213051Y204343D02*
X214634Y205925D01*
X213283Y200528D02*
X217445Y204689D01*
X219685Y345673D02*
Y347909D01*
X186602Y345213D02*
Y347449D01*
X162976Y344898D02*
Y347874D01*
X213819Y336370D02*
Y337469D01*
X212476Y338811D02*
X213819Y337469D01*
X211583Y332130D02*
Y336319D01*
X188106Y336909D02*
Y339146D01*
X183461Y337114D02*
Y339350D01*
X166527Y336575D02*
Y338811D01*
X175980Y336787D02*
Y339024D01*
X173756Y333232D02*
Y335469D01*
X171626Y336720D02*
Y338957D01*
X168839Y333154D02*
Y335390D01*
X214618Y345768D02*
Y348004D01*
X196358Y345602D02*
Y347839D01*
X191559Y345508D02*
Y347744D01*
X181878Y345398D02*
Y347634D01*
X177283Y345713D02*
Y347949D01*
X172461Y345606D02*
Y347843D01*
X40818Y147430D02*
X118055Y224666D01*
Y232014D01*
X29232Y135844D02*
X40818Y147430D01*
Y147430D01*
X92354Y151535D02*
X111031Y151534D01*
X84535Y143717D02*
X92354Y151535D01*
X84535Y141785D02*
X84535Y143717D01*
X126854Y165224D02*
Y195854D01*
X124246Y162616D02*
X126854Y165224D01*
Y195854D02*
X127449Y196449D01*
X116031Y154402D02*
X124246Y162616D01*
X113163Y151534D02*
X116031Y154402D01*
X111031Y151534D02*
X113163Y151534D01*
X75787Y100906D02*
X75886Y100807D01*
D122*
X141630Y170472D02*
X141846Y170256D01*
D124*
X49370Y119106D02*
X49559Y119295D01*
Y119177D02*
Y119295D01*
X50236Y118630D02*
X52492Y116374D01*
X56079Y113248D02*
X60398D01*
X43165Y126347D02*
X44642Y127823D01*
X43165Y121331D02*
Y126347D01*
Y121331D02*
X45390Y119106D01*
X45429D02*
X49370D01*
X45390D02*
X45429D01*
X47228Y122622D02*
X47469Y122862D01*
Y125024D01*
X75807Y96555D02*
X79791D01*
X189347Y220016D02*
X189579Y219783D01*
X189398Y227390D02*
X189492Y227295D01*
X196575Y226906D02*
X196992Y227323D01*
X79791Y96555D02*
X80087Y96850D01*
X184284Y220012D02*
X189343D01*
X189347Y220016D01*
X196992Y227323D02*
X200268D01*
X195925Y227555D02*
X196575Y226906D01*
X189492Y223472D02*
Y227295D01*
X189579Y219783D02*
X189728Y219933D01*
X189398Y227390D02*
X189500Y227492D01*
X71506Y114011D02*
X72099D01*
X72594Y113516D01*
X69787Y115730D02*
X71506Y114011D01*
X64484Y105575D02*
X64522Y105537D01*
X64484Y105575D02*
Y109370D01*
X64447Y109407D02*
X64484Y109370D01*
D127*
X304478Y194903D02*
X322465Y212890D01*
X210888Y194903D02*
X304478D01*
X201096Y204695D02*
X210888Y194903D01*
X322465Y212890D02*
Y371760D01*
X315016Y379209D02*
X322465Y371760D01*
X310744Y379209D02*
X315016D01*
X306748Y375213D02*
X310744Y379209D01*
X200028Y204695D02*
X201096D01*
D130*
X229142Y145689D02*
D03*
X176945Y131421D02*
D03*
X169602D02*
D03*
X98465Y235992D02*
D03*
D131*
X299532Y188847D02*
D03*
X309531D02*
D03*
X299532Y178847D02*
D03*
X284429Y188847D02*
D03*
X197157Y83473D02*
D03*
X39575Y228547D02*
D03*
Y218547D02*
D03*
X29575Y228547D02*
D03*
X29658Y203114D02*
D03*
X193705Y99614D02*
D03*
X183705D02*
D03*
X193705Y109614D02*
D03*
X30102Y372547D02*
D03*
D132*
X309531Y178847D02*
D03*
X284429D02*
D03*
X183705Y109614D02*
D03*
X30102Y362547D02*
D03*
D133*
X282213Y222689D02*
D03*
Y231319D02*
D03*
X315902Y222689D02*
D03*
Y231319D02*
D03*
X316114Y240496D02*
D03*
X282425Y239933D02*
D03*
D134*
X207157Y83473D02*
D03*
X29575Y218547D02*
D03*
X39658Y203114D02*
D03*
D135*
X313729Y255045D02*
D03*
X288129D02*
D03*
X313729Y272845D02*
D03*
X288129D02*
D03*
D136*
X279382Y24142D02*
D03*
X263043D02*
D03*
D137*
X52492Y116374D02*
D03*
D138*
X47496Y125024D02*
D03*
D139*
X79283Y348591D02*
D03*
X64736Y348720D02*
D03*
D155*
X233453Y176028D02*
Y179872D01*
X240760Y169008D02*
Y172224D01*
X240685Y175921D02*
Y179976D01*
X168925Y227567D02*
X174138Y232780D01*
X233394Y168984D02*
Y172201D01*
X267106Y78827D02*
Y82016D01*
X263980Y75701D02*
X267106Y78827D01*
X278219Y79782D02*
Y81711D01*
X273791Y75354D02*
X278219Y79782D01*
X40669Y95270D02*
X40939Y95000D01*
X30340Y94765D02*
X35064D01*
X40669Y95270D02*
Y100547D01*
X29490Y100904D02*
X34215D01*
D156*
X160669Y348437D02*
D03*
X163031D02*
D03*
X165394D02*
D03*
X167756D02*
D03*
X170118D02*
D03*
X172480D02*
D03*
X174842D02*
D03*
X177205D02*
D03*
X179567D02*
D03*
X181929D02*
D03*
X184291D02*
D03*
X186653D02*
D03*
X189016D02*
D03*
X191378D02*
D03*
X193740D02*
D03*
X196102D02*
D03*
X198465D02*
D03*
X200827D02*
D03*
X203189D02*
D03*
X205551D02*
D03*
X207913D02*
D03*
X210276D02*
D03*
X212638D02*
D03*
X215000D02*
D03*
X217362D02*
D03*
X219724D02*
D03*
X222087D02*
D03*
X224449D02*
D03*
X226811D02*
D03*
X229173D02*
D03*
X231535D02*
D03*
X233898D02*
D03*
X236260D02*
D03*
X238622D02*
D03*
D157*
X161850Y336370D02*
D03*
X164213D02*
D03*
X166575D02*
D03*
X168937D02*
D03*
X171299D02*
D03*
X173661D02*
D03*
X176023D02*
D03*
X178386D02*
D03*
X180748D02*
D03*
X183110D02*
D03*
X185472D02*
D03*
X187835D02*
D03*
X190197D02*
D03*
X192559D02*
D03*
X194921D02*
D03*
X197283D02*
D03*
X199646D02*
D03*
X202008D02*
D03*
X204370D02*
D03*
X206732D02*
D03*
X209094D02*
D03*
X211457D02*
D03*
X213819D02*
D03*
X216181D02*
D03*
X218543D02*
D03*
X220905D02*
D03*
X223268D02*
D03*
X225630D02*
D03*
X227992D02*
D03*
X230354D02*
D03*
X232716D02*
D03*
X235079D02*
D03*
X237441D02*
D03*
D158*
X156831Y347787D02*
D03*
X242461D02*
D03*
D159*
X50343Y128602D02*
D03*
X44634D02*
D03*
X278543Y82035D02*
D03*
X272835D02*
D03*
X267106Y82016D02*
D03*
X261398D02*
D03*
D160*
X206394Y226965D02*
D03*
Y233657D02*
D03*
D161*
X54886Y115890D02*
Y123189D01*
X52787Y113791D02*
X54886Y115890D01*
X50350Y127724D02*
X54886Y123189D01*
X52787Y109658D02*
Y113791D01*
X71614Y92315D02*
Y96252D01*
X71917Y96618D02*
Y100646D01*
X52780Y109126D02*
X55811D01*
X55760Y109493D02*
X59988D01*
X75906Y100236D02*
X80087D01*
Y100354D02*
X80386Y100654D01*
X82815Y103083D01*
X87803D01*
X73728Y100827D02*
X73782Y100774D01*
X75931D01*
X75984Y100720D01*
X50350Y127724D02*
Y127823D01*
X80087Y100236D02*
Y100354D01*
M02*
