G04*
G04 #@! TF.GenerationSoftware,Altium Limited,Altium Designer,20.1.7 (139)*
G04*
G04 Layer_Color=8388736*
%FSLAX25Y25*%
%MOIN*%
G70*
G04*
G04 #@! TF.SameCoordinates,F1024F09-50C5-4513-BE08-2A4FEE95A773*
G04*
G04*
G04 #@! TF.FilePolarity,Negative*
G04*
G01*
G75*
%ADD64R,0.04147X0.04343*%
%ADD65R,0.03950X0.04540*%
%ADD66C,0.02769*%
%ADD67R,0.02473X0.02769*%
%ADD68R,0.01784X0.02769*%
%ADD69R,0.04343X0.04540*%
%ADD70C,0.04737*%
%ADD71R,0.05524X0.06312*%
%ADD72R,0.04343X0.03950*%
%ADD73O,0.02572X0.06312*%
%ADD74R,0.04540X0.04343*%
%ADD75R,0.06607X0.02572*%
%ADD76R,0.02769X0.02473*%
%ADD77R,0.02769X0.01784*%
%ADD78R,0.03477X0.03477*%
%ADD79R,0.03477X0.03477*%
%ADD80R,0.03359X0.04540*%
%ADD81R,0.03084X0.03005*%
%ADD82R,0.04934X0.04737*%
%ADD83R,0.04737X0.04934*%
%ADD84O,0.01587X0.04540*%
%ADD85O,0.04540X0.01587*%
%ADD86O,0.07296X0.03162*%
%ADD87R,0.04540X0.03950*%
%ADD88R,0.04343X0.04147*%
%ADD89R,0.02965X0.02965*%
%ADD90C,0.07874*%
%ADD91R,0.03005X0.03084*%
%ADD92R,0.04540X0.05131*%
%ADD93O,0.01784X0.06312*%
%ADD94O,0.06312X0.01784*%
%ADD95R,0.02375X0.06115*%
%ADD96R,0.07887X0.08280*%
%ADD97R,0.08280X0.08280*%
%ADD98R,0.04737X0.03162*%
%ADD99R,0.03950X0.03556*%
%ADD100R,0.04737X0.03950*%
%ADD101R,0.05131X0.04540*%
%ADD102R,0.08280X0.05524*%
%ADD103R,0.09855X0.08280*%
%ADD104R,0.04540X0.04540*%
%ADD105O,0.07887X0.01981*%
%ADD106O,0.01981X0.07887*%
%ADD107R,0.03950X0.04343*%
%ADD108R,0.03753X0.04737*%
%ADD109R,0.13398X0.07690*%
%ADD110R,0.04343X0.07690*%
%ADD111R,0.04737X0.03753*%
%ADD112C,0.05521*%
%ADD113C,0.06706*%
%ADD114R,0.06706X0.06706*%
%ADD115C,0.07096*%
%ADD116R,0.06706X0.06706*%
%ADD117C,0.08200*%
%ADD118C,0.03556*%
D64*
X241252Y34595D02*
D03*
X247354D02*
D03*
X30972Y89784D02*
D03*
X37075D02*
D03*
X295236Y222921D02*
D03*
X289134D02*
D03*
X295236Y231102D02*
D03*
X289134D02*
D03*
X295449Y240354D02*
D03*
X289347D02*
D03*
X160213Y79362D02*
D03*
X166315D02*
D03*
X145027Y34595D02*
D03*
X151130D02*
D03*
X90878Y72638D02*
D03*
X84776D02*
D03*
X84787Y66445D02*
D03*
X90890D02*
D03*
D65*
X225370Y34595D02*
D03*
X231866D02*
D03*
X303118Y222862D02*
D03*
X309614D02*
D03*
X303118Y231102D02*
D03*
X309614D02*
D03*
X303331Y240248D02*
D03*
X309827D02*
D03*
X164827Y34595D02*
D03*
X158331D02*
D03*
D66*
X233933Y285083D02*
D03*
X219661Y268091D02*
D03*
X207035Y270776D02*
D03*
X210878D02*
D03*
X215142D02*
D03*
X189028D02*
D03*
X192965D02*
D03*
X197012D02*
D03*
X201213D02*
D03*
X171075D02*
D03*
X175012D02*
D03*
X179059D02*
D03*
X183260D02*
D03*
X153067D02*
D03*
X157004D02*
D03*
X161051D02*
D03*
X165252D02*
D03*
X216760Y268094D02*
D03*
X212803D02*
D03*
X208917D02*
D03*
X204594D02*
D03*
X198961D02*
D03*
X195000D02*
D03*
X190961D02*
D03*
X186594D02*
D03*
X181083D02*
D03*
X177122D02*
D03*
X173122D02*
D03*
X168720D02*
D03*
X162961D02*
D03*
X158961D02*
D03*
X155000D02*
D03*
X150571D02*
D03*
X223217D02*
D03*
X225917Y285083D02*
D03*
X234035Y268094D02*
D03*
X230039Y268079D02*
D03*
X145961Y268094D02*
D03*
X139449D02*
D03*
X136945Y285083D02*
D03*
X132405Y268094D02*
D03*
X128205D02*
D03*
X277020Y151311D02*
D03*
X274740Y149488D02*
D03*
X272799Y151311D02*
D03*
X270732Y149488D02*
D03*
X266850Y151311D02*
D03*
X264910Y149488D02*
D03*
X262673Y151311D02*
D03*
X313768Y149488D02*
D03*
X311535Y151311D02*
D03*
X309197Y149488D02*
D03*
X305685D02*
D03*
X301847D02*
D03*
X299051Y151311D02*
D03*
X48988Y146272D02*
D03*
X115362Y88784D02*
D03*
Y92524D02*
D03*
Y96622D02*
D03*
Y100543D02*
D03*
Y105366D02*
D03*
Y109358D02*
D03*
Y113571D02*
D03*
Y117453D02*
D03*
X112748Y90697D02*
D03*
Y94614D02*
D03*
Y98606D02*
D03*
Y102527D02*
D03*
Y107504D02*
D03*
Y111583D02*
D03*
Y115539D02*
D03*
X112437Y120153D02*
D03*
X31878Y149240D02*
D03*
X34051Y146272D02*
D03*
X36122Y149240D02*
D03*
X37972Y146272D02*
D03*
X39941Y149240D02*
D03*
X42016Y146071D02*
D03*
X43976Y148059D02*
D03*
X45980Y149969D02*
D03*
X51024Y149240D02*
D03*
X52979Y146272D02*
D03*
X54937Y149240D02*
D03*
X56897Y146272D02*
D03*
X58854Y149240D02*
D03*
X60791Y146272D02*
D03*
X63028Y149240D02*
D03*
X66144Y146272D02*
D03*
X68193Y149240D02*
D03*
X70205Y146272D02*
D03*
X72134Y149240D02*
D03*
X74138Y146272D02*
D03*
X76256Y149240D02*
D03*
X78035Y146272D02*
D03*
X81118D02*
D03*
D67*
X204659Y257201D02*
D03*
X219128D02*
D03*
Y263106D02*
D03*
X204659D02*
D03*
X186809Y257201D02*
D03*
X201278D02*
D03*
Y263106D02*
D03*
X186809D02*
D03*
X150782Y257201D02*
D03*
X165250D02*
D03*
Y263106D02*
D03*
X150782D02*
D03*
X168939Y257201D02*
D03*
X183407D02*
D03*
Y263106D02*
D03*
X168939D02*
D03*
X66087Y141844D02*
D03*
X80555D02*
D03*
Y135939D02*
D03*
X66087D02*
D03*
X48868Y135941D02*
D03*
X63337D02*
D03*
Y141847D02*
D03*
X48868D02*
D03*
X262636Y146453D02*
D03*
X277104D02*
D03*
Y140547D02*
D03*
X262636D02*
D03*
X31632Y135941D02*
D03*
X46100D02*
D03*
Y141847D02*
D03*
X31632D02*
D03*
X299408Y146382D02*
D03*
X313876D02*
D03*
Y140476D02*
D03*
X299408D02*
D03*
D68*
X206972Y257201D02*
D03*
X208941D02*
D03*
X210910D02*
D03*
X212878D02*
D03*
X214846D02*
D03*
X216815D02*
D03*
Y263106D02*
D03*
X214846D02*
D03*
X212878D02*
D03*
X210910D02*
D03*
X208941D02*
D03*
X206972D02*
D03*
X189122Y257201D02*
D03*
X191091D02*
D03*
X193059D02*
D03*
X195028D02*
D03*
X196996D02*
D03*
X198965D02*
D03*
Y263106D02*
D03*
X196996D02*
D03*
X195028D02*
D03*
X193059D02*
D03*
X191091D02*
D03*
X189122D02*
D03*
X153094Y257201D02*
D03*
X155063D02*
D03*
X157032D02*
D03*
X159000D02*
D03*
X160968D02*
D03*
X162937D02*
D03*
Y263106D02*
D03*
X160968D02*
D03*
X159000D02*
D03*
X157032D02*
D03*
X155063D02*
D03*
X153094D02*
D03*
X171252Y257201D02*
D03*
X173221D02*
D03*
X175189D02*
D03*
X177157D02*
D03*
X179126D02*
D03*
X181095D02*
D03*
Y263106D02*
D03*
X179126D02*
D03*
X177157D02*
D03*
X175189D02*
D03*
X173221D02*
D03*
X171252D02*
D03*
X68400Y141844D02*
D03*
X70368D02*
D03*
X72337D02*
D03*
X74305D02*
D03*
X76274D02*
D03*
X78242D02*
D03*
Y135939D02*
D03*
X76274D02*
D03*
X74305D02*
D03*
X72337D02*
D03*
X70368D02*
D03*
X68400D02*
D03*
X51181Y135941D02*
D03*
X53150D02*
D03*
X55118D02*
D03*
X57087D02*
D03*
X59055D02*
D03*
X61024D02*
D03*
Y141847D02*
D03*
X59055D02*
D03*
X57087D02*
D03*
X55118D02*
D03*
X53150D02*
D03*
X51181D02*
D03*
X264949Y146453D02*
D03*
X266917D02*
D03*
X268886D02*
D03*
X270854D02*
D03*
X272823D02*
D03*
X274791D02*
D03*
Y140547D02*
D03*
X272823D02*
D03*
X270854D02*
D03*
X268886D02*
D03*
X266917D02*
D03*
X264949D02*
D03*
X33945Y135941D02*
D03*
X35913D02*
D03*
X37882D02*
D03*
X39850D02*
D03*
X41819D02*
D03*
X43787D02*
D03*
Y141847D02*
D03*
X41819D02*
D03*
X39850D02*
D03*
X37882D02*
D03*
X35913D02*
D03*
X33945D02*
D03*
X301720Y146382D02*
D03*
X303689D02*
D03*
X305658D02*
D03*
X307626D02*
D03*
X309594D02*
D03*
X311563D02*
D03*
Y140476D02*
D03*
X309594D02*
D03*
X307626D02*
D03*
X305658D02*
D03*
X303689D02*
D03*
X301720D02*
D03*
D69*
X235047Y275319D02*
D03*
Y281028D02*
D03*
X229720Y257445D02*
D03*
Y263154D02*
D03*
X226465Y275075D02*
D03*
Y280784D02*
D03*
X139417Y257445D02*
D03*
Y263154D02*
D03*
X136858Y275043D02*
D03*
Y280752D02*
D03*
X223654Y263154D02*
D03*
Y257445D02*
D03*
X235795Y263154D02*
D03*
Y257445D02*
D03*
X145689Y263154D02*
D03*
Y257445D02*
D03*
X133055Y263154D02*
D03*
Y257445D02*
D03*
X126689Y263154D02*
D03*
Y257445D02*
D03*
X24382Y329488D02*
D03*
Y323780D02*
D03*
X96028Y17331D02*
D03*
Y23039D02*
D03*
X25902Y31969D02*
D03*
Y37677D02*
D03*
D70*
X176677Y138445D02*
D03*
X169528D02*
D03*
X105673Y235957D02*
D03*
X219614Y357732D02*
D03*
X79232Y342512D02*
D03*
X46331Y260358D02*
D03*
X296909Y298516D02*
D03*
X298559Y362791D02*
D03*
X111799Y78980D02*
D03*
D71*
X35587Y67362D02*
D03*
Y76024D02*
D03*
X42279D02*
D03*
Y67362D02*
D03*
D72*
X227787Y104601D02*
D03*
Y98302D02*
D03*
X58866Y330602D02*
D03*
Y336902D02*
D03*
D73*
X212449Y106238D02*
D03*
X215008D02*
D03*
X217567D02*
D03*
X220126D02*
D03*
X212449Y123561D02*
D03*
X215008D02*
D03*
X217567D02*
D03*
X220126D02*
D03*
D74*
X230177Y156697D02*
D03*
X224468D02*
D03*
X294870Y346110D02*
D03*
X300579D02*
D03*
X294874Y322362D02*
D03*
X300583D02*
D03*
X28409Y350472D02*
D03*
X22701D02*
D03*
X230622Y73965D02*
D03*
X224913D02*
D03*
X279866Y40185D02*
D03*
X285575D02*
D03*
D75*
X225390Y186138D02*
D03*
Y183579D02*
D03*
Y181020D02*
D03*
Y178461D02*
D03*
Y175902D02*
D03*
Y173343D02*
D03*
Y170783D02*
D03*
Y168224D02*
D03*
Y165665D02*
D03*
Y163106D02*
D03*
X248524D02*
D03*
Y165665D02*
D03*
Y168224D02*
D03*
Y170783D02*
D03*
Y173343D02*
D03*
Y175902D02*
D03*
Y178461D02*
D03*
Y181020D02*
D03*
Y183579D02*
D03*
Y186138D02*
D03*
D76*
X107602Y102380D02*
D03*
Y87911D02*
D03*
X101697D02*
D03*
Y102380D02*
D03*
Y119896D02*
D03*
Y105427D02*
D03*
X107602D02*
D03*
Y119896D02*
D03*
D77*
Y100067D02*
D03*
Y98098D02*
D03*
Y96130D02*
D03*
Y94161D02*
D03*
Y92193D02*
D03*
Y90224D02*
D03*
X101697D02*
D03*
Y92193D02*
D03*
Y94161D02*
D03*
Y96130D02*
D03*
Y98098D02*
D03*
Y100067D02*
D03*
Y117583D02*
D03*
Y115614D02*
D03*
Y113646D02*
D03*
Y111677D02*
D03*
Y109709D02*
D03*
Y107740D02*
D03*
X107602D02*
D03*
Y109709D02*
D03*
Y111677D02*
D03*
Y113646D02*
D03*
Y115614D02*
D03*
Y117583D02*
D03*
D78*
X240299Y121307D02*
D03*
Y125008D02*
D03*
X67953Y41681D02*
D03*
Y45382D02*
D03*
X72244D02*
D03*
Y41681D02*
D03*
D79*
X277362Y71988D02*
D03*
X281063D02*
D03*
D80*
X311047Y353457D02*
D03*
X307307Y362709D02*
D03*
X314787D02*
D03*
X305598Y305878D02*
D03*
X313079D02*
D03*
X309339Y315130D02*
D03*
D81*
X235858Y121209D02*
D03*
Y124988D02*
D03*
X65102Y337646D02*
D03*
Y341425D02*
D03*
D82*
X43874Y57339D02*
D03*
X37969D02*
D03*
X309335Y346142D02*
D03*
X315240D02*
D03*
X312945Y370000D02*
D03*
X307039D02*
D03*
X312315Y298362D02*
D03*
X306409D02*
D03*
X307693Y322152D02*
D03*
X313598D02*
D03*
D83*
X27411Y77636D02*
D03*
Y71730D02*
D03*
D84*
X51923Y120024D02*
D03*
X53498D02*
D03*
X55073D02*
D03*
X56648D02*
D03*
X58222D02*
D03*
X59797D02*
D03*
X61372D02*
D03*
X62947D02*
D03*
X64522D02*
D03*
X66096D02*
D03*
X67671D02*
D03*
X69246D02*
D03*
X70821D02*
D03*
X72396D02*
D03*
X73970D02*
D03*
X75545D02*
D03*
X77120D02*
D03*
X78695D02*
D03*
X80270D02*
D03*
Y85575D02*
D03*
X78695D02*
D03*
X77120D02*
D03*
X75545D02*
D03*
X73970D02*
D03*
X72396D02*
D03*
X70821D02*
D03*
X69246D02*
D03*
X67671D02*
D03*
X66096D02*
D03*
X64522D02*
D03*
X62947D02*
D03*
X61372D02*
D03*
X59797D02*
D03*
X58222D02*
D03*
X56648D02*
D03*
X55073D02*
D03*
X53498D02*
D03*
X51923D02*
D03*
D85*
X83321Y116972D02*
D03*
Y115398D02*
D03*
Y113823D02*
D03*
Y112248D02*
D03*
Y110673D02*
D03*
Y109098D02*
D03*
Y107524D02*
D03*
Y105949D02*
D03*
Y104374D02*
D03*
Y102799D02*
D03*
Y101224D02*
D03*
Y99650D02*
D03*
Y98075D02*
D03*
Y96500D02*
D03*
Y94925D02*
D03*
Y93350D02*
D03*
Y91776D02*
D03*
Y90201D02*
D03*
Y88626D02*
D03*
X48872D02*
D03*
Y90201D02*
D03*
Y91776D02*
D03*
Y93350D02*
D03*
Y94925D02*
D03*
Y96500D02*
D03*
Y98075D02*
D03*
Y99650D02*
D03*
Y101224D02*
D03*
Y102799D02*
D03*
Y104374D02*
D03*
Y105949D02*
D03*
Y107524D02*
D03*
Y109098D02*
D03*
Y110673D02*
D03*
Y112248D02*
D03*
Y113823D02*
D03*
Y115398D02*
D03*
Y116972D02*
D03*
D86*
X189850Y56177D02*
D03*
Y61177D02*
D03*
Y66177D02*
D03*
Y71177D02*
D03*
X161701Y56177D02*
D03*
Y61177D02*
D03*
Y66177D02*
D03*
Y71177D02*
D03*
D87*
X112232Y52535D02*
D03*
Y46039D02*
D03*
X183945Y144980D02*
D03*
Y138484D02*
D03*
D88*
X112134Y60051D02*
D03*
Y66154D02*
D03*
X278587Y273744D02*
D03*
Y267642D02*
D03*
X58803Y342748D02*
D03*
Y348850D02*
D03*
X197275Y54626D02*
D03*
Y60728D02*
D03*
X227835Y117240D02*
D03*
Y111138D02*
D03*
X235772Y94000D02*
D03*
Y87898D02*
D03*
X227837Y89858D02*
D03*
Y83756D02*
D03*
X264811Y71027D02*
D03*
Y64925D02*
D03*
X197563Y72768D02*
D03*
Y66665D02*
D03*
X153276Y54626D02*
D03*
Y60728D02*
D03*
D89*
X26508Y123319D02*
D03*
Y119776D02*
D03*
X29055Y130701D02*
D03*
Y127157D02*
D03*
X84492Y134937D02*
D03*
Y138480D02*
D03*
D90*
X19748Y16232D02*
D03*
X20122Y376035D02*
D03*
X317764Y15894D02*
D03*
D91*
X56343Y37248D02*
D03*
X60126Y37315D02*
D03*
X63906D02*
D03*
X52563Y37248D02*
D03*
D92*
X278579Y260653D02*
D03*
Y255142D02*
D03*
X238957Y201687D02*
D03*
Y207199D02*
D03*
X186602Y86146D02*
D03*
Y80634D02*
D03*
X42268Y32032D02*
D03*
Y37543D02*
D03*
X34913Y343740D02*
D03*
Y338228D02*
D03*
D93*
X130327Y243311D02*
D03*
X132295D02*
D03*
X134264D02*
D03*
X136232D02*
D03*
X138201D02*
D03*
X140169D02*
D03*
X142138D02*
D03*
X144106D02*
D03*
X146075D02*
D03*
X148043D02*
D03*
X150012D02*
D03*
X151980D02*
D03*
X153949D02*
D03*
X155917D02*
D03*
X157886D02*
D03*
X159854D02*
D03*
X161823D02*
D03*
X163791D02*
D03*
X165760D02*
D03*
X167728D02*
D03*
X169697D02*
D03*
X171665D02*
D03*
X173634D02*
D03*
X175602D02*
D03*
X177571D02*
D03*
X179539D02*
D03*
X181508D02*
D03*
X183476D02*
D03*
X185445D02*
D03*
X187413D02*
D03*
X189382D02*
D03*
X191350D02*
D03*
X193319D02*
D03*
X195287D02*
D03*
X197256D02*
D03*
X199224D02*
D03*
Y159846D02*
D03*
X197256D02*
D03*
X195287D02*
D03*
X193319D02*
D03*
X191350D02*
D03*
X189382D02*
D03*
X187413D02*
D03*
X185445D02*
D03*
X183476D02*
D03*
X181508D02*
D03*
X179539D02*
D03*
X177571D02*
D03*
X175602D02*
D03*
X173634D02*
D03*
X171665D02*
D03*
X169697D02*
D03*
X167728D02*
D03*
X165760D02*
D03*
X163791D02*
D03*
X161823D02*
D03*
X159854D02*
D03*
X157886D02*
D03*
X155917D02*
D03*
X153949D02*
D03*
X151980D02*
D03*
X150012D02*
D03*
X148043D02*
D03*
X146075D02*
D03*
X144106D02*
D03*
X142138D02*
D03*
X140169D02*
D03*
X138201D02*
D03*
X136232D02*
D03*
X134264D02*
D03*
X132295D02*
D03*
X130327D02*
D03*
D94*
X206508Y236028D02*
D03*
Y234059D02*
D03*
Y232091D02*
D03*
Y230122D02*
D03*
Y228154D02*
D03*
Y226185D02*
D03*
Y224217D02*
D03*
Y222248D02*
D03*
Y220280D02*
D03*
Y218311D02*
D03*
Y216343D02*
D03*
Y214374D02*
D03*
Y212406D02*
D03*
Y210437D02*
D03*
Y208469D02*
D03*
Y206500D02*
D03*
Y204531D02*
D03*
Y202563D02*
D03*
Y200594D02*
D03*
Y198626D02*
D03*
Y196657D02*
D03*
Y194689D02*
D03*
Y192720D02*
D03*
Y190752D02*
D03*
Y188783D02*
D03*
Y186815D02*
D03*
Y184846D02*
D03*
Y182878D02*
D03*
Y180909D02*
D03*
Y178941D02*
D03*
Y176972D02*
D03*
Y175004D02*
D03*
Y173035D02*
D03*
Y171067D02*
D03*
Y169098D02*
D03*
Y167130D02*
D03*
X123043D02*
D03*
Y169098D02*
D03*
Y171067D02*
D03*
Y173035D02*
D03*
Y175004D02*
D03*
Y176972D02*
D03*
Y178941D02*
D03*
Y180909D02*
D03*
Y182878D02*
D03*
Y184846D02*
D03*
Y186815D02*
D03*
Y188783D02*
D03*
Y190752D02*
D03*
Y192720D02*
D03*
Y194689D02*
D03*
Y196657D02*
D03*
Y198626D02*
D03*
Y200594D02*
D03*
Y202563D02*
D03*
Y204531D02*
D03*
Y206500D02*
D03*
Y208469D02*
D03*
Y210437D02*
D03*
Y212406D02*
D03*
Y214374D02*
D03*
Y216343D02*
D03*
Y218311D02*
D03*
Y220280D02*
D03*
Y222248D02*
D03*
Y224217D02*
D03*
Y226185D02*
D03*
Y228154D02*
D03*
Y230122D02*
D03*
Y232091D02*
D03*
Y234059D02*
D03*
Y236028D02*
D03*
D95*
X273772Y25028D02*
D03*
X271213D02*
D03*
X268654D02*
D03*
X276331D02*
D03*
X266094D02*
D03*
X73941Y25037D02*
D03*
X42445D02*
D03*
X52681D02*
D03*
X45004D02*
D03*
X50122D02*
D03*
X76500D02*
D03*
X79059D02*
D03*
X47563D02*
D03*
X71382D02*
D03*
X68823D02*
D03*
D96*
X286961Y14496D02*
D03*
X255465D02*
D03*
X31815Y14506D02*
D03*
D97*
X275937Y14496D02*
D03*
X266488D02*
D03*
X73153Y14506D02*
D03*
D98*
X41508Y343583D02*
D03*
Y339843D02*
D03*
Y336102D02*
D03*
X52335D02*
D03*
Y343583D02*
D03*
D99*
X225957Y201396D02*
D03*
Y207892D02*
D03*
X230878Y201396D02*
D03*
Y207892D02*
D03*
D100*
X245650Y62000D02*
D03*
X255886D02*
D03*
Y70268D02*
D03*
X245650D02*
D03*
D101*
X285476Y33882D02*
D03*
X279965D02*
D03*
X214841Y133915D02*
D03*
X220352D02*
D03*
X248220Y53819D02*
D03*
X253732D02*
D03*
X46941Y350728D02*
D03*
X52453D02*
D03*
X32352Y316764D02*
D03*
X37863D02*
D03*
X46987Y274116D02*
D03*
X52499D02*
D03*
D102*
X42839Y12538D02*
D03*
X52287D02*
D03*
X63311D02*
D03*
D103*
X83390Y14506D02*
D03*
D104*
X62665Y75008D02*
D03*
Y69102D02*
D03*
D105*
X250063Y89157D02*
D03*
Y91126D02*
D03*
Y93094D02*
D03*
Y95063D02*
D03*
Y97032D02*
D03*
Y99000D02*
D03*
Y100969D02*
D03*
Y102937D02*
D03*
Y104906D02*
D03*
Y106874D02*
D03*
Y108843D02*
D03*
Y110811D02*
D03*
Y112780D02*
D03*
Y114748D02*
D03*
Y116717D02*
D03*
Y118685D02*
D03*
X293764D02*
D03*
Y116717D02*
D03*
Y114748D02*
D03*
Y112780D02*
D03*
Y110811D02*
D03*
Y108843D02*
D03*
Y106874D02*
D03*
Y104906D02*
D03*
Y102937D02*
D03*
Y100969D02*
D03*
Y99000D02*
D03*
Y97032D02*
D03*
Y95063D02*
D03*
Y93094D02*
D03*
Y91126D02*
D03*
Y89157D02*
D03*
D106*
X257150Y125772D02*
D03*
X259118D02*
D03*
X261087D02*
D03*
X263055D02*
D03*
X265024D02*
D03*
X266992D02*
D03*
X268961D02*
D03*
X270929D02*
D03*
X272898D02*
D03*
X274866D02*
D03*
X276835D02*
D03*
X278803D02*
D03*
X280772D02*
D03*
X282740D02*
D03*
X284709D02*
D03*
X286677D02*
D03*
Y82071D02*
D03*
X284709D02*
D03*
X282740D02*
D03*
X280772D02*
D03*
X278803D02*
D03*
X276835D02*
D03*
X274866D02*
D03*
X272898D02*
D03*
X270929D02*
D03*
X268961D02*
D03*
X266992D02*
D03*
X265024D02*
D03*
X263055D02*
D03*
X261087D02*
D03*
X259118D02*
D03*
X257150D02*
D03*
D107*
X286268Y71232D02*
D03*
X292567D02*
D03*
D108*
X46008Y357228D02*
D03*
X53094D02*
D03*
X38651Y323764D02*
D03*
X31564D02*
D03*
X53329Y266616D02*
D03*
X46243D02*
D03*
D109*
X41107Y282610D02*
D03*
D110*
X32052Y307217D02*
D03*
X41107D02*
D03*
X50163D02*
D03*
D111*
X28417Y337201D02*
D03*
Y344287D02*
D03*
D112*
X229142Y145689D02*
D03*
X176945Y131421D02*
D03*
X169602D02*
D03*
X98465Y235992D02*
D03*
D113*
X299532Y188847D02*
D03*
X309531D02*
D03*
X299532Y178847D02*
D03*
X284429Y188847D02*
D03*
X197157Y83473D02*
D03*
X39575Y228547D02*
D03*
Y218547D02*
D03*
X29575Y228547D02*
D03*
X29658Y203114D02*
D03*
X193705Y99614D02*
D03*
X183705D02*
D03*
X193705Y109614D02*
D03*
X30102Y372547D02*
D03*
D114*
X309531Y178847D02*
D03*
X284429D02*
D03*
X183705Y109614D02*
D03*
X30102Y362547D02*
D03*
D115*
X282213Y222689D02*
D03*
Y231319D02*
D03*
X315902Y222689D02*
D03*
Y231319D02*
D03*
X316114Y240496D02*
D03*
X282425Y239933D02*
D03*
D116*
X207157Y83473D02*
D03*
X29575Y218547D02*
D03*
X39658Y203114D02*
D03*
D117*
X313729Y255045D02*
D03*
X288129D02*
D03*
X313729Y272845D02*
D03*
X288129D02*
D03*
D118*
X279382Y24142D02*
D03*
X263043D02*
D03*
M02*
