G04*
G04 #@! TF.GenerationSoftware,Altium Limited,Altium Designer,20.1.7 (139)*
G04*
G04 Layer_Color=128*
%FSLAX25Y25*%
%MOIN*%
G70*
G04*
G04 #@! TF.SameCoordinates,F1024F09-50C5-4513-BE08-2A4FEE95A773*
G04*
G04*
G04 #@! TF.FilePolarity,Positive*
G04*
G01*
G75*
%ADD167C,0.00200*%
D167*
X227173Y145689D02*
X231110D01*
X229142Y143720D02*
Y147658D01*
X297760Y188847D02*
X301303D01*
X299532Y187075D02*
Y190618D01*
X307760Y188847D02*
X311303D01*
X309531Y187075D02*
Y190618D01*
X297760Y178847D02*
X301303D01*
X299532Y177075D02*
Y180618D01*
X307760Y178847D02*
X311303D01*
X309531Y177075D02*
Y180618D01*
X174976Y131421D02*
X178913D01*
X176945Y129453D02*
Y133390D01*
X167634Y131421D02*
X171571D01*
X169602Y129453D02*
Y133390D01*
X96496Y235992D02*
X100433D01*
X98465Y234024D02*
Y237961D01*
X280047Y222689D02*
X284378D01*
X282213Y220524D02*
Y224854D01*
X282658Y178847D02*
X286201D01*
X284429Y177075D02*
Y180618D01*
X282658Y188847D02*
X286201D01*
X284429Y187075D02*
Y190618D01*
X280047Y231319D02*
X284378D01*
X282213Y229153D02*
Y233484D01*
X313736Y222689D02*
X318067D01*
X315902Y220524D02*
Y224854D01*
X313736Y231319D02*
X318067D01*
X315902Y229153D02*
Y233484D01*
X195386Y83473D02*
X198929D01*
X197157Y81701D02*
Y85244D01*
X205386Y83473D02*
X208929D01*
X207157Y81701D02*
Y85244D01*
X313949Y240496D02*
X318280D01*
X316114Y238331D02*
Y242662D01*
X280260Y239933D02*
X284591D01*
X282425Y237768D02*
Y242099D01*
X37803Y228547D02*
X41346D01*
X39575Y226776D02*
Y230319D01*
X37803Y218547D02*
X41346D01*
X39575Y216776D02*
Y220319D01*
X27803Y228547D02*
X31346D01*
X29575Y226776D02*
Y230319D01*
X27803Y218547D02*
X31346D01*
X29575Y216776D02*
Y220319D01*
X27886Y203114D02*
X31429D01*
X29658Y201343D02*
Y204886D01*
X37886Y203114D02*
X41429D01*
X39658Y201343D02*
Y204886D01*
X311729Y255045D02*
X315729D01*
X313729Y253045D02*
Y257045D01*
X286129Y255045D02*
X290129D01*
X288129Y253045D02*
Y257045D01*
X311729Y272845D02*
X315729D01*
X313729Y270845D02*
Y274845D01*
X286129Y272845D02*
X290129D01*
X288129Y270845D02*
Y274845D01*
X278004Y24142D02*
X280760D01*
X279382Y22764D02*
Y25520D01*
X261665Y24142D02*
X264421D01*
X263043Y22764D02*
Y25520D01*
X191933Y99614D02*
X195476D01*
X193705Y97843D02*
Y101386D01*
X181933Y99614D02*
X185476D01*
X183705Y97843D02*
Y101386D01*
X191933Y109614D02*
X195476D01*
X193705Y107843D02*
Y111386D01*
X181933Y109614D02*
X185476D01*
X183705Y107843D02*
Y111386D01*
X28331Y372547D02*
X31874D01*
X30102Y370776D02*
Y374319D01*
X28331Y362547D02*
X31874D01*
X30102Y360776D02*
Y364319D01*
X266281Y51186D02*
X267462D01*
X266871Y50595D02*
Y51776D01*
X266281Y43312D02*
X267462D01*
X266871Y42721D02*
Y43902D01*
X266281Y35438D02*
X267462D01*
X266871Y34847D02*
Y36028D01*
X267481Y20162D02*
X268662D01*
X268071Y19572D02*
Y20753D01*
X272428Y32880D02*
X273609D01*
X273018Y32289D02*
Y33470D01*
X272428Y40754D02*
X273609D01*
X273018Y40163D02*
Y41344D01*
X272428Y48628D02*
X273609D01*
X273018Y48037D02*
Y49218D01*
X272428Y56502D02*
X273609D01*
X273018Y55911D02*
Y57092D01*
X272428Y64376D02*
X273609D01*
X273018Y63785D02*
Y64966D01*
X272428Y72250D02*
X273609D01*
X273018Y71659D02*
Y72840D01*
X74115Y33282D02*
X75297D01*
X74706Y32691D02*
Y33872D01*
X78712Y20172D02*
X79893D01*
X79303Y19582D02*
Y20763D01*
X81464Y27550D02*
X82645D01*
X82054Y26959D02*
Y28140D01*
X80263Y35332D02*
X81444D01*
X80853Y34741D02*
Y35922D01*
X80263Y43206D02*
X81444D01*
X80853Y42615D02*
Y43796D01*
X80263Y51080D02*
X81444D01*
X80853Y50489D02*
Y51670D01*
X80263Y58954D02*
X81444D01*
X80853Y58363D02*
Y59544D01*
X80263Y66828D02*
X81444D01*
X80853Y66237D02*
Y67418D01*
X80263Y74702D02*
X81444D01*
X80853Y74111D02*
Y75292D01*
X66369Y73301D02*
X67550D01*
X66960Y72711D02*
Y73892D01*
X66369Y65427D02*
X67550D01*
X66960Y64837D02*
Y66018D01*
X66369Y57553D02*
X67550D01*
X66960Y56963D02*
Y58144D01*
X66369Y49679D02*
X67550D01*
X66960Y49088D02*
Y50270D01*
X72516Y50456D02*
X73698D01*
X73107Y49865D02*
Y51046D01*
X72516Y58330D02*
X73698D01*
X73107Y57739D02*
Y58920D01*
X72516Y66204D02*
X73698D01*
X73107Y65613D02*
Y66794D01*
X72516Y74078D02*
X73698D01*
X73107Y73487D02*
Y74668D01*
X54558Y77884D02*
X55739D01*
X55149Y77293D02*
Y78475D01*
X54558Y70010D02*
X55739D01*
X55149Y69419D02*
Y70601D01*
X54558Y62136D02*
X55739D01*
X55149Y61545D02*
Y62727D01*
X54558Y54262D02*
X55739D01*
X55149Y53671D02*
Y54853D01*
X54558Y46388D02*
X55739D01*
X55149Y45798D02*
Y46979D01*
X48821Y29590D02*
X50002D01*
X49411Y29000D02*
Y30181D01*
X58526Y19433D02*
X59707D01*
X59117Y18843D02*
Y20024D01*
X60705Y27000D02*
X61887D01*
X61296Y26409D02*
Y27590D01*
X62269Y34717D02*
X63450D01*
X62859Y34126D02*
Y35307D01*
X60705Y42434D02*
X61887D01*
X61296Y41844D02*
Y43025D01*
X60705Y50308D02*
X61887D01*
X61296Y49718D02*
Y50899D01*
X60705Y58182D02*
X61887D01*
X61296Y57591D02*
Y58773D01*
X73350Y37228D02*
X74138D01*
X73744Y36835D02*
Y37622D01*
X66433Y30484D02*
X67220D01*
X66827Y30091D02*
Y30878D01*
X143685Y274311D02*
X144472D01*
X144079Y273917D02*
Y274705D01*
X139366Y291642D02*
X140154D01*
X139760Y291248D02*
Y292035D01*
X134287Y291705D02*
X135075D01*
X134681Y291311D02*
Y292098D01*
X313354Y162319D02*
X314142D01*
X313748Y161925D02*
Y162713D01*
X294398Y165799D02*
X295185D01*
X294791Y165405D02*
Y166193D01*
X308130Y158370D02*
X308917D01*
X308524Y157976D02*
Y158764D01*
X303709Y160626D02*
X304496D01*
X304102Y160232D02*
Y161020D01*
X233913Y223197D02*
X234701D01*
X234307Y222803D02*
Y223590D01*
X251307Y223083D02*
X252095D01*
X251701Y222689D02*
Y223476D01*
X217472Y198256D02*
X218260D01*
X217866Y197862D02*
Y198650D01*
X216378Y200654D02*
X217165D01*
X216772Y200260D02*
Y201047D01*
X221685Y210394D02*
X222472D01*
X222079Y210000D02*
Y210787D01*
X221220Y200500D02*
X222008D01*
X221614Y200106D02*
Y200894D01*
X231957Y252752D02*
X232744D01*
X232350Y252358D02*
Y253146D01*
X237587Y267358D02*
X238374D01*
X237980Y266965D02*
Y267752D01*
X227240Y267260D02*
X228028D01*
X227634Y266866D02*
Y267653D01*
X237528Y270697D02*
X238315D01*
X237921Y270303D02*
Y271091D01*
X236228Y285374D02*
X237016D01*
X236622Y284980D02*
Y285768D01*
X236224Y290504D02*
X237012D01*
X236618Y290110D02*
Y290898D01*
X227205Y290622D02*
X227992D01*
X227598Y290228D02*
Y291016D01*
X233496Y288409D02*
X234283D01*
X233890Y288016D02*
Y288803D01*
X219252Y34595D02*
X220433D01*
X219843Y34004D02*
Y35185D01*
X228842Y345421D02*
X229630D01*
X229236Y345028D02*
Y345815D01*
X226307Y345421D02*
X227095D01*
X226701Y345028D02*
Y345815D01*
X233701Y270839D02*
X234488D01*
X234095Y270445D02*
Y271232D01*
X216574Y182773D02*
X217362D01*
X216968Y182379D02*
Y183166D01*
X213035Y330283D02*
X213823D01*
X213429Y329890D02*
Y330677D01*
X225476Y288409D02*
X226264D01*
X225870Y288016D02*
Y288803D01*
X189311Y332894D02*
X190098D01*
X189705Y332500D02*
Y333287D01*
X184618Y332894D02*
X185406D01*
X185012Y332500D02*
Y333287D01*
X230732Y339709D02*
X231520D01*
X231126Y339315D02*
Y340102D01*
X229279Y270839D02*
X230067D01*
X229673Y270445D02*
Y271232D01*
X141752Y270839D02*
X142539D01*
X142146Y270445D02*
Y271232D01*
X136591Y288075D02*
X137378D01*
X136984Y287681D02*
Y288469D01*
X229067Y252740D02*
X229854D01*
X229461Y252346D02*
Y253134D01*
X225390Y270839D02*
X226177D01*
X225783Y270445D02*
Y271232D01*
X222799Y332894D02*
X223587D01*
X223193Y332500D02*
Y333287D01*
X220551Y339220D02*
X221339D01*
X220945Y338827D02*
Y339614D01*
X218181Y341205D02*
X218969D01*
X218575Y340811D02*
Y341598D01*
X215965Y339220D02*
X216752D01*
X216358Y338827D02*
Y339614D01*
X31951Y57508D02*
X33132D01*
X32541Y56918D02*
Y58099D01*
X240291Y179976D02*
X241079D01*
X240685Y179583D02*
Y180370D01*
X240370Y168921D02*
X241158D01*
X240764Y168528D02*
Y169315D01*
X195689Y345421D02*
X196476D01*
X196083Y345028D02*
Y345815D01*
X198362Y339220D02*
X199150D01*
X198756Y338827D02*
Y339614D01*
X194394Y332894D02*
X195181D01*
X194787Y332500D02*
Y333287D01*
X52794Y260622D02*
X53975D01*
X53385Y260032D02*
Y261213D01*
X88497Y88264D02*
X89284D01*
X88890Y87870D02*
Y88658D01*
X212657Y204343D02*
X213445D01*
X213051Y203949D02*
Y204736D01*
X212890Y200528D02*
X213677D01*
X213283Y200134D02*
Y200921D01*
X219287Y345421D02*
X220075D01*
X219681Y345028D02*
Y345815D01*
X168264Y332894D02*
X169051D01*
X168657Y332500D02*
Y333287D01*
X161150Y332894D02*
X161937D01*
X161543Y332500D02*
Y333287D01*
X208425Y332894D02*
X209213D01*
X208819Y332500D02*
Y333287D01*
X203592Y332894D02*
X204379D01*
X203986Y332500D02*
Y333287D01*
X178319Y332894D02*
X179106D01*
X178713Y332500D02*
Y333287D01*
X199004Y332894D02*
X199791D01*
X199398Y332500D02*
Y333287D01*
X211819Y339220D02*
X212606D01*
X212213Y338827D02*
Y339614D01*
X207374Y339220D02*
X208161D01*
X207768Y338827D02*
Y339614D01*
X202689Y339220D02*
X203476D01*
X203083Y338827D02*
Y339614D01*
X193157Y339220D02*
X193945D01*
X193551Y338827D02*
Y339614D01*
X188228Y339220D02*
X189016D01*
X188622Y338827D02*
Y339614D01*
X183614Y339220D02*
X184402D01*
X184008Y338827D02*
Y339614D01*
X179488Y339220D02*
X180276D01*
X179882Y338827D02*
Y339614D01*
X166110Y339220D02*
X166898D01*
X166504Y338827D02*
Y339614D01*
X173350Y332894D02*
X174138D01*
X173744Y332500D02*
Y333287D01*
X171909Y339220D02*
X172697D01*
X172303Y338827D02*
Y339614D01*
X163835Y332894D02*
X164622D01*
X164228Y332500D02*
Y333287D01*
X175626Y339220D02*
X176413D01*
X176020Y338827D02*
Y339614D01*
X214713Y345421D02*
X215500D01*
X215106Y345028D02*
Y345815D01*
X209882Y345421D02*
X210669D01*
X210276Y345028D02*
Y345815D01*
X205307Y345421D02*
X206095D01*
X205701Y345028D02*
Y345815D01*
X200413Y345421D02*
X201201D01*
X200807Y345028D02*
Y345815D01*
X191189Y345421D02*
X191976D01*
X191583Y345028D02*
Y345815D01*
X186161Y345421D02*
X186949D01*
X186555Y345028D02*
Y345815D01*
X181520Y345421D02*
X182307D01*
X181913Y345028D02*
Y345815D01*
X176858Y345421D02*
X177646D01*
X177252Y345028D02*
Y345815D01*
X172102Y345421D02*
X172890D01*
X172496Y345028D02*
Y345815D01*
X167283Y345421D02*
X168071D01*
X167677Y345028D02*
Y345815D01*
X211925Y184791D02*
X212713D01*
X212319Y184398D02*
Y185185D01*
X138890Y238429D02*
X139677D01*
X139284Y238035D02*
Y238823D01*
X130120Y224279D02*
X130907D01*
X130514Y223886D02*
Y224673D01*
X130264Y229856D02*
X131051D01*
X130657Y229462D02*
Y230250D01*
X46965Y281713D02*
X49327D01*
X48146Y280532D02*
Y282894D01*
X233000Y168984D02*
X233787D01*
X233394Y168590D02*
Y169378D01*
X233032Y179872D02*
X233819D01*
X233425Y179479D02*
Y180266D01*
X238264Y214760D02*
X239051D01*
X238657Y214366D02*
Y215154D01*
X243412Y201490D02*
X244199D01*
X243806Y201097D02*
Y201884D01*
X212236Y352370D02*
X213024D01*
X212630Y351976D02*
Y352764D01*
X202819Y352370D02*
X203606D01*
X203213Y351976D02*
Y352764D01*
X193319Y352370D02*
X194106D01*
X193713Y351976D02*
Y352764D01*
X183961Y352370D02*
X184748D01*
X184354Y351976D02*
Y352764D01*
X160335Y352370D02*
X161122D01*
X160728Y351976D02*
Y352764D01*
X174488Y352370D02*
X175276D01*
X174882Y351976D02*
Y352764D01*
X232319Y332894D02*
X233106D01*
X232713Y332500D02*
Y333287D01*
X156406Y352370D02*
X157193D01*
X156799Y351976D02*
Y352764D01*
X169693Y352370D02*
X170480D01*
X170087Y351976D02*
Y352764D01*
X179173Y352370D02*
X179961D01*
X179567Y351976D02*
Y352764D01*
X188591Y352370D02*
X189378D01*
X188984Y351976D02*
Y352764D01*
X198071Y352370D02*
X198858D01*
X198465Y351976D02*
Y352764D01*
X207520Y352370D02*
X208307D01*
X207913Y351976D02*
Y352764D01*
X216933Y352370D02*
X217721D01*
X217327Y351976D02*
Y352764D01*
X221657Y352370D02*
X222445D01*
X222051Y351976D02*
Y352764D01*
X223996Y352370D02*
X224783D01*
X224390Y351976D02*
Y352764D01*
X242087Y352370D02*
X242874D01*
X242480Y351976D02*
Y352764D01*
X231090Y352370D02*
X231878D01*
X231484Y351976D02*
Y352764D01*
X238236Y352370D02*
X239024D01*
X238630Y351976D02*
Y352764D01*
X235980Y352370D02*
X236768D01*
X236374Y351976D02*
Y352764D01*
X233610Y352370D02*
X234398D01*
X234004Y351976D02*
Y352764D01*
X227441Y120526D02*
X228228D01*
X227835Y120133D02*
Y120920D01*
X246697Y47705D02*
X247484D01*
X247091Y47311D02*
Y48098D01*
X253984Y47591D02*
X254772D01*
X254378Y47197D02*
Y47984D01*
X60339Y80177D02*
X61126D01*
X60732Y79783D02*
Y80571D01*
X52098Y116374D02*
X52886D01*
X52492Y115980D02*
Y116768D01*
X71256Y89583D02*
X72043D01*
X71650Y89189D02*
Y89976D01*
X74768Y93209D02*
X75555D01*
X75161Y92815D02*
Y93602D01*
X57315Y89583D02*
X58102D01*
X57709Y89189D02*
Y89976D01*
X53681Y94449D02*
X54469D01*
X54075Y94055D02*
Y94842D01*
X53807Y91012D02*
X54594D01*
X54201Y90618D02*
Y91405D01*
X62402Y98740D02*
X63189D01*
X62795Y98347D02*
Y99134D01*
X117465Y232014D02*
X118646D01*
X118055Y231423D02*
Y232604D01*
X43752Y95039D02*
X44539D01*
X44146Y94646D02*
Y95433D01*
X26372Y89656D02*
X27160D01*
X26766Y89262D02*
Y90049D01*
X57492Y112969D02*
X58280D01*
X57886Y112575D02*
Y113362D01*
X261945Y88681D02*
X262732D01*
X262339Y88288D02*
Y89075D01*
X265390Y88701D02*
X266177D01*
X265783Y88307D02*
Y89095D01*
X264094Y61252D02*
X265276D01*
X264685Y60661D02*
Y61843D01*
X263417Y75528D02*
X264598D01*
X264008Y74937D02*
Y76118D01*
X273201Y75354D02*
X274382D01*
X273791Y74764D02*
Y75945D01*
X272374Y88762D02*
X273162D01*
X272768Y88368D02*
Y89156D01*
X278866Y96153D02*
X279654D01*
X279260Y95760D02*
Y96547D01*
X268347Y97748D02*
X269134D01*
X268740Y97354D02*
Y98142D01*
X258772Y96071D02*
X259559D01*
X259165Y95677D02*
Y96465D01*
X190429Y87429D02*
X191217D01*
X190823Y87035D02*
Y87823D01*
X190520Y79008D02*
X191307D01*
X190913Y78614D02*
Y79402D01*
X201083Y61177D02*
X201870D01*
X201476Y60783D02*
Y61571D01*
X167453Y71342D02*
X168240D01*
X167846Y70949D02*
Y71736D01*
X159744Y84075D02*
X160531D01*
X160138Y83681D02*
Y84469D01*
X25657Y126559D02*
X26839D01*
X26248Y125969D02*
Y127150D01*
X49073Y37264D02*
X49860D01*
X49467Y36870D02*
Y37657D01*
X275276Y14717D02*
X276457D01*
X275866Y14126D02*
Y15307D01*
X254803Y14717D02*
X255984D01*
X255394Y14126D02*
Y15307D01*
X265827Y14717D02*
X267008D01*
X266417Y14126D02*
Y15307D01*
X286299Y14717D02*
X287480D01*
X286890Y14126D02*
Y15307D01*
X314721Y342543D02*
X315902D01*
X315311Y341953D02*
Y343134D01*
X95268Y72677D02*
X96055D01*
X95661Y72284D02*
Y73071D01*
X111811Y40960D02*
X112992D01*
X112402Y40369D02*
Y41550D01*
X25433Y41882D02*
X26221D01*
X25827Y41488D02*
Y42276D01*
X36752Y37543D02*
X37539D01*
X37146Y37150D02*
Y37937D01*
X36949Y31815D02*
X37736D01*
X37343Y31421D02*
Y32209D01*
X294421Y160488D02*
X295209D01*
X294815Y160094D02*
Y160882D01*
X303720Y156154D02*
X304508D01*
X304114Y155760D02*
Y156547D01*
X310232Y154063D02*
X311020D01*
X310626Y153669D02*
Y154457D01*
X313248Y157585D02*
X314035D01*
X313642Y157191D02*
Y157978D01*
X307508Y151370D02*
X308295D01*
X307902Y150976D02*
Y151764D01*
X219480Y73901D02*
X220268D01*
X219874Y73507D02*
Y74295D01*
X127055Y196449D02*
X127842D01*
X127449Y196055D02*
Y196843D01*
X28606Y134035D02*
X29787D01*
X29197Y133445D02*
Y134626D01*
X127106Y234079D02*
X128287D01*
X127697Y233488D02*
Y234669D01*
X95437Y27189D02*
X96618D01*
X96028Y26598D02*
Y27779D01*
X95437Y36685D02*
X96618D01*
X96028Y36094D02*
Y37276D01*
X95437Y48051D02*
X96618D01*
X96028Y47461D02*
Y48642D01*
X95437Y58681D02*
X96618D01*
X96028Y58091D02*
Y59272D01*
X23646Y337472D02*
X24433D01*
X24039Y337079D02*
Y337866D01*
X163236Y166248D02*
X164024D01*
X163630Y165854D02*
Y166642D01*
X182272Y168016D02*
X183059D01*
X182665Y167622D02*
Y168409D01*
X187083Y168083D02*
X187870D01*
X187476Y167689D02*
Y168476D01*
X198796Y168627D02*
X199583D01*
X199190Y168233D02*
Y169020D01*
X299685Y158559D02*
X300472D01*
X300079Y158165D02*
Y158953D01*
X183185Y131543D02*
X184366D01*
X183776Y130953D02*
Y132134D01*
X159390Y154480D02*
X160177D01*
X159783Y154087D02*
Y154874D01*
X91382Y372909D02*
X92563D01*
X91972Y372319D02*
Y373500D01*
X260224Y372579D02*
X261405D01*
X260815Y371988D02*
Y373169D01*
X222827Y373028D02*
X224008D01*
X223417Y372437D02*
Y373618D01*
X186209Y372913D02*
X187390D01*
X186799Y372323D02*
Y373504D01*
X152953Y372913D02*
X154134D01*
X153543Y372323D02*
Y373504D01*
X116004Y372913D02*
X117185D01*
X116595Y372323D02*
Y373504D01*
X73553Y20030D02*
X74340D01*
X73947Y19636D02*
Y20423D01*
X296364Y288947D02*
X297545D01*
X296955Y288356D02*
Y289537D01*
X277339Y291158D02*
X278520D01*
X277929Y290567D02*
Y291748D01*
X277380Y305494D02*
X278561D01*
X277971Y304904D02*
Y306085D01*
X277380Y322360D02*
X278561D01*
X277971Y321770D02*
Y322951D01*
X277380Y341136D02*
X278561D01*
X277971Y340545D02*
Y341726D01*
X277274Y359486D02*
X278455D01*
X277864Y358896D02*
Y360077D01*
X26598Y59925D02*
X27779D01*
X27189Y59335D02*
Y60516D01*
X25894Y260102D02*
X27075D01*
X26484Y259512D02*
Y260693D01*
X19012Y260102D02*
X20193D01*
X19602Y259512D02*
Y260693D01*
X19161Y267567D02*
X20343D01*
X19752Y266976D02*
Y268158D01*
X19532Y302492D02*
X20713D01*
X20122Y301902D02*
Y303083D01*
X19689Y315728D02*
X20870D01*
X20279Y315138D02*
Y316319D01*
X68787Y365717D02*
X69968D01*
X69378Y365126D02*
Y366307D01*
X63106Y371445D02*
X64288D01*
X63697Y370854D02*
Y372035D01*
X68992Y371441D02*
X70173D01*
X69583Y370850D02*
Y372031D01*
X63012Y260610D02*
X64193D01*
X63602Y260020D02*
Y261201D01*
X78182Y93209D02*
X78969D01*
X78575Y92815D02*
Y93602D01*
X87256Y103236D02*
X88043D01*
X87650Y102842D02*
Y103630D01*
X66547Y89583D02*
X67335D01*
X66941Y89189D02*
Y89976D01*
X66347Y37315D02*
X67134D01*
X66740Y36921D02*
Y37709D01*
X278150Y278394D02*
X278937D01*
X278543Y278000D02*
Y278787D01*
X278033Y250130D02*
X278821D01*
X278427Y249736D02*
Y250524D01*
X73209Y30683D02*
X74390D01*
X73799Y30093D02*
Y31274D01*
X305615Y293515D02*
X306796D01*
X306206Y292924D02*
Y294105D01*
X275858Y88687D02*
X276646D01*
X276252Y88293D02*
Y89081D01*
X49622Y300047D02*
X50803D01*
X50213Y299457D02*
Y300638D01*
X42618Y316776D02*
X43799D01*
X43209Y316185D02*
Y317366D01*
X42693Y323654D02*
X43874D01*
X43283Y323063D02*
Y324244D01*
X40669Y350500D02*
X41850D01*
X41260Y349909D02*
Y351091D01*
X280386Y68862D02*
X281567D01*
X280976Y68272D02*
Y69453D01*
X239819Y129575D02*
X240606D01*
X240213Y129181D02*
Y129969D01*
X289177Y40476D02*
X290358D01*
X289768Y39886D02*
Y41067D01*
X46612Y77049D02*
X47793D01*
X47203Y76459D02*
Y77640D01*
X73335Y100827D02*
X74122D01*
X73728Y100433D02*
Y101221D01*
X47102Y125024D02*
X47890D01*
X47496Y124630D02*
Y125417D01*
X52732Y109283D02*
X53520D01*
X53126Y108890D02*
Y109677D01*
X59043Y98658D02*
X59831D01*
X59437Y98264D02*
Y99051D01*
X147831Y165827D02*
X148618D01*
X148224Y165433D02*
Y166220D01*
X148075Y180320D02*
X148862D01*
X148469Y179926D02*
Y180714D01*
X149852Y237147D02*
X150639D01*
X150246Y236753D02*
Y237540D01*
X155190Y237095D02*
X155978D01*
X155584Y236702D02*
Y237489D01*
X161882Y237091D02*
X162669D01*
X162276Y236697D02*
Y237484D01*
X166811Y237193D02*
X167598D01*
X167205Y236799D02*
Y237587D01*
X174673Y236969D02*
X175461D01*
X175067Y236575D02*
Y237362D01*
X174496Y222721D02*
X175284D01*
X174890Y222327D02*
Y223114D01*
X183890Y220012D02*
X184677D01*
X184284Y219618D02*
Y220406D01*
X200264Y220051D02*
X201051D01*
X200658Y219657D02*
Y220445D01*
X199964Y233567D02*
X200752D01*
X200358Y233173D02*
Y233961D01*
X199874Y227323D02*
X200661D01*
X200268Y226929D02*
Y227716D01*
X189099Y223472D02*
X189886D01*
X189492Y223079D02*
Y223866D01*
X188976Y237287D02*
X189764D01*
X189370Y236894D02*
Y237681D01*
X199634Y204695D02*
X200421D01*
X200028Y204301D02*
Y205089D01*
X199457Y198339D02*
X200244D01*
X199850Y197945D02*
Y198732D01*
X199457Y192606D02*
X200244D01*
X199850Y192213D02*
Y193000D01*
X141453Y166000D02*
X142240D01*
X141846Y165606D02*
Y166394D01*
X135791Y166071D02*
X136579D01*
X136185Y165677D02*
Y166464D01*
X156970Y166222D02*
X157758D01*
X157364Y165829D02*
Y166616D01*
X168979Y166297D02*
X169766D01*
X169373Y165904D02*
Y166691D01*
X174581Y166423D02*
X175368D01*
X174975Y166030D02*
Y166817D01*
X128405Y178764D02*
X129193D01*
X128799Y178370D02*
Y179157D01*
X128405Y184772D02*
X129193D01*
X128799Y184378D02*
Y185165D01*
X142551Y184969D02*
X143339D01*
X142945Y184575D02*
Y185362D01*
X142614Y178532D02*
X143402D01*
X143008Y178138D02*
Y178925D01*
X285379Y99076D02*
X286166D01*
X285772Y98682D02*
Y99470D01*
X285433Y88524D02*
X286221D01*
X285827Y88130D02*
Y88917D01*
X280613Y88601D02*
X281400D01*
X281007Y88207D02*
Y88994D01*
X193067Y168677D02*
X193854D01*
X193461Y168283D02*
Y169071D01*
X78693Y348591D02*
X79874D01*
X79283Y348000D02*
Y349181D01*
X64146Y348720D02*
X65327D01*
X64736Y348130D02*
Y349311D01*
X306157Y375213D02*
X307339D01*
X306748Y374622D02*
Y375803D01*
X312575Y375142D02*
X313756D01*
X313165Y374551D02*
Y375732D01*
X88396Y78982D02*
X89183D01*
X88789Y78588D02*
Y79376D01*
X64748Y101059D02*
X65535D01*
X65142Y100665D02*
Y101453D01*
X84142Y141785D02*
X84929D01*
X84535Y141392D02*
Y142179D01*
X129177Y210257D02*
X129964D01*
X129571Y209863D02*
Y210651D01*
X129177Y212462D02*
X129964D01*
X129571Y212068D02*
Y212856D01*
X58276Y326976D02*
X59457D01*
X58866Y326386D02*
Y327567D01*
X64547Y334248D02*
X65728D01*
X65138Y333658D02*
Y334839D01*
X40917Y357528D02*
X42098D01*
X41508Y356937D02*
Y358118D01*
X312090Y293323D02*
X313272D01*
X312681Y292732D02*
Y293913D01*
X195870Y165343D02*
X196658D01*
X196264Y164949D02*
Y165736D01*
X197713Y153996D02*
X198500D01*
X198106Y153602D02*
Y154390D01*
X161083Y52677D02*
X161870D01*
X161476Y52283D02*
Y53071D01*
X292039Y75681D02*
X292827D01*
X292433Y75287D02*
Y76075D01*
X289185Y33618D02*
X290366D01*
X289776Y33028D02*
Y34209D01*
X219994Y139415D02*
X220781D01*
X220388Y139022D02*
Y139809D01*
X214089Y139415D02*
X214876D01*
X214482Y139022D02*
Y139809D01*
X29150Y100904D02*
X29937D01*
X29543Y100510D02*
Y101297D01*
X312722Y327388D02*
X313903D01*
X313313Y326797D02*
Y327978D01*
X201004Y54626D02*
X201791D01*
X201398Y54232D02*
Y55020D01*
X148661Y54228D02*
X149449D01*
X149055Y53835D02*
Y54622D01*
X40545Y89702D02*
X41333D01*
X40939Y89308D02*
Y90096D01*
X28955Y94756D02*
X30136D01*
X29545Y94165D02*
Y95347D01*
X67069Y80177D02*
X67856D01*
X67463Y79783D02*
Y80571D01*
X64128Y115945D02*
X64915D01*
X64522Y115551D02*
Y116339D01*
X78281Y115945D02*
X79069D01*
X78675Y115551D02*
Y116339D01*
X78740Y105535D02*
X79528D01*
X79134Y105142D02*
Y105929D01*
X63240Y89583D02*
X64028D01*
X63634Y89189D02*
Y89976D01*
X56650Y101303D02*
X57437D01*
X57043Y100909D02*
Y101697D01*
X56634Y104949D02*
X57421D01*
X57028Y104555D02*
Y105342D01*
X64128Y105537D02*
X64915D01*
X64522Y105144D02*
Y105931D01*
X69346Y105535D02*
X70134D01*
X69740Y105142D02*
Y105929D01*
X69394Y115945D02*
X70181D01*
X69787Y115551D02*
Y116339D01*
X90512Y61776D02*
X91299D01*
X90905Y61382D02*
Y62169D01*
X26669Y66665D02*
X27850D01*
X27260Y66075D02*
Y67256D01*
X62039Y64945D02*
X63221D01*
X62630Y64354D02*
Y65535D01*
X169477Y34595D02*
X170658D01*
X170068Y34004D02*
Y35185D01*
X183665Y204736D02*
X184453D01*
X184059Y204343D02*
Y205130D01*
X52059Y30764D02*
X53240D01*
X52650Y30173D02*
Y31354D01*
X138541Y34595D02*
X139723D01*
X139132Y34004D02*
Y35185D01*
X253815Y80327D02*
X254602D01*
X254209Y79933D02*
Y80721D01*
X245288Y80941D02*
X246076D01*
X245682Y80547D02*
Y81335D01*
X278772Y119205D02*
X279559D01*
X279165Y118811D02*
Y119598D01*
X282610Y119224D02*
X283398D01*
X283004Y118831D02*
Y119618D01*
X285068Y108242D02*
X285855D01*
X285461Y107849D02*
Y108636D01*
X285050Y111794D02*
X285837D01*
X285443Y111400D02*
Y112188D01*
X268608Y113145D02*
X269395D01*
X269002Y112751D02*
Y113539D01*
X268554Y116686D02*
X269341D01*
X268947Y116293D02*
Y117080D01*
X256719Y104802D02*
X257506D01*
X257112Y104408D02*
Y105196D01*
X256584Y113589D02*
X257371D01*
X256978Y113196D02*
Y113983D01*
X256613Y117127D02*
X257401D01*
X257007Y116733D02*
Y117520D01*
X250087Y201673D02*
X250874D01*
X250480Y201279D02*
Y202067D01*
X245299Y84976D02*
X246087D01*
X245693Y84583D02*
Y85370D01*
X258634Y132250D02*
X259421D01*
X259028Y131856D02*
Y132643D01*
X249645Y121996D02*
X250432D01*
X250038Y121602D02*
Y122390D01*
X235390Y129480D02*
X236177D01*
X235783Y129087D02*
Y129874D01*
X222437Y83346D02*
X223224D01*
X222831Y82952D02*
Y83740D01*
X235303Y83444D02*
X236090D01*
X235697Y83051D02*
Y83838D01*
X243445Y207866D02*
X244232D01*
X243839Y207472D02*
Y208260D01*
X267012Y104882D02*
X267799D01*
X267406Y104488D02*
Y105275D01*
M02*
