G04*
G04 #@! TF.GenerationSoftware,Altium Limited,Altium Designer,20.1.7 (139)*
G04*
G04 Layer_Color=32768*
%FSLAX25Y25*%
%MOIN*%
G70*
G04*
G04 #@! TF.SameCoordinates,F1024F09-50C5-4513-BE08-2A4FEE95A773*
G04*
G04*
G04 #@! TF.FilePolarity,Positive*
G04*
G01*
G75*
%ADD10C,0.00394*%
%ADD11C,0.00787*%
%ADD169C,0.00197*%
D10*
X164776Y199610D02*
Y203547D01*
X162807Y201579D02*
X166744D01*
X44953Y339843D02*
X48890D01*
X46921Y337874D02*
Y341811D01*
X269945Y103921D02*
X273882D01*
X271913Y101953D02*
Y105890D01*
X39139Y294913D02*
X43076D01*
X41107Y292945D02*
Y296882D01*
D11*
X204413Y263303D02*
X219374D01*
Y257004D02*
Y263303D01*
X204413Y257004D02*
X219374D01*
X204413D02*
Y263303D01*
X186563D02*
X201524D01*
Y257004D02*
Y263303D01*
X186563Y257004D02*
X201524D01*
X186563D02*
Y263303D01*
X150535D02*
X165496D01*
Y257004D02*
Y263303D01*
X150535Y257004D02*
X165496D01*
X150535D02*
Y263303D01*
X168693D02*
X183653D01*
Y257004D02*
Y263303D01*
X168693Y257004D02*
X183653D01*
X168693D02*
Y263303D01*
X155748Y336006D02*
X243543D01*
Y348801D01*
X155748D02*
X243543D01*
X155748Y336006D02*
Y348801D01*
X101500Y102626D02*
X107799D01*
X101500Y87665D02*
Y102626D01*
Y87665D02*
X107799D01*
Y102626D01*
Y105181D02*
Y120142D01*
X101500Y105181D02*
X107799D01*
X101500D02*
Y120142D01*
X107799D01*
X65841Y135742D02*
Y142041D01*
Y135742D02*
X80801D01*
Y142041D01*
X65841D02*
X80801D01*
X48622Y142043D02*
X63583D01*
Y135744D02*
Y142043D01*
X48622Y135744D02*
X63583D01*
X48622D02*
Y142043D01*
X262390Y140350D02*
Y146650D01*
Y140350D02*
X277350D01*
Y146650D01*
X262390D02*
X277350D01*
X31386Y142043D02*
X46346D01*
Y135744D02*
Y142043D01*
X31386Y135744D02*
X46346D01*
X31386D02*
Y142043D01*
X299161Y140279D02*
Y146579D01*
Y140279D02*
X314122D01*
Y146579D01*
X299161D02*
X314122D01*
D169*
X221504Y188598D02*
X252410D01*
Y160646D02*
Y188598D01*
X221504Y160646D02*
X252410D01*
X221504D02*
Y188598D01*
X119894Y156697D02*
X209657D01*
X119894Y246461D02*
X209657D01*
Y156697D02*
Y246461D01*
X119894Y156697D02*
Y246461D01*
X269244Y14496D02*
X273181D01*
X271213Y12528D02*
Y16465D01*
X38654Y332953D02*
Y346732D01*
X55189Y332953D02*
Y346732D01*
X38654D02*
X55189D01*
X38654Y332953D02*
X55189D01*
X58862Y12715D02*
Y16652D01*
X56894Y14683D02*
X60831D01*
X298291Y77543D02*
Y130299D01*
X245535Y77543D02*
Y130299D01*
X298291D01*
X245535Y77543D02*
X298291D01*
X26934Y278181D02*
Y311646D01*
X55281Y278181D02*
Y311646D01*
X26934Y278181D02*
X55281D01*
X26934Y311646D02*
X55281D01*
M02*
