G04*
G04 #@! TF.GenerationSoftware,Altium Limited,Altium Designer,20.1.7 (139)*
G04*
G04 Layer_Physical_Order=1*
G04 Layer_Color=255*
%FSLAX25Y25*%
%MOIN*%
G70*
G04*
G04 #@! TF.SameCoordinates,F1024F09-50C5-4513-BE08-2A4FEE95A773*
G04*
G04*
G04 #@! TF.FilePolarity,Positive*
G04*
G01*
G75*
%ADD11C,0.00787*%
%ADD13C,0.01575*%
%ADD14C,0.02362*%
%ADD15C,0.01000*%
%ADD17R,0.03347X0.03543*%
%ADD18R,0.03150X0.03740*%
%ADD19C,0.01968*%
%ADD20R,0.01673X0.01968*%
%ADD21R,0.00984X0.01968*%
%ADD22R,0.03543X0.03740*%
%ADD23C,0.03937*%
%ADD24R,0.04724X0.05512*%
%ADD25R,0.03543X0.03150*%
%ADD26O,0.01772X0.05512*%
%ADD27R,0.03740X0.03543*%
%ADD28R,0.05807X0.01772*%
%ADD29R,0.01968X0.01673*%
%ADD30R,0.01968X0.00984*%
%ADD31R,0.02677X0.02677*%
%ADD32R,0.02677X0.02677*%
%ADD33R,0.02559X0.03740*%
%ADD34R,0.02284X0.02205*%
%ADD35R,0.04134X0.03937*%
%ADD36R,0.03937X0.04134*%
%ADD37O,0.00787X0.03740*%
%ADD38O,0.03740X0.00787*%
%ADD39O,0.06496X0.02362*%
%ADD40R,0.03740X0.03150*%
%ADD41R,0.03543X0.03347*%
%ADD42R,0.02165X0.02165*%
%ADD43R,0.02205X0.02284*%
%ADD44R,0.03740X0.04331*%
%ADD45O,0.00984X0.05512*%
%ADD46O,0.05512X0.00984*%
%ADD47R,0.01575X0.05315*%
%ADD48R,0.07087X0.07480*%
%ADD49R,0.07480X0.07480*%
%ADD50R,0.03937X0.02362*%
%ADD51R,0.03150X0.02756*%
%ADD52R,0.03937X0.03150*%
%ADD53R,0.04331X0.03740*%
%ADD54R,0.07480X0.04724*%
%ADD55R,0.09055X0.07480*%
%ADD56R,0.03740X0.03740*%
%ADD57O,0.07087X0.01181*%
%ADD58O,0.01181X0.07087*%
%ADD59R,0.03150X0.03543*%
%ADD60R,0.02953X0.03937*%
%ADD61R,0.12598X0.06890*%
%ADD62R,0.03543X0.06890*%
%ADD63R,0.03937X0.02953*%
%ADD119C,0.00709*%
%ADD120C,0.03150*%
%ADD121C,0.02756*%
%ADD122C,0.02500*%
%ADD123C,0.00591*%
%ADD124C,0.00965*%
%ADD125C,0.05394*%
%ADD126C,0.00866*%
%ADD127C,0.03937*%
%ADD128C,0.04724*%
%ADD129C,0.00441*%
%ADD130C,0.04921*%
%ADD131C,0.05906*%
%ADD132R,0.05906X0.05906*%
%ADD133C,0.06496*%
%ADD134R,0.05906X0.05906*%
%ADD135C,0.07400*%
%ADD136C,0.02756*%
%ADD137C,0.01181*%
%ADD138C,0.01575*%
%ADD139C,0.02362*%
G36*
X326244Y382599D02*
Y287724D01*
X321346Y282827D01*
X278634D01*
X271067Y290394D01*
Y353138D01*
X262614Y361591D01*
X97075D01*
X96596Y361112D01*
X79291D01*
X78516Y361010D01*
X77794Y360711D01*
X77174Y360235D01*
X69973Y353034D01*
X69498Y352414D01*
X69199Y351692D01*
X69096Y350917D01*
Y342454D01*
X68824Y342400D01*
X68493Y342179D01*
X67879Y341565D01*
X67336Y341729D01*
X67244Y342191D01*
Y343528D01*
X66244D01*
X65825Y343947D01*
X65081Y344444D01*
X64203Y344619D01*
X61575D01*
Y345421D01*
X58654D01*
X58443Y345898D01*
X58667Y346177D01*
X58982D01*
X59027Y346159D01*
X59699Y346070D01*
X64675D01*
X65347Y346159D01*
X65974Y346418D01*
X66512Y346831D01*
X66924Y347369D01*
X67184Y347995D01*
X67272Y348667D01*
X67184Y349340D01*
X66924Y349966D01*
X66512Y350504D01*
X65974Y350917D01*
X65347Y351176D01*
X64675Y351264D01*
X61575D01*
Y351524D01*
X59704D01*
X58104Y353124D01*
X57792Y353363D01*
X57566Y353536D01*
X57566Y353536D01*
X57566Y353536D01*
X57236Y353673D01*
X56940Y353796D01*
X56940Y353796D01*
X56940Y353796D01*
X56578Y353843D01*
X56268Y353884D01*
X55871D01*
X55571Y354260D01*
Y360197D01*
X50618D01*
Y357223D01*
X50574Y357002D01*
Y353598D01*
X49865D01*
Y357228D01*
X49690Y358106D01*
X49193Y358851D01*
X48894Y359150D01*
X48484Y359423D01*
Y360197D01*
X46508D01*
Y357228D01*
X45508D01*
Y360197D01*
X43531D01*
Y359822D01*
X41508D01*
X40630Y359647D01*
X39886Y359150D01*
X39388Y358405D01*
X39214Y357528D01*
X39388Y356650D01*
X39886Y355906D01*
X40630Y355408D01*
X41508Y355234D01*
X43531D01*
Y354260D01*
X45277D01*
Y353598D01*
X43776D01*
Y352798D01*
X41406D01*
X40528Y352624D01*
X39783Y352126D01*
X39286Y351382D01*
X39112Y350504D01*
X39286Y349626D01*
X39783Y348882D01*
X40528Y348385D01*
X41406Y348210D01*
X43776D01*
Y347858D01*
X46441D01*
Y350728D01*
X47441D01*
Y347858D01*
X52284D01*
X52476Y347396D01*
X50843Y345764D01*
X49366D01*
Y343487D01*
X48866Y343336D01*
X48709Y343571D01*
X47144Y345136D01*
X46400Y345633D01*
X45522Y345808D01*
X43810D01*
X43738Y345983D01*
X43199Y346685D01*
X42497Y347224D01*
X41679Y347563D01*
X40801Y347679D01*
X31801D01*
Y350472D01*
X31685Y351350D01*
X31346Y352168D01*
X31280Y352255D01*
Y353244D01*
X30320D01*
X30105Y353409D01*
X29287Y353748D01*
X28409Y353864D01*
X27532Y353748D01*
X27108Y353573D01*
X26825Y353996D01*
X31423Y358594D01*
X34055D01*
Y358819D01*
X35732D01*
X36697Y358945D01*
X37597Y359318D01*
X38369Y359911D01*
X53303Y374845D01*
X90397D01*
X90549Y374345D01*
X90542Y374340D01*
X90103Y373684D01*
X90049Y373410D01*
X93896D01*
X93842Y373684D01*
X93403Y374340D01*
X93396Y374345D01*
X93547Y374845D01*
X115014D01*
X115165Y374345D01*
X115164Y374344D01*
X114725Y373688D01*
X114671Y373413D01*
X118518D01*
X118464Y373688D01*
X118025Y374344D01*
X118024Y374345D01*
X118175Y374845D01*
X151962D01*
X152114Y374345D01*
X152113Y374344D01*
X151674Y373688D01*
X151620Y373413D01*
X155467D01*
X155412Y373688D01*
X154974Y374344D01*
X154973Y374345D01*
X155124Y374845D01*
X185218D01*
X185370Y374345D01*
X185369Y374344D01*
X184930Y373688D01*
X184876Y373413D01*
X188723D01*
X188668Y373688D01*
X188230Y374344D01*
X188228Y374345D01*
X188380Y374845D01*
X221734D01*
X221911Y374345D01*
X221548Y373802D01*
X221494Y373528D01*
X225341D01*
X225286Y373802D01*
X224924Y374345D01*
X225101Y374845D01*
X259735D01*
X259887Y374345D01*
X259384Y374009D01*
X258946Y373353D01*
X258891Y373079D01*
X262739D01*
X262684Y373353D01*
X262245Y374009D01*
X261743Y374345D01*
X261895Y374845D01*
X276294D01*
X288084Y362931D01*
X287997Y346146D01*
X287879Y323750D01*
X288001Y322785D01*
X288369Y321884D01*
X288958Y321108D01*
X290125Y319928D01*
X290894Y319332D01*
X291792Y318955D01*
X292756Y318823D01*
X293722Y318945D01*
X294623Y319312D01*
X294990Y319590D01*
X298122D01*
X298718Y319133D01*
X299618Y318760D01*
X300583Y318633D01*
X301995D01*
X305905Y314724D01*
X306677Y314131D01*
X307059Y313973D01*
Y312260D01*
X311618D01*
Y315297D01*
X311771Y315496D01*
X312143Y316395D01*
X312270Y317360D01*
X312143Y318325D01*
X311960Y318767D01*
X312238Y319183D01*
X313098D01*
Y322152D01*
X313598D01*
Y322652D01*
X316665D01*
Y325120D01*
X315537D01*
Y327388D01*
X315368Y328239D01*
X314885Y328960D01*
X314164Y329442D01*
X313313Y329612D01*
X312462Y329442D01*
X311740Y328960D01*
X311258Y328239D01*
X311089Y327388D01*
Y325120D01*
X306018D01*
X305404Y325591D01*
X304504Y325964D01*
X303539Y326091D01*
X300583D01*
X299618Y325964D01*
X298718Y325591D01*
X298122Y325134D01*
X295795D01*
X295347Y325588D01*
X295439Y343339D01*
X298668D01*
X298883Y343173D01*
X299701Y342835D01*
X300579Y342719D01*
X309303D01*
X310181Y342835D01*
X310999Y343173D01*
X313087D01*
Y342543D01*
X313257Y341692D01*
X313738Y340971D01*
X314460Y340489D01*
X315311Y340319D01*
X316162Y340489D01*
X316883Y340971D01*
X317366Y341692D01*
X317535Y342543D01*
Y343173D01*
X318307D01*
Y345642D01*
X315240D01*
Y346142D01*
X314740D01*
Y349110D01*
X313240D01*
X313095Y349610D01*
X313502Y350141D01*
X313802Y350863D01*
X313904Y351638D01*
X313802Y352413D01*
X313502Y353135D01*
X313327Y353364D01*
Y356327D01*
X308768D01*
Y353730D01*
X307434Y352397D01*
X306958Y351777D01*
X306659Y351055D01*
X306557Y350279D01*
Y349501D01*
X300579D01*
X299701Y349386D01*
X298883Y349047D01*
X298668Y348882D01*
X295823D01*
X295470Y349236D01*
X295532Y361075D01*
X295685Y361152D01*
X296033Y361207D01*
X296442Y360674D01*
X297062Y360198D01*
X297784Y359899D01*
X298559Y359797D01*
X299334Y359899D01*
X299946Y360153D01*
X305028D01*
Y359839D01*
X309587D01*
Y362945D01*
X309692Y363476D01*
Y367032D01*
X311741D01*
Y363263D01*
X311829Y362590D01*
X312089Y361964D01*
X312501Y361426D01*
X312508Y361421D01*
Y359839D01*
X314287D01*
Y362709D01*
X314787D01*
Y363209D01*
X317067D01*
Y365579D01*
X316935D01*
Y370028D01*
X316846Y370700D01*
X316587Y371326D01*
X316174Y371864D01*
X316012Y371989D01*
Y372969D01*
X315954D01*
Y374950D01*
X315866Y375622D01*
X315606Y376248D01*
X315194Y376786D01*
X314656Y377199D01*
X314030Y377458D01*
X313357Y377547D01*
X312685Y377458D01*
X312059Y377199D01*
X311521Y376786D01*
X311108Y376248D01*
X310849Y375622D01*
X310760Y374950D01*
Y372969D01*
X309223D01*
Y375091D01*
X309135Y375763D01*
X308875Y376389D01*
X308462Y376927D01*
X307925Y377340D01*
X307298Y377599D01*
X306626Y377688D01*
X305954Y377599D01*
X305328Y377340D01*
X304790Y376927D01*
X304377Y376389D01*
X304117Y375763D01*
X304029Y375091D01*
Y372969D01*
X303973D01*
Y367032D01*
X304843D01*
Y365347D01*
X300105D01*
X300056Y365384D01*
X299334Y365683D01*
X298559Y365786D01*
X297784Y365683D01*
X297062Y365384D01*
X296442Y364909D01*
X296049Y364397D01*
X295748Y364421D01*
X295658Y364453D01*
X295540Y364515D01*
X295428Y365403D01*
X295060Y366304D01*
X294471Y367079D01*
X280501Y381196D01*
X280493Y381203D01*
X280487Y381210D01*
X280110Y381500D01*
X279732Y381793D01*
X279723Y381797D01*
X279715Y381803D01*
X279274Y381985D01*
X278834Y382170D01*
X278824Y382172D01*
X278816Y382175D01*
X278341Y382238D01*
X277870Y382302D01*
X277860Y382301D01*
X277850Y382302D01*
X273137D01*
X273136Y382802D01*
X325890Y382952D01*
X326244Y382599D01*
D02*
G37*
G36*
X49721Y381670D02*
X49122Y381210D01*
X34513Y366601D01*
X34055Y366500D01*
Y366500D01*
X26150D01*
Y363868D01*
X16403Y354121D01*
X15810Y353349D01*
X15438Y352449D01*
X15370Y351938D01*
X15245Y351634D01*
X15118Y350669D01*
Y334331D01*
X15245Y333366D01*
X15617Y332466D01*
X16210Y331694D01*
X20671Y327234D01*
X21443Y326641D01*
X21610Y326571D01*
Y320910D01*
X27154D01*
Y321548D01*
X29088D01*
Y320795D01*
X29636D01*
Y319634D01*
X29186D01*
Y313894D01*
X29978D01*
Y311662D01*
X29281D01*
Y302772D01*
X34824D01*
Y311662D01*
X34426D01*
Y313894D01*
X37363D01*
Y316764D01*
X38363D01*
Y313894D01*
X41029D01*
Y314482D01*
X46640D01*
X47958Y313164D01*
Y311662D01*
X47391D01*
Y307717D01*
X52934D01*
Y311662D01*
X52546D01*
Y314114D01*
X52372Y314992D01*
X51874Y315736D01*
X49213Y318398D01*
X48469Y318895D01*
X47591Y319070D01*
X41029D01*
Y319634D01*
X40157D01*
Y320795D01*
X41127D01*
Y321359D01*
X43283D01*
X44161Y321534D01*
X44906Y322031D01*
X45403Y322776D01*
X45577Y323654D01*
X45403Y324532D01*
X44906Y325276D01*
X44161Y325773D01*
X43283Y325948D01*
X41127D01*
Y326732D01*
X39151D01*
Y323764D01*
X38151D01*
Y326732D01*
X36174D01*
Y324499D01*
X35744Y323854D01*
X35569Y322976D01*
Y319634D01*
X34083D01*
Y323468D01*
X34083Y323469D01*
X34041Y323683D01*
Y326732D01*
X29088D01*
Y325995D01*
X27154D01*
Y332358D01*
X26058D01*
X25944Y332507D01*
X23718Y334733D01*
X23964Y335193D01*
X24039Y335178D01*
X25449D01*
Y334724D01*
X27917D01*
Y337201D01*
X28917D01*
Y334724D01*
X31386D01*
Y335178D01*
X32043D01*
Y335063D01*
X34413D01*
Y338229D01*
X35413D01*
Y335063D01*
X37784D01*
Y337245D01*
X38539D01*
Y333921D01*
X40941D01*
X41504Y333808D01*
X41853Y333877D01*
X45096D01*
X45974Y334052D01*
X46719Y334549D01*
X48709Y336539D01*
X48866Y336775D01*
X49366Y336623D01*
Y333921D01*
X51768D01*
X52331Y333808D01*
X52680Y333877D01*
X57939D01*
X57939Y333877D01*
X57939Y333877D01*
X58369Y333963D01*
X58817Y334052D01*
X58817Y334052D01*
X58817Y334052D01*
X59174Y334290D01*
X59228Y334327D01*
X61638D01*
Y339476D01*
X61129D01*
Y340031D01*
X62961D01*
Y338411D01*
X62808Y337646D01*
Y334283D01*
X62983Y333405D01*
X63480Y332661D01*
X63516Y332626D01*
X64260Y332129D01*
X65138Y331954D01*
X65464Y331683D01*
X65260Y311856D01*
X52958Y299553D01*
X52497Y299799D01*
X52546Y300047D01*
Y302772D01*
X52934D01*
Y306717D01*
X47391D01*
Y302772D01*
X47958D01*
Y300047D01*
X48133Y299169D01*
X48417Y298744D01*
X48149Y298244D01*
X28126D01*
X27736Y298166D01*
X27405Y297945D01*
X22531Y293071D01*
X22310Y292741D01*
X22232Y292350D01*
Y274268D01*
X22310Y273878D01*
X22531Y273547D01*
X40283Y255795D01*
X40614Y255574D01*
X41004Y255496D01*
X48441D01*
X48831Y255574D01*
X49162Y255795D01*
X50894Y257527D01*
X51115Y257858D01*
X51193Y258248D01*
X51115Y258638D01*
X51208Y258862D01*
X51759Y259003D01*
X51762Y259000D01*
X52507Y258503D01*
X53385Y258328D01*
X54263Y258503D01*
X55007Y259000D01*
X55504Y259744D01*
X55679Y260622D01*
X55504Y261500D01*
X55007Y262244D01*
X54793Y262458D01*
Y263647D01*
X55806D01*
Y266116D01*
X53329D01*
Y267116D01*
X55806D01*
Y269584D01*
X54793D01*
Y271246D01*
X55664D01*
Y273616D01*
X52499D01*
Y274116D01*
X51999D01*
Y276986D01*
X51928D01*
X51736Y277448D01*
X52989Y278701D01*
X56936D01*
X73649Y261988D01*
X73681Y261662D01*
X65480Y253461D01*
X14752D01*
X11193Y257020D01*
X11193Y361858D01*
X31453Y382118D01*
X49550Y382169D01*
X49721Y381670D01*
D02*
G37*
G36*
X76919Y344106D02*
X77154Y343665D01*
X77001Y343436D01*
X76817Y342512D01*
X77001Y341588D01*
X77525Y340804D01*
X78308Y340281D01*
X79232Y340097D01*
X80156Y340281D01*
X80940Y340804D01*
X81463Y341588D01*
X81647Y342512D01*
X81463Y343436D01*
X81310Y343665D01*
X81546Y344106D01*
X82665D01*
X86756Y340016D01*
X86756Y275095D01*
X74370Y262709D01*
X57358Y279720D01*
X52732D01*
X52650Y279803D01*
X50091Y277244D01*
Y276986D01*
X48151D01*
Y278165D01*
X48407D01*
Y278753D01*
X48921Y278820D01*
X49643Y279120D01*
X50263Y279595D01*
X50739Y280216D01*
X51038Y280938D01*
X51074Y281213D01*
X48146D01*
Y282213D01*
X51074D01*
X51038Y282488D01*
X50739Y283210D01*
X50263Y283830D01*
X49643Y284306D01*
X49154Y284508D01*
X49005Y285067D01*
X73798Y309859D01*
X74322Y310643D01*
X74506Y311567D01*
Y344106D01*
X76919Y344106D01*
D02*
G37*
G36*
X69676Y341266D02*
Y312567D01*
X44762Y287653D01*
X44362Y287055D01*
X41607D01*
Y282610D01*
Y278165D01*
X44787D01*
Y276986D01*
X43822D01*
Y274616D01*
X46987D01*
Y273616D01*
X43822D01*
Y271246D01*
X44787D01*
Y269584D01*
X43766D01*
Y267116D01*
X46243D01*
X48719D01*
Y269584D01*
X48151D01*
Y271246D01*
X50091D01*
Y258331D01*
X50173Y258248D01*
X48441Y256516D01*
X41004D01*
X23252Y274268D01*
Y292350D01*
X28126Y297224D01*
X52071D01*
X66276Y311429D01*
X66500Y333317D01*
X66692Y333604D01*
X66820Y334248D01*
X66785Y334426D01*
Y337646D01*
X66657Y338289D01*
X66644Y338308D01*
Y338888D01*
X69214Y341458D01*
X69676Y341266D01*
D02*
G37*
G36*
X252696Y225379D02*
X252571Y225137D01*
X252401Y224967D01*
X252201Y225006D01*
Y223583D01*
X253624D01*
X253585Y223783D01*
X253756Y223953D01*
X253997Y224078D01*
X255917Y222158D01*
Y201431D01*
X253304Y198817D01*
X244109D01*
X244059Y199317D01*
X244657Y199436D01*
X245378Y199918D01*
X245860Y200639D01*
X246030Y201490D01*
X245860Y202341D01*
X245378Y203063D01*
X244657Y203545D01*
X243806Y203714D01*
X241827D01*
Y205192D01*
X243839D01*
X244511Y205281D01*
X245137Y205540D01*
X245675Y205953D01*
X246088Y206491D01*
X246347Y207117D01*
X246436Y207789D01*
X246347Y208461D01*
X246088Y209088D01*
X245675Y209626D01*
X245137Y210038D01*
X244511Y210298D01*
X243839Y210386D01*
X232362D01*
X231690Y210298D01*
X231622Y210270D01*
X231378D01*
Y207892D01*
Y205410D01*
X231690Y205281D01*
X232362Y205192D01*
X236087D01*
Y203619D01*
X233453D01*
Y203773D01*
X223382D01*
Y202257D01*
X222882Y202039D01*
X222388Y202369D01*
X222114Y202424D01*
Y200500D01*
X221614D01*
Y200000D01*
X219690D01*
X219695Y199976D01*
X219470Y199812D01*
X219235Y199728D01*
X218684Y200096D01*
X218795Y200654D01*
X218641Y201428D01*
X218202Y202084D01*
X217546Y202523D01*
X216772Y202677D01*
X215997Y202523D01*
X215341Y202084D01*
X215235Y201926D01*
X214736D01*
X214714Y201958D01*
X214334Y202212D01*
X214333Y202813D01*
X214482Y202912D01*
X214920Y203568D01*
X215074Y204343D01*
X215014Y204648D01*
X215331Y205035D01*
X223933D01*
X224492Y205146D01*
X224966Y205463D01*
X225017Y205514D01*
X230378D01*
Y207892D01*
Y210270D01*
X224204D01*
X224102Y210394D01*
X223948Y211168D01*
X223509Y211824D01*
X222853Y212263D01*
X222579Y212317D01*
Y210394D01*
X222079D01*
Y209894D01*
X220155D01*
X220210Y209619D01*
X220648Y208963D01*
X221304Y208525D01*
X221643Y208457D01*
X221594Y207957D01*
X212429D01*
X212238Y208419D01*
X213539Y209720D01*
X231220Y226102D01*
X251972D01*
X252696Y225379D01*
D02*
G37*
G36*
X50543Y234587D02*
Y213236D01*
X46512Y209205D01*
X21358D01*
X17779Y212784D01*
Y233846D01*
X21669Y237736D01*
X47394D01*
X50543Y234587D01*
D02*
G37*
G36*
X317482Y195000D02*
Y173650D01*
X313450Y169618D01*
X295746Y169618D01*
X291915Y173449D01*
X291915Y194496D01*
X295568Y198150D01*
X314332Y198150D01*
X317482Y195000D01*
D02*
G37*
G36*
X51220Y82076D02*
X50593Y81449D01*
X37061D01*
X36476Y81332D01*
X35980Y81001D01*
X34758Y79779D01*
X32224D01*
Y78811D01*
X30380D01*
Y80703D01*
X24443D01*
Y74569D01*
Y72230D01*
X27411D01*
X30380D01*
Y74569D01*
Y75752D01*
X32224D01*
Y72268D01*
X41780D01*
Y76024D01*
X42779D01*
Y72268D01*
X44780D01*
Y71118D01*
X36087D01*
Y67362D01*
Y63606D01*
X41366D01*
Y60307D01*
X38469D01*
Y57339D01*
Y54370D01*
X46941D01*
Y60307D01*
X44425D01*
Y63606D01*
X45642D01*
Y67219D01*
X46075Y67306D01*
X46572Y67637D01*
X47390Y68456D01*
X47722Y68952D01*
X47838Y69537D01*
Y71766D01*
X48985Y72913D01*
X49447Y72721D01*
Y54537D01*
X45947Y51037D01*
X30872D01*
X21947Y59963D01*
Y81037D01*
X23447Y82537D01*
X51028D01*
X51220Y82076D01*
D02*
G37*
G36*
X252917Y70857D02*
Y67693D01*
X258854D01*
Y70680D01*
X259869Y71694D01*
X260331Y71503D01*
X260331Y45889D01*
X255908Y41461D01*
X245595D01*
X240953Y46102D01*
Y59966D01*
X241044Y60066D01*
X241453Y60308D01*
X242146Y60170D01*
X242681D01*
Y59425D01*
X243815D01*
Y56000D01*
X243815Y56000D01*
X243985Y55149D01*
X244467Y54427D01*
X245055Y53839D01*
Y50949D01*
X245426D01*
Y48785D01*
X245221Y48479D01*
X245067Y47705D01*
X245221Y46931D01*
X245660Y46274D01*
X246316Y45836D01*
X247091Y45682D01*
X247865Y45836D01*
X248521Y46274D01*
X248960Y46931D01*
X249114Y47705D01*
X249071Y47922D01*
Y50949D01*
X251973D01*
Y47736D01*
X252142Y46885D01*
X252624Y46164D01*
X253346Y45682D01*
X254197Y45512D01*
X255048Y45682D01*
X255089Y45709D01*
X255152Y45721D01*
X255808Y46160D01*
X256247Y46816D01*
X256302Y47091D01*
X254378D01*
Y48091D01*
X256421D01*
Y50949D01*
X256897D01*
Y53319D01*
X253732D01*
Y54319D01*
X257377D01*
X257458Y54400D01*
X257458Y54400D01*
X257940Y55121D01*
X258110Y55972D01*
X258110Y55973D01*
Y59425D01*
X258854D01*
Y61500D01*
X252917D01*
Y59425D01*
X253662D01*
Y56894D01*
X253457Y56689D01*
X248495D01*
X248263Y56921D01*
Y59425D01*
X248618D01*
Y64575D01*
X245471D01*
X245256Y64618D01*
X245256Y64618D01*
X243067D01*
X242535Y65149D01*
Y67146D01*
X243082Y67693D01*
X248618D01*
Y72423D01*
X251351D01*
X252917Y70857D01*
D02*
G37*
%LPC*%
G36*
X64197Y373369D02*
Y371945D01*
X65621D01*
X65566Y372219D01*
X65127Y372875D01*
X64471Y373314D01*
X64197Y373369D01*
D02*
G37*
G36*
X63197D02*
X62923Y373314D01*
X62266Y372875D01*
X61828Y372219D01*
X61773Y371945D01*
X63197D01*
Y373369D01*
D02*
G37*
G36*
X70083Y373365D02*
Y371941D01*
X71506D01*
X71452Y372215D01*
X71013Y372871D01*
X70357Y373310D01*
X70083Y373365D01*
D02*
G37*
G36*
X69083D02*
X68809Y373310D01*
X68152Y372871D01*
X67714Y372215D01*
X67659Y371941D01*
X69083D01*
Y373365D01*
D02*
G37*
G36*
X225341Y372528D02*
X223917D01*
Y371104D01*
X224191Y371158D01*
X224848Y371597D01*
X225286Y372253D01*
X225341Y372528D01*
D02*
G37*
G36*
X222917D02*
X221494D01*
X221548Y372253D01*
X221987Y371597D01*
X222643Y371158D01*
X222917Y371104D01*
Y372528D01*
D02*
G37*
G36*
X188723Y372413D02*
X187299D01*
Y370990D01*
X187573Y371044D01*
X188230Y371483D01*
X188668Y372139D01*
X188723Y372413D01*
D02*
G37*
G36*
X186299D02*
X184876D01*
X184930Y372139D01*
X185369Y371483D01*
X186025Y371044D01*
X186299Y370990D01*
Y372413D01*
D02*
G37*
G36*
X155467D02*
X154043D01*
Y370990D01*
X154317Y371044D01*
X154974Y371483D01*
X155412Y372139D01*
X155467Y372413D01*
D02*
G37*
G36*
X153043D02*
X151620D01*
X151674Y372139D01*
X152113Y371483D01*
X152769Y371044D01*
X153043Y370990D01*
Y372413D01*
D02*
G37*
G36*
X118518D02*
X117095D01*
Y370990D01*
X117369Y371044D01*
X118025Y371483D01*
X118464Y372139D01*
X118518Y372413D01*
D02*
G37*
G36*
X116095D02*
X114671D01*
X114725Y372139D01*
X115164Y371483D01*
X115820Y371044D01*
X116095Y370990D01*
Y372413D01*
D02*
G37*
G36*
X93896Y372410D02*
X92472D01*
Y370986D01*
X92747Y371040D01*
X93403Y371479D01*
X93842Y372135D01*
X93896Y372410D01*
D02*
G37*
G36*
X91472D02*
X90049D01*
X90103Y372135D01*
X90542Y371479D01*
X91198Y371040D01*
X91472Y370986D01*
Y372410D01*
D02*
G37*
G36*
X262739Y372079D02*
X261315D01*
Y370655D01*
X261589Y370710D01*
X262245Y371148D01*
X262684Y371804D01*
X262739Y372079D01*
D02*
G37*
G36*
X260315D02*
X258891D01*
X258946Y371804D01*
X259384Y371148D01*
X260041Y370710D01*
X260315Y370655D01*
Y372079D01*
D02*
G37*
G36*
X65621Y370945D02*
X64197D01*
Y369521D01*
X64471Y369576D01*
X65127Y370014D01*
X65566Y370671D01*
X65621Y370945D01*
D02*
G37*
G36*
X63197D02*
X61773D01*
X61828Y370671D01*
X62266Y370014D01*
X62923Y369576D01*
X63197Y369521D01*
Y370945D01*
D02*
G37*
G36*
X71506Y370941D02*
X70083D01*
Y369517D01*
X70357Y369572D01*
X71013Y370010D01*
X71452Y370667D01*
X71506Y370941D01*
D02*
G37*
G36*
X69083D02*
X67659D01*
X67714Y370667D01*
X68152Y370010D01*
X68809Y369572D01*
X69083Y369517D01*
Y370941D01*
D02*
G37*
G36*
X69878Y367640D02*
Y366216D01*
X71302D01*
X71247Y366491D01*
X70809Y367147D01*
X70152Y367586D01*
X69878Y367640D01*
D02*
G37*
G36*
X68878D02*
X68604Y367586D01*
X67947Y367147D01*
X67509Y366491D01*
X67454Y366216D01*
X68878D01*
Y367640D01*
D02*
G37*
G36*
X71302Y365216D02*
X69878D01*
Y363793D01*
X70152Y363847D01*
X70809Y364286D01*
X71247Y364942D01*
X71302Y365216D01*
D02*
G37*
G36*
X68878D02*
X67454D01*
X67509Y364942D01*
X67947Y364286D01*
X68604Y363847D01*
X68878Y363793D01*
Y365216D01*
D02*
G37*
G36*
X278364Y361410D02*
Y359986D01*
X279788D01*
X279733Y360260D01*
X279295Y360917D01*
X278638Y361355D01*
X278364Y361410D01*
D02*
G37*
G36*
X277364D02*
X277090Y361355D01*
X276434Y360917D01*
X275995Y360260D01*
X275940Y359986D01*
X277364D01*
Y361410D01*
D02*
G37*
G36*
X317067Y362209D02*
X315287D01*
Y359839D01*
X317067D01*
Y362209D01*
D02*
G37*
G36*
X279788Y358986D02*
X278364D01*
Y357563D01*
X278638Y357617D01*
X279295Y358056D01*
X279733Y358712D01*
X279788Y358986D01*
D02*
G37*
G36*
X277364D02*
X275940D01*
X275995Y358712D01*
X276434Y358056D01*
X277090Y357617D01*
X277364Y357563D01*
Y358986D01*
D02*
G37*
G36*
X318307Y349110D02*
X315740D01*
Y346642D01*
X318307D01*
Y349110D01*
D02*
G37*
G36*
X278470Y343059D02*
Y341636D01*
X279894D01*
X279840Y341910D01*
X279401Y342566D01*
X278745Y343005D01*
X278470Y343059D01*
D02*
G37*
G36*
X277470D02*
X277196Y343005D01*
X276540Y342566D01*
X276101Y341910D01*
X276047Y341636D01*
X277470D01*
Y343059D01*
D02*
G37*
G36*
X279894Y340636D02*
X278470D01*
Y339212D01*
X278745Y339267D01*
X279401Y339705D01*
X279840Y340362D01*
X279894Y340636D01*
D02*
G37*
G36*
X277470D02*
X276047D01*
X276101Y340362D01*
X276540Y339705D01*
X277196Y339267D01*
X277470Y339212D01*
Y340636D01*
D02*
G37*
G36*
X278470Y324284D02*
Y322860D01*
X279894D01*
X279840Y323134D01*
X279401Y323791D01*
X278745Y324229D01*
X278470Y324284D01*
D02*
G37*
G36*
X277470D02*
X277196Y324229D01*
X276540Y323791D01*
X276101Y323134D01*
X276047Y322860D01*
X277470D01*
Y324284D01*
D02*
G37*
G36*
X279894Y321860D02*
X278470D01*
Y320437D01*
X278745Y320491D01*
X279401Y320930D01*
X279840Y321586D01*
X279894Y321860D01*
D02*
G37*
G36*
X277470D02*
X276047D01*
X276101Y321586D01*
X276540Y320930D01*
X277196Y320491D01*
X277470Y320437D01*
Y321860D01*
D02*
G37*
G36*
X316665Y321652D02*
X314098D01*
Y319183D01*
X316665D01*
Y321652D01*
D02*
G37*
G36*
X305098Y308748D02*
X303319D01*
Y306378D01*
X305098D01*
Y308748D01*
D02*
G37*
G36*
X278470Y307418D02*
Y305994D01*
X279894D01*
X279840Y306268D01*
X279401Y306925D01*
X278745Y307363D01*
X278470Y307418D01*
D02*
G37*
G36*
X277470D02*
X277196Y307363D01*
X276540Y306925D01*
X276101Y306268D01*
X276047Y305994D01*
X277470D01*
Y307418D01*
D02*
G37*
G36*
X279894Y304994D02*
X278470D01*
Y303570D01*
X278745Y303625D01*
X279401Y304064D01*
X279840Y304720D01*
X279894Y304994D01*
D02*
G37*
G36*
X277470D02*
X276047D01*
X276101Y304720D01*
X276540Y304064D01*
X277196Y303625D01*
X277470Y303570D01*
Y304994D01*
D02*
G37*
G36*
X315358Y308748D02*
X310799D01*
Y306801D01*
X310543Y306182D01*
X310454Y305510D01*
Y301331D01*
X308519D01*
Y305360D01*
X308431Y306032D01*
X308171Y306658D01*
X307878Y307040D01*
Y308748D01*
X306098D01*
Y305878D01*
X305598D01*
Y305378D01*
X303319D01*
Y303008D01*
X303325D01*
Y298862D01*
X306409D01*
Y297862D01*
X303343D01*
Y295394D01*
X303609D01*
Y293968D01*
X303109Y293761D01*
X299605Y297265D01*
X299801Y297741D01*
X299904Y298516D01*
X299801Y299291D01*
X299502Y300013D01*
X299027Y300633D01*
X298407Y301109D01*
X297684Y301408D01*
X296909Y301510D01*
X296134Y301408D01*
X295412Y301109D01*
X294792Y300633D01*
X294317Y300013D01*
X294017Y299291D01*
X293915Y298516D01*
X294017Y297741D01*
X294312Y297028D01*
Y296287D01*
X294401Y295615D01*
X294660Y294989D01*
X295073Y294451D01*
X301546Y287979D01*
X302083Y287566D01*
X302710Y287306D01*
X303382Y287218D01*
X310059D01*
X310731Y287306D01*
X311357Y287566D01*
X311895Y287979D01*
X315632Y291715D01*
X316044Y292253D01*
X316304Y292879D01*
X316392Y293551D01*
X316304Y294223D01*
X316044Y294850D01*
X315632Y295388D01*
X315382Y295579D01*
Y297139D01*
X315560Y297568D01*
X315648Y298240D01*
Y305510D01*
X315560Y306182D01*
X315358Y306668D01*
Y308748D01*
D02*
G37*
G36*
X278429Y293081D02*
Y291657D01*
X279853D01*
X279798Y291932D01*
X279360Y292588D01*
X278703Y293027D01*
X278429Y293081D01*
D02*
G37*
G36*
X277429D02*
X277155Y293027D01*
X276499Y292588D01*
X276060Y291932D01*
X276006Y291657D01*
X277429D01*
Y293081D01*
D02*
G37*
G36*
X297455Y290870D02*
Y289447D01*
X298878D01*
X298824Y289721D01*
X298385Y290377D01*
X297729Y290816D01*
X297455Y290870D01*
D02*
G37*
G36*
X296455D02*
X296181Y290816D01*
X295524Y290377D01*
X295086Y289721D01*
X295031Y289447D01*
X296455D01*
Y290870D01*
D02*
G37*
G36*
X279853Y290657D02*
X278429D01*
Y289234D01*
X278703Y289288D01*
X279360Y289727D01*
X279798Y290383D01*
X279853Y290657D01*
D02*
G37*
G36*
X277429D02*
X276006D01*
X276060Y290383D01*
X276499Y289727D01*
X277155Y289288D01*
X277429Y289234D01*
Y290657D01*
D02*
G37*
G36*
X298878Y288447D02*
X297455D01*
Y287023D01*
X297729Y287078D01*
X298385Y287516D01*
X298824Y288173D01*
X298878Y288447D01*
D02*
G37*
G36*
X296455D02*
X295031D01*
X295086Y288173D01*
X295524Y287516D01*
X296181Y287078D01*
X296455Y287023D01*
Y288447D01*
D02*
G37*
G36*
X30602Y376468D02*
Y373047D01*
X34023D01*
X33953Y373579D01*
X33555Y374541D01*
X32921Y375366D01*
X32096Y376000D01*
X31134Y376398D01*
X30602Y376468D01*
D02*
G37*
G36*
X29602D02*
X29070Y376398D01*
X28109Y376000D01*
X27283Y375366D01*
X26650Y374541D01*
X26251Y373579D01*
X26181Y373047D01*
X29602D01*
Y376468D01*
D02*
G37*
G36*
X34023Y372047D02*
X30602D01*
Y368626D01*
X31134Y368696D01*
X32096Y369094D01*
X32921Y369728D01*
X33555Y370554D01*
X33953Y371515D01*
X34023Y372047D01*
D02*
G37*
G36*
X29602D02*
X26181D01*
X26251Y371515D01*
X26650Y370554D01*
X27283Y369728D01*
X28109Y369094D01*
X29070Y368696D01*
X29602Y368626D01*
Y372047D01*
D02*
G37*
G36*
X61638Y333177D02*
X59366D01*
Y331102D01*
X61638D01*
Y333177D01*
D02*
G37*
G36*
X58366D02*
X56095D01*
Y331102D01*
X58366D01*
Y333177D01*
D02*
G37*
G36*
X61638Y330102D02*
X58866D01*
X56095D01*
Y328028D01*
X56572D01*
Y326976D01*
X56747Y326098D01*
X57244Y325354D01*
X57988Y324857D01*
X58866Y324682D01*
X59744Y324857D01*
X60488Y325354D01*
X60986Y326098D01*
X61160Y326976D01*
Y328028D01*
X61638D01*
Y330102D01*
D02*
G37*
G36*
X20779Y317652D02*
Y316228D01*
X22203D01*
X22149Y316503D01*
X21710Y317159D01*
X21054Y317598D01*
X20779Y317652D01*
D02*
G37*
G36*
X19780D02*
X19505Y317598D01*
X18849Y317159D01*
X18410Y316503D01*
X18356Y316228D01*
X19780D01*
Y317652D01*
D02*
G37*
G36*
X22203Y315228D02*
X20779D01*
Y313805D01*
X21054Y313859D01*
X21710Y314298D01*
X22149Y314954D01*
X22203Y315228D01*
D02*
G37*
G36*
X19780D02*
X18356D01*
X18410Y314954D01*
X18849Y314298D01*
X19505Y313859D01*
X19780Y313805D01*
Y315228D01*
D02*
G37*
G36*
X20622Y304416D02*
Y302992D01*
X22046D01*
X21991Y303266D01*
X21553Y303923D01*
X20896Y304361D01*
X20622Y304416D01*
D02*
G37*
G36*
X19622D02*
X19348Y304361D01*
X18691Y303923D01*
X18253Y303266D01*
X18198Y302992D01*
X19622D01*
Y304416D01*
D02*
G37*
G36*
X43879Y311662D02*
X38336D01*
Y302772D01*
X43879D01*
Y311662D01*
D02*
G37*
G36*
X22046Y301992D02*
X20622D01*
Y300569D01*
X20896Y300623D01*
X21553Y301062D01*
X21991Y301718D01*
X22046Y301992D01*
D02*
G37*
G36*
X19622D02*
X18198D01*
X18253Y301718D01*
X18691Y301062D01*
X19348Y300623D01*
X19622Y300569D01*
Y301992D01*
D02*
G37*
G36*
X55664Y276986D02*
X52999D01*
Y274616D01*
X55664D01*
Y276986D01*
D02*
G37*
G36*
X20252Y269491D02*
Y268067D01*
X21676D01*
X21621Y268341D01*
X21182Y268998D01*
X20526Y269436D01*
X20252Y269491D01*
D02*
G37*
G36*
X19252D02*
X18978Y269436D01*
X18321Y268998D01*
X17883Y268341D01*
X17828Y268067D01*
X19252D01*
Y269491D01*
D02*
G37*
G36*
X21676Y267067D02*
X20252D01*
Y265643D01*
X20526Y265698D01*
X21182Y266136D01*
X21621Y266793D01*
X21676Y267067D01*
D02*
G37*
G36*
X19252D02*
X17828D01*
X17883Y266793D01*
X18321Y266136D01*
X18978Y265698D01*
X19252Y265643D01*
Y267067D01*
D02*
G37*
G36*
X64102Y262534D02*
Y261110D01*
X65526D01*
X65472Y261385D01*
X65033Y262041D01*
X64377Y262479D01*
X64102Y262534D01*
D02*
G37*
G36*
X63102D02*
X62828Y262479D01*
X62172Y262041D01*
X61733Y261385D01*
X61679Y261110D01*
X63102D01*
Y262534D01*
D02*
G37*
G36*
X26984Y262026D02*
Y260602D01*
X28408D01*
X28353Y260877D01*
X27915Y261533D01*
X27259Y261971D01*
X26984Y262026D01*
D02*
G37*
G36*
X25984D02*
X25710Y261971D01*
X25054Y261533D01*
X24615Y260877D01*
X24561Y260602D01*
X25984D01*
Y262026D01*
D02*
G37*
G36*
X20102D02*
Y260602D01*
X21526D01*
X21472Y260877D01*
X21033Y261533D01*
X20377Y261971D01*
X20102Y262026D01*
D02*
G37*
G36*
X19102D02*
X18828Y261971D01*
X18172Y261533D01*
X17733Y260877D01*
X17679Y260602D01*
X19102D01*
Y262026D01*
D02*
G37*
G36*
X65526Y260110D02*
X64102D01*
Y258687D01*
X64377Y258741D01*
X65033Y259180D01*
X65472Y259836D01*
X65526Y260110D01*
D02*
G37*
G36*
X63102D02*
X61679D01*
X61733Y259836D01*
X62172Y259180D01*
X62828Y258741D01*
X63102Y258687D01*
Y260110D01*
D02*
G37*
G36*
X28408Y259602D02*
X26984D01*
Y258179D01*
X27259Y258233D01*
X27915Y258672D01*
X28353Y259328D01*
X28408Y259602D01*
D02*
G37*
G36*
X25984D02*
X24561D01*
X24615Y259328D01*
X25054Y258672D01*
X25710Y258233D01*
X25984Y258179D01*
Y259602D01*
D02*
G37*
G36*
X21526D02*
X20102D01*
Y258179D01*
X20377Y258233D01*
X21033Y258672D01*
X21472Y259328D01*
X21526Y259602D01*
D02*
G37*
G36*
X19102D02*
X17679D01*
X17733Y259328D01*
X18172Y258672D01*
X18828Y258233D01*
X19102Y258179D01*
Y259602D01*
D02*
G37*
G36*
X40607Y287055D02*
X33808D01*
Y283110D01*
X40607D01*
Y287055D01*
D02*
G37*
G36*
Y282110D02*
X33808D01*
Y278165D01*
X40607D01*
Y282110D01*
D02*
G37*
G36*
X48719Y266116D02*
X46243D01*
X43766D01*
Y263647D01*
X44604D01*
Y262775D01*
X44214Y262475D01*
X43738Y261855D01*
X43439Y261133D01*
X43402Y260858D01*
X46331D01*
X49259D01*
X49223Y261133D01*
X48924Y261855D01*
X48448Y262475D01*
X47969Y262843D01*
Y263647D01*
X48719D01*
Y266116D01*
D02*
G37*
G36*
X49259Y259858D02*
X46831D01*
Y257430D01*
X47106Y257466D01*
X47828Y257765D01*
X48448Y258241D01*
X48924Y258861D01*
X49223Y259583D01*
X49259Y259858D01*
D02*
G37*
G36*
X45831D02*
X43402D01*
X43439Y259583D01*
X43738Y258861D01*
X44214Y258241D01*
X44834Y257765D01*
X45556Y257466D01*
X45831Y257430D01*
Y259858D01*
D02*
G37*
G36*
X234807Y225120D02*
Y223697D01*
X236231D01*
X236176Y223971D01*
X235738Y224627D01*
X235081Y225066D01*
X234807Y225120D01*
D02*
G37*
G36*
X233807D02*
X233533Y225066D01*
X232876Y224627D01*
X232438Y223971D01*
X232383Y223697D01*
X233807D01*
Y225120D01*
D02*
G37*
G36*
X251201Y225006D02*
X250927Y224952D01*
X250270Y224513D01*
X249832Y223857D01*
X249777Y223583D01*
X251201D01*
Y225006D01*
D02*
G37*
G36*
X236231Y222697D02*
X234807D01*
Y221273D01*
X235081Y221328D01*
X235738Y221766D01*
X236176Y222423D01*
X236231Y222697D01*
D02*
G37*
G36*
X233807D02*
X232383D01*
X232438Y222423D01*
X232876Y221766D01*
X233533Y221328D01*
X233807Y221273D01*
Y222697D01*
D02*
G37*
G36*
X253624Y222583D02*
X252201D01*
Y221159D01*
X252475Y221214D01*
X253131Y221652D01*
X253570Y222308D01*
X253624Y222583D01*
D02*
G37*
G36*
X251201D02*
X249777D01*
X249832Y222308D01*
X250270Y221652D01*
X250927Y221214D01*
X251201Y221159D01*
Y222583D01*
D02*
G37*
G36*
X238657Y216783D02*
X237883Y216629D01*
X237227Y216190D01*
X236788Y215534D01*
X236634Y214760D01*
X236788Y213986D01*
X237227Y213329D01*
X237883Y212891D01*
X238657Y212737D01*
X239432Y212891D01*
X240088Y213329D01*
X240527Y213986D01*
X240681Y214760D01*
X240527Y215534D01*
X240088Y216190D01*
X239432Y216629D01*
X238657Y216783D01*
D02*
G37*
G36*
X221579Y212317D02*
X221304Y212263D01*
X220648Y211824D01*
X220210Y211168D01*
X220155Y210894D01*
X221579D01*
Y212317D01*
D02*
G37*
G36*
X250980Y203597D02*
Y202173D01*
X252404D01*
X252349Y202447D01*
X251911Y203104D01*
X251255Y203542D01*
X250980Y203597D01*
D02*
G37*
G36*
X249980D02*
X249706Y203542D01*
X249050Y203104D01*
X248611Y202447D01*
X248557Y202173D01*
X249980D01*
Y203597D01*
D02*
G37*
G36*
X221114Y202424D02*
X220840Y202369D01*
X220184Y201931D01*
X219745Y201274D01*
X219690Y201000D01*
X221114D01*
Y202424D01*
D02*
G37*
G36*
X252404Y201173D02*
X250980D01*
Y199750D01*
X251255Y199804D01*
X251911Y200243D01*
X252349Y200899D01*
X252404Y201173D01*
D02*
G37*
G36*
X249980D02*
X248557D01*
X248611Y200899D01*
X249050Y200243D01*
X249706Y199804D01*
X249980Y199750D01*
Y201173D01*
D02*
G37*
G36*
X40075Y232468D02*
Y229047D01*
X43496D01*
X43426Y229579D01*
X43027Y230541D01*
X42394Y231366D01*
X41568Y232000D01*
X40607Y232398D01*
X40075Y232468D01*
D02*
G37*
G36*
X39075D02*
X38543Y232398D01*
X37581Y232000D01*
X36756Y231366D01*
X36122Y230541D01*
X35724Y229579D01*
X35654Y229047D01*
X39075D01*
Y232468D01*
D02*
G37*
G36*
X30075D02*
Y229047D01*
X33496D01*
X33426Y229579D01*
X33027Y230541D01*
X32394Y231366D01*
X31568Y232000D01*
X30607Y232398D01*
X30075Y232468D01*
D02*
G37*
G36*
X29075D02*
X28543Y232398D01*
X27581Y232000D01*
X26756Y231366D01*
X26122Y230541D01*
X25724Y229579D01*
X25654Y229047D01*
X29075D01*
Y232468D01*
D02*
G37*
G36*
X43496Y228047D02*
X40075D01*
Y224626D01*
X40607Y224696D01*
X41568Y225095D01*
X42394Y225728D01*
X43027Y226554D01*
X43426Y227515D01*
X43496Y228047D01*
D02*
G37*
G36*
X39075D02*
X35654D01*
X35724Y227515D01*
X36122Y226554D01*
X36756Y225728D01*
X37581Y225095D01*
X38543Y224696D01*
X39075Y224626D01*
Y228047D01*
D02*
G37*
G36*
X33496D02*
X30075D01*
Y224626D01*
X30607Y224696D01*
X31568Y225095D01*
X32394Y225728D01*
X33027Y226554D01*
X33426Y227515D01*
X33496Y228047D01*
D02*
G37*
G36*
X29075D02*
X25654D01*
X25724Y227515D01*
X26122Y226554D01*
X26756Y225728D01*
X27581Y225095D01*
X28543Y224696D01*
X29075Y224626D01*
Y228047D01*
D02*
G37*
G36*
X40075Y222468D02*
Y219047D01*
X43496D01*
X43426Y219579D01*
X43027Y220541D01*
X42394Y221366D01*
X41568Y222000D01*
X40607Y222398D01*
X40075Y222468D01*
D02*
G37*
G36*
X39075D02*
X38543Y222398D01*
X37581Y222000D01*
X36756Y221366D01*
X36122Y220541D01*
X35724Y219579D01*
X35654Y219047D01*
X39075D01*
Y222468D01*
D02*
G37*
G36*
X33528Y222500D02*
X30075D01*
Y219047D01*
X33528D01*
Y222500D01*
D02*
G37*
G36*
X29075D02*
X25622D01*
Y219047D01*
X29075D01*
Y222500D01*
D02*
G37*
G36*
X43496Y218047D02*
X40075D01*
Y214626D01*
X40607Y214696D01*
X41568Y215094D01*
X42394Y215728D01*
X43027Y216554D01*
X43426Y217515D01*
X43496Y218047D01*
D02*
G37*
G36*
X39075D02*
X35654D01*
X35724Y217515D01*
X36122Y216554D01*
X36756Y215728D01*
X37581Y215094D01*
X38543Y214696D01*
X39075Y214626D01*
Y218047D01*
D02*
G37*
G36*
X33528D02*
X30075D01*
Y214595D01*
X33528D01*
Y218047D01*
D02*
G37*
G36*
X29075D02*
X25622D01*
Y214595D01*
X29075D01*
Y218047D01*
D02*
G37*
G36*
X310032Y192768D02*
Y189347D01*
X313453D01*
X313383Y189878D01*
X312984Y190840D01*
X312351Y191666D01*
X311525Y192299D01*
X310563Y192698D01*
X310032Y192768D01*
D02*
G37*
G36*
X300031D02*
Y189347D01*
X303452D01*
X303382Y189878D01*
X302984Y190840D01*
X302351Y191666D01*
X301525Y192299D01*
X300563Y192698D01*
X300031Y192768D01*
D02*
G37*
G36*
X309032D02*
X308500Y192698D01*
X307538Y192299D01*
X306712Y191666D01*
X306079Y190840D01*
X305680Y189878D01*
X305610Y189347D01*
X309032D01*
Y192768D01*
D02*
G37*
G36*
X299031D02*
X298500Y192698D01*
X297538Y192299D01*
X296712Y191666D01*
X296079Y190840D01*
X295680Y189878D01*
X295610Y189347D01*
X299031D01*
Y192768D01*
D02*
G37*
G36*
X313453Y188347D02*
X310032D01*
Y184925D01*
X310563Y184995D01*
X311525Y185394D01*
X312351Y186027D01*
X312984Y186853D01*
X313383Y187815D01*
X313453Y188347D01*
D02*
G37*
G36*
X303452D02*
X300031D01*
Y184925D01*
X300563Y184995D01*
X301525Y185394D01*
X302351Y186027D01*
X302984Y186853D01*
X303382Y187815D01*
X303452Y188347D01*
D02*
G37*
G36*
X309032D02*
X305610D01*
X305680Y187815D01*
X306079Y186853D01*
X306712Y186027D01*
X307538Y185394D01*
X308500Y184995D01*
X309032Y184925D01*
Y188347D01*
D02*
G37*
G36*
X299031D02*
X295610D01*
X295680Y187815D01*
X296079Y186853D01*
X296712Y186027D01*
X297538Y185394D01*
X298500Y184995D01*
X299031Y184925D01*
Y188347D01*
D02*
G37*
G36*
X313484Y182799D02*
X310032D01*
Y179347D01*
X313484D01*
Y182799D01*
D02*
G37*
G36*
X300031Y182767D02*
Y179347D01*
X303452D01*
X303382Y179878D01*
X302984Y180840D01*
X302351Y181666D01*
X301525Y182299D01*
X300563Y182697D01*
X300031Y182767D01*
D02*
G37*
G36*
X299031D02*
X298500Y182697D01*
X297538Y182299D01*
X296712Y181666D01*
X296079Y180840D01*
X295680Y179878D01*
X295610Y179347D01*
X299031D01*
Y182767D01*
D02*
G37*
G36*
X309032Y182799D02*
X305579D01*
Y179347D01*
X309032D01*
Y182799D01*
D02*
G37*
G36*
X303452Y178347D02*
X300031D01*
Y174925D01*
X300563Y174996D01*
X301525Y175394D01*
X302351Y176027D01*
X302984Y176853D01*
X303382Y177815D01*
X303452Y178347D01*
D02*
G37*
G36*
X299031D02*
X295610D01*
X295680Y177815D01*
X296079Y176853D01*
X296712Y176027D01*
X297538Y175394D01*
X298500Y174996D01*
X299031Y174925D01*
Y178347D01*
D02*
G37*
G36*
X313484D02*
X310032D01*
Y174894D01*
X313484D01*
Y178347D01*
D02*
G37*
G36*
X309032D02*
X305579D01*
Y174894D01*
X309032D01*
Y178347D01*
D02*
G37*
G36*
X35087Y71118D02*
X32224D01*
Y67862D01*
X35087D01*
Y71118D01*
D02*
G37*
G36*
X30380Y71230D02*
X27411D01*
X24443D01*
Y68663D01*
X25650D01*
Y67827D01*
X25391Y67440D01*
X25336Y67165D01*
X29184D01*
X29129Y67440D01*
X28709Y68069D01*
Y68663D01*
X30380D01*
Y71230D01*
D02*
G37*
G36*
X29184Y66165D02*
X27760D01*
Y64742D01*
X28034Y64796D01*
X28690Y65235D01*
X29129Y65891D01*
X29184Y66165D01*
D02*
G37*
G36*
X26760D02*
X25336D01*
X25391Y65891D01*
X25829Y65235D01*
X26486Y64796D01*
X26760Y64742D01*
Y66165D01*
D02*
G37*
G36*
X35087Y66862D02*
X32224D01*
Y63606D01*
X35087D01*
Y66862D01*
D02*
G37*
G36*
X27689Y61849D02*
Y60425D01*
X29113D01*
X29058Y60699D01*
X28620Y61356D01*
X27963Y61794D01*
X27689Y61849D01*
D02*
G37*
G36*
X26689D02*
X26415Y61794D01*
X25758Y61356D01*
X25320Y60699D01*
X25265Y60425D01*
X26689D01*
Y61849D01*
D02*
G37*
G36*
X37468Y60307D02*
X34902D01*
Y59038D01*
X33824D01*
X33316Y59377D01*
X33041Y59432D01*
Y57508D01*
Y55585D01*
X33316Y55639D01*
X33824Y55979D01*
X34902D01*
Y54370D01*
X37468D01*
Y57339D01*
Y60307D01*
D02*
G37*
G36*
X32041Y59432D02*
X31767Y59377D01*
X31111Y58939D01*
X30672Y58283D01*
X30618Y58008D01*
X32041D01*
Y59432D01*
D02*
G37*
G36*
X29113Y59425D02*
X27689D01*
Y58002D01*
X27963Y58056D01*
X28620Y58495D01*
X29058Y59151D01*
X29113Y59425D01*
D02*
G37*
G36*
X26689D02*
X25265D01*
X25320Y59151D01*
X25758Y58495D01*
X26415Y58056D01*
X26689Y58002D01*
Y59425D01*
D02*
G37*
G36*
X32041Y57008D02*
X30618D01*
X30672Y56734D01*
X31111Y56078D01*
X31767Y55639D01*
X32041Y55585D01*
Y57008D01*
D02*
G37*
G36*
X258854Y64575D02*
X256386D01*
Y62500D01*
X258854D01*
Y64575D01*
D02*
G37*
G36*
X255386D02*
X252917D01*
Y62500D01*
X255386D01*
Y64575D01*
D02*
G37*
%LPD*%
D11*
X80264Y86547D02*
Y87756D01*
X78575Y89444D02*
X80264Y87756D01*
X310910Y351638D02*
Y354079D01*
X78575Y89444D02*
Y92850D01*
D13*
X127725Y184874D02*
X133662D01*
X240764Y166410D02*
Y168921D01*
X244014Y163159D02*
X247181D01*
X240764Y166410D02*
X244014Y163159D01*
X185283Y212114D02*
X194736D01*
X181142Y216256D02*
X185283Y212114D01*
X194736D02*
X200028Y206823D01*
X229699Y183598D02*
X233425Y179872D01*
X227441Y183598D02*
X229699D01*
X224685Y156697D02*
Y162504D01*
X236374Y162350D02*
Y177004D01*
X231726Y157703D02*
X236374Y162350D01*
X233831Y179547D02*
X236374Y177004D01*
X240799Y179697D02*
X244669Y183567D01*
X246130D01*
X247248Y47813D02*
Y52813D01*
X242961Y118685D02*
X250063D01*
X240309Y121337D02*
X242961Y118685D01*
X235986Y121337D02*
X240309D01*
X26766Y89656D02*
X30845D01*
X264612Y61252D02*
Y65244D01*
X73978Y25778D02*
Y30683D01*
X42445Y25037D02*
Y31638D01*
X52685Y27272D02*
Y30764D01*
X166217Y172488D02*
X180055D01*
X138287D02*
X166217D01*
X136200Y174575D02*
X138287Y172488D01*
X200028Y204437D02*
Y204695D01*
Y203370D02*
Y204437D01*
Y204695D02*
Y206823D01*
X185677Y237287D02*
X189370D01*
X181142Y232752D02*
X185677Y237287D01*
X171342Y232752D02*
X181142Y232752D01*
X180055Y172488D02*
X189878Y182311D01*
Y199500D01*
X282386Y29528D02*
X285299Y32441D01*
X279138Y29528D02*
X282386D01*
X277799Y28189D02*
X279138Y29528D01*
X276396Y26785D02*
X277799Y28189D01*
X73947Y20030D02*
Y24935D01*
X285116Y33882D02*
Y38482D01*
X153276Y61177D02*
X161701D01*
X285866Y40476D02*
X289768D01*
X181142Y216256D02*
Y232752D01*
X285740Y33618D02*
X289776D01*
X198075Y201417D02*
X200028Y203370D01*
X191795Y201417D02*
X198075D01*
X189878Y199500D02*
X191795Y201417D01*
X133662Y184874D02*
X136200Y182335D01*
Y174575D02*
Y182335D01*
X167532Y236563D02*
X171342Y232752D01*
D14*
X219843Y34595D02*
X225228D01*
X231866D02*
X241197D01*
X247354D02*
X258209D01*
X247059D02*
X247347Y34549D01*
X258209Y34595D02*
X265734Y27069D01*
X90890Y61776D02*
Y66445D01*
X84867Y66524D02*
Y72651D01*
X63311Y12478D02*
X82213D01*
X52287D02*
X63311D01*
X31807D02*
X52287D01*
X96028Y23039D02*
Y27189D01*
X227811Y104625D02*
Y111114D01*
X227835Y111138D01*
X240311Y68067D02*
X242512Y70268D01*
X240311Y64228D02*
Y68067D01*
Y64228D02*
X242146Y62394D01*
X242512Y70268D02*
X245650D01*
X246039Y56000D02*
Y62000D01*
X242146Y62394D02*
X245256D01*
X245650Y62000D01*
X253732Y53819D02*
X255886Y55972D01*
X246039Y56000D02*
X248220Y53819D01*
X254197Y47736D02*
Y52492D01*
X291725Y346127D02*
X294854D01*
X309484Y231024D02*
X314776D01*
X315867Y232114D01*
X309346Y222760D02*
X317262D01*
X187783Y71177D02*
X189850D01*
X186602Y72358D02*
X187783Y71177D01*
X186602Y72358D02*
Y80634D01*
X315311Y342543D02*
Y346071D01*
X315240Y346142D02*
X315311Y346071D01*
X31556Y323772D02*
X31564Y323764D01*
X24390Y323772D02*
X31556D01*
X24382Y323780D02*
X24390Y323772D01*
X32052Y307217D02*
X32202Y307366D01*
Y316614D01*
X32352Y316764D01*
X31859Y317256D02*
X32352Y316764D01*
X31859Y317256D02*
Y323469D01*
X31564Y323764D02*
X31859Y323469D01*
X84787Y66445D02*
X84867Y66524D01*
X90890Y66445D02*
X111492D01*
X112232Y52535D02*
Y60287D01*
X112402Y40960D02*
Y46201D01*
X295468Y222661D02*
X303221D01*
X295429Y231102D02*
X303181D01*
X295579Y240248D02*
X303331D01*
X309642Y240232D02*
X314883D01*
X150579Y34595D02*
X158331D01*
X313313Y322122D02*
Y327388D01*
X225957Y201396D02*
X238665D01*
X312945Y370000D02*
X313043D01*
X239153Y201490D02*
X243806D01*
X255886Y55972D02*
Y62000D01*
X164827Y34595D02*
X170068Y34595D01*
X139579D02*
X145027D01*
D15*
X311705Y146382D02*
Y152984D01*
X189370Y237398D02*
X192440D01*
X167053Y237041D02*
X167532Y236563D01*
X200549Y219594D02*
X201235Y220280D01*
X171700Y240335D02*
X175067Y236969D01*
X171700Y240335D02*
Y243276D01*
X181512Y155441D02*
Y160386D01*
X169602Y131496D02*
Y143532D01*
X181512Y155441D01*
X224093Y168539D02*
X226110D01*
X221480Y167878D02*
X223431D01*
X220260Y169098D02*
X221480Y167878D01*
X206508Y169098D02*
X220260D01*
X220441Y176216D02*
X226110D01*
X219685Y176972D02*
X220441Y176216D01*
X206508Y176972D02*
X219685D01*
X223811Y173658D02*
X226110D01*
X206508Y173035D02*
X223189D01*
X223811Y173658D01*
X200283Y233622D02*
X202654Y235993D01*
X159854Y154480D02*
Y159846D01*
X208764Y182850D02*
X216968D01*
X208394Y184862D02*
X212402D01*
X206529Y180888D02*
X225664D01*
X226110Y181335D01*
X206508Y180909D02*
X206529Y180888D01*
X278622Y260653D02*
Y268280D01*
X278579Y260358D02*
X282796D01*
X278567Y260347D02*
X280854D01*
X220272Y197287D02*
X253937D01*
X217665Y194681D02*
X220272Y197287D01*
X208327Y194681D02*
X217665D01*
X281449Y237693D02*
X283161D01*
X281449D02*
X284114Y240358D01*
X221646Y195441D02*
X255925D01*
X216953Y190748D02*
X221646Y195441D01*
X208063Y190748D02*
X216953D01*
X222410Y193252D02*
X256866D01*
X217941Y188784D02*
X222410Y193252D01*
X208445Y188784D02*
X217941D01*
X289134Y222949D02*
X289291D01*
X280317D02*
X289134D01*
X223563Y191185D02*
X258366Y191185D01*
X219224Y186846D02*
X223563Y191185D01*
X208197Y186846D02*
X219224D01*
X301892Y146801D02*
Y156746D01*
X185445Y144882D02*
Y159846D01*
X183839Y131543D02*
Y138642D01*
X183468Y151728D02*
Y160551D01*
X176677Y138445D02*
Y144937D01*
Y131421D02*
Y138445D01*
Y144937D02*
X183468Y151728D01*
X38063Y57508D02*
X38093Y57537D01*
X32541Y57508D02*
X38063D01*
X220295Y103894D02*
X221709Y102480D01*
X225666D01*
X227787Y104601D01*
X227811Y104625D01*
X222093Y93094D02*
X250063D01*
X215287Y99900D02*
Y104307D01*
Y99900D02*
X222093Y93094D01*
X217634Y100646D02*
X217634Y104532D01*
X193327Y159748D02*
Y167921D01*
X277039Y146599D02*
Y163036D01*
X258972Y181102D02*
X277039Y163036D01*
X250760Y181102D02*
X258972D01*
X274783Y146725D02*
Y162217D01*
X258154Y178847D02*
X274783Y162217D01*
X250618Y178847D02*
X258154D01*
X272818Y146639D02*
Y160682D01*
X257445Y176055D02*
X272818Y160682D01*
X250665Y176055D02*
X257445D01*
X270854Y146639D02*
Y159359D01*
X256594Y173618D02*
X270854Y159359D01*
X251421Y173618D02*
X256594D01*
X266928Y146599D02*
Y159859D01*
X255795Y170992D02*
X266928Y159859D01*
X250713Y170992D02*
X255795D01*
X264964Y146347D02*
Y158465D01*
X254984Y168445D02*
X264964Y158465D01*
X250847Y168445D02*
X254984D01*
X262791Y146473D02*
Y157839D01*
X254866Y165764D02*
X262791Y157839D01*
X251390Y165764D02*
X254866D01*
X97150Y236059D02*
X122165D01*
X83321Y88626D02*
X88528D01*
X88890Y88264D01*
X309646Y146382D02*
Y149626D01*
X307902Y151370D02*
X309646Y149626D01*
X305764Y146860D02*
Y154520D01*
X205366Y82429D02*
Y146768D01*
X197248Y154886D02*
X205366Y146768D01*
X250213Y167811D02*
X250847Y168445D01*
X223431Y167878D02*
X224093Y168539D01*
X258366Y191185D02*
X278677Y211496D01*
X256866Y193252D02*
X275551Y211937D01*
X255925Y195441D02*
X273209Y212724D01*
X278677Y211496D02*
Y219992D01*
X275551Y211937D02*
Y224658D01*
X273209Y212724D02*
Y231016D01*
X270256Y213606D02*
Y253579D01*
X253937Y197287D02*
X270256Y213606D01*
X278677Y219992D02*
X281453Y222768D01*
X275551Y224658D02*
X282213Y231319D01*
X273209Y231016D02*
X281713Y239520D01*
X270256Y253579D02*
X277024Y260347D01*
X123036Y236020D02*
X123043Y236028D01*
X123036Y236035D02*
X123043Y236028D01*
X297327Y91126D02*
X309594Y103394D01*
X293764Y91126D02*
X297327D01*
X309594Y103394D02*
Y140476D01*
X311563D02*
X311564Y102647D01*
X301720Y104472D02*
Y140476D01*
X298251Y101003D02*
X301720Y104472D01*
X305689Y104587D02*
Y139787D01*
X298134Y97032D02*
X305689Y104587D01*
X289291Y222949D02*
X289319Y222921D01*
X138213Y239499D02*
X139284Y238429D01*
X206508Y167130D02*
X209795D01*
X210945Y165980D01*
X226110D01*
X226087Y171075D02*
X226110Y171098D01*
X206516Y171075D02*
X226087D01*
X206508Y171067D02*
X206516Y171075D01*
X225953Y178933D02*
X226110Y178776D01*
X206516Y178933D02*
X225953D01*
X206508Y178941D02*
X206516Y178933D01*
X197988Y357677D02*
X203213Y352453D01*
X188488Y357961D02*
X193713Y352736D01*
X179130Y358016D02*
X184354Y352791D01*
X155504Y357902D02*
X160728Y352677D01*
X169657Y357933D02*
X174882Y352709D01*
X110398Y78949D02*
X110961Y78386D01*
X101858Y78949D02*
X110398D01*
X92366Y88441D02*
X101858Y78949D01*
X284114Y240358D02*
X289342D01*
X78658Y82146D02*
X84947Y75856D01*
Y72730D02*
Y75856D01*
X300079Y158559D02*
X301892Y156746D01*
X299240Y104055D02*
Y140476D01*
X294864Y160537D02*
X299209Y156193D01*
Y146976D02*
Y156193D01*
X272795Y128677D02*
Y140299D01*
X270826Y128488D02*
Y140299D01*
X262952Y125875D02*
Y140299D01*
Y125875D02*
X263055Y125772D01*
X264920Y125875D02*
Y140299D01*
Y125875D02*
X265024Y125772D01*
X266889Y125875D02*
Y140299D01*
Y125875D02*
X266992Y125772D01*
X298075Y89157D02*
X311564Y102647D01*
X293764Y89157D02*
X298075D01*
X228683Y83539D02*
X229093Y83949D01*
X221043Y91144D02*
X250045D01*
X227835Y117240D02*
Y120526D01*
X217611Y125756D02*
X217611Y129877D01*
X214582Y132907D02*
X217611Y129877D01*
X212449Y130773D02*
X214582Y132907D01*
X256279Y70268D02*
X261087Y75075D01*
Y82071D01*
X255886Y70268D02*
X256279D01*
X251984Y73953D02*
X255051Y70886D01*
X60732Y80177D02*
X61356Y80801D01*
Y84057D01*
X60146Y98594D02*
X61372Y97368D01*
X59287Y98594D02*
X60146D01*
X61372Y86945D02*
Y97368D01*
X62947Y75008D02*
Y85327D01*
X78866Y105654D02*
X80146Y104374D01*
X63634Y89799D02*
X64522Y88911D01*
X57524Y89181D02*
X58242Y88463D01*
Y85701D02*
Y88463D01*
X57025Y99462D02*
Y101303D01*
X235858Y121209D02*
X235986Y121337D01*
X30845Y89656D02*
X30972Y89784D01*
X288763Y104940D02*
X293729D01*
X285461Y108242D02*
X288763Y104940D01*
X293729D02*
X293764Y104906D01*
X264612Y65244D02*
X264787Y65419D01*
X266992Y73628D02*
Y82071D01*
X265524Y72160D02*
X266992Y73628D01*
X293798Y101003D02*
X298251D01*
X293764Y100969D02*
X293798Y101003D01*
X298122Y102937D02*
X299240Y104055D01*
X293764Y97032D02*
X298134D01*
X293764Y102937D02*
X298122D01*
X204559Y81622D02*
X205366Y82429D01*
X313642Y146837D02*
Y157585D01*
X195380Y151533D02*
Y164459D01*
X189850Y61177D02*
X201476D01*
X195380Y151533D02*
X202142Y144772D01*
Y61843D02*
Y144772D01*
X201476Y61177D02*
X202142Y61843D01*
X182831Y61303D02*
X187528Y56606D01*
X182831Y61303D02*
Y98740D01*
X183705Y99614D01*
X254209Y80327D02*
X254937Y81055D01*
X169212Y66177D02*
X174972Y71937D01*
X161701Y66177D02*
X169212D01*
X174972Y71937D02*
Y98280D01*
X181114Y104421D01*
X189020D01*
X167846Y71342D02*
Y71605D01*
Y71177D02*
Y71342D01*
X161701Y71177D02*
X167846D01*
X167488Y71963D02*
X167846Y71605D01*
X167488Y71963D02*
Y78189D01*
X166315Y79362D02*
X167488Y78189D01*
X189850Y66177D02*
X198221D01*
X188850D02*
X189850D01*
X192764Y99630D02*
X198047Y104913D01*
Y113933D01*
X197248Y154886D02*
Y158303D01*
X273638Y24473D02*
Y25138D01*
X279437Y33882D02*
Y35364D01*
X279407D02*
Y38482D01*
X78658Y82146D02*
Y84055D01*
X42268Y31815D02*
X42445Y31638D01*
X283801Y230350D02*
X288339D01*
X289090Y231102D01*
X277024Y260347D02*
X278567D01*
X288129Y255045D02*
X313709D01*
X288109D02*
X288129D01*
X313622Y101839D02*
Y140108D01*
X298756Y86972D02*
X313622Y101839D01*
X291579Y86972D02*
X298756D01*
X286677Y82071D02*
X291579Y86972D01*
X310626Y154063D02*
X311705Y152984D01*
X304240Y156043D02*
X305764Y154520D01*
X220209Y73862D02*
X224805D01*
X89081Y88441D02*
X92366D01*
X51917Y87279D02*
Y89520D01*
X53303Y90906D01*
X55073Y81163D02*
Y85575D01*
X46309Y72400D02*
X55073Y81163D01*
X288143Y116682D02*
X293729D01*
X285443Y113983D02*
X288143Y116682D01*
X285443Y113983D02*
X285443Y111794D01*
X278567Y260347D02*
X278579Y260358D01*
X278193Y259972D02*
X278567Y260347D01*
X282796Y260358D02*
X288109Y255045D01*
X163630Y169902D02*
X166217Y172488D01*
X163630Y166248D02*
Y169902D01*
Y165469D02*
Y166248D01*
Y165469D02*
X163791Y165307D01*
Y159846D02*
Y165307D01*
X136185Y170386D02*
X138287Y172488D01*
X136185Y166071D02*
Y170386D01*
Y166071D02*
X136224Y166031D01*
Y159854D02*
Y166031D01*
Y159854D02*
X136232Y159846D01*
X200028Y204437D02*
X200156Y204566D01*
X199842Y204252D02*
X200028Y204437D01*
X182665Y168016D02*
X185445Y165236D01*
Y159846D02*
Y165236D01*
X187421Y168028D02*
X187476Y168083D01*
X187421Y159854D02*
Y168028D01*
X187413Y159846D02*
X187421Y159854D01*
X199190Y159881D02*
Y168627D01*
X189020Y104421D02*
X193441Y108843D01*
X278427Y250130D02*
Y254990D01*
X279437Y33205D02*
Y33882D01*
X279407D02*
Y35364D01*
X273827Y25075D02*
Y28043D01*
X273563Y25075D02*
X273626Y25138D01*
X273602Y24850D02*
X273827Y25075D01*
Y28043D02*
X279213Y33429D01*
X278543Y273787D02*
X278587Y273744D01*
X278543Y273787D02*
Y278394D01*
X278427Y254990D02*
X278579Y255142D01*
X276252Y88425D02*
Y88687D01*
Y88425D02*
Y88425D01*
Y88425D02*
X276835Y87842D01*
Y82071D02*
Y87842D01*
X191350Y120630D02*
X198047Y113933D01*
X193673Y99614D02*
X193705D01*
X191350Y120630D02*
Y159846D01*
X184287Y110201D02*
X189358Y115272D01*
X195380Y164459D02*
X196264Y165343D01*
X189358Y115272D02*
Y157937D01*
X148045Y159848D02*
Y166195D01*
X250063Y116717D02*
X257007D01*
X187784Y66177D02*
X188850D01*
X189850D01*
X27179Y66665D02*
Y71596D01*
X124319Y210378D02*
X129884D01*
X124409Y212457D02*
X129974D01*
X162467Y236885D02*
X163791Y238209D01*
X280806Y68862D02*
Y82036D01*
X285887Y88518D02*
Y88780D01*
X284709Y87340D02*
X285887Y88518D01*
X199772Y192363D02*
X200034D01*
X200391Y192720D01*
X200217Y226953D02*
X200479D01*
X130548Y229856D02*
X130657D01*
X128846Y228154D02*
X130548Y229856D01*
X262339Y88681D02*
X263055Y87965D01*
X265024Y87941D02*
X265783Y88701D01*
X245605Y87496D02*
X245613Y84976D01*
X245613Y84887D01*
X245605Y87496D02*
X247091Y88992D01*
X286060Y98615D02*
X289613Y95063D01*
X293764D01*
X255819Y114748D02*
X256978Y113589D01*
X292433Y71366D02*
X292567Y71232D01*
X292433Y71366D02*
Y75681D01*
X277410Y71996D02*
Y75480D01*
X240213Y124937D02*
X240299Y124850D01*
X240213Y124937D02*
Y129575D01*
X235783Y129480D02*
X235821Y129443D01*
Y125026D02*
Y129443D01*
Y125026D02*
X235858Y124988D01*
X285476Y33882D02*
X285740Y33618D01*
X285575Y40185D02*
X285866Y40476D01*
X44230Y77049D02*
X47203D01*
X42896Y75715D02*
X44230Y77049D01*
X27179Y71596D02*
X27411Y71829D01*
X62630Y64945D02*
Y69067D01*
X54063Y96500D02*
X57025Y99462D01*
X50476Y96500D02*
X54063D01*
X155587Y237295D02*
Y237360D01*
X155917Y237691D01*
Y243311D01*
X165760Y238335D02*
X167053Y237041D01*
X150248Y237346D02*
X152096D01*
X153914Y239164D01*
X192440Y237398D02*
X195253Y240210D01*
X128587Y178906D02*
X128730Y178764D01*
X128799D01*
X123078Y178906D02*
X128587D01*
X123043Y178941D02*
X123078Y178906D01*
X123051Y184838D02*
X127725D01*
X257150Y81139D02*
Y82071D01*
X254937Y81055D02*
X257066D01*
X274901Y87074D02*
X276252Y88425D01*
X274866Y82071D02*
X274901Y82106D01*
X278838D02*
Y86431D01*
X278803Y82071D02*
X278838Y82106D01*
X282740Y119262D02*
Y125772D01*
X272768Y88762D02*
X272863Y88666D01*
X250038Y118710D02*
X250063Y118685D01*
X278803Y119704D02*
Y125772D01*
X263055Y82071D02*
Y87965D01*
X250063Y114748D02*
X255819D01*
X268954Y125765D02*
X268961Y125772D01*
X265024Y82071D02*
Y87941D01*
X257044Y104871D02*
X257112Y104802D01*
X272863Y82106D02*
Y88666D01*
X250038Y118710D02*
Y121996D01*
X249016Y89157D02*
X250063D01*
Y104906D02*
X250098Y104871D01*
X274901Y82106D02*
Y87074D01*
X268954Y116693D02*
Y125765D01*
X259118Y125772D02*
Y132159D01*
X278838Y86431D02*
X281007Y88601D01*
X257066Y81055D02*
X257150Y81139D01*
X272863Y82106D02*
X272898Y82071D01*
X268947Y116686D02*
X268954Y116693D01*
X284709Y82071D02*
Y87340D01*
X248932Y89074D02*
X249016Y89157D01*
X250098Y104871D02*
X257044D01*
X293729Y116682D02*
X293764Y116717D01*
X230965Y73953D02*
X251984D01*
X199190Y159881D02*
X199224Y159846D01*
X306626Y375091D02*
X306748Y375213D01*
X128608Y226185D02*
X130514Y224279D01*
X123043Y226185D02*
X128608D01*
X84514Y141764D02*
X84535Y141785D01*
X84492Y138480D02*
X84514Y138502D01*
X138213Y239499D02*
Y241284D01*
X222831Y83346D02*
X227427D01*
X235697Y83444D02*
Y87823D01*
X235772Y87898D01*
X200479Y226953D02*
X201246Y226185D01*
X206508D01*
X201235Y220280D02*
X206508D01*
X195253Y240210D02*
Y243276D01*
X195287Y243311D01*
X202654Y235993D02*
X206473D01*
X206508Y236028D01*
X171665Y243311D02*
X171700Y243276D01*
X165760Y238335D02*
Y243311D01*
X162467Y236623D02*
Y236885D01*
X163791Y238209D02*
Y243311D01*
X200156Y204566D02*
X206473D01*
X206508Y204531D01*
X200391Y192720D02*
X206508D01*
X199902Y198476D02*
X200017Y198591D01*
X206473D01*
X206508Y198626D01*
X174975Y166161D02*
Y166423D01*
X173634Y164820D02*
X174975Y166161D01*
X173634Y159846D02*
Y164820D01*
X169373Y166035D02*
Y166297D01*
Y166035D02*
X169697Y165711D01*
Y159846D02*
Y165711D01*
X157364Y166222D02*
X157549Y166037D01*
X158699D01*
X161788Y162947D01*
Y159881D02*
Y162947D01*
Y159881D02*
X161823Y159846D01*
X148045Y166195D02*
X148047Y166197D01*
X148043Y159846D02*
X148045Y159848D01*
X123043Y184846D02*
X123051Y184838D01*
X123043Y228154D02*
X128846D01*
X153914Y239164D02*
Y243276D01*
X153949Y243311D01*
X276732Y128500D02*
Y140299D01*
X274763Y128772D02*
Y140299D01*
X292567Y71232D02*
X292606Y71193D01*
X282740Y76708D02*
Y82071D01*
Y76708D02*
X286406Y73043D01*
Y72846D02*
Y73043D01*
X280772Y82071D02*
X280806Y82036D01*
X277410Y75480D02*
X278803Y76873D01*
Y82071D01*
X264886Y71522D02*
X265524Y72160D01*
X264787Y71522D02*
X264886D01*
X212287Y99900D02*
X221043Y91144D01*
X212287Y99900D02*
Y104654D01*
X221321Y96959D02*
X243313D01*
X217634Y100646D02*
X221321Y96959D01*
X214482Y134274D02*
Y139415D01*
Y134274D02*
X214841Y133915D01*
X212449Y125606D02*
Y130773D01*
X243313Y96959D02*
X245209Y95063D01*
X250045Y91144D02*
X250063Y91126D01*
X245209Y95063D02*
X250063D01*
X64522Y85575D02*
Y88911D01*
Y116537D02*
Y120024D01*
X78765Y116107D02*
X78835Y116037D01*
X78765Y116107D02*
Y119954D01*
X80146Y104374D02*
X83321D01*
X45490Y68719D02*
X46309Y69537D01*
X44463Y68719D02*
X45490D01*
X42896Y67152D02*
X44463Y68719D01*
X42896Y66659D02*
Y67152D01*
X46309Y69537D02*
Y72400D01*
X35679Y75782D02*
Y78537D01*
X35612Y75715D02*
X35679Y75782D01*
Y78537D02*
X37061Y79919D01*
X51226D01*
X53498Y82191D01*
Y85575D01*
X42896Y58443D02*
X43801Y57537D01*
X42896Y58443D02*
Y66659D01*
X34045Y77282D02*
X35612Y75715D01*
X27667Y77282D02*
X34045D01*
X27411Y77537D02*
X27667Y77282D01*
D17*
X241252Y34595D02*
D03*
X247354D02*
D03*
X30972Y89784D02*
D03*
X37075D02*
D03*
X295236Y222921D02*
D03*
X289134D02*
D03*
X295236Y231102D02*
D03*
X289134D02*
D03*
X295449Y240354D02*
D03*
X289347D02*
D03*
X160213Y79362D02*
D03*
X166315D02*
D03*
X145027Y34595D02*
D03*
X151130D02*
D03*
X90878Y72638D02*
D03*
X84776D02*
D03*
X84787Y66445D02*
D03*
X90890D02*
D03*
D18*
X225370Y34595D02*
D03*
X231866D02*
D03*
X303118Y222862D02*
D03*
X309614D02*
D03*
X303118Y231102D02*
D03*
X309614D02*
D03*
X303331Y240248D02*
D03*
X309827D02*
D03*
X164827Y34595D02*
D03*
X158331D02*
D03*
D19*
X233933Y285083D02*
D03*
X219661Y268091D02*
D03*
X207035Y270776D02*
D03*
X210878D02*
D03*
X215142D02*
D03*
X189028D02*
D03*
X192965D02*
D03*
X197012D02*
D03*
X201213D02*
D03*
X171075D02*
D03*
X175012D02*
D03*
X179059D02*
D03*
X183260D02*
D03*
X153067D02*
D03*
X157004D02*
D03*
X161051D02*
D03*
X165252D02*
D03*
X216760Y268094D02*
D03*
X212803D02*
D03*
X208917D02*
D03*
X204594D02*
D03*
X198961D02*
D03*
X195000D02*
D03*
X190961D02*
D03*
X186594D02*
D03*
X181083D02*
D03*
X177122D02*
D03*
X173122D02*
D03*
X168720D02*
D03*
X162961D02*
D03*
X158961D02*
D03*
X155000D02*
D03*
X150571D02*
D03*
X223217D02*
D03*
X225917Y285083D02*
D03*
X234035Y268094D02*
D03*
X230039Y268079D02*
D03*
X145961Y268094D02*
D03*
X139449D02*
D03*
X136945Y285083D02*
D03*
X132405Y268094D02*
D03*
X128205D02*
D03*
X277020Y151311D02*
D03*
X274740Y149488D02*
D03*
X272799Y151311D02*
D03*
X270732Y149488D02*
D03*
X266850Y151311D02*
D03*
X264910Y149488D02*
D03*
X262673Y151311D02*
D03*
X313768Y149488D02*
D03*
X311535Y151311D02*
D03*
X309197Y149488D02*
D03*
X305685D02*
D03*
X301847D02*
D03*
X299051Y151311D02*
D03*
X48988Y146272D02*
D03*
X115362Y88784D02*
D03*
Y92524D02*
D03*
Y96622D02*
D03*
Y100543D02*
D03*
Y105366D02*
D03*
Y109358D02*
D03*
Y113571D02*
D03*
Y117453D02*
D03*
X112748Y90697D02*
D03*
Y94614D02*
D03*
Y98606D02*
D03*
Y102527D02*
D03*
Y107504D02*
D03*
Y111583D02*
D03*
Y115539D02*
D03*
X112437Y120153D02*
D03*
X31878Y149240D02*
D03*
X34051Y146272D02*
D03*
X36122Y149240D02*
D03*
X37972Y146272D02*
D03*
X39941Y149240D02*
D03*
X42016Y146071D02*
D03*
X43976Y148059D02*
D03*
X45980Y149969D02*
D03*
X51024Y149240D02*
D03*
X52979Y146272D02*
D03*
X54937Y149240D02*
D03*
X56897Y146272D02*
D03*
X58854Y149240D02*
D03*
X60791Y146272D02*
D03*
X63028Y149240D02*
D03*
X66144Y146272D02*
D03*
X68193Y149240D02*
D03*
X70205Y146272D02*
D03*
X72134Y149240D02*
D03*
X74138Y146272D02*
D03*
X76256Y149240D02*
D03*
X78035Y146272D02*
D03*
X81118D02*
D03*
X266871Y51186D02*
D03*
Y43312D02*
D03*
Y35438D02*
D03*
X268071Y20162D02*
D03*
X273018Y32880D02*
D03*
Y40754D02*
D03*
Y48628D02*
D03*
Y56502D02*
D03*
Y64376D02*
D03*
Y72250D02*
D03*
X74706Y33282D02*
D03*
X79303Y20172D02*
D03*
X82054Y27550D02*
D03*
X80853Y35332D02*
D03*
Y43206D02*
D03*
Y51080D02*
D03*
Y58954D02*
D03*
Y66828D02*
D03*
Y74702D02*
D03*
X66960Y73301D02*
D03*
Y65427D02*
D03*
Y57553D02*
D03*
Y49679D02*
D03*
X73107Y50456D02*
D03*
Y58330D02*
D03*
Y66204D02*
D03*
Y74078D02*
D03*
X55149Y77884D02*
D03*
Y70010D02*
D03*
Y62136D02*
D03*
Y54262D02*
D03*
Y46388D02*
D03*
X49411Y29590D02*
D03*
X59117Y19433D02*
D03*
X61296Y27000D02*
D03*
X62859Y34717D02*
D03*
X61296Y42434D02*
D03*
Y50308D02*
D03*
Y58182D02*
D03*
X73744Y37228D02*
D03*
X66827Y30484D02*
D03*
X144079Y274311D02*
D03*
X139760Y291642D02*
D03*
X134681Y291705D02*
D03*
X313748Y162319D02*
D03*
X294791Y165799D02*
D03*
X308524Y158370D02*
D03*
X304102Y160626D02*
D03*
X234307Y223197D02*
D03*
X251701Y223083D02*
D03*
X217866Y198256D02*
D03*
X216772Y200654D02*
D03*
X222079Y210394D02*
D03*
X221614Y200500D02*
D03*
X232350Y252752D02*
D03*
X237980Y267358D02*
D03*
X227634Y267260D02*
D03*
X237921Y270697D02*
D03*
X236622Y285374D02*
D03*
X236618Y290504D02*
D03*
X227598Y290622D02*
D03*
X233890Y288409D02*
D03*
X219843Y34595D02*
D03*
X229236Y345421D02*
D03*
X226701D02*
D03*
X234095Y270839D02*
D03*
X216968Y182773D02*
D03*
X213429Y330283D02*
D03*
X225870Y288409D02*
D03*
X189705Y332894D02*
D03*
X185012D02*
D03*
X231126Y339709D02*
D03*
X229673Y270839D02*
D03*
X142146D02*
D03*
X136984Y288075D02*
D03*
X229461Y252740D02*
D03*
X225783Y270839D02*
D03*
X223193Y332894D02*
D03*
X220945Y339220D02*
D03*
X218575Y341205D02*
D03*
X216358Y339220D02*
D03*
X32541Y57508D02*
D03*
X240685Y179976D02*
D03*
X240764Y168921D02*
D03*
X196083Y345421D02*
D03*
X198756Y339220D02*
D03*
X194787Y332894D02*
D03*
X53385Y260622D02*
D03*
X88890Y88264D02*
D03*
X213051Y204343D02*
D03*
X213283Y200528D02*
D03*
X219681Y345421D02*
D03*
X168657Y332894D02*
D03*
X161543D02*
D03*
X208819D02*
D03*
X203986D02*
D03*
X178713D02*
D03*
X199398D02*
D03*
X212213Y339220D02*
D03*
X207768D02*
D03*
X203083D02*
D03*
X193551D02*
D03*
X188622D02*
D03*
X184008D02*
D03*
X179882D02*
D03*
X166504D02*
D03*
X173744Y332894D02*
D03*
X172303Y339220D02*
D03*
X164228Y332894D02*
D03*
X176020Y339220D02*
D03*
X215106Y345421D02*
D03*
X210276D02*
D03*
X205701D02*
D03*
X200807D02*
D03*
X191583D02*
D03*
X186555D02*
D03*
X181913D02*
D03*
X177252D02*
D03*
X172496D02*
D03*
X167677D02*
D03*
X212319Y184791D02*
D03*
X139284Y238429D02*
D03*
X130514Y224279D02*
D03*
X130657Y229856D02*
D03*
X233394Y168984D02*
D03*
X233425Y179872D02*
D03*
X238657Y214760D02*
D03*
X243806Y201490D02*
D03*
X212630Y352370D02*
D03*
X203213D02*
D03*
X193713D02*
D03*
X184354D02*
D03*
X160728D02*
D03*
X174882D02*
D03*
X232713Y332894D02*
D03*
X156799Y352370D02*
D03*
X170087D02*
D03*
X179567D02*
D03*
X188984D02*
D03*
X198465D02*
D03*
X207913D02*
D03*
X217327D02*
D03*
X222051D02*
D03*
X224390D02*
D03*
X242480D02*
D03*
X231484D02*
D03*
X238630D02*
D03*
X236374D02*
D03*
X234004D02*
D03*
X227835Y120526D02*
D03*
X247091Y47705D02*
D03*
X254378Y47591D02*
D03*
X60732Y80177D02*
D03*
X71650Y89583D02*
D03*
X75161Y93209D02*
D03*
X57709Y89583D02*
D03*
X54075Y94449D02*
D03*
X54201Y91012D02*
D03*
X62795Y98740D02*
D03*
X118055Y232014D02*
D03*
X44146Y95039D02*
D03*
X26766Y89656D02*
D03*
X57886Y112969D02*
D03*
X262339Y88681D02*
D03*
X265783Y88701D02*
D03*
X264685Y61252D02*
D03*
X264008Y75528D02*
D03*
X273791Y75354D02*
D03*
X272768Y88762D02*
D03*
X279260Y96153D02*
D03*
X268740Y97748D02*
D03*
X259165Y96071D02*
D03*
X190823Y87429D02*
D03*
X190913Y79008D02*
D03*
X201476Y61177D02*
D03*
X167846Y71342D02*
D03*
X160138Y84075D02*
D03*
X26248Y126559D02*
D03*
X49467Y37264D02*
D03*
X275866Y14717D02*
D03*
X255394D02*
D03*
X266417D02*
D03*
X286890D02*
D03*
X315311Y342543D02*
D03*
X95661Y72677D02*
D03*
X112402Y40960D02*
D03*
X25827Y41882D02*
D03*
X37146Y37543D02*
D03*
X37343Y31815D02*
D03*
X294815Y160488D02*
D03*
X304114Y156154D02*
D03*
X310626Y154063D02*
D03*
X313642Y157585D02*
D03*
X307902Y151370D02*
D03*
X219874Y73901D02*
D03*
X127449Y196449D02*
D03*
X29197Y134035D02*
D03*
X127697Y234079D02*
D03*
X96028Y27189D02*
D03*
Y36685D02*
D03*
Y48051D02*
D03*
Y58681D02*
D03*
X24039Y337472D02*
D03*
X163630Y166248D02*
D03*
X182665Y168016D02*
D03*
X187476Y168083D02*
D03*
X199190Y168627D02*
D03*
X300079Y158559D02*
D03*
X183776Y131543D02*
D03*
X159783Y154480D02*
D03*
X91972Y372909D02*
D03*
X260815Y372579D02*
D03*
X223417Y373028D02*
D03*
X186799Y372913D02*
D03*
X153543D02*
D03*
X116595D02*
D03*
X73947Y20030D02*
D03*
X296955Y288947D02*
D03*
X277929Y291158D02*
D03*
X277971Y305494D02*
D03*
Y322360D02*
D03*
Y341136D02*
D03*
X277864Y359486D02*
D03*
X27189Y59925D02*
D03*
X26484Y260102D02*
D03*
X19602D02*
D03*
X19752Y267567D02*
D03*
X20122Y302492D02*
D03*
X20279Y315728D02*
D03*
X69378Y365717D02*
D03*
X63697Y371445D02*
D03*
X69583Y371441D02*
D03*
X63602Y260610D02*
D03*
X78575Y93209D02*
D03*
X87650Y103236D02*
D03*
X66941Y89583D02*
D03*
X66740Y37315D02*
D03*
X278543Y278394D02*
D03*
X278427Y250130D02*
D03*
X73799Y30683D02*
D03*
X306206Y293515D02*
D03*
X276252Y88687D02*
D03*
X50213Y300047D02*
D03*
X43209Y316776D02*
D03*
X43283Y323654D02*
D03*
X41260Y350500D02*
D03*
X280976Y68862D02*
D03*
X240213Y129575D02*
D03*
X289768Y40476D02*
D03*
X47203Y77049D02*
D03*
X73728Y100827D02*
D03*
X53126Y109283D02*
D03*
X59437Y98658D02*
D03*
X148224Y165827D02*
D03*
X148469Y180320D02*
D03*
X150246Y237147D02*
D03*
X155584Y237095D02*
D03*
X162276Y237091D02*
D03*
X167205Y237193D02*
D03*
X175067Y236969D02*
D03*
X174890Y222721D02*
D03*
X184284Y220012D02*
D03*
X200658Y220051D02*
D03*
X200358Y233567D02*
D03*
X200268Y227323D02*
D03*
X189492Y223472D02*
D03*
X189370Y237287D02*
D03*
X200028Y204695D02*
D03*
X199850Y198339D02*
D03*
Y192606D02*
D03*
X141846Y166000D02*
D03*
X136185Y166071D02*
D03*
X157364Y166222D02*
D03*
X169373Y166297D02*
D03*
X174975Y166423D02*
D03*
X128799Y178764D02*
D03*
Y184772D02*
D03*
X142945Y184969D02*
D03*
X143008Y178532D02*
D03*
X285772Y99076D02*
D03*
X285827Y88524D02*
D03*
X281007Y88601D02*
D03*
X193461Y168677D02*
D03*
X306748Y375213D02*
D03*
X313165Y375142D02*
D03*
X88789Y78982D02*
D03*
X65142Y101059D02*
D03*
X84535Y141785D02*
D03*
X129571Y210257D02*
D03*
Y212462D02*
D03*
X58866Y326976D02*
D03*
X65138Y334248D02*
D03*
X41508Y357528D02*
D03*
X312681Y293323D02*
D03*
X196264Y165343D02*
D03*
X198106Y153996D02*
D03*
X161476Y52677D02*
D03*
X292433Y75681D02*
D03*
X289776Y33618D02*
D03*
X220388Y139415D02*
D03*
X214482D02*
D03*
X29543Y100904D02*
D03*
X313313Y327388D02*
D03*
X201398Y54626D02*
D03*
X149055Y54228D02*
D03*
X40939Y89702D02*
D03*
X29545Y94756D02*
D03*
X67463Y80177D02*
D03*
X64522Y115945D02*
D03*
X78675D02*
D03*
X79134Y105535D02*
D03*
X63634Y89583D02*
D03*
X57043Y101303D02*
D03*
X57028Y104949D02*
D03*
X64522Y105537D02*
D03*
X69740Y105535D02*
D03*
X69787Y115945D02*
D03*
X90905Y61776D02*
D03*
X27260Y66665D02*
D03*
X62630Y64945D02*
D03*
X170068Y34595D02*
D03*
X184059Y204736D02*
D03*
X52650Y30764D02*
D03*
X139132Y34595D02*
D03*
X254209Y80327D02*
D03*
X245682Y80941D02*
D03*
X279165Y119205D02*
D03*
X283004Y119224D02*
D03*
X285461Y108242D02*
D03*
X285443Y111794D02*
D03*
X269002Y113145D02*
D03*
X268947Y116686D02*
D03*
X257112Y104802D02*
D03*
X256978Y113589D02*
D03*
X257007Y117127D02*
D03*
X250480Y201673D02*
D03*
X245693Y84976D02*
D03*
X259028Y132250D02*
D03*
X250038Y121996D02*
D03*
X235783Y129480D02*
D03*
X222831Y83346D02*
D03*
X235697Y83444D02*
D03*
X243839Y207866D02*
D03*
X267406Y104882D02*
D03*
D20*
X204659Y257201D02*
D03*
X219128D02*
D03*
Y263106D02*
D03*
X204659D02*
D03*
X186809Y257201D02*
D03*
X201278D02*
D03*
Y263106D02*
D03*
X186809D02*
D03*
X150782Y257201D02*
D03*
X165250D02*
D03*
Y263106D02*
D03*
X150782D02*
D03*
X168939Y257201D02*
D03*
X183407D02*
D03*
Y263106D02*
D03*
X168939D02*
D03*
X66087Y141844D02*
D03*
X80555D02*
D03*
Y135939D02*
D03*
X66087D02*
D03*
X48868Y135941D02*
D03*
X63337D02*
D03*
Y141847D02*
D03*
X48868D02*
D03*
X262636Y146453D02*
D03*
X277104D02*
D03*
Y140547D02*
D03*
X262636D02*
D03*
X31632Y135941D02*
D03*
X46100D02*
D03*
Y141847D02*
D03*
X31632D02*
D03*
X299408Y146382D02*
D03*
X313876D02*
D03*
Y140476D02*
D03*
X299408D02*
D03*
D21*
X206972Y257201D02*
D03*
X208941D02*
D03*
X210910D02*
D03*
X212878D02*
D03*
X214846D02*
D03*
X216815D02*
D03*
Y263106D02*
D03*
X214846D02*
D03*
X212878D02*
D03*
X210910D02*
D03*
X208941D02*
D03*
X206972D02*
D03*
X189122Y257201D02*
D03*
X191091D02*
D03*
X193059D02*
D03*
X195028D02*
D03*
X196996D02*
D03*
X198965D02*
D03*
Y263106D02*
D03*
X196996D02*
D03*
X195028D02*
D03*
X193059D02*
D03*
X191091D02*
D03*
X189122D02*
D03*
X153094Y257201D02*
D03*
X155063D02*
D03*
X157032D02*
D03*
X159000D02*
D03*
X160968D02*
D03*
X162937D02*
D03*
Y263106D02*
D03*
X160968D02*
D03*
X159000D02*
D03*
X157032D02*
D03*
X155063D02*
D03*
X153094D02*
D03*
X171252Y257201D02*
D03*
X173221D02*
D03*
X175189D02*
D03*
X177157D02*
D03*
X179126D02*
D03*
X181095D02*
D03*
Y263106D02*
D03*
X179126D02*
D03*
X177157D02*
D03*
X175189D02*
D03*
X173221D02*
D03*
X171252D02*
D03*
X68400Y141844D02*
D03*
X70368D02*
D03*
X72337D02*
D03*
X74305D02*
D03*
X76274D02*
D03*
X78242D02*
D03*
Y135939D02*
D03*
X76274D02*
D03*
X74305D02*
D03*
X72337D02*
D03*
X70368D02*
D03*
X68400D02*
D03*
X51181Y135941D02*
D03*
X53150D02*
D03*
X55118D02*
D03*
X57087D02*
D03*
X59055D02*
D03*
X61024D02*
D03*
Y141847D02*
D03*
X59055D02*
D03*
X57087D02*
D03*
X55118D02*
D03*
X53150D02*
D03*
X51181D02*
D03*
X264949Y146453D02*
D03*
X266917D02*
D03*
X268886D02*
D03*
X270854D02*
D03*
X272823D02*
D03*
X274791D02*
D03*
Y140547D02*
D03*
X272823D02*
D03*
X270854D02*
D03*
X268886D02*
D03*
X266917D02*
D03*
X264949D02*
D03*
X33945Y135941D02*
D03*
X35913D02*
D03*
X37882D02*
D03*
X39850D02*
D03*
X41819D02*
D03*
X43787D02*
D03*
Y141847D02*
D03*
X41819D02*
D03*
X39850D02*
D03*
X37882D02*
D03*
X35913D02*
D03*
X33945D02*
D03*
X301720Y146382D02*
D03*
X303689D02*
D03*
X305658D02*
D03*
X307626D02*
D03*
X309594D02*
D03*
X311563D02*
D03*
Y140476D02*
D03*
X309594D02*
D03*
X307626D02*
D03*
X305658D02*
D03*
X303689D02*
D03*
X301720D02*
D03*
D22*
X235047Y275319D02*
D03*
Y281028D02*
D03*
X229720Y257445D02*
D03*
Y263154D02*
D03*
X226465Y275075D02*
D03*
Y280784D02*
D03*
X139417Y257445D02*
D03*
Y263154D02*
D03*
X136858Y275043D02*
D03*
Y280752D02*
D03*
X223654Y263154D02*
D03*
Y257445D02*
D03*
X235795Y263154D02*
D03*
Y257445D02*
D03*
X145689Y263154D02*
D03*
Y257445D02*
D03*
X133055Y263154D02*
D03*
Y257445D02*
D03*
X126689Y263154D02*
D03*
Y257445D02*
D03*
X24382Y329488D02*
D03*
Y323780D02*
D03*
X96028Y17331D02*
D03*
Y23039D02*
D03*
X25902Y31969D02*
D03*
Y37677D02*
D03*
D23*
X176677Y138445D02*
D03*
X169528D02*
D03*
X105673Y235957D02*
D03*
X219614Y357732D02*
D03*
X19748Y16232D02*
D03*
X20122Y376035D02*
D03*
X317764Y15894D02*
D03*
X79232Y342512D02*
D03*
X46331Y260358D02*
D03*
X296909Y298516D02*
D03*
X298559Y362791D02*
D03*
X111799Y78980D02*
D03*
X48146Y281713D02*
D03*
D24*
X35587Y67362D02*
D03*
Y76024D02*
D03*
X42279D02*
D03*
Y67362D02*
D03*
D25*
X227787Y104601D02*
D03*
Y98302D02*
D03*
X58866Y330602D02*
D03*
Y336902D02*
D03*
D26*
X212449Y106238D02*
D03*
X215008D02*
D03*
X217567D02*
D03*
X220126D02*
D03*
X212449Y123561D02*
D03*
X215008D02*
D03*
X217567D02*
D03*
X220126D02*
D03*
D27*
X230177Y156697D02*
D03*
X224468D02*
D03*
X294870Y346110D02*
D03*
X300579D02*
D03*
X294874Y322362D02*
D03*
X300583D02*
D03*
X28409Y350472D02*
D03*
X22701D02*
D03*
X230622Y73965D02*
D03*
X224913D02*
D03*
X279866Y40185D02*
D03*
X285575D02*
D03*
D28*
X225390Y186138D02*
D03*
Y183579D02*
D03*
Y181020D02*
D03*
Y178461D02*
D03*
Y175902D02*
D03*
Y173343D02*
D03*
Y170783D02*
D03*
Y168224D02*
D03*
Y165665D02*
D03*
Y163106D02*
D03*
X248524D02*
D03*
Y165665D02*
D03*
Y168224D02*
D03*
Y170783D02*
D03*
Y173343D02*
D03*
Y175902D02*
D03*
Y178461D02*
D03*
Y181020D02*
D03*
Y183579D02*
D03*
Y186138D02*
D03*
D29*
X107602Y102380D02*
D03*
Y87911D02*
D03*
X101697D02*
D03*
Y102380D02*
D03*
Y119896D02*
D03*
Y105427D02*
D03*
X107602D02*
D03*
Y119896D02*
D03*
D30*
Y100067D02*
D03*
Y98098D02*
D03*
Y96130D02*
D03*
Y94161D02*
D03*
Y92193D02*
D03*
Y90224D02*
D03*
X101697D02*
D03*
Y92193D02*
D03*
Y94161D02*
D03*
Y96130D02*
D03*
Y98098D02*
D03*
Y100067D02*
D03*
Y117583D02*
D03*
Y115614D02*
D03*
Y113646D02*
D03*
Y111677D02*
D03*
Y109709D02*
D03*
Y107740D02*
D03*
X107602D02*
D03*
Y109709D02*
D03*
Y111677D02*
D03*
Y113646D02*
D03*
Y115614D02*
D03*
Y117583D02*
D03*
D31*
X240299Y121307D02*
D03*
Y125008D02*
D03*
X67953Y41681D02*
D03*
Y45382D02*
D03*
X72244D02*
D03*
Y41681D02*
D03*
D32*
X277362Y71988D02*
D03*
X281063D02*
D03*
D33*
X311047Y353457D02*
D03*
X307307Y362709D02*
D03*
X314787D02*
D03*
X305598Y305878D02*
D03*
X313079D02*
D03*
X309339Y315130D02*
D03*
D34*
X235858Y121209D02*
D03*
Y124988D02*
D03*
X65102Y337646D02*
D03*
Y341425D02*
D03*
D35*
X43874Y57339D02*
D03*
X37969D02*
D03*
X309335Y346142D02*
D03*
X315240D02*
D03*
X312945Y370000D02*
D03*
X307039D02*
D03*
X312315Y298362D02*
D03*
X306409D02*
D03*
X307693Y322152D02*
D03*
X313598D02*
D03*
D36*
X27411Y77636D02*
D03*
Y71730D02*
D03*
D37*
X51923Y120024D02*
D03*
X53498D02*
D03*
X55073D02*
D03*
X56648D02*
D03*
X58222D02*
D03*
X59797D02*
D03*
X61372D02*
D03*
X62947D02*
D03*
X64522D02*
D03*
X66096D02*
D03*
X67671D02*
D03*
X69246D02*
D03*
X70821D02*
D03*
X72396D02*
D03*
X73970D02*
D03*
X75545D02*
D03*
X77120D02*
D03*
X78695D02*
D03*
X80270D02*
D03*
Y85575D02*
D03*
X78695D02*
D03*
X77120D02*
D03*
X75545D02*
D03*
X73970D02*
D03*
X72396D02*
D03*
X70821D02*
D03*
X69246D02*
D03*
X67671D02*
D03*
X66096D02*
D03*
X64522D02*
D03*
X62947D02*
D03*
X61372D02*
D03*
X59797D02*
D03*
X58222D02*
D03*
X56648D02*
D03*
X55073D02*
D03*
X53498D02*
D03*
X51923D02*
D03*
D38*
X83321Y116972D02*
D03*
Y115398D02*
D03*
Y113823D02*
D03*
Y112248D02*
D03*
Y110673D02*
D03*
Y109098D02*
D03*
Y107524D02*
D03*
Y105949D02*
D03*
Y104374D02*
D03*
Y102799D02*
D03*
Y101224D02*
D03*
Y99650D02*
D03*
Y98075D02*
D03*
Y96500D02*
D03*
Y94925D02*
D03*
Y93350D02*
D03*
Y91776D02*
D03*
Y90201D02*
D03*
Y88626D02*
D03*
X48872D02*
D03*
Y90201D02*
D03*
Y91776D02*
D03*
Y93350D02*
D03*
Y94925D02*
D03*
Y96500D02*
D03*
Y98075D02*
D03*
Y99650D02*
D03*
Y101224D02*
D03*
Y102799D02*
D03*
Y104374D02*
D03*
Y105949D02*
D03*
Y107524D02*
D03*
Y109098D02*
D03*
Y110673D02*
D03*
Y112248D02*
D03*
Y113823D02*
D03*
Y115398D02*
D03*
Y116972D02*
D03*
D39*
X189850Y56177D02*
D03*
Y61177D02*
D03*
Y66177D02*
D03*
Y71177D02*
D03*
X161701Y56177D02*
D03*
Y61177D02*
D03*
Y66177D02*
D03*
Y71177D02*
D03*
D40*
X112232Y52535D02*
D03*
Y46039D02*
D03*
X183945Y144980D02*
D03*
Y138484D02*
D03*
D41*
X112134Y60051D02*
D03*
Y66154D02*
D03*
X278587Y273744D02*
D03*
Y267642D02*
D03*
X58803Y342748D02*
D03*
Y348850D02*
D03*
X197275Y54626D02*
D03*
Y60728D02*
D03*
X227835Y117240D02*
D03*
Y111138D02*
D03*
X235772Y94000D02*
D03*
Y87898D02*
D03*
X227837Y89858D02*
D03*
Y83756D02*
D03*
X264811Y71027D02*
D03*
Y64925D02*
D03*
X197563Y72768D02*
D03*
Y66665D02*
D03*
X153276Y54626D02*
D03*
Y60728D02*
D03*
D42*
X26508Y123319D02*
D03*
Y119776D02*
D03*
X29055Y130701D02*
D03*
Y127157D02*
D03*
X84492Y134937D02*
D03*
Y138480D02*
D03*
D43*
X56343Y37248D02*
D03*
X60126Y37315D02*
D03*
X63906D02*
D03*
X52563Y37248D02*
D03*
D44*
X278579Y260653D02*
D03*
Y255142D02*
D03*
X238957Y201687D02*
D03*
Y207199D02*
D03*
X186602Y86146D02*
D03*
Y80634D02*
D03*
X42268Y32032D02*
D03*
Y37543D02*
D03*
X34913Y343740D02*
D03*
Y338228D02*
D03*
D45*
X130327Y243311D02*
D03*
X132295D02*
D03*
X134264D02*
D03*
X136232D02*
D03*
X138201D02*
D03*
X140169D02*
D03*
X142138D02*
D03*
X144106D02*
D03*
X146075D02*
D03*
X148043D02*
D03*
X150012D02*
D03*
X151980D02*
D03*
X153949D02*
D03*
X155917D02*
D03*
X157886D02*
D03*
X159854D02*
D03*
X161823D02*
D03*
X163791D02*
D03*
X165760D02*
D03*
X167728D02*
D03*
X169697D02*
D03*
X171665D02*
D03*
X173634D02*
D03*
X175602D02*
D03*
X177571D02*
D03*
X179539D02*
D03*
X181508D02*
D03*
X183476D02*
D03*
X185445D02*
D03*
X187413D02*
D03*
X189382D02*
D03*
X191350D02*
D03*
X193319D02*
D03*
X195287D02*
D03*
X197256D02*
D03*
X199224D02*
D03*
Y159846D02*
D03*
X197256D02*
D03*
X195287D02*
D03*
X193319D02*
D03*
X191350D02*
D03*
X189382D02*
D03*
X187413D02*
D03*
X185445D02*
D03*
X183476D02*
D03*
X181508D02*
D03*
X179539D02*
D03*
X177571D02*
D03*
X175602D02*
D03*
X173634D02*
D03*
X171665D02*
D03*
X169697D02*
D03*
X167728D02*
D03*
X165760D02*
D03*
X163791D02*
D03*
X161823D02*
D03*
X159854D02*
D03*
X157886D02*
D03*
X155917D02*
D03*
X153949D02*
D03*
X151980D02*
D03*
X150012D02*
D03*
X148043D02*
D03*
X146075D02*
D03*
X144106D02*
D03*
X142138D02*
D03*
X140169D02*
D03*
X138201D02*
D03*
X136232D02*
D03*
X134264D02*
D03*
X132295D02*
D03*
X130327D02*
D03*
D46*
X206508Y236028D02*
D03*
Y234059D02*
D03*
Y232091D02*
D03*
Y230122D02*
D03*
Y228154D02*
D03*
Y226185D02*
D03*
Y224217D02*
D03*
Y222248D02*
D03*
Y220280D02*
D03*
Y218311D02*
D03*
Y216343D02*
D03*
Y214374D02*
D03*
Y212406D02*
D03*
Y210437D02*
D03*
Y208469D02*
D03*
Y206500D02*
D03*
Y204531D02*
D03*
Y202563D02*
D03*
Y200594D02*
D03*
Y198626D02*
D03*
Y196657D02*
D03*
Y194689D02*
D03*
Y192720D02*
D03*
Y190752D02*
D03*
Y188783D02*
D03*
Y186815D02*
D03*
Y184846D02*
D03*
Y182878D02*
D03*
Y180909D02*
D03*
Y178941D02*
D03*
Y176972D02*
D03*
Y175004D02*
D03*
Y173035D02*
D03*
Y171067D02*
D03*
Y169098D02*
D03*
Y167130D02*
D03*
X123043D02*
D03*
Y169098D02*
D03*
Y171067D02*
D03*
Y173035D02*
D03*
Y175004D02*
D03*
Y176972D02*
D03*
Y178941D02*
D03*
Y180909D02*
D03*
Y182878D02*
D03*
Y184846D02*
D03*
Y186815D02*
D03*
Y188783D02*
D03*
Y190752D02*
D03*
Y192720D02*
D03*
Y194689D02*
D03*
Y196657D02*
D03*
Y198626D02*
D03*
Y200594D02*
D03*
Y202563D02*
D03*
Y204531D02*
D03*
Y206500D02*
D03*
Y208469D02*
D03*
Y210437D02*
D03*
Y212406D02*
D03*
Y214374D02*
D03*
Y216343D02*
D03*
Y218311D02*
D03*
Y220280D02*
D03*
Y222248D02*
D03*
Y224217D02*
D03*
Y226185D02*
D03*
Y228154D02*
D03*
Y230122D02*
D03*
Y232091D02*
D03*
Y234059D02*
D03*
Y236028D02*
D03*
D47*
X273772Y25028D02*
D03*
X271213D02*
D03*
X268654D02*
D03*
X276331D02*
D03*
X266094D02*
D03*
X73941Y25037D02*
D03*
X42445D02*
D03*
X52681D02*
D03*
X45004D02*
D03*
X50122D02*
D03*
X76500D02*
D03*
X79059D02*
D03*
X47563D02*
D03*
X71382D02*
D03*
X68823D02*
D03*
D48*
X286961Y14496D02*
D03*
X255465D02*
D03*
X31815Y14506D02*
D03*
D49*
X275937Y14496D02*
D03*
X266488D02*
D03*
X73153Y14506D02*
D03*
D50*
X41508Y343583D02*
D03*
Y339843D02*
D03*
Y336102D02*
D03*
X52335D02*
D03*
Y343583D02*
D03*
D51*
X225957Y201396D02*
D03*
Y207892D02*
D03*
X230878Y201396D02*
D03*
Y207892D02*
D03*
D52*
X245650Y62000D02*
D03*
X255886D02*
D03*
Y70268D02*
D03*
X245650D02*
D03*
D53*
X285476Y33882D02*
D03*
X279965D02*
D03*
X214841Y133915D02*
D03*
X220352D02*
D03*
X248220Y53819D02*
D03*
X253732D02*
D03*
X46941Y350728D02*
D03*
X52453D02*
D03*
X32352Y316764D02*
D03*
X37863D02*
D03*
X46987Y274116D02*
D03*
X52499D02*
D03*
D54*
X42839Y12538D02*
D03*
X52287D02*
D03*
X63311D02*
D03*
D55*
X83390Y14506D02*
D03*
D56*
X62665Y75008D02*
D03*
Y69102D02*
D03*
D57*
X250063Y89157D02*
D03*
Y91126D02*
D03*
Y93094D02*
D03*
Y95063D02*
D03*
Y97032D02*
D03*
Y99000D02*
D03*
Y100969D02*
D03*
Y102937D02*
D03*
Y104906D02*
D03*
Y106874D02*
D03*
Y108843D02*
D03*
Y110811D02*
D03*
Y112780D02*
D03*
Y114748D02*
D03*
Y116717D02*
D03*
Y118685D02*
D03*
X293764D02*
D03*
Y116717D02*
D03*
Y114748D02*
D03*
Y112780D02*
D03*
Y110811D02*
D03*
Y108843D02*
D03*
Y106874D02*
D03*
Y104906D02*
D03*
Y102937D02*
D03*
Y100969D02*
D03*
Y99000D02*
D03*
Y97032D02*
D03*
Y95063D02*
D03*
Y93094D02*
D03*
Y91126D02*
D03*
Y89157D02*
D03*
D58*
X257150Y125772D02*
D03*
X259118D02*
D03*
X261087D02*
D03*
X263055D02*
D03*
X265024D02*
D03*
X266992D02*
D03*
X268961D02*
D03*
X270929D02*
D03*
X272898D02*
D03*
X274866D02*
D03*
X276835D02*
D03*
X278803D02*
D03*
X280772D02*
D03*
X282740D02*
D03*
X284709D02*
D03*
X286677D02*
D03*
Y82071D02*
D03*
X284709D02*
D03*
X282740D02*
D03*
X280772D02*
D03*
X278803D02*
D03*
X276835D02*
D03*
X274866D02*
D03*
X272898D02*
D03*
X270929D02*
D03*
X268961D02*
D03*
X266992D02*
D03*
X265024D02*
D03*
X263055D02*
D03*
X261087D02*
D03*
X259118D02*
D03*
X257150D02*
D03*
D59*
X286268Y71232D02*
D03*
X292567D02*
D03*
D60*
X46008Y357228D02*
D03*
X53094D02*
D03*
X38651Y323764D02*
D03*
X31564D02*
D03*
X53329Y266616D02*
D03*
X46243D02*
D03*
D61*
X41107Y282610D02*
D03*
D62*
X32052Y307217D02*
D03*
X41107D02*
D03*
X50163D02*
D03*
D63*
X28417Y337201D02*
D03*
Y344287D02*
D03*
D119*
X92924Y174961D02*
G03*
X92924Y175732I-385J385D01*
G01*
X91716Y174523D02*
G03*
X92487Y174523I385J385D01*
G01*
X91716D02*
G03*
X90689Y174523I-513J-513D01*
G01*
X90508Y174342D02*
G03*
X90508Y173315I513J-513D01*
G01*
Y172544D02*
G03*
X90508Y173315I-385J385D01*
G01*
X89300Y172107D02*
G03*
X90071Y172107I385J385D01*
G01*
X89300D02*
G03*
X88273Y172107I-513J-513D01*
G01*
X88092Y171925D02*
G03*
X88092Y170899I513J-513D01*
G01*
Y170128D02*
G03*
X88092Y170899I-385J385D01*
G01*
X86883Y169691D02*
G03*
X87654Y169691I385J385D01*
G01*
X86883D02*
G03*
X85857Y169691I-513J-513D01*
G01*
X85675Y169509D02*
G03*
X85675Y168482I513J-513D01*
G01*
Y167711D02*
G03*
X85675Y168482I-385J385D01*
G01*
X84467Y167274D02*
G03*
X85238Y167274I385J385D01*
G01*
X84467D02*
G03*
X83440Y167274I-513J-513D01*
G01*
X83259Y167093D02*
G03*
X83259Y166066I513J-513D01*
G01*
Y165295D02*
G03*
X83259Y166066I-386J386D01*
G01*
X82051Y164858D02*
G03*
X82822Y164858I386J386D01*
G01*
X82051D02*
G03*
X81024Y164858I-513J-513D01*
G01*
X80842Y164676D02*
G03*
X80842Y163649I513J-513D01*
G01*
Y162879D02*
G03*
X80842Y163649I-386J386D01*
G01*
X79634Y162441D02*
G03*
X80405Y162441I386J386D01*
G01*
X79634D02*
G03*
X78607Y162441I-513J-513D01*
G01*
X78426Y162260D02*
G03*
X78426Y161233I513J-513D01*
G01*
Y160462D02*
G03*
X78426Y161233I-386J386D01*
G01*
X77218Y160025D02*
G03*
X77989Y160025I386J386D01*
G01*
X77218D02*
G03*
X76191Y160025I-513J-513D01*
G01*
X76010Y159843D02*
G03*
X76010Y158817I513J-513D01*
G01*
X105260Y163028D02*
G03*
X104693Y162461I0J-567D01*
G01*
X104126Y159957D02*
G03*
X104693Y160524I0J567D01*
G01*
X103276D02*
G03*
X103842Y159957I567J0D01*
G01*
X103276Y165104D02*
G03*
X102709Y165671I-567J0D01*
G01*
X102425D02*
G03*
X101858Y165104I0J-567D01*
G01*
X101291Y161336D02*
G03*
X101858Y161903I0J567D01*
G01*
X100441D02*
G03*
X101008Y161336I567J0D01*
G01*
X100441Y165104D02*
G03*
X99874Y165671I-567J0D01*
G01*
X99590D02*
G03*
X99024Y165104I0J-567D01*
G01*
X98457Y161336D02*
G03*
X99024Y161903I0J567D01*
G01*
X97606D02*
G03*
X98173Y161336I567J0D01*
G01*
X97606Y165104D02*
G03*
X97039Y165671I-567J0D01*
G01*
X96756D02*
G03*
X96189Y165104I0J-567D01*
G01*
X95622Y163028D02*
G03*
X96189Y163594I0J567D01*
G01*
X101425Y157728D02*
G03*
X101992Y157161I567J0D01*
G01*
X101425Y159665D02*
G03*
X100858Y160232I-567J0D01*
G01*
X100575D02*
G03*
X100008Y159665I0J-567D01*
G01*
X99441Y154090D02*
G03*
X100008Y154657I0J567D01*
G01*
X98590D02*
G03*
X99158Y154090I567J0D01*
G01*
X98590Y159665D02*
G03*
X98024Y160232I-567J0D01*
G01*
X97740D02*
G03*
X97173Y159665I0J-567D01*
G01*
X96606Y154090D02*
G03*
X97173Y154657I0J567D01*
G01*
X95756D02*
G03*
X96323Y154090I567J0D01*
G01*
X95756Y156595D02*
G03*
X95189Y157161I-567J0D01*
G01*
X89415Y162709D02*
G03*
X90217Y162709I401J401D01*
G01*
X89327Y162797D02*
G03*
X88525Y162797I-401J-401D01*
G01*
X88325Y162597D02*
G03*
X88325Y161795I401J-401D01*
G01*
X89419Y159900D02*
G03*
X89419Y160701I-401J401D01*
G01*
X88416Y159699D02*
G03*
X89218Y159699I401J401D01*
G01*
X87323Y160793D02*
G03*
X86521Y160793I-401J-401D01*
G01*
X86321Y160592D02*
G03*
X86321Y159791I401J-401D01*
G01*
X87414Y157895D02*
G03*
X87414Y158697I-401J401D01*
G01*
X86412Y157695D02*
G03*
X87214Y157695I401J401D01*
G01*
X85318Y158789D02*
G03*
X84517Y158789I-401J-401D01*
G01*
X84316Y158588D02*
G03*
X84316Y157786I401J-401D01*
G01*
X85410Y155891D02*
G03*
X85410Y156693I-401J401D01*
G01*
X84408Y155690D02*
G03*
X85209Y155690I401J401D01*
G01*
X83314Y156784D02*
G03*
X82512Y156784I-401J-401D01*
G01*
X82312Y156584D02*
G03*
X82312Y155782I401J-401D01*
G01*
X83405Y153886D02*
G03*
X83405Y154688I-401J401D01*
G01*
X82403Y153686D02*
G03*
X83205Y153686I401J401D01*
G01*
X81310Y154780D02*
G03*
X80508Y154780I-401J-401D01*
G01*
X80307Y154579D02*
G03*
X80307Y153778I401J-401D01*
G01*
X80396Y152888D02*
G03*
X80396Y153689I-401J401D01*
G01*
X140060Y141740D02*
G03*
X140169Y141850I0J110D01*
G01*
X140060Y141740D02*
G03*
X139376Y141057I0J-684D01*
G01*
Y140715D02*
G03*
X140060Y140032I684J0D01*
G01*
X141120Y139348D02*
G03*
X140437Y140032I-684J0D01*
G01*
Y138323D02*
G03*
X141120Y139006I0J684D01*
G01*
X140060Y138323D02*
G03*
X139376Y137639I0J-684D01*
G01*
Y137298D02*
G03*
X140060Y136614I684J0D01*
G01*
X141120Y135931D02*
G03*
X140437Y136614I-684J0D01*
G01*
Y134906D02*
G03*
X141120Y135589I0J684D01*
G01*
X140060Y134906D02*
G03*
X139376Y134222I0J-684D01*
G01*
Y133880D02*
G03*
X140060Y133197I684J0D01*
G01*
X141120Y132513D02*
G03*
X140437Y133197I-684J0D01*
G01*
Y131488D02*
G03*
X141120Y132172I0J684D01*
G01*
X140060Y131488D02*
G03*
X139376Y130805I0J-684D01*
G01*
Y130463D02*
G03*
X140060Y129780I684J0D01*
G01*
X141120Y129096D02*
G03*
X140437Y129780I-684J0D01*
G01*
Y128071D02*
G03*
X141120Y128754I0J684D01*
G01*
X140060Y128071D02*
G03*
X139376Y127387I0J-684D01*
G01*
Y127046D02*
G03*
X140060Y126362I684J0D01*
G01*
X141120Y125679D02*
G03*
X140437Y126362I-684J0D01*
G01*
Y124654D02*
G03*
X141120Y125337I0J684D01*
G01*
X140437Y124654D02*
G03*
X140169Y124386I0J-267D01*
G01*
X138210Y120961D02*
G03*
X139039Y120961I415J415D01*
G01*
X138210D02*
G03*
X137243Y120961I-483J-483D01*
G01*
X137001Y120719D02*
G03*
X137001Y119752I483J-483D01*
G01*
X137842Y117946D02*
G03*
X137842Y118912I-483J483D01*
G01*
X136634Y117704D02*
G03*
X137600Y117704I483J483D01*
G01*
X136634Y117704D02*
G03*
X135783Y117704I-426J-426D01*
G01*
X135425Y117347D02*
G03*
X135425Y116496I426J-426D01*
G01*
X135425Y115529D02*
G03*
X135425Y116496I-483J483D01*
G01*
X134217Y115287D02*
G03*
X135184Y115287I483J483D01*
G01*
X133715Y115790D02*
G03*
X132748Y115790I-483J-483D01*
G01*
X132506Y115548D02*
G03*
X132506Y114582I483J-483D01*
G01*
X133619Y112502D02*
G03*
X133619Y113469I-483J483D01*
G01*
X132411Y112260D02*
G03*
X133378Y112260I483J483D01*
G01*
X131859Y112813D02*
G03*
X130892Y112813I-483J-483D01*
G01*
X127197Y111661D02*
G03*
X127374Y111484I177J0D01*
G01*
X127197Y111661D02*
G03*
X126513Y112344I-684J0D01*
G01*
X126172D02*
G03*
X125488Y111661I0J-684D01*
G01*
X125312Y111484D02*
G03*
X125488Y111661I0J177D01*
G01*
X123779D02*
G03*
X123956Y111484I177J0D01*
G01*
X123779Y111661D02*
G03*
X123096Y112344I-684J0D01*
G01*
X122754D02*
G03*
X122071Y111661I0J-684D01*
G01*
X121387Y110636D02*
G03*
X122071Y111320I0J684D01*
G01*
X120362D02*
G03*
X121046Y110636I684J0D01*
G01*
X120362Y111661D02*
G03*
X119679Y112344I-684J0D01*
G01*
X119337D02*
G03*
X118654Y111661I0J-684D01*
G01*
X118477Y111484D02*
G03*
X118654Y111661I0J177D01*
G01*
X113028Y183562D02*
G03*
X113711Y182878I684J0D01*
G01*
X113028Y185019D02*
G03*
X112344Y185703I-684J0D01*
G01*
X112002D02*
G03*
X111319Y185019I0J-684D01*
G01*
X110635Y182018D02*
G03*
X111319Y182701I0J684D01*
G01*
X109610D02*
G03*
X110294Y182018I684J0D01*
G01*
X109610Y185019D02*
G03*
X108927Y185703I-684J0D01*
G01*
X108585D02*
G03*
X107902Y185019I0J-684D01*
G01*
X107218Y182018D02*
G03*
X107902Y182701I0J684D01*
G01*
X106193D02*
G03*
X106876Y182018I684J0D01*
G01*
X106193Y185019D02*
G03*
X105509Y185703I-684J0D01*
G01*
X105168D02*
G03*
X104484Y185019I0J-684D01*
G01*
X103801Y182878D02*
G03*
X104484Y183562I0J684D01*
G01*
X89133Y154535D02*
G03*
X89133Y153003I766J-766D01*
G01*
X89772Y150831D02*
G03*
X89772Y152363I-766J766D01*
G01*
X87857Y150448D02*
G03*
X89389Y150448I766J766D01*
G01*
X86246Y152059D02*
G03*
X84714Y152059I-766J-766D01*
G01*
X84330Y151676D02*
G03*
X84330Y150144I766J-766D01*
G01*
Y149732D02*
G03*
X84330Y150144I-206J206D01*
G01*
X102618Y170240D02*
G03*
X102051Y169673I0J-567D01*
G01*
X101484Y167888D02*
G03*
X102051Y168455I0J567D01*
G01*
X100634D02*
G03*
X101201Y167888I567J0D01*
G01*
X100634Y172390D02*
G03*
X100067Y172957I-567J0D01*
G01*
X99783D02*
G03*
X99217Y172390I0J-567D01*
G01*
X98650Y167888D02*
G03*
X99217Y168455I0J567D01*
G01*
X97799D02*
G03*
X98366Y167888I567J0D01*
G01*
X97799Y172390D02*
G03*
X97232Y172957I-567J0D01*
G01*
X96949D02*
G03*
X96382Y172390I0J-567D01*
G01*
X95815Y170240D02*
G03*
X96382Y170807I0J567D01*
G01*
X102402Y180391D02*
G03*
X102402Y179424I483J-483D01*
G01*
X109070Y171791D02*
G03*
X109070Y172757I-483J483D01*
G01*
X107861Y171549D02*
G03*
X108828Y171549I483J483D01*
G01*
X100711Y178699D02*
G03*
X99798Y178699I-456J-456D01*
G01*
X99503Y178404D02*
G03*
X99503Y177491I456J-456D01*
G01*
X101202Y174826D02*
G03*
X101202Y175792I-483J483D01*
G01*
X99994Y174584D02*
G03*
X100960Y174584I483J483D01*
G01*
X98295Y176283D02*
G03*
X97382Y176283I-456J-456D01*
G01*
X97086Y175987D02*
G03*
X97086Y175075I456J-456D01*
G01*
X138729Y116467D02*
G03*
X139271Y116467I271J271D01*
G01*
X138729Y116467D02*
G03*
X137763Y116467I-483J-483D01*
G01*
X137521Y116226D02*
G03*
X137521Y115259I483J-483D01*
G01*
X138084Y113730D02*
G03*
X138084Y114697I-483J483D01*
G01*
X136876Y113488D02*
G03*
X137842Y113488I483J483D01*
G01*
X136313Y114051D02*
G03*
X135346Y114051I-483J-483D01*
G01*
X135105Y113809D02*
G03*
X135105Y112843I483J-483D01*
G01*
X135667Y111314D02*
G03*
X135667Y112280I-483J483D01*
G01*
X134459Y111072D02*
G03*
X135426Y111072I483J483D01*
G01*
X134459Y111072D02*
G03*
X133875Y111072I-292J-292D01*
G01*
X129977Y109710D02*
G03*
X130203Y109495I220J6D01*
G01*
X129977Y109710D02*
G03*
X129276Y110375I-683J-18D01*
G01*
X128934Y110367D02*
G03*
X128269Y109666I18J-683D01*
G01*
X128054Y109439D02*
G03*
X128269Y109666I-6J220D01*
G01*
X124209Y109469D02*
G03*
X124300Y109378I91J0D01*
G01*
X124209Y109469D02*
G03*
X123525Y110153I-684J0D01*
G01*
X123184D02*
G03*
X122500Y109469I0J-684D01*
G01*
X122409Y109378D02*
G03*
X122500Y109469I0J91D01*
G01*
X135600Y121870D02*
G03*
X136595Y121870I497J497D01*
G01*
X135600D02*
G03*
X134068Y121870I-766J-766D01*
G01*
X133685Y121487D02*
G03*
X133685Y119955I766J-766D01*
G01*
X134309Y117798D02*
G03*
X134309Y119330I-766J766D01*
G01*
X132394Y117415D02*
G03*
X133926Y117415I766J766D01*
G01*
X131769Y118040D02*
G03*
X130237Y118040I-766J-766D01*
G01*
X129854Y117657D02*
G03*
X129854Y116124I766J-766D01*
G01*
Y115130D02*
G03*
X129854Y116124I-497J497D01*
G01*
X138268Y143045D02*
G03*
X137584Y143728I-684J0D01*
G01*
X135361Y144412D02*
G03*
X136044Y143728I684J0D01*
G01*
Y145437D02*
G03*
X135361Y144754I0J-684D01*
G01*
X138377Y145437D02*
G03*
X139061Y146121I0J684D01*
G01*
Y146462D02*
G03*
X138377Y147146I-684J0D01*
G01*
X135361Y147829D02*
G03*
X136044Y147146I684J0D01*
G01*
Y148854D02*
G03*
X135361Y148171I0J-684D01*
G01*
X138377Y148854D02*
G03*
X139061Y149538I0J684D01*
G01*
Y149880D02*
G03*
X138377Y150563I-684J0D01*
G01*
X135361Y151247D02*
G03*
X136044Y150563I684J0D01*
G01*
Y152272D02*
G03*
X135361Y151588I0J-684D01*
G01*
X137584Y152272D02*
G03*
X138268Y152955I0J684D01*
G01*
X121239Y144067D02*
G03*
X122323Y145150I0J1084D01*
G01*
X120335Y144067D02*
G03*
X119252Y142983I0J-1084D01*
G01*
Y142442D02*
G03*
X120335Y141358I1084J0D01*
G01*
X125055Y140275D02*
G03*
X123972Y141358I-1084J0D01*
G01*
Y138650D02*
G03*
X125055Y139733I0J1084D01*
G01*
X120335Y138650D02*
G03*
X119252Y137566I0J-1084D01*
G01*
Y137024D02*
G03*
X120335Y135941I1084J0D01*
G01*
X125055Y134857D02*
G03*
X123972Y135941I-1084J0D01*
G01*
Y133232D02*
G03*
X125055Y134316I0J1084D01*
G01*
X120335Y133232D02*
G03*
X119252Y132149I0J-1084D01*
G01*
Y131607D02*
G03*
X120335Y130524I1084J0D01*
G01*
X125055Y129440D02*
G03*
X123972Y130524I-1084J0D01*
G01*
Y127815D02*
G03*
X125055Y128898I0J1084D01*
G01*
X120335Y127815D02*
G03*
X119252Y126732I0J-1084D01*
G01*
Y126190D02*
G03*
X120335Y125106I1084J0D01*
G01*
X122323Y124023D02*
G03*
X121239Y125106I-1084J0D01*
G01*
X133168Y139815D02*
G03*
X134252Y140898I0J1084D01*
G01*
X132619Y139815D02*
G03*
X131535Y138732I0J-1084D01*
G01*
Y138190D02*
G03*
X132619Y137106I1084J0D01*
G01*
X137159Y136023D02*
G03*
X136076Y137106I-1084J0D01*
G01*
Y134398D02*
G03*
X137159Y135481I0J1084D01*
G01*
X132619Y134398D02*
G03*
X131535Y133314I0J-1084D01*
G01*
Y132772D02*
G03*
X132619Y131689I1084J0D01*
G01*
X137159Y130605D02*
G03*
X136076Y131689I-1084J0D01*
G01*
Y128980D02*
G03*
X137159Y130064I0J1084D01*
G01*
X132793Y128980D02*
G03*
X131709Y127897I0J-1084D01*
G01*
Y127355D02*
G03*
X132793Y126272I1084J0D01*
G01*
X134252Y125188D02*
G03*
X133168Y126272I-1084J0D01*
G01*
X127579Y147977D02*
G03*
X128662Y146894I1084J0D01*
G01*
X130544Y145810D02*
G03*
X129460Y146894I-1084J0D01*
G01*
Y144185D02*
G03*
X130544Y145268I0J1084D01*
G01*
X126648Y144185D02*
G03*
X125565Y143102I0J-1084D01*
G01*
Y142560D02*
G03*
X126648Y141476I1084J0D01*
G01*
X130544Y140393D02*
G03*
X129460Y141476I-1084J0D01*
G01*
Y138768D02*
G03*
X130544Y139851I0J1084D01*
G01*
X126858Y138768D02*
G03*
X125774Y137684I0J-1084D01*
G01*
Y137143D02*
G03*
X126858Y136059I1084J0D01*
G01*
X130277Y134976D02*
G03*
X129193Y136059I-1084J0D01*
G01*
Y133350D02*
G03*
X130277Y134434I0J1084D01*
G01*
X126858Y133350D02*
G03*
X125774Y132267I0J-1084D01*
G01*
Y131725D02*
G03*
X126858Y130642I1084J0D01*
G01*
X127579Y129921D02*
G03*
X126858Y130642I-721J0D01*
G01*
X127579Y128539D02*
G03*
X128244Y127874I665J0D01*
G01*
X130650Y126791D02*
G03*
X129566Y127874I-1084J0D01*
G01*
Y125165D02*
G03*
X130650Y126249I0J1084D01*
G01*
X125591Y125165D02*
G03*
X124508Y124082I0J-1084D01*
G01*
Y123540D02*
G03*
X125591Y122457I1084J0D01*
G01*
X127579Y121373D02*
G03*
X126495Y122457I-1084J0D01*
G01*
X191532Y306142D02*
Y345421D01*
X179126Y263106D02*
Y293736D01*
X212791Y196673D02*
X216772Y200654D01*
X208658Y196673D02*
X212791D01*
X233626Y275760D02*
X234386Y276520D01*
X234653Y251047D02*
Y257445D01*
X226024Y242417D02*
X234653Y251047D01*
X226024Y224158D02*
Y242417D01*
X229780Y262661D02*
Y270839D01*
X233858Y285083D02*
Y288606D01*
Y280138D02*
Y285083D01*
X229142Y293323D02*
Y345421D01*
Y293323D02*
X233858Y288606D01*
X231642Y270216D02*
X234760Y267098D01*
Y262728D02*
Y267098D01*
X231642Y270216D02*
Y289189D01*
X226701Y294130D02*
X231642Y289189D01*
X226701Y294130D02*
Y345421D01*
X223177Y263941D02*
Y332709D01*
X136307Y253453D02*
Y273331D01*
X134311Y251457D02*
X136307Y253453D01*
Y273331D02*
X137094Y274118D01*
X136992Y282547D02*
Y288075D01*
X139575Y263866D02*
Y268216D01*
X84673Y133283D02*
Y134094D01*
X80274Y128884D02*
X84673Y133283D01*
X80274Y120929D02*
Y128884D01*
X71561Y89307D02*
Y101537D01*
X52787Y108716D02*
Y112374D01*
X72236Y102126D02*
X74937D01*
X87520Y102799D02*
X87803Y103083D01*
X32063Y115394D02*
Y135150D01*
Y115394D02*
X46232Y101224D01*
X31780Y135433D02*
X32063Y135150D01*
X46323Y102814D02*
X48857D01*
X33945Y115192D02*
X46323Y102814D01*
X33945Y115192D02*
Y135921D01*
X26370Y117236D02*
X45516Y98090D01*
X26370Y117236D02*
Y118902D01*
X45516Y98090D02*
X48857D01*
X234095Y271098D02*
Y275291D01*
X233626Y275760D02*
X234095Y275291D01*
X30974Y198246D02*
Y200884D01*
X21260Y188531D02*
X30974Y198246D01*
X21260Y88153D02*
Y188531D01*
X37508Y202260D02*
X40512D01*
X22917Y187669D02*
X37508Y202260D01*
X22917Y88815D02*
Y187669D01*
X212608Y334451D02*
Y339352D01*
X212213Y339748D02*
X212608Y339352D01*
X210874Y270776D02*
Y272051D01*
X210874Y263618D02*
X210874Y270776D01*
Y272051D02*
X215216Y276394D01*
X215217Y331842D01*
X213429Y277890D02*
Y330283D01*
X167661Y345138D02*
Y345980D01*
X128402Y264870D02*
Y296342D01*
X158425Y335902D02*
X167661Y345138D01*
X158425Y326366D02*
Y335902D01*
X225870Y281791D02*
Y288409D01*
X142146Y270787D02*
Y270839D01*
X139575Y268216D02*
X142146Y270787D01*
X127154Y256559D02*
X128205Y255508D01*
Y249492D02*
Y255508D01*
Y249492D02*
X130319Y247378D01*
X128402Y296342D02*
X158425Y326366D01*
X127803Y264272D02*
X128402Y264870D01*
X166575Y331909D02*
Y339220D01*
X209020Y279658D02*
Y332894D01*
X204468Y286378D02*
Y332894D01*
X197059Y263067D02*
Y278969D01*
X199551Y293673D02*
Y332894D01*
X197659Y338419D02*
X198756Y339516D01*
X197659Y295565D02*
Y338419D01*
X189122Y287028D02*
X197659Y295565D01*
X195905Y329301D02*
X196526Y329922D01*
X195905Y297590D02*
Y329301D01*
X186587Y288272D02*
X195905Y297590D01*
X194315Y332291D02*
X194917Y332894D01*
X194315Y302335D02*
Y332291D01*
X183407Y291427D02*
X194315Y302335D01*
X179126Y293736D02*
X191532Y306142D01*
X189705Y307291D02*
Y332894D01*
X187966Y308923D02*
Y338761D01*
X186750Y311378D02*
Y345346D01*
X185012Y312937D02*
Y332894D01*
X183244Y314870D02*
Y338717D01*
X171252Y299177D02*
X185012Y312937D01*
X161016Y263106D02*
Y302732D01*
X168894Y330906D02*
Y332894D01*
X146016Y263102D02*
Y308028D01*
X207009Y339013D02*
X207768Y339772D01*
X201311Y262992D02*
Y275150D01*
X210205Y208339D02*
X226024Y224158D01*
X206917Y208339D02*
X210205D01*
X225783Y270839D02*
Y273382D01*
Y270205D02*
Y270839D01*
X229508Y252673D02*
Y257906D01*
X224516Y224980D02*
Y256764D01*
X209941Y210406D02*
X224516Y224980D01*
X219128Y254809D02*
X222827Y251110D01*
X222827Y225208D02*
X222827Y251110D01*
X210087Y212469D02*
X222827Y225208D01*
X216815Y254898D02*
X221248Y250465D01*
Y225732D02*
Y250465D01*
X209890Y214374D02*
X221248Y225732D01*
X214839Y255043D02*
X219740Y250142D01*
Y226433D02*
Y250142D01*
X209650Y216343D02*
X219740Y226433D01*
X212878Y254902D02*
X218228Y249551D01*
Y227153D02*
Y249551D01*
X209386Y218311D02*
X218228Y227153D01*
X210910Y254705D02*
X216858Y248756D01*
Y229051D02*
Y248756D01*
X210055Y222248D02*
X216858Y229051D01*
X208941Y254232D02*
X215555Y247618D01*
Y230161D02*
Y247618D01*
X209610Y224217D02*
X215555Y230161D01*
X206972Y254248D02*
X214232Y246988D01*
Y231591D02*
Y246988D01*
X210795Y228154D02*
X214232Y231591D01*
X218262Y273487D02*
Y333604D01*
X214811Y270035D02*
X218262Y273487D01*
X214811Y263528D02*
Y270035D01*
X212878Y271224D02*
X216744Y275091D01*
X212878Y263106D02*
Y271224D01*
X216744Y275091D02*
Y332673D01*
X219742Y272353D02*
Y333884D01*
X216737Y269347D02*
X219742Y272353D01*
X216737Y263618D02*
Y269347D01*
X220987Y269522D02*
Y339177D01*
X219110Y267646D02*
X220987Y269522D01*
X219110Y263618D02*
Y267646D01*
X208941Y273402D02*
X213429Y277890D01*
X208941Y263106D02*
Y273402D01*
X210307Y334662D02*
Y346059D01*
X211181Y278618D02*
Y333787D01*
X206972Y274410D02*
X211181Y278618D01*
X206972Y263106D02*
Y274410D01*
X204701Y275339D02*
X209020Y279658D01*
X204701Y263547D02*
Y275339D01*
X207009Y280847D02*
Y339013D01*
X201311Y275150D02*
X207009Y280847D01*
X199016Y262835D02*
Y276996D01*
X205764Y283744D02*
Y345008D01*
X199016Y276996D02*
X205764Y283744D01*
X197059Y278969D02*
X204468Y286378D01*
X202835Y288669D02*
Y329716D01*
X195028Y280862D02*
X202835Y288669D01*
X195028Y263122D02*
Y280862D01*
X200787Y345965D02*
X201136Y345616D01*
Y291337D02*
Y345616D01*
X193059Y283260D02*
X201136Y291337D01*
X193059Y263122D02*
Y283260D01*
X191091Y285213D02*
X199551Y293673D01*
X191091Y263122D02*
Y285213D01*
X189122Y263122D02*
Y287028D01*
X186587Y263122D02*
Y288272D01*
X219128Y254809D02*
X219128Y257201D01*
X216815Y254898D02*
Y257201D01*
X214839Y255043D02*
Y256508D01*
X212878Y254902D02*
Y257201D01*
X210910Y254705D02*
Y257201D01*
X208941Y254232D02*
Y257201D01*
X206972Y254248D02*
Y257201D01*
X204659Y253660D02*
Y257201D01*
Y253660D02*
X212945Y245374D01*
X214543Y334874D02*
X216744Y332673D01*
X216358Y335508D02*
X218262Y333604D01*
X218575Y335051D02*
X219742Y333884D01*
X218575Y335051D02*
Y341205D01*
X216358Y335508D02*
Y339177D01*
X210307Y334662D02*
X211181Y333787D01*
X132449Y297783D02*
X166575Y331909D01*
X132449Y263953D02*
Y297783D01*
X132370Y263953D02*
X133055Y263268D01*
X139524Y253783D02*
Y257535D01*
X136268Y250528D02*
X139524Y253783D01*
X136268Y245374D02*
Y250528D01*
X145787Y254240D02*
Y256209D01*
X140256Y248709D02*
X145787Y254240D01*
X140256Y243831D02*
Y248709D01*
X145181Y256815D02*
X145787Y256209D01*
X146016Y308028D02*
X168894Y330906D01*
X150740Y256098D02*
Y256878D01*
X142118Y247476D02*
X150740Y256098D01*
X144118Y242618D02*
Y247189D01*
X153154Y256224D02*
Y256622D01*
X144118Y247189D02*
X153154Y256224D01*
X146118Y242701D02*
Y247248D01*
X155079Y256209D02*
Y256906D01*
X146118Y247248D02*
X155079Y256209D01*
X148008Y241354D02*
Y246921D01*
X157024Y255937D02*
Y256906D01*
X148008Y246921D02*
X157024Y255937D01*
X150016Y241354D02*
Y246791D01*
X159012Y255787D02*
Y256878D01*
X150016Y246791D02*
X159012Y255787D01*
X157791Y242307D02*
Y252209D01*
X160957Y255374D02*
Y256842D01*
X157791Y252209D02*
X160957Y255374D01*
X165279Y254815D02*
Y257024D01*
X161874Y251409D02*
X165279Y254815D01*
X162972Y255114D02*
Y256504D01*
X159866Y252008D02*
X162972Y255114D01*
X172382Y345094D02*
Y346047D01*
X150701Y263106D02*
Y310213D01*
X170396Y329908D01*
X153098Y263106D02*
Y309461D01*
X171713Y328075D01*
X173693Y326468D02*
Y332768D01*
X155055Y263106D02*
Y307831D01*
X173693Y326468D01*
X175865Y339011D02*
X176063Y339209D01*
X157043Y263106D02*
Y306126D01*
X175051Y324134D01*
X159031Y263106D02*
Y304571D01*
X176974Y322513D01*
X161016Y302732D02*
X178713Y320429D01*
X162937Y301031D02*
X180512Y318606D01*
X162937Y263760D02*
Y301031D01*
X181905Y345394D02*
X181918Y345381D01*
X165165Y263106D02*
Y300142D01*
X181918Y316895D01*
X161874Y243331D02*
Y251409D01*
X159866Y243362D02*
Y252008D01*
X130319Y244646D02*
Y247378D01*
X132236Y245303D02*
Y256976D01*
X134311Y245772D02*
Y251457D01*
X142118Y243803D02*
Y247476D01*
X170396Y343109D02*
X172382Y345094D01*
X170396Y329908D02*
Y343109D01*
X196083Y345216D02*
X196526Y344773D01*
Y329922D02*
Y344773D01*
X202247Y330304D02*
X202835Y329716D01*
X202247Y330304D02*
Y334137D01*
X203083Y334972D02*
Y339701D01*
X202247Y334137D02*
X203083Y334972D01*
X197248Y242843D02*
Y256410D01*
X206508Y228154D02*
X210795D01*
X206508Y224217D02*
X209610D01*
X206508Y222248D02*
X210055D01*
X137502Y88695D02*
X164996Y116189D01*
X110348Y88695D02*
X137502D01*
X164996Y116189D02*
Y142063D01*
X183407Y263106D02*
Y291427D01*
X181094Y292622D02*
X192788Y304315D01*
X181094Y292622D02*
X181095Y263106D01*
X192787Y338630D02*
X192788Y304315D01*
X177157Y294744D02*
X189705Y307291D01*
X187966Y338761D02*
X188622Y339417D01*
X175189Y296146D02*
X187966Y308923D01*
X132327Y245213D02*
Y245898D01*
Y245067D02*
Y245213D01*
X132236Y244484D02*
Y245303D01*
X132327Y245213D02*
X132350Y245189D01*
X132236Y245303D02*
X132327Y245213D01*
X100439Y87911D02*
X101697Y87911D01*
X98151Y90200D02*
X100439Y87911D01*
X83321Y90201D02*
X98151Y90200D01*
X98636Y91776D02*
X100187Y90224D01*
X83321Y91776D02*
X98636D01*
X100187Y90224D02*
X101697D01*
X99786Y92193D02*
X101697D01*
X98629Y93350D02*
X99786Y92193D01*
X99890Y94134D02*
X100791D01*
X99098Y94925D02*
X99890Y94134D01*
X84156Y93350D02*
X98629D01*
X84108Y94925D02*
X99098D01*
X51339Y113823D02*
X52787Y112374D01*
X48872Y113823D02*
X51339D01*
X81526Y88626D02*
X83321D01*
X211335Y202626D02*
X213051Y204343D01*
X208563Y200528D02*
X213283D01*
X208268Y202626D02*
X211335D01*
X219681Y346083D02*
Y356161D01*
X214543Y344953D02*
X215106Y345516D01*
X214543Y334874D02*
Y344953D01*
X192787Y338630D02*
X193551Y339394D01*
X173221Y297799D02*
X186714Y311293D01*
X181918Y316895D02*
Y345381D01*
X180512Y318606D02*
Y338681D01*
X176974Y322513D02*
Y334294D01*
X178713Y320429D02*
Y332894D01*
X171713Y328075D02*
Y338571D01*
X175051Y324134D02*
Y330327D01*
X175865Y331141D01*
Y339011D01*
X177157Y263106D02*
Y294744D01*
X168939Y263106D02*
Y300565D01*
X183244Y314870D01*
X179882Y339311D02*
X180512Y338681D01*
X176974Y334294D02*
X177965Y335284D01*
X171252Y263106D02*
Y299177D01*
X175189Y263106D02*
Y296146D01*
X173221Y263106D02*
Y297799D01*
X183244Y338717D02*
X184008Y339480D01*
X177339Y345378D02*
X177965Y344752D01*
Y335284D02*
Y344752D01*
X171713Y338571D02*
X172303Y339161D01*
X215106Y345516D02*
Y346122D01*
X210421Y235602D02*
Y242539D01*
X198965Y253996D02*
X210421Y242539D01*
X198965Y253996D02*
Y257217D01*
X211606Y233831D02*
Y243732D01*
X201278Y254061D02*
X211606Y243732D01*
X201278Y254061D02*
Y257217D01*
X212608Y334451D02*
X215217Y331842D01*
X212945Y233248D02*
Y245374D01*
X208807Y233988D02*
X210421Y235602D01*
X209949Y232173D02*
X211606Y233831D01*
X209827Y230130D02*
X212945Y233248D01*
X193390Y241921D02*
Y252402D01*
X195028Y254039D02*
Y257217D01*
X193390Y252402D02*
X195028Y254039D01*
X191299Y241721D02*
Y253087D01*
X193059Y254847D02*
Y257217D01*
X191299Y253087D02*
X193059Y254847D01*
X189413Y242724D02*
Y253728D01*
X191130Y255445D02*
Y256449D01*
X189413Y253728D02*
X191130Y255445D01*
X187402Y243043D02*
Y254610D01*
X189118Y256327D01*
X185512Y242965D02*
Y255919D01*
X186809Y257217D01*
X167713Y242779D02*
Y255974D01*
X168939Y257201D01*
X169764Y243098D02*
Y253783D01*
X171252Y255272D02*
Y257201D01*
X169764Y253783D02*
X171252Y255272D01*
X173547Y244929D02*
Y256772D01*
X175378Y245000D02*
Y256842D01*
X177378Y245051D02*
Y256894D01*
X183504Y245587D02*
Y257429D01*
X179539Y243311D02*
Y256787D01*
X179126Y257201D02*
X179539Y256787D01*
X181520Y241602D02*
Y256776D01*
X181095Y257201D02*
X181520Y256776D01*
X208480Y230130D02*
X209827D01*
X208067Y232173D02*
X209949D01*
X157886Y243311D02*
X157951Y243376D01*
X68400Y151207D02*
X75406Y158213D01*
X93657Y176465D02*
X104004Y186811D01*
X92924Y175732D02*
X93657Y176465D01*
X92487Y174523D02*
X92924Y174961D01*
X90508Y174342D02*
X90689Y174523D01*
X90071Y172107D02*
X90508Y172544D01*
X88092Y171925D02*
X88273Y172107D01*
X87654Y169691D02*
X88092Y170128D01*
X85675Y169509D02*
X85857Y169691D01*
X85238Y167274D02*
X85675Y167711D01*
X83259Y167093D02*
X83440Y167274D01*
X82822Y164858D02*
X83259Y165295D01*
X80842Y164676D02*
X81024Y164858D01*
X80405Y162441D02*
X80842Y162879D01*
X78426Y162260D02*
X78607Y162441D01*
X77989Y160025D02*
X78426Y160462D01*
X76010Y159843D02*
X76191Y160025D01*
X75406Y158213D02*
X76010Y158817D01*
X104004Y186811D02*
X123043D01*
X68400Y141844D02*
Y151207D01*
X119780Y173035D02*
X123043D01*
X109772Y163028D02*
X119780Y173035D01*
X105386Y163028D02*
X109772D01*
X94114D02*
X95480D01*
X105260D02*
X105386D01*
X104693Y160524D02*
Y162461D01*
X103842Y159957D02*
X104126D01*
X103276Y160524D02*
Y163028D01*
Y165104D01*
X102425Y165671D02*
X102709D01*
X101858Y163028D02*
Y165104D01*
Y161903D02*
Y163028D01*
X101008Y161336D02*
X101291D01*
X100441Y161903D02*
Y163028D01*
Y165104D01*
X99590Y165671D02*
X99874D01*
X99024Y163028D02*
Y165104D01*
Y161903D02*
Y163028D01*
X98173Y161336D02*
X98457D01*
X97606Y161903D02*
Y163028D01*
Y165104D01*
X96756Y165671D02*
X97039D01*
X96189Y163594D02*
Y165104D01*
X95480Y163028D02*
X95622D01*
X78242Y147155D02*
X94114Y163028D01*
X101992Y157161D02*
X102307D01*
X101425Y157728D02*
Y159665D01*
X100575Y160232D02*
X100858D01*
X100008Y157161D02*
Y159665D01*
Y154657D02*
Y157161D01*
X99158Y154090D02*
X99441D01*
X98590Y154657D02*
Y157161D01*
Y159665D01*
X97740Y160232D02*
X98024D01*
X97173Y157161D02*
Y159665D01*
Y154657D02*
Y157161D01*
X96323Y154090D02*
X96606D01*
X95756Y154657D02*
Y156595D01*
X94339Y157161D02*
X95189D01*
X93630D02*
X94339D01*
X91760D02*
X93630D01*
X106697D02*
X120571Y171035D01*
X102307Y157161D02*
X106697D01*
X89793Y155195D02*
X91760Y157161D01*
X118402Y175004D02*
X123043D01*
X110177Y166779D02*
X118402Y175004D01*
X94287Y166779D02*
X110177D01*
X90246Y162738D02*
X94287Y166779D01*
X76216Y148708D02*
X80295Y152787D01*
X90217Y162709D02*
X90246Y162738D01*
X89327Y162797D02*
X89415Y162709D01*
X88325Y162597D02*
X88525Y162797D01*
X88325Y161795D02*
X88814Y161306D01*
X89419Y160701D01*
X89218Y159699D02*
X89419Y159900D01*
X87812Y160304D02*
X88416Y159699D01*
X87323Y160793D02*
X87812Y160304D01*
X86321Y160592D02*
X86521Y160793D01*
X86321Y159791D02*
X86809Y159302D01*
X87414Y158697D01*
X87214Y157695D02*
X87414Y157895D01*
X85807Y158300D02*
X86412Y157695D01*
X85318Y158789D02*
X85807Y158300D01*
X84316Y158588D02*
X84517Y158789D01*
X84316Y157786D02*
X84805Y157297D01*
X85410Y156693D01*
X85209Y155690D02*
X85410Y155891D01*
X83803Y156295D02*
X84408Y155690D01*
X83314Y156784D02*
X83803Y156295D01*
X82312Y156584D02*
X82512Y156784D01*
X82312Y155782D02*
X82801Y155293D01*
X83405Y154688D01*
X83205Y153686D02*
X83405Y153886D01*
X81799Y154291D02*
X82403Y153686D01*
X81310Y154780D02*
X81799Y154291D01*
X80307Y154579D02*
X80508Y154780D01*
X80307Y153778D02*
X80396Y153689D01*
X80295Y152787D02*
X80396Y152888D01*
X108110Y120035D02*
X112437D01*
X122323Y122398D02*
Y123752D01*
X120043Y120118D02*
X122323Y122398D01*
Y123752D02*
Y124023D01*
X112791Y120118D02*
X120043D01*
X40878Y84059D02*
X47020Y90201D01*
X25354Y84059D02*
X40878D01*
X47020Y90201D02*
X48872D01*
X100791Y100067D02*
X101697D01*
X100374Y99650D02*
X100791Y100067D01*
X84156Y99650D02*
X100374D01*
X47175Y112248D02*
X48872D01*
X45697Y113726D02*
X47175Y112248D01*
X45697Y113726D02*
Y135537D01*
X46100Y135941D01*
X109565Y87911D02*
X110348Y88695D01*
X107602Y87911D02*
X109565D01*
X109965Y90583D02*
X136913D01*
X109465Y90083D02*
X109965Y90583D01*
X108457Y90083D02*
X109465D01*
X109976Y92563D02*
X136581D01*
X109445Y92032D02*
X109976Y92563D01*
X108433Y92032D02*
X109445D01*
X109791Y94720D02*
X135886D01*
X108319Y94028D02*
X109098D01*
X109791Y94720D01*
X109033Y96553D02*
X135029D01*
X107602Y96130D02*
X108610D01*
X109033Y96553D01*
X108955Y98537D02*
X134321D01*
X108433Y98016D02*
X108955Y98537D01*
X109453Y100595D02*
X133905D01*
X107602Y100067D02*
X108925D01*
X109453Y100595D01*
X107602Y102516D02*
X112748Y102527D01*
X133255D01*
X107602Y107453D02*
X133374D01*
X107535Y109413D02*
X115296Y109397D01*
X115362Y109392D02*
X121646Y109378D01*
X107535Y109413D02*
X107579Y109528D01*
X140169Y142126D02*
Y159846D01*
Y141850D02*
Y142126D01*
X139376Y140715D02*
Y141057D01*
X140060Y140032D02*
X140169D01*
X140437D01*
X141120Y139006D02*
Y139348D01*
X140169Y138323D02*
X140437D01*
X140060D02*
X140169D01*
X139376Y137298D02*
Y137639D01*
X140060Y136614D02*
X140169D01*
X140437D01*
X141120Y135589D02*
Y135931D01*
X140169Y134906D02*
X140437D01*
X140060D02*
X140169D01*
X139376Y133880D02*
Y134222D01*
X140060Y133197D02*
X140169D01*
X140437D01*
X141120Y132172D02*
Y132513D01*
X140169Y131488D02*
X140437D01*
X140060D02*
X140169D01*
X139376Y130463D02*
Y130805D01*
X140060Y129780D02*
X140169D01*
X140437D01*
X141120Y128754D02*
Y129096D01*
X140169Y128071D02*
X140437D01*
X140060D02*
X140169D01*
X139376Y127046D02*
Y127387D01*
X140060Y126362D02*
X140169D01*
X140437D01*
X141120Y125337D02*
Y125679D01*
X140169Y122945D02*
Y124386D01*
Y122091D02*
Y122945D01*
X139833Y121754D02*
X140169Y122091D01*
X139039Y120961D02*
X139833Y121754D01*
X137001Y120719D02*
X137243Y120961D01*
X137001Y119752D02*
X137416Y119337D01*
X137842Y118912D01*
X137600Y117704D02*
X137842Y117946D01*
X135425Y117347D02*
X135783Y117704D01*
X135184Y115287D02*
X135425Y115529D01*
X133792Y115713D02*
X134217Y115287D01*
X133715Y115790D02*
X133792Y115713D01*
X132506Y115548D02*
X132748Y115790D01*
X132506Y114582D02*
X132583Y114505D01*
X133619Y113469D01*
X133378Y112260D02*
X133619Y112502D01*
X131859Y112813D02*
X132411Y112260D01*
X130167Y112088D02*
X130892Y112813D01*
X129563Y111484D02*
X130167Y112088D01*
X107602Y111484D02*
X117799D01*
X128905D02*
X129563D01*
X127374D02*
X128905D01*
X126172Y112344D02*
X126513D01*
X123956Y111484D02*
X125312D01*
X122754Y112344D02*
X123096D01*
X122071Y111484D02*
Y111661D01*
Y111320D02*
Y111484D01*
X121046Y110636D02*
X121387D01*
X120362Y111320D02*
Y111484D01*
Y111661D01*
X119337Y112344D02*
X119679D01*
X117799Y111484D02*
X118477D01*
X107602Y113453D02*
X128177D01*
X107602Y115421D02*
X126051D01*
X127579Y128539D02*
Y129287D01*
X108405Y117421D02*
X125209D01*
X108390Y117437D02*
X108405Y117421D01*
X206508Y214374D02*
X209890D01*
X83931Y96303D02*
X101472D01*
X84156Y98075D02*
X101697D01*
X101175Y105949D02*
X101697Y105427D01*
X85132Y107508D02*
X101698Y107594D01*
X99847Y109699D02*
X101697Y109709D01*
X99331Y109177D02*
X99847Y109699D01*
X99850Y111677D02*
X101697Y111677D01*
X99850Y113646D02*
X101697Y113646D01*
X99782Y115561D02*
X101697Y115614D01*
X99796Y117541D02*
X101697Y117583D01*
X97744Y115398D02*
X99796Y117541D01*
X99950Y119886D02*
X101697Y119896D01*
X70368Y150837D02*
X70368Y146272D01*
X70368Y141844D01*
X76216D02*
Y148708D01*
X72279Y141844D02*
Y150267D01*
X74305Y141844D02*
Y150145D01*
X78242Y141844D02*
Y147155D01*
X80555Y145957D02*
X83579Y148980D01*
X80555Y141844D02*
Y145957D01*
Y134307D02*
Y135939D01*
X76299Y133988D02*
Y135939D01*
X78252Y133972D02*
X78252Y135268D01*
X74305Y133962D02*
X74305Y135939D01*
X72337Y133963D02*
Y135939D01*
X70368Y133868D02*
Y135939D01*
X68400Y133665D02*
Y135939D01*
X67671Y132937D02*
X68400Y133665D01*
X61024Y133575D02*
Y135941D01*
Y133575D02*
X61372Y133226D01*
Y120024D02*
Y133226D01*
X59055Y133421D02*
Y135941D01*
X57087Y133528D02*
Y135941D01*
X63083Y142354D02*
Y150465D01*
X103370Y190752D01*
X60925Y142677D02*
Y150413D01*
X57087Y141847D02*
Y151236D01*
X55035Y142516D02*
Y151457D01*
X53150Y151709D02*
X53150Y146272D01*
X53150Y141847D01*
X52979Y146397D02*
X52980Y146398D01*
X51051Y142516D02*
Y151513D01*
X51181Y133528D02*
Y135941D01*
X53150Y133528D02*
Y135941D01*
X55055Y133590D02*
Y135232D01*
Y133590D02*
X56648Y131998D01*
X103141Y208484D02*
X123043Y208484D01*
X45868Y141847D02*
Y151210D01*
X43858Y141847D02*
Y151185D01*
X41819Y141847D02*
Y150807D01*
X39850Y141847D02*
Y151102D01*
X35913Y141847D02*
Y151087D01*
X107075Y222248D01*
X34047Y141847D02*
Y151047D01*
X32110Y142325D02*
Y151063D01*
X31632Y141847D02*
X32110Y142325D01*
X49041Y142384D02*
Y146272D01*
Y152183D01*
X51181Y133528D02*
X53498Y131211D01*
X37882Y114803D02*
Y135921D01*
Y114803D02*
X46736Y105949D01*
X35969Y115047D02*
Y135209D01*
Y115047D02*
X46627Y104389D01*
X43787Y114068D02*
Y135921D01*
Y114068D02*
X47182Y110673D01*
X41819Y114469D02*
Y135921D01*
Y114469D02*
X47174Y109114D01*
X39850Y114610D02*
Y135921D01*
Y114610D02*
X46937Y107524D01*
X113736Y182878D02*
X123043D01*
X102409D02*
X103630D01*
X113711D02*
X113736D01*
X113028Y183562D02*
Y185019D01*
X112002Y185703D02*
X112344D01*
X111319Y182878D02*
Y185019D01*
Y182701D02*
Y182878D01*
X110294Y182018D02*
X110635D01*
X109610Y182701D02*
Y182878D01*
Y185019D01*
X108585Y185703D02*
X108927D01*
X107902Y182878D02*
Y185019D01*
Y182701D02*
Y182878D01*
X106876Y182018D02*
X107218D01*
X106193Y182701D02*
Y182878D01*
Y185019D01*
X105168Y185703D02*
X105509D01*
X104484Y183562D02*
Y185019D01*
X103630Y182878D02*
X103801D01*
X94441Y174910D02*
X102409Y182878D01*
X70368Y150837D02*
X94441Y174910D01*
X89133Y154535D02*
X89793Y155195D01*
X89133Y153003D02*
X89772Y152363D01*
X89389Y150448D02*
X89772Y150831D01*
X86452Y151853D02*
X87857Y150448D01*
X86246Y152059D02*
X86452Y151853D01*
X84330Y151676D02*
X84714Y152059D01*
X83579Y148980D02*
X84330Y149732D01*
X117618Y176957D02*
X120890D01*
X110902Y170240D02*
X117618Y176957D01*
X102980Y170240D02*
X110902D01*
X94401D02*
X95673D01*
X102618D02*
X102980D01*
X102051Y168455D02*
Y169673D01*
X101201Y167888D02*
X101484D01*
X100634Y168455D02*
Y170240D01*
Y172390D01*
X99783Y172957D02*
X100067D01*
X99217Y170240D02*
Y172390D01*
Y168455D02*
Y170240D01*
X98366Y167888D02*
X98650D01*
X97799Y168455D02*
Y170240D01*
Y172390D01*
X96949Y172957D02*
X97232D01*
X96382Y170807D02*
Y172390D01*
X95673Y170240D02*
X95815D01*
X74305Y150145D02*
X94401Y170240D01*
X102921Y180909D02*
X123043D01*
X102502Y180490D02*
X102921Y180909D01*
X72279Y150267D02*
X96482Y174470D01*
X102402Y180391D02*
X102502Y180490D01*
X102402Y179424D02*
X109070Y172757D01*
X108828Y171549D02*
X109070Y171791D01*
X100711Y178699D02*
X107861Y171549D01*
X99503Y178404D02*
X99798Y178699D01*
X99503Y177491D02*
X101202Y175792D01*
X100960Y174584D02*
X101202Y174826D01*
X98295Y176283D02*
X99994Y174584D01*
X97086Y175987D02*
X97382Y176283D01*
X96482Y174470D02*
X97086Y175075D01*
X107047Y214374D02*
X123043D01*
X43858Y151185D02*
X107047Y214374D01*
X45868Y151210D02*
X103141Y208484D01*
X49041Y152183D02*
X103358Y206500D01*
X142229Y119426D02*
Y159755D01*
X140427Y117624D02*
X142229Y119426D01*
X140208Y117405D02*
X140427Y117624D01*
X139271Y116467D02*
X140208Y117405D01*
X137521Y116226D02*
X137763Y116467D01*
X137521Y115259D02*
X137792Y114989D01*
X138084Y114697D01*
X137842Y113488D02*
X138084Y113730D01*
X136584Y113780D02*
X136876Y113488D01*
X136313Y114051D02*
X136584Y113780D01*
X135105Y113809D02*
X135346Y114051D01*
X135105Y112843D02*
X135375Y112572D01*
X135667Y112280D01*
X135426Y111072D02*
X135667Y111314D01*
X132959Y110156D02*
X133875Y111072D01*
X132355Y109552D02*
X132959Y110156D01*
X131691Y109534D02*
X132355Y109552D01*
X130203Y109495D02*
X131691Y109534D01*
X128934Y110367D02*
X129276Y110375D01*
X126567Y109400D02*
X128054Y109439D01*
X125713Y109378D02*
X126567Y109400D01*
X124300Y109378D02*
X125713D01*
X123184Y110153D02*
X123525D01*
X121646Y109378D02*
X122409D01*
X138268Y125425D02*
Y142850D01*
Y124898D02*
Y125425D01*
Y123543D02*
Y124898D01*
X128177Y113453D02*
X129394Y114669D01*
X138013Y123288D02*
X138268Y123543D01*
X136595Y121870D02*
X138013Y123288D01*
X133685Y121487D02*
X134068Y121870D01*
X133685Y119955D02*
X134182Y119458D01*
X134309Y119330D01*
X133926Y117415D02*
X134309Y117798D01*
X132267Y117542D02*
X132394Y117415D01*
X131769Y118040D02*
X132267Y117542D01*
X129854Y117657D02*
X130237Y118040D01*
X129394Y114669D02*
X129854Y115130D01*
X138268Y154835D02*
Y157681D01*
Y142850D02*
Y143045D01*
X136044Y143728D02*
X137584D01*
X135361Y144412D02*
Y144754D01*
X136044Y145437D02*
X138268D01*
X138377D01*
X139061Y146121D02*
Y146462D01*
X138268Y147146D02*
X138377D01*
X136044D02*
X138268D01*
X135361Y147829D02*
Y148171D01*
X136044Y148854D02*
X138268D01*
X138377D01*
X139061Y149538D02*
Y149880D01*
X138268Y150563D02*
X138377D01*
X136044D02*
X138268D01*
X135361Y151247D02*
Y151588D01*
X136044Y152272D02*
X137584D01*
X138268Y152955D02*
Y153980D01*
Y154835D01*
X122323Y149189D02*
X130287Y157154D01*
X122323Y146130D02*
Y149189D01*
Y145150D02*
Y146130D01*
X120335Y144067D02*
X121239D01*
X119252Y142442D02*
Y142983D01*
X120335Y141358D02*
X122323D01*
X123972D01*
X125055Y139733D02*
Y140275D01*
X122323Y138650D02*
X123972D01*
X120335D02*
X122323D01*
X119252Y137024D02*
Y137566D01*
X120335Y135941D02*
X122323D01*
X123972D01*
X125055Y134316D02*
Y134857D01*
X122323Y133232D02*
X123972D01*
X120335D02*
X122323D01*
X119252Y131607D02*
Y132149D01*
X120335Y130524D02*
X122323D01*
X123972D01*
X125055Y128898D02*
Y129440D01*
X122323Y127815D02*
X123972D01*
X120335D02*
X122323D01*
X119252Y126190D02*
Y126732D01*
X120335Y125106D02*
X121239D01*
X134252Y142524D02*
Y157449D01*
Y123622D02*
Y124917D01*
Y140898D02*
Y142524D01*
X132619Y139815D02*
X133168D01*
X131535Y138190D02*
Y138732D01*
X132619Y137106D02*
X134252D01*
X136076D01*
X137159Y135481D02*
Y136023D01*
X134252Y134398D02*
X136076D01*
X132619D02*
X134252D01*
X131535Y132772D02*
Y133314D01*
X132619Y131689D02*
X134252D01*
X136076D01*
X137159Y130064D02*
Y130605D01*
X134252Y128980D02*
X136076D01*
X132793D02*
X134252D01*
X131709Y127355D02*
Y127897D01*
X132793Y126272D02*
X133168D01*
X134252Y124917D02*
Y125188D01*
X126051Y115421D02*
X134252Y123622D01*
X47182Y110673D02*
X48872D01*
X47174Y109114D02*
X48857D01*
X46937Y107524D02*
X48872D01*
X46736Y105949D02*
X48872D01*
X46627Y104389D02*
X48857D01*
X46232Y101224D02*
X48872D01*
X29417Y116087D02*
Y127236D01*
X45854Y99650D02*
X48872D01*
X29417Y116087D02*
X45854Y99650D01*
X74937Y102126D02*
X79124D01*
X73728Y100917D02*
X74937Y102126D01*
X73728Y100827D02*
Y100917D01*
X79797Y102799D02*
X83321D01*
X79124Y102126D02*
X79797Y102799D01*
X79124Y97061D02*
Y102126D01*
X71648Y101537D02*
X72236Y102126D01*
X72419Y85598D02*
Y88589D01*
X71701Y89307D02*
X72419Y88589D01*
X80506Y89646D02*
Y95679D01*
X79124Y97061D02*
X80506Y95679D01*
X206508Y216343D02*
X209650D01*
X206508Y218311D02*
X209386D01*
X42325Y89702D02*
X45973Y93350D01*
X48872D01*
X22917Y88815D02*
X26480Y85252D01*
X39852D01*
X46376Y91776D01*
X21260Y88153D02*
X25354Y84059D01*
X53150Y133528D02*
X55073Y131604D01*
Y120024D02*
Y131604D01*
X57980Y107815D02*
X62758Y103037D01*
X53689Y107815D02*
X57980D01*
X52787Y108716D02*
X53689Y107815D01*
X26248Y123315D02*
Y126559D01*
X135029Y96553D02*
X156063Y117587D01*
X107354Y216343D02*
X123043D01*
X41819Y150807D02*
X107354Y216343D01*
X34047Y151047D02*
X107240Y224240D01*
X32110Y151063D02*
X107622Y226575D01*
X37967Y142233D02*
Y151196D01*
X39850Y151102D02*
X107059Y218311D01*
X206803Y210406D02*
X209941D01*
X207717Y212469D02*
X210087D01*
X163284Y116953D02*
Y142248D01*
X136913Y90583D02*
X163284Y116953D01*
X136581Y92563D02*
X161301Y117283D01*
X161327Y117257D02*
Y142197D01*
X158307Y117142D02*
Y143827D01*
X135886Y94720D02*
X158307Y117142D01*
X156063Y117587D02*
Y144008D01*
X153949Y118165D02*
Y159846D01*
X134321Y98537D02*
X153949Y118165D01*
X151980Y118669D02*
Y159846D01*
X133905Y100595D02*
X151980Y118669D01*
X150012Y119283D02*
Y159846D01*
X133255Y102527D02*
X150012Y119283D01*
X164996Y142063D02*
X179555Y156622D01*
X163284Y142248D02*
X177630Y156595D01*
X161327Y142197D02*
X175654Y156524D01*
Y157772D01*
X167701Y153220D02*
Y158028D01*
X158307Y143827D02*
X167701Y153220D01*
X179555Y156622D02*
Y157480D01*
X177630Y156595D02*
Y157606D01*
X108201Y105358D02*
X133827D01*
X146075Y117606D02*
Y159846D01*
X133827Y105358D02*
X146075Y117606D01*
X142138Y159846D02*
X142229Y159755D01*
X132323Y154902D02*
Y157591D01*
X127579Y150157D02*
X132323Y154902D01*
X127579Y148138D02*
Y150157D01*
Y147977D02*
Y148138D01*
X128662Y146894D02*
X129460D01*
X130544Y145268D02*
Y145810D01*
X127579Y144185D02*
X129460D01*
X126648D02*
X127579D01*
X125565Y142560D02*
Y143102D01*
X126648Y141476D02*
X127579D01*
X129460D01*
X130544Y139851D02*
Y140393D01*
X127579Y138768D02*
X129460D01*
X126858D02*
X127579D01*
X125774Y137143D02*
Y137684D01*
X126858Y136059D02*
X127579D01*
X129193D01*
X130277Y134434D02*
Y134976D01*
X127579Y133350D02*
X129193D01*
X126858D02*
X127579D01*
X125774Y131725D02*
Y132267D01*
X127579Y129287D02*
Y129921D01*
X123205Y196449D02*
X127449D01*
X123043Y196610D02*
X123205Y196449D01*
X37995Y142233D02*
X38023Y142205D01*
X29197Y130921D02*
Y134035D01*
X37967Y151196D02*
X107051Y220280D01*
X124317Y234002D02*
X127406D01*
X118055Y232014D02*
X122248D01*
X107051Y220280D02*
X123043D01*
X66167Y142384D02*
Y146535D01*
Y151569D01*
X51051Y151513D02*
X104057Y204520D01*
X103358Y206500D02*
X123043D01*
X104057Y204520D02*
X120409D01*
X120807Y230122D02*
X123043D01*
X117260Y226575D02*
X120807Y230122D01*
X107622Y226575D02*
X117260D01*
X107240Y224240D02*
X120587D01*
X107075Y222248D02*
X123043D01*
X107059Y218311D02*
X123043D01*
X104004Y202563D02*
X123043D01*
X53150Y151709D02*
X104004Y202563D01*
X104173Y200594D02*
X123043D01*
X55035Y151457D02*
X104173Y200594D01*
X57087Y151236D02*
X104476Y198626D01*
X123043D01*
X58884Y142384D02*
Y150856D01*
X102728Y194701D02*
X121398D01*
X58884Y150856D02*
X102728Y194701D01*
X103232Y192720D02*
X123043D01*
X60925Y150413D02*
X103232Y192720D01*
X103370Y190752D02*
X123043D01*
X66167Y151569D02*
X103433Y188835D01*
X120508D01*
X47302Y113823D02*
X48872D01*
X48857Y104389D02*
X48872Y104374D01*
X48857Y102814D02*
X48872Y102799D01*
X48857Y98090D02*
X48872Y98075D01*
X127579Y119791D02*
Y121102D01*
X128244Y127874D02*
X129566D01*
X130650Y126249D02*
Y126791D01*
X127579Y125165D02*
X129566D01*
X125591D02*
X127579D01*
X124508Y123540D02*
Y124082D01*
X125591Y122457D02*
X126495D01*
X127579Y121102D02*
Y121373D01*
X125209Y117421D02*
X127579Y119791D01*
X44870Y94925D02*
X48872D01*
X48857Y109114D02*
X48872Y109098D01*
X80506Y89646D02*
X81526Y88626D01*
X67686Y85590D02*
Y87647D01*
X62758Y103037D02*
X66974D01*
X69274Y121642D02*
Y132774D01*
X70368Y133868D01*
X70821Y132447D02*
X72337Y133963D01*
X70821Y120024D02*
Y132447D01*
X97145Y117048D02*
X99950Y119886D01*
X84156Y116972D02*
X97145Y117048D01*
X84156Y115398D02*
X97744D01*
X68474Y101537D02*
X71561D01*
X66974Y103037D02*
X68474Y101537D01*
X133374Y107453D02*
X144106Y118185D01*
X156063Y144008D02*
X165815Y153760D01*
Y157953D01*
X46376Y91776D02*
X48872D01*
X40939Y89702D02*
X42325D01*
X84156Y112248D02*
X98532Y112327D01*
X99850Y113646D01*
X98138Y113823D02*
X99782Y115561D01*
X84156Y113823D02*
X98138D01*
X67671Y120024D02*
Y132937D01*
X59750Y120071D02*
Y132726D01*
Y120071D02*
X59797Y120024D01*
X59055Y133421D02*
X59750Y132726D01*
X67686Y87647D02*
X69346Y89307D01*
X71561D01*
X83321Y102799D02*
X87520D01*
X67671Y85575D02*
X67686Y85590D01*
X148043Y243311D02*
X148043Y243311D01*
X98340Y101224D02*
X99669Y102553D01*
X84156Y101224D02*
X98340D01*
X84156Y105949D02*
X101175D01*
X144106Y118185D02*
Y159846D01*
X84514Y138502D02*
Y141764D01*
X107890Y119815D02*
X108110Y120035D01*
X84156Y109098D02*
X99331Y109177D01*
X98925Y110752D02*
X99850Y111677D01*
X84156Y110673D02*
X98925Y110752D01*
X77120Y130872D02*
X80555Y134307D01*
X77120Y120024D02*
Y130872D01*
X75545Y131266D02*
X78252Y133972D01*
X75545Y120024D02*
Y131266D01*
X73970Y131659D02*
X76299Y133988D01*
X73970Y120024D02*
Y131659D01*
X72396Y132053D02*
X74305Y133962D01*
X72396Y120024D02*
Y132053D01*
X66167Y122185D02*
Y135691D01*
X66096Y122114D02*
X66167Y122185D01*
X66096Y120024D02*
Y122114D01*
X62900Y121681D02*
Y135675D01*
X57087Y133528D02*
X58222Y132392D01*
Y120024D02*
Y132392D01*
X56648Y120024D02*
Y131998D01*
X53498Y120024D02*
Y131211D01*
X49041Y133699D02*
Y135691D01*
Y133699D02*
X51923Y130817D01*
Y120024D02*
Y130817D01*
X48872Y93350D02*
X50372D01*
X72396Y85575D02*
X72419Y85598D01*
X99669Y102553D02*
X101662D01*
D120*
X306626Y370000D02*
Y375091D01*
X298664Y362750D02*
X306541D01*
X303382Y289815D02*
X310059D01*
X296909Y296287D02*
X303382Y289815D01*
X296909Y296287D02*
Y298516D01*
X37343Y31815D02*
X42268D01*
X310059Y289815D02*
X313795Y293551D01*
X52335Y343583D02*
X57179Y348427D01*
X37146Y37543D02*
X42071D01*
X298623Y362791D02*
X298664Y362750D01*
X312681Y293323D02*
Y298413D01*
X306206Y293515D02*
Y298465D01*
X313051Y298240D02*
Y305510D01*
X232362Y207789D02*
X243839D01*
X305922Y298594D02*
Y305360D01*
X313357Y370000D02*
Y374950D01*
X314338Y363263D02*
Y370028D01*
X59699Y348667D02*
X64675D01*
X53012Y351287D02*
X56268D01*
X58705Y348850D01*
D121*
X307268Y363476D02*
Y368492D01*
D122*
X46469Y282610D02*
Y285946D01*
Y266842D02*
Y282610D01*
X46287Y260402D02*
Y266572D01*
Y260402D02*
X46331Y260358D01*
X46243Y266616D02*
X46287Y266572D01*
X52499Y261508D02*
X53385Y260622D01*
X52499Y261508D02*
Y274116D01*
X18846Y350669D02*
X22713D01*
X57179Y348427D02*
X58380D01*
X192232Y71508D02*
X193453Y72728D01*
X188126Y79232D02*
X190898D01*
X188043Y87283D02*
X190815D01*
X160035Y79854D02*
Y83976D01*
X24039Y337472D02*
X34157D01*
X34299Y337614D01*
X41508Y343583D02*
X41577Y343514D01*
X40801Y344287D02*
X41508Y343583D01*
X79283Y342563D02*
Y348337D01*
X79232Y342512D02*
X79283Y342563D01*
X149153Y54126D02*
X153276D01*
X50252Y300047D02*
Y314114D01*
X37863Y316776D02*
X43209D01*
X34712Y339539D02*
X40858D01*
X41406Y350504D02*
X47169D01*
X41508Y357528D02*
X47272D01*
X47571Y350728D02*
Y357228D01*
X38867Y323980D02*
X39194Y323654D01*
X43209Y316776D02*
X47591D01*
X37863D02*
Y322976D01*
Y316764D02*
Y316776D01*
X47591D02*
X50252Y314114D01*
X39194Y323654D02*
X43283D01*
X38651Y323764D02*
X38867Y323980D01*
X37863Y322976D02*
X38651Y323764D01*
X41107Y282610D02*
X46469D01*
X193453Y72728D02*
X197275D01*
X65102Y334283D02*
X65138Y334248D01*
X65102Y334283D02*
Y337646D01*
X58866Y326976D02*
Y330602D01*
X58835Y342717D02*
X59226Y342325D01*
X58803Y342748D02*
X58835Y342717D01*
X64203Y342325D02*
X65102Y341425D01*
X59226Y342325D02*
X64203D01*
X58835Y336933D02*
X58866Y336902D01*
X58835Y336933D02*
Y342717D01*
X58669Y336902D02*
X58866D01*
X57939Y336171D02*
X58669Y336902D01*
X52404Y336171D02*
X57939D01*
X52335Y336102D02*
X52404Y336171D01*
X52868Y351144D02*
X53012Y351287D01*
X52453Y350728D02*
X52868Y351144D01*
Y357002D01*
X53094Y357228D01*
X58705Y348850D02*
X58803D01*
X58380Y348427D02*
X58803Y348850D01*
X34565Y339301D02*
X34712Y339539D01*
X47272Y357528D02*
X47571Y357228D01*
X45522Y343514D02*
X47087Y341949D01*
X41577Y343514D02*
X45522D01*
X47087Y338161D02*
Y341949D01*
X45096Y336171D02*
X47087Y338161D01*
X41577Y336171D02*
X45096D01*
X41508Y336102D02*
X41577Y336171D01*
X161476Y56108D02*
X161545Y56177D01*
X161476Y52677D02*
Y56108D01*
X161545Y56177D02*
X161701D01*
X197275Y54626D02*
X201398D01*
X46243Y266616D02*
X46469Y266842D01*
D123*
X73970Y84045D02*
Y85575D01*
Y84045D02*
X74212Y83804D01*
X58768Y37315D02*
Y82834D01*
Y22733D02*
Y37315D01*
X60126D01*
X56378Y37284D02*
X57677D01*
X56343Y37248D02*
X56378Y37284D01*
X47146Y21443D02*
Y24354D01*
Y21443D02*
X48026Y20563D01*
X47146Y24354D02*
X47829Y25037D01*
X44961Y25153D02*
X45270Y24845D01*
X70648Y40314D02*
X71012Y40678D01*
X70648Y34351D02*
Y40314D01*
X69228Y40678D02*
X69557Y40349D01*
Y27641D02*
Y40349D01*
X70648Y27641D02*
Y34316D01*
X70579Y46818D02*
Y83804D01*
Y46818D02*
X71012Y46385D01*
X69488Y46645D02*
Y83804D01*
X69228Y46385D02*
X69488Y46645D01*
X56648Y83863D02*
X57677Y82834D01*
Y41614D02*
Y82834D01*
Y40951D02*
Y41614D01*
X57558Y40832D02*
X57677Y40951D01*
X57499Y40832D02*
X57558D01*
X57381Y40714D02*
X57499Y40832D01*
X57381Y39768D02*
Y40714D01*
Y39768D02*
X57499Y39649D01*
X57558D01*
X57677Y39531D01*
Y38467D02*
Y39531D01*
Y37284D02*
Y38467D01*
Y36101D02*
Y37284D01*
Y34918D02*
Y36101D01*
Y34327D02*
Y34918D01*
Y25559D02*
Y26927D01*
X57438Y27165D02*
X57677Y26927D01*
X56801Y27165D02*
X57438D01*
X56563Y27404D02*
X56801Y27165D01*
X56563Y27404D02*
Y28518D01*
X56801Y28757D01*
X57438D01*
X57677Y28996D01*
Y30110D01*
X57438Y30348D02*
X57677Y30110D01*
X56801Y30348D02*
X57438D01*
X56563Y30587D02*
X56801Y30348D01*
X56563Y30587D02*
Y31701D01*
X56801Y31940D01*
X57438D01*
X57677Y32178D01*
Y33531D01*
Y34327D01*
Y23100D02*
Y25559D01*
X58768Y82834D02*
X59797Y83863D01*
X55128Y20563D02*
X57665Y23100D01*
X48026Y20563D02*
X55128D01*
X45270Y21776D02*
Y24845D01*
Y21776D02*
X47574Y19472D01*
X271079Y25138D02*
Y27008D01*
X268520Y25138D02*
Y27008D01*
X268256Y25118D02*
Y25138D01*
X270929Y78958D02*
Y82071D01*
X270491Y78520D02*
X270929Y78958D01*
X270491Y27012D02*
Y78520D01*
X268961Y78958D02*
X269399Y78520D01*
X268961Y78958D02*
Y82071D01*
X269399Y26961D02*
Y78520D01*
X59797Y83863D02*
Y85575D01*
X58757Y22721D02*
X58768Y22733D01*
X58757Y22648D02*
Y22721D01*
X55581Y19472D02*
X58757Y22648D01*
X47574Y19472D02*
X55581D01*
X56648Y83863D02*
Y85575D01*
X74212Y82146D02*
Y83804D01*
X75304Y82598D02*
Y83804D01*
X75545Y84045D01*
Y85575D01*
X75304Y82598D02*
X78325Y79576D01*
X74212Y82146D02*
X77234Y79124D01*
X76500Y25037D02*
Y26908D01*
X77234Y27641D01*
Y79124D01*
X79059Y25037D02*
Y26908D01*
X78325Y27641D02*
X79059Y26908D01*
X78325Y27641D02*
Y79576D01*
X68083Y45224D02*
Y45342D01*
X69125Y46385D01*
X69228D01*
X69246Y84045D02*
X69488Y83804D01*
X69246Y84045D02*
Y85575D01*
X72157Y45224D02*
Y45342D01*
X71114Y46385D02*
X72157Y45342D01*
X71012Y46385D02*
X71114D01*
X70579Y83804D02*
X70821Y84045D01*
Y85575D01*
X68823Y25037D02*
Y26908D01*
X69557Y27641D01*
X69125Y40678D02*
X69228D01*
X68083Y41721D02*
X69125Y40678D01*
X68083Y41721D02*
Y41839D01*
X71382Y25037D02*
Y26908D01*
X70648Y27641D02*
X71382Y26908D01*
X71012Y40678D02*
X71114D01*
X72157Y41721D01*
Y41839D01*
D124*
X51604Y115486D02*
X52492Y116374D01*
X49957Y115486D02*
X51604D01*
X37157Y89702D02*
X40939D01*
X37075Y89784D02*
X37157Y89702D01*
X47486Y117039D02*
Y125024D01*
X49467Y37264D02*
X52466D01*
X77095Y86905D02*
Y87600D01*
X76616Y88078D02*
X77095Y87600D01*
X75235Y93282D02*
X76616Y91900D01*
Y88078D02*
Y91900D01*
X64043Y37315D02*
X66740D01*
X66185Y85663D02*
Y96776D01*
X220313Y125063D02*
Y139415D01*
X64378Y98583D02*
X66185Y96776D01*
X63386Y98583D02*
X64378D01*
X314161Y363335D02*
X314787Y362709D01*
X313165Y375142D02*
X313357Y374950D01*
X34299Y337614D02*
X34913Y338228D01*
X67424Y80230D02*
Y82272D01*
X66185Y83511D02*
X67424Y82272D01*
X66185Y83511D02*
Y85486D01*
D125*
X303539Y322362D02*
X308541Y317360D01*
X291725Y346127D02*
X291821Y364456D01*
X291608Y323731D02*
X291725Y346127D01*
X19039Y351484D02*
X30102Y362547D01*
X18846Y334331D02*
Y350669D01*
Y334331D02*
X23307Y329870D01*
X300583Y322362D02*
X303539D01*
X291608Y323731D02*
X292776Y322551D01*
X51759Y378574D02*
X277850D01*
X35732Y362547D02*
X51759Y378574D01*
X277850D02*
X291821Y364456D01*
X31073Y15248D02*
X31815Y14506D01*
X30102Y362547D02*
X35732D01*
D126*
X223933Y206496D02*
X224854Y207417D01*
X208634Y206496D02*
X223933D01*
D127*
X207925Y358118D02*
X212415Y353628D01*
X79291Y358118D02*
X207925D01*
X93823Y16098D02*
X95067Y17343D01*
X84982Y16098D02*
X93823D01*
X309551Y346142D02*
Y350279D01*
X72091Y350917D02*
X79291Y358118D01*
X72091Y311567D02*
Y350917D01*
X309551Y350279D02*
X310910Y351638D01*
X95622Y72638D02*
X95661Y72677D01*
X90878Y72638D02*
X95622D01*
X83390Y14506D02*
X84982Y16098D01*
X25827Y41882D02*
X25902Y41807D01*
Y37677D02*
Y41807D01*
X26004Y31405D02*
X31073Y26337D01*
Y15248D02*
Y26337D01*
X46469Y285946D02*
X72091Y311567D01*
D128*
X300579Y346110D02*
X309303D01*
X28417Y344287D02*
X40801D01*
X28409Y344295D02*
Y350472D01*
D129*
X123043Y232091D02*
X123065Y232069D01*
D130*
X229142Y145689D02*
D03*
X176945Y131421D02*
D03*
X169602D02*
D03*
X98465Y235992D02*
D03*
D131*
X299532Y188847D02*
D03*
X309531D02*
D03*
X299532Y178847D02*
D03*
X284429Y188847D02*
D03*
X197157Y83473D02*
D03*
X39575Y228547D02*
D03*
Y218547D02*
D03*
X29575Y228547D02*
D03*
X29658Y203114D02*
D03*
X193705Y99614D02*
D03*
X183705D02*
D03*
X193705Y109614D02*
D03*
X30102Y372547D02*
D03*
D132*
X309531Y178847D02*
D03*
X284429D02*
D03*
X183705Y109614D02*
D03*
X30102Y362547D02*
D03*
D133*
X282213Y222689D02*
D03*
Y231319D02*
D03*
X315902Y222689D02*
D03*
Y231319D02*
D03*
X316114Y240496D02*
D03*
X282425Y239933D02*
D03*
D134*
X207157Y83473D02*
D03*
X29575Y218547D02*
D03*
X39658Y203114D02*
D03*
D135*
X313729Y255045D02*
D03*
X288129D02*
D03*
X313729Y272845D02*
D03*
X288129D02*
D03*
D136*
X279382Y24142D02*
D03*
X263043D02*
D03*
D137*
X52492Y116374D02*
D03*
D138*
X47496Y125024D02*
D03*
D139*
X79283Y348591D02*
D03*
X64736Y348720D02*
D03*
M02*
