G04*
G04 #@! TF.GenerationSoftware,Altium Limited,Altium Designer,20.1.7 (139)*
G04*
G04 Layer_Color=16711935*
%FSLAX25Y25*%
%MOIN*%
G70*
G04*
G04 #@! TF.SameCoordinates,F1024F09-50C5-4513-BE08-2A4FEE95A773*
G04*
G04*
G04 #@! TF.FilePolarity,Positive*
G04*
G01*
G75*
%ADD10C,0.00394*%
%ADD169C,0.00197*%
D10*
X195945Y171106D02*
Y174650D01*
X194173Y172878D02*
X197717D01*
X240614Y172819D02*
Y175378D01*
X239335Y174098D02*
X241894D01*
X233327Y173150D02*
Y175709D01*
X232047Y174429D02*
X234606D01*
X63167Y111100D02*
X65726D01*
X64447Y109821D02*
Y112380D01*
X73409Y106480D02*
X75968D01*
X74689Y105201D02*
Y107760D01*
X77795Y88335D02*
Y90894D01*
X76516Y89614D02*
X79075D01*
X63488Y93118D02*
Y95677D01*
X62209Y94398D02*
X64768D01*
X57256D02*
X59815D01*
X58535Y93118D02*
Y95677D01*
X53396Y100758D02*
Y103317D01*
X52116Y102037D02*
X54675D01*
X274417Y90642D02*
Y93201D01*
X273138Y91921D02*
X275697D01*
X285827Y92279D02*
Y94839D01*
X284547Y93559D02*
X287106D01*
X281169Y109953D02*
X283728D01*
X282449Y108673D02*
Y111232D01*
X272480Y113787D02*
Y116347D01*
X271201Y115067D02*
X273760D01*
X262071Y103642D02*
Y106201D01*
X260791Y104921D02*
X263350D01*
X262776Y91931D02*
X265335D01*
X264055Y90652D02*
Y93211D01*
X49976Y91315D02*
Y93874D01*
X48697Y92594D02*
X51256D01*
X249272Y81758D02*
Y84317D01*
X247992Y83037D02*
X250551D01*
X280646Y114724D02*
Y117283D01*
X279366Y116004D02*
X281925D01*
X260366Y114185D02*
Y116744D01*
X259087Y115465D02*
X261646D01*
X58740Y111043D02*
X61299D01*
X60020Y109764D02*
Y112323D01*
X68559Y96661D02*
X71118D01*
X69839Y95382D02*
Y97941D01*
X48280Y120988D02*
X50839D01*
X49559Y119709D02*
Y122268D01*
X75984Y97748D02*
Y100307D01*
X74705Y99028D02*
X77264D01*
X74055Y111776D02*
Y114335D01*
X72776Y113055D02*
X75335D01*
X184067Y175224D02*
Y178768D01*
X182295Y176996D02*
X185839D01*
X171965Y175232D02*
Y178776D01*
X170193Y177004D02*
X173736D01*
X55811Y109929D02*
Y112094D01*
X54728Y111012D02*
X56894D01*
X88945Y82531D02*
Y84697D01*
X87862Y83614D02*
X90028D01*
X44346Y120996D02*
X46512D01*
X45429Y119913D02*
Y122079D01*
X80138Y97929D02*
Y100094D01*
X79055Y99012D02*
X81220D01*
X69870Y91413D02*
Y93579D01*
X68787Y92496D02*
X70953D01*
X69874Y99839D02*
Y102004D01*
X68791Y100921D02*
X70957D01*
X264047Y95031D02*
Y97197D01*
X262965Y96114D02*
X265130D01*
X274382Y95014D02*
Y97179D01*
X273299Y96096D02*
X275465D01*
X206394Y228343D02*
Y232280D01*
X204425Y230311D02*
X208362D01*
X36063Y95000D02*
X39606D01*
X37835Y93228D02*
Y96772D01*
X36039Y101169D02*
X39583D01*
X37811Y99398D02*
Y102941D01*
X195925Y228539D02*
Y232083D01*
X194154Y230311D02*
X197697D01*
X195299Y193516D02*
Y197059D01*
X193528Y195287D02*
X197071D01*
X190264Y204909D02*
X193807D01*
X192035Y203138D02*
Y206681D01*
X190713Y219933D02*
X194256D01*
X192484Y218161D02*
Y221705D01*
X175220Y228252D02*
Y231795D01*
X173449Y230024D02*
X176992D01*
X163032Y233185D02*
X166575D01*
X164803Y231413D02*
Y234957D01*
X150752Y233157D02*
X154295D01*
X152524Y231386D02*
Y234929D01*
X189500Y228476D02*
Y232020D01*
X187728Y230248D02*
X191272D01*
X133240Y226102D02*
X136784D01*
X135012Y224331D02*
Y227874D01*
X135847Y183234D02*
Y186777D01*
X134075Y185006D02*
X137619D01*
X135727Y176892D02*
Y180435D01*
X133955Y178663D02*
X137499D01*
X138874Y168701D02*
Y172244D01*
X137102Y170472D02*
X140646D01*
X146453Y173126D02*
X149996D01*
X148224Y171354D02*
Y174898D01*
X160071Y168634D02*
Y172177D01*
X158299Y170406D02*
X161843D01*
X172331Y168634D02*
Y172177D01*
X170559Y170406D02*
X174102D01*
D169*
X190039Y169925D02*
X201850D01*
X190039Y175831D02*
X201850D01*
X190039Y169925D02*
Y175831D01*
X201850Y169925D02*
Y175831D01*
X238646Y170358D02*
X242583D01*
X238646Y177839D02*
X242583D01*
Y170358D02*
Y177839D01*
X238646Y170358D02*
Y177839D01*
X231358Y170689D02*
X235295D01*
X231358Y178169D02*
X235295D01*
Y170689D02*
Y178169D01*
X231358Y170689D02*
Y178169D01*
X66415Y107360D02*
Y114841D01*
X62478Y107360D02*
Y114841D01*
Y107360D02*
X66415D01*
X62478Y114841D02*
X66415D01*
X78429Y104512D02*
Y108449D01*
X70949Y104512D02*
Y108449D01*
X78429D01*
X70949Y104512D02*
X78429D01*
X74055Y87646D02*
X81535D01*
X74055Y91583D02*
X81535D01*
X74055Y87646D02*
Y91583D01*
X81535Y87646D02*
Y91583D01*
X61520Y90658D02*
X65457D01*
X61520Y98138D02*
X65457D01*
Y90658D02*
Y98138D01*
X61520Y90658D02*
Y98138D01*
X56567Y90658D02*
Y98138D01*
X60504Y90658D02*
Y98138D01*
X56567D02*
X60504D01*
X56567Y90658D02*
X60504D01*
X51427Y98297D02*
X55364D01*
X51427Y105778D02*
X55364D01*
Y98297D02*
Y105778D01*
X51427Y98297D02*
Y105778D01*
X270677Y89953D02*
X278157D01*
X270677Y93890D02*
X278157D01*
X270677Y89953D02*
Y93890D01*
X278157Y89953D02*
Y93890D01*
X283858Y89819D02*
X287795D01*
X283858Y97299D02*
X287795D01*
Y89819D02*
Y97299D01*
X283858Y89819D02*
Y97299D01*
X280480Y106213D02*
Y113693D01*
X284417Y106213D02*
Y113693D01*
X280480D02*
X284417D01*
X280480Y106213D02*
X284417D01*
X270512Y111327D02*
X274449D01*
X270512Y118807D02*
X274449D01*
Y111327D02*
Y118807D01*
X270512Y111327D02*
Y118807D01*
X258331Y102953D02*
X265811D01*
X258331Y106890D02*
X265811D01*
X258331Y102953D02*
Y106890D01*
X265811Y102953D02*
Y106890D01*
X267795Y89963D02*
Y93900D01*
X260315Y89963D02*
Y93900D01*
X267795D01*
X260315Y89963D02*
X267795D01*
X48008Y88854D02*
X51945D01*
X48008Y96335D02*
X51945D01*
Y88854D02*
Y96335D01*
X48008Y88854D02*
Y96335D01*
X247303Y79297D02*
X251240D01*
X247303Y86778D02*
X251240D01*
Y79297D02*
Y86778D01*
X247303Y79297D02*
Y86778D01*
X276905Y114035D02*
X284386D01*
X276905Y117972D02*
X284386D01*
X276905Y114035D02*
Y117972D01*
X284386Y114035D02*
Y117972D01*
X258398Y111724D02*
X262335D01*
X258398Y119205D02*
X262335D01*
Y111724D02*
Y119205D01*
X258398Y111724D02*
Y119205D01*
X58051Y107303D02*
Y114784D01*
X61988Y107303D02*
Y114784D01*
X58051D02*
X61988D01*
X58051Y107303D02*
X61988D01*
X73579Y94693D02*
Y98630D01*
X66098Y94693D02*
Y98630D01*
X73579D01*
X66098Y94693D02*
X73579D01*
X47591Y117248D02*
Y124728D01*
X51528Y117248D02*
Y124728D01*
X47591D02*
X51528D01*
X47591Y117248D02*
X51528D01*
X74016Y102768D02*
X77953D01*
X74016Y95287D02*
X77953D01*
X74016D02*
Y102768D01*
X77953Y95287D02*
Y102768D01*
X70315Y111087D02*
X77795D01*
X70315Y115024D02*
X77795D01*
X70315Y111087D02*
Y115024D01*
X77795Y111087D02*
Y115024D01*
X178358Y179752D02*
X189776D01*
X178358Y174240D02*
X189776D01*
Y179752D01*
X178358Y174240D02*
Y179752D01*
X166256Y179760D02*
X177673D01*
X166256Y174248D02*
X177673D01*
Y179760D01*
X166256Y174248D02*
Y179760D01*
X54039Y107272D02*
X57583D01*
X54039Y114752D02*
X57583D01*
Y107272D02*
Y114752D01*
X54039Y107272D02*
Y114752D01*
X87173Y87354D02*
X90717D01*
X87173Y79874D02*
X90717D01*
X87173D02*
Y87354D01*
X90717Y79874D02*
Y87354D01*
X43657Y117256D02*
Y124736D01*
X47201Y117256D02*
Y124736D01*
X43657D02*
X47201D01*
X43657Y117256D02*
X47201D01*
X78366Y102752D02*
X81909D01*
X78366Y95272D02*
X81909D01*
X78366D02*
Y102752D01*
X81909Y95272D02*
Y102752D01*
X66130Y90724D02*
X73610D01*
X66130Y94268D02*
X73610D01*
X66130Y90724D02*
Y94268D01*
X73610Y90724D02*
Y94268D01*
X66134Y99150D02*
X73614D01*
X66134Y102693D02*
X73614D01*
X66134Y99150D02*
Y102693D01*
X73614Y99150D02*
Y102693D01*
X260307Y94343D02*
X267787D01*
X260307Y97886D02*
X267787D01*
X260307Y94343D02*
Y97886D01*
X267787Y94343D02*
Y97886D01*
X270642Y94325D02*
X278122D01*
X270642Y97868D02*
X278122D01*
X270642Y94325D02*
Y97868D01*
X278122Y94325D02*
Y97868D01*
X203244Y224209D02*
X209543D01*
X203244Y236413D02*
X209543D01*
Y224209D02*
Y236413D01*
X203244Y224209D02*
Y236413D01*
X31929Y92047D02*
Y97953D01*
X43740Y92047D02*
Y97953D01*
X31929Y92047D02*
X43740D01*
X31929Y97953D02*
X43740D01*
X32102Y98413D02*
Y103925D01*
X43520Y98413D02*
Y103925D01*
X32102Y98413D02*
X43520D01*
X32102Y103925D02*
X43520D01*
X192972Y236217D02*
X198878D01*
X192972Y224406D02*
X198878D01*
X192972D02*
Y236217D01*
X198878Y224406D02*
Y236217D01*
X192346Y201193D02*
X198252D01*
X192346Y189382D02*
X198252D01*
X192346D02*
Y201193D01*
X198252Y189382D02*
Y201193D01*
X197941Y201957D02*
Y207862D01*
X186130Y201957D02*
Y207862D01*
X197941D01*
X186130Y201957D02*
X197941D01*
X198390Y216980D02*
Y222886D01*
X186579Y216980D02*
Y222886D01*
X198390D01*
X186579Y216980D02*
X198390D01*
X172268Y235929D02*
X178173D01*
X172268Y224118D02*
X178173D01*
X172268D02*
Y235929D01*
X178173Y224118D02*
Y235929D01*
X170709Y230232D02*
Y236138D01*
X158898Y230232D02*
Y236138D01*
X170709D01*
X158898Y230232D02*
X170709D01*
X158429Y230205D02*
Y236110D01*
X146618Y230205D02*
Y236110D01*
X158429D01*
X146618Y230205D02*
X158429D01*
X186547Y236154D02*
X192453D01*
X186547Y224343D02*
X192453D01*
X186547D02*
Y236154D01*
X192453Y224343D02*
Y236154D01*
X132059Y220197D02*
Y232008D01*
X137964Y220197D02*
Y232008D01*
X132059D02*
X137964D01*
X132059Y220197D02*
X137964D01*
X129942Y187958D02*
X141753D01*
X129942Y182053D02*
X141753D01*
Y187958D01*
X129942Y182053D02*
Y187958D01*
X129821Y181616D02*
X141632D01*
X129821Y175711D02*
X141632D01*
Y181616D01*
X129821Y175711D02*
Y181616D01*
X132969Y173425D02*
X144780D01*
X132969Y167520D02*
X144780D01*
Y173425D01*
X132969Y167520D02*
Y173425D01*
X145272Y167220D02*
Y179031D01*
X151177Y167220D02*
Y179031D01*
X145272D02*
X151177D01*
X145272Y167220D02*
X151177D01*
X154165Y167453D02*
X165976D01*
X154165Y173358D02*
X165976D01*
X154165Y167453D02*
Y173358D01*
X165976Y167453D02*
Y173358D01*
X166425D02*
X178236D01*
X166425Y167453D02*
X178236D01*
Y173358D01*
X166425Y167453D02*
Y173358D01*
M02*
